<svg fill="none" xmlns="http://www.w3.org/2000/svg" viewBox="0 0 1440 1024">
  <g clip-path="url(#clip0)">
    <path fill="#27292C" d="M0 0h1440v1024H0z"/>
    <circle cx="549.83" cy="1026.78" r="46.17" transform="rotate(-30 549.83 1026.78)" fill="#74AA63"/>
    <circle cx="502.07" cy="944.08" r="46.17" transform="rotate(-30 502.07 944.08)" fill="#74AA63"/>
    <path d="M535.78 1002.45l-51.94-15.77 64.07-37-12.13 52.77z" fill="#74AA63"/>
    <path d="M496.02 933.02L672 1238" stroke="#638A4E" stroke-width="2"/>
    <path d="M672 908v553.5" stroke="#638A4E" stroke-width="2"/>
    <path fill-rule="evenodd" clip-rule="evenodd" d="M715.75 909.33a38.63 38.63 0 11-49.93 36.28l-.14.1.2-1.6c.1-1.75.31-3.5.65-5.22l4.77-38.25 36.6 7.15c2.66.24 5.29.76 7.84 1.54h.01z" fill="#FAE0BE"/>
    <path fill-rule="evenodd" clip-rule="evenodd" d="M676.5 944a38.63 38.63 0 11-49.93-36.28l-.14-.1 1.58-.3c1.7-.46 3.42-.79 5.17-1l37.85-7.29 4.5 37.02c.6 2.6.93 5.26.98 7.94z" fill="#FAE0BE"/>
    <path fill-rule="evenodd" clip-rule="evenodd" d="M631.4 917.38a38.63 38.63 0 1119.07-58.7l.06-.17.78 1.4c.95 1.48 1.8 3.02 2.55 4.62l18.62 33.75L638.66 914a38.86 38.86 0 01-7.24 3.38h-.01z" fill="#FAE0BE"/>
    <path fill-rule="evenodd" clip-rule="evenodd" d="M642.79 866.26a38.63 38.63 0 1161.72 0h.17l-1.1 1.17a38.86 38.86 0 01-3.6 3.85l-26.33 28.13-25.41-27.3a38.8 38.8 0 01-5.45-5.84v-.01z" fill="#FAE0BE"/>
    <path fill-rule="evenodd" clip-rule="evenodd" d="M694.91 861.28a38.63 38.63 0 1119.07 58.7l.06.17-1.45-.68a38.78 38.78 0 01-4.77-2.23l-34.9-16.36 18.1-32.6a38.96 38.96 0 013.89-6.99z" fill="#FAE0BE"/>
    <path d="M669.46 874.65c.26-3.12 4.82-3.12 5.08 0 .21 2.56 3.64 3.24 4.81.96 1.43-2.78 5.65-1.04 4.7 1.94-.78 2.45 2.12 4.39 4.08 2.73 2.38-2.02 5.61 1.2 3.6 3.6-1.67 1.95.27 4.85 2.72 4.07 2.98-.95 4.72 3.26 1.94 4.7-2.28 1.17-1.6 4.6.96 4.8 3.12.27 3.12 4.83 0 5.1-2.56.2-3.24 3.63-.96 4.8 2.78 1.43 1.04 5.65-1.94 4.7-2.45-.78-4.39 2.12-2.73 4.08 2.02 2.38-1.2 5.61-3.6 3.6-1.95-1.67-4.85.27-4.07 2.72.95 2.98-3.26 4.72-4.7 1.94-1.17-2.28-4.6-1.6-4.8.96-.27 3.12-4.83 3.12-5.1 0-.2-2.56-3.63-3.24-4.8-.96-1.43 2.78-5.65 1.04-4.7-1.94.78-2.45-2.12-4.39-4.08-2.73-2.38 2.02-5.61-1.2-3.6-3.6 1.67-1.95-.27-4.85-2.72-4.07-2.98.95-4.72-3.26-1.94-4.7 2.28-1.17 1.6-4.6-.96-4.8-3.12-.27-3.12-4.83 0-5.1 2.56-.2 3.24-3.63.96-4.8-2.78-1.43-1.04-5.65 1.94-4.7 2.45.78 4.39-2.12 2.73-4.08-2.02-2.38 1.2-5.61 3.6-3.6 1.95 1.67 4.85-.27 4.07-2.72-.95-2.98 3.26-4.72 4.7-1.94 1.17 2.28 4.6 1.6 4.8-.96z" fill="#F4B442"/>
    <path d="M701.7 870.3L672 900" stroke="#DC8433" stroke-width="2"/>
    <circle cx="701.7" cy="870.3" r="6" transform="rotate(45 701.7 870.3)" fill="#F4B442"/>
    <path d="M710.8 883.93L672 900" stroke="#DC8433" stroke-width="2"/>
    <circle cx="710.8" cy="883.93" r="6" transform="rotate(67.5 710.8 883.93)" fill="#F4B442"/>
    <path d="M714 900h-42" stroke="#DC8433" stroke-width="2"/>
    <circle cx="714" cy="900" r="6" transform="rotate(90 714 900)" fill="#F4B442"/>
    <path d="M710.8 916.07L672 900" stroke="#DC8433" stroke-width="2"/>
    <circle cx="710.8" cy="916.07" r="6" transform="rotate(112.5 710.8 916.07)" fill="#F4B442"/>
    <path d="M701.7 929.7L672 900" stroke="#DC8433" stroke-width="2"/>
    <circle cx="701.7" cy="929.7" r="6" transform="rotate(135 701.7 929.7)" fill="#F4B442"/>
    <path d="M688.07 938.8L672 900" stroke="#DC8433" stroke-width="2"/>
    <circle cx="688.07" cy="938.8" r="6" transform="rotate(157.5 688.07 938.8)" fill="#F4B442"/>
    <path d="M672 942v-42" stroke="#DC8433" stroke-width="2"/>
    <circle cx="672" cy="942" r="6" transform="rotate(180 672 942)" fill="#F4B442"/>
    <path d="M655.93 938.8L672 900" stroke="#DC8433" stroke-width="2"/>
    <circle cx="655.93" cy="938.8" r="6" transform="rotate(-157.5 655.93 938.8)" fill="#F4B442"/>
    <path d="M642.3 929.7L672 900" stroke="#DC8433" stroke-width="2"/>
    <circle cx="642.3" cy="929.7" r="6" transform="rotate(-135 642.3 929.7)" fill="#F4B442"/>
    <path d="M633.2 916.07L672 900" stroke="#DC8433" stroke-width="2"/>
    <circle cx="633.2" cy="916.07" r="6" transform="rotate(-112.5 633.2 916.07)" fill="#F4B442"/>
    <path d="M630 900h42" stroke="#DC8433" stroke-width="2"/>
    <circle cx="630" cy="900" r="6" transform="rotate(-90 630 900)" fill="#F4B442"/>
    <path d="M633.2 883.93L672 900" stroke="#DC8433" stroke-width="2"/>
    <circle cx="633.2" cy="883.93" r="6" transform="rotate(-67.5 633.2 883.93)" fill="#F4B442"/>
    <path d="M642.3 870.3L672 900" stroke="#DC8433" stroke-width="2"/>
    <circle cx="642.3" cy="870.3" r="6" transform="rotate(-45 642.3 870.3)" fill="#F4B442"/>
    <path d="M655.93 861.2L672 900" stroke="#DC8433" stroke-width="2"/>
    <circle cx="655.93" cy="861.2" r="6" transform="rotate(-22.5 655.93 861.2)" fill="#F4B442"/>
    <path d="M672 858v42" stroke="#DC8433" stroke-width="2"/>
    <circle cx="672" cy="858" r="6" fill="#F4B442"/>
    <path d="M688.07 861.2L672 900" stroke="#DC8433" stroke-width="2"/>
    <circle cx="688.07" cy="861.2" r="6" transform="rotate(22.5 688.07 861.2)" fill="#F4B442"/>
    <ellipse rx="35.51" ry="35.52" transform="rotate(135 437.44 684.52)" fill="#74AA63"/>
    <path d="M1194.11 822.56l41.73 1.38-40.23 40.23-1.5-41.61z" fill="#74AA63"/>
    <path d="M1195.23 823.69c9.59 19.19 35.53 57.56 62.52 57.56" stroke="#638A4E" stroke-width="2"/>
    <path d="M1221 893.45h96.5c30.53 0 58.63-15.27 58.63-50.07v-28.93c0-30 15.87-36.45 46.87-36.45h344" stroke="#638A4E" stroke-width="2"/>
    <ellipse rx="35.51" ry="35.52" transform="scale(-1 1) rotate(-45 473.4 2024.37)" fill="#74AA63"/>
    <path d="M1256.11 964.34l41.73-1.38-40.23-40.24-1.5 41.62z" fill="#74AA63"/>
    <path d="M1257.23 963.2c9.59-19.18 35.53-57.55 62.52-57.55" stroke="#638A4E" stroke-width="2"/>
    <path d="M1297 547a56 56 0 01-56 56h-24v-24a56 56 0 0156-56h24v24z" fill="#74AA63"/>
    <path d="M1295.57 524.43c-25.71 14.4-77.14 48.83-77.14 77.14" stroke="#638A4E" stroke-width="2" stroke-linecap="round"/>
    <path d="M1227 497.5h96.5c30.53 0 58.63-15.26 58.63-50.07v-30.98c0-36.64 11.6-60.45 60.46-60.45H1773" stroke="#638A4E" stroke-width="2"/>
    <path d="M1296.5 524c8.5-1 25.5-7.5 25.5-25.5" stroke="#638A4E" stroke-width="2" stroke-linecap="round"/>
    <path d="M798.37-13.52L692.01 47.9" stroke="#D74A51" stroke-width="1.98"/>
    <path d="M806.6 17.19H683.78" stroke="#D74A51" stroke-width="1.98"/>
    <path d="M798.37 47.9L692.01-13.52" stroke="#D74A51" stroke-width="1.98"/>
    <path d="M775.9 70.37L714.49-36" stroke="#D74A51" stroke-width="1.98"/>
    <path d="M745.19 78.6V-44.22" stroke="#D74A51" stroke-width="1.98"/>
    <path d="M714.49 70.37L775.89-36" stroke="#D74A51" stroke-width="1.98"/>
    <path d="M692.01 47.9l106.36-61.41" stroke="#D74A51" stroke-width="1.98"/>
    <path d="M683.78 17.19H806.6" stroke="#D74A51" stroke-width="1.98"/>
    <path d="M692.01-13.52L798.37 47.9" stroke="#D74A51" stroke-width="1.98"/>
    <path d="M714.49-36l61.4 106.37" stroke="#D74A51" stroke-width="1.98"/>
    <path d="M745.19-44.22V78.6" stroke="#D74A51" stroke-width="1.98"/>
    <path d="M775.9-36L714.49 70.38" stroke="#D74A51" stroke-width="1.98"/>
    <path d="M804.6-21.57c5.63-2.7 10.2 5.2 5.04 8.73a5.06 5.06 0 00-1.7 6.37c2.7 5.64-5.22 10.2-8.75 5.05a5.06 5.06 0 00-6.36-1.71c-5.64 2.7-10.2-5.21-5.05-8.74a5.06 5.06 0 001.7-6.36c-2.7-5.64 5.22-10.21 8.75-5.05a5.06 5.06 0 006.36 1.7z" fill="#EC6973"/>
    <path d="M816.49 14.74c6.23.47 6.23 9.61 0 10.09a5.06 5.06 0 00-4.66 4.66c-.48 6.23-9.62 6.23-10.09 0a5.06 5.06 0 00-4.66-4.66c-6.23-.48-6.23-9.62 0-10.1a5.06 5.06 0 004.66-4.65c.48-6.24 9.62-6.24 10.09 0a5.06 5.06 0 004.66 4.66z" fill="#EC6973"/>
    <path d="M803.96 16.95a4 4 0 115.65 5.66 4 4 0 01-5.65-5.66z" fill="#F4B542" stroke="#DC8433" stroke-width="2"/>
    <path d="M808.64 52.13c5.16 3.53.59 11.45-5.05 8.74a5.06 5.06 0 00-6.36 1.7c-3.53 5.17-11.45.6-8.74-5.04a5.06 5.06 0 00-1.7-6.37c-5.17-3.52-.6-11.44 5.04-8.73a5.06 5.06 0 006.36-1.7c3.53-5.17 11.45-.6 8.74 5.04a5.06 5.06 0 001.7 6.36z" fill="#EC6973"/>
    <path d="M796.67 47.79a4 4 0 112.07 7.72 4 4 0 01-2.07-7.72z" fill="#F4B542" stroke="#DC8433" stroke-width="2"/>
    <path d="M783.14 80.59c2.7 5.64-5.21 10.2-8.74 5.04a5.06 5.06 0 00-6.37-1.7c-5.63 2.7-10.2-5.21-5.04-8.74a5.06 5.06 0 001.7-6.37c-2.7-5.63 5.21-10.2 8.74-5.04a5.06 5.06 0 006.37 1.7c5.63-2.7 10.2 5.22 5.04 8.74a5.06 5.06 0 00-1.7 6.37z" fill="#EC6973"/>
    <path d="M774.95 70.84a4 4 0 11-2.07 7.73 4 4 0 012.07-7.73z" fill="#F4B542" stroke="#DC8433" stroke-width="2"/>
    <path d="M746.83 92.49c-.48 6.23-9.62 6.23-10.1 0a5.06 5.06 0 00-4.65-4.66c-6.24-.48-6.24-9.62 0-10.1a5.06 5.06 0 004.66-4.65c.47-6.24 9.61-6.24 10.09 0a5.06 5.06 0 004.66 4.66c6.23.47 6.23 9.61 0 10.09a5.06 5.06 0 00-4.66 4.66z" fill="#EC6973"/>
    <path d="M744.61 79.95a4 4 0 11-5.66 5.66 4 4 0 015.66-5.66z" fill="#F4B542" stroke="#DC8433" stroke-width="2"/>
    <path d="M709.43 84.63c-3.52 5.17-11.44.6-8.73-5.04a5.06 5.06 0 00-1.71-6.37c-5.16-3.52-.6-11.44 5.04-8.73a5.06 5.06 0 006.37-1.71c3.53-5.16 11.44-.6 8.74 5.04a5.06 5.06 0 001.7 6.37c5.16 3.53.6 11.44-5.04 8.74a5.06 5.06 0 00-6.37 1.7z" fill="#EC6973"/>
    <path d="M713.78 72.67a4 4 0 11-7.73 2.07 4 4 0 017.73-2.07z" fill="#F4B542" stroke="#DC8433" stroke-width="2"/>
    <path d="M680.97 59.14c-5.63 2.7-10.2-5.21-5.04-8.74a5.06 5.06 0 001.7-6.37c-2.7-5.63 5.22-10.2 8.74-5.04a5.06 5.06 0 006.37 1.7c5.63-2.7 10.2 5.22 5.04 8.74a5.06 5.06 0 00-1.7 6.37c2.7 5.63-5.21 10.2-8.74 5.04a5.06 5.06 0 00-6.37-1.7z" fill="#EC6973"/>
    <path d="M690.72 50.95a4 4 0 11-7.73-2.07 4 4 0 017.73 2.07z" fill="#F4B542" stroke="#DC8433" stroke-width="2"/>
    <path d="M669.08 22.83c-6.24-.48-6.24-9.62 0-10.1a5.06 5.06 0 004.66-4.65c.47-6.24 9.61-6.24 10.09 0a5.06 5.06 0 004.66 4.66c6.23.47 6.23 9.61 0 10.09a5.06 5.06 0 00-4.66 4.66c-.48 6.23-9.62 6.23-10.1 0a5.06 5.06 0 00-4.65-4.66z" fill="#EC6973"/>
    <path d="M681.61 20.6a4 4 0 11-5.66-5.65 4 4 0 015.66 5.66z" fill="#F4B542" stroke="#DC8433" stroke-width="2"/>
    <path d="M676.93-14.57c-5.16-3.52-.6-11.44 5.04-8.73a5.06 5.06 0 006.37-1.71c3.53-5.16 11.44-.6 8.74 5.04a5.06 5.06 0 001.7 6.37c5.17 3.53.6 11.44-5.04 8.74a5.06 5.06 0 00-6.37 1.7c-3.52 5.16-11.44.6-8.73-5.04a5.06 5.06 0 00-1.71-6.37z" fill="#EC6973"/>
    <path d="M725.65-25.62c-1.15-6.14 7.68-8.5 9.75-2.61a5.06 5.06 0 005.7 3.3c6.15-1.16 8.52 7.67 2.62 9.74a5.06 5.06 0 00-3.3 5.7c1.16 6.15-7.67 8.52-9.74 2.62a5.06 5.06 0 00-5.71-3.3c-6.14 1.16-8.51-7.67-2.61-9.74a5.06 5.06 0 003.3-5.71z" fill="#EC6973"/>
    <path d="M706.65-6.62c-1.15-6.14 7.68-8.5 9.75-2.61a5.06 5.06 0 005.7 3.3c6.15-1.16 8.52 7.67 2.62 9.74a5.06 5.06 0 00-3.3 5.7c1.16 6.15-7.67 8.52-9.74 2.62a5.06 5.06 0 00-5.71-3.3c-6.14 1.16-8.51-7.67-2.61-9.74a5.06 5.06 0 003.3-5.71z" fill="#EC6973"/>
    <path d="M712.04 4.91a4 4 0 114-6.93 4 4 0 01-4 6.93z" fill="#F4B542" stroke="#DC8433" stroke-width="2"/>
    <path d="M699.65 19.38c-1.15-6.14 7.68-8.5 9.75-2.61a5.06 5.06 0 005.7 3.3c6.15-1.16 8.52 7.67 2.62 9.74a5.06 5.06 0 00-3.3 5.7c1.16 6.15-7.67 8.52-9.74 2.62a5.06 5.06 0 00-5.71-3.3c-6.14 1.16-8.51-7.67-2.61-9.74a5.06 5.06 0 003.3-5.71z" fill="#EC6973"/>
    <path d="M705.04 30.91a4 4 0 114-6.93 4 4 0 01-4 6.93z" fill="#F4B542" stroke="#DC8433" stroke-width="2"/>
    <path d="M719.65 39.38c-1.15-6.14 7.68-8.5 9.75-2.61a5.06 5.06 0 005.7 3.3c6.15-1.16 8.52 7.67 2.62 9.74a5.06 5.06 0 00-3.3 5.7c1.16 6.15-7.67 8.52-9.74 2.62a5.06 5.06 0 00-5.71-3.3c-6.14 1.16-8.51-7.67-2.61-9.74a5.06 5.06 0 003.3-5.71z" fill="#EC6973"/>
    <path d="M725.04 50.91a4 4 0 114-6.93 4 4 0 01-4 6.93z" fill="#F4B542" stroke="#DC8433" stroke-width="2"/>
    <path d="M745.65 47.38c-1.15-6.14 7.68-8.5 9.75-2.61a5.06 5.06 0 005.7 3.3c6.15-1.16 8.52 7.67 2.62 9.74a5.06 5.06 0 00-3.3 5.7c1.16 6.15-7.67 8.52-9.74 2.62a5.06 5.06 0 00-5.71-3.3c-6.14 1.16-8.51-7.67-2.61-9.74a5.06 5.06 0 003.3-5.71z" fill="#EC6973"/>
    <path d="M751.04 58.91a4 4 0 114-6.93 4 4 0 01-4 6.93z" fill="#F4B542" stroke="#DC8433" stroke-width="2"/>
    <path d="M766.65 28.38c-1.15-6.14 7.68-8.5 9.75-2.61a5.06 5.06 0 005.7 3.3c6.15-1.16 8.52 7.67 2.62 9.74a5.06 5.06 0 00-3.3 5.7c1.16 6.15-7.67 8.52-9.74 2.62a5.06 5.06 0 00-5.71-3.3c-6.14 1.16-8.51-7.67-2.61-9.74a5.06 5.06 0 003.3-5.71z" fill="#EC6973"/>
    <path d="M772.04 39.91a4 4 0 114-6.93 4 4 0 01-4 6.93z" fill="#F4B542" stroke="#DC8433" stroke-width="2"/>
    <path d="M772.65 2.38c-1.15-6.14 7.68-8.5 9.75-2.61a5.06 5.06 0 005.7 3.3c6.15-1.16 8.52 7.67 2.62 9.74a5.06 5.06 0 00-3.3 5.7c1.16 6.15-7.67 8.52-9.74 2.62a5.06 5.06 0 00-5.71-3.3c-6.14 1.16-8.51-7.67-2.61-9.74a5.06 5.06 0 003.3-5.71z" fill="#EC6973"/>
    <path d="M778.04 13.91a4 4 0 114-6.93 4 4 0 01-4 6.93z" fill="#F4B542" stroke="#DC8433" stroke-width="2"/>
    <path d="M753.65-20.62c-1.15-6.14 7.68-8.5 9.75-2.61a5.06 5.06 0 005.7 3.3c6.15-1.16 8.52 7.67 2.62 9.74a5.06 5.06 0 00-3.3 5.7c1.16 6.15-7.67 8.52-9.74 2.62a5.06 5.06 0 00-5.71-3.3c-6.14 1.16-8.51-7.67-2.61-9.74a5.06 5.06 0 003.3-5.71z" fill="#EC6973"/>
    <path d="M739.74 7.08c.47-6.24 9.61-6.24 10.09 0a5.06 5.06 0 004.66 4.66c6.23.47 6.23 9.61 0 10.09a5.06 5.06 0 00-4.66 4.66c-.48 6.23-9.62 6.23-10.1 0a5.06 5.06 0 00-4.65-4.66c-6.24-.48-6.24-9.62 0-10.1a5.06 5.06 0 004.66-4.65z" fill="#EC6973"/>
    <path d="M741.96 19.61a4 4 0 115.65-5.66 4 4 0 01-5.65 5.66z" fill="#F4B542" stroke="#DC8433" stroke-width="2"/>
    <path fill-rule="evenodd" clip-rule="evenodd" d="M58.2 913.2c17.14 8.8 36.45 26.02 53.03 48.83 30.45 41.92 23.77 72.45-3.37 65.92-1.97 27.67-33.28 24.75-63.73-17.17-15.92-21.9-26.16-44.63-29.66-63.25L.97 891.35a6.68 6.68 0 0110-7.25l47.22 29.1z" fill="#C86EAC"/>
    <path fill-rule="evenodd" clip-rule="evenodd" d="M102.17 945.25c-3.06 19.03-13.48 42.72-30.05 65.53-30.46 41.92-61.56 44.99-63.73 17.17-26.93 6.68-33.82-24-3.37-65.92 15.92-21.9 34.36-38.66 50.99-47.75l49.25-30.2a6.68 6.68 0 0110 7.26l-13.09 53.91z" fill="#C86EAC"/>
    <path fill-rule="evenodd" clip-rule="evenodd" d="M85.28 996.99c-19.04 2.96-44.8.37-71.61-8.34-49.28-16-61.81-44.64-36.02-55.3-14.68-23.55 12.37-39.59 61.65-23.58 25.75 8.37 47.4 20.74 61.17 33.74l43.95 37.51a6.68 6.68 0 01-3.83 11.75l-55.3 4.22z" fill="#C86EAC"/>
    <path fill-rule="evenodd" clip-rule="evenodd" d="M30.86 996.9c-8.7-17.19-14.2-42.48-14.2-70.67 0-51.82 23.35-72.59 41.46-51.35 17.86-21.24 41.47-.47 41.47 51.35 0 27.08-5.07 51.48-13.18 68.6l-22.1 53.39a6.68 6.68 0 01-12.35-.01l-21.1-51.3z" fill="#C86EAC"/>
    <path fill-rule="evenodd" clip-rule="evenodd" d="M14.11 945.12c13.67-13.59 36.02-26.63 62.84-35.35 49.27-16 76.24-.22 61.65 23.58 25.71 10.42 13.25 39.3-36.02 55.3-25.76 8.37-50.53 11.09-69.32 8.66l-57.6-4.51a6.68 6.68 0 01-3.81-11.75l42.26-35.93z" fill="#C86EAC"/>
    <path d="M51.54 922.79c.93-7.17 11.3-7.17 12.23 0a6.17 6.17 0 0010.6 3.44c4.96-5.25 13.35.85 9.9 7.2a6.17 6.17 0 006.54 9c7.1-1.32 10.3 8.54 3.78 11.64a6.17 6.17 0 000 11.14c6.53 3.1 3.32 12.96-3.78 11.63a6.17 6.17 0 00-6.55 9.02c3.46 6.34-4.93 12.44-9.9 7.19a6.17 6.17 0 00-10.59 3.44c-.93 7.17-11.3 7.17-12.23 0a6.17 6.17 0 00-10.6-3.44c-4.96 5.25-13.35-.85-9.9-7.19a6.17 6.17 0 00-6.54-9.01c-7.1 1.32-10.31-8.54-3.78-11.64a6.17 6.17 0 000-11.14c-6.53-3.1-3.33-12.96 3.78-11.63a6.17 6.17 0 006.55-9.02c-3.46-6.34 4.93-12.44 9.9-7.19a6.17 6.17 0 0010.59-3.44z" fill="#F4B442"/>
    <path d="M85.54 943.69l-55.59 32.1" stroke="#DC8433" stroke-width="2" stroke-linecap="round"/>
    <path d="M89.84 959.73H25.65" stroke="#DC8433" stroke-width="2" stroke-linecap="round"/>
    <path d="M85.54 975.78l-55.59-32.1" stroke="#DC8433" stroke-width="2" stroke-linecap="round"/>
    <path d="M73.8 987.53l-32.1-55.59" stroke="#DC8433" stroke-width="2" stroke-linecap="round"/>
    <path d="M57.75 991.83v-64.19" stroke="#DC8433" stroke-width="2" stroke-linecap="round"/>
    <path d="M41.7 987.53l32.1-55.59" stroke="#DC8433" stroke-width="2" stroke-linecap="round"/>
    <path d="M29.96 975.78l55.58-32.1" stroke="#DC8433" stroke-width="2" stroke-linecap="round"/>
    <path d="M25.65 959.73h64.2" stroke="#DC8433" stroke-width="2" stroke-linecap="round"/>
    <path d="M29.95 943.69l55.6 32.1" stroke="#DC8433" stroke-width="2" stroke-linecap="round"/>
    <path d="M41.7 931.94l32.1 55.59" stroke="#DC8433" stroke-width="2" stroke-linecap="round"/>
    <path fill-rule="evenodd" clip-rule="evenodd" d="M1459.84 87.35a32 32 0 100-52.7C1438.36 46.4 1394 57.27 1394 57.27v7.46s44.36 10.87 65.84 22.62z" fill="#EB5A35"/>
    <path fill-rule="evenodd" clip-rule="evenodd" d="M1416.07 140.33a32 32 0 1037.27-37.27c-23.51-6.87-62.55-30.56-62.55-30.56l-5.28 5.28s23.68 39.05 30.56 62.55z" fill="#EB5A35"/>
    <path fill-rule="evenodd" clip-rule="evenodd" d="M1347.65 146.84a32 32 0 1052.7 0C1388.6 125.36 1377.74 81 1377.74 81h-7.47s-10.87 44.36-22.62 65.84z" fill="#EB5A35"/>
    <path fill-rule="evenodd" clip-rule="evenodd" d="M1294.67 103.07a32 32 0 1037.27 37.27c6.88-23.5 30.56-62.56 30.56-62.56l-5.28-5.28s-39.05 23.69-62.55 30.57z" fill="#EB5A35"/>
    <path fill-rule="evenodd" clip-rule="evenodd" d="M1288.16 34.65a32 32 0 100 52.7C1309.64 75.6 1354 64.73 1354 64.73v-7.46s-44.36-10.87-65.84-22.62z" fill="#EB5A35"/>
    <path fill-rule="evenodd" clip-rule="evenodd" d="M1331.93-18.33a32 32 0 10-37.26 37.27c23.5 6.87 62.55 30.56 62.55 30.56l5.28-5.28s-23.69-39.05-30.57-62.55z" fill="#EB5A35"/>
    <path fill-rule="evenodd" clip-rule="evenodd" d="M1400.35-24.84a32 32 0 10-52.7 0C1359.4-3.36 1370.27 41 1370.27 41h7.46s10.87-44.36 22.62-65.84z" fill="#EB5A35"/>
    <path fill-rule="evenodd" clip-rule="evenodd" d="M1453.33 18.93a32 32 0 10-37.26-37.27c-6.88 23.5-30.57 62.56-30.57 62.56l5.28 5.28s39.05-23.69 62.55-30.57z" fill="#EB5A35"/>
    <path d="M1371.46 35.65c.26-3.12 4.82-3.12 5.08 0 .21 2.56 3.64 3.24 4.81.96 1.43-2.78 5.65-1.04 4.7 1.94-.78 2.45 2.12 4.39 4.08 2.73 2.38-2.02 5.61 1.2 3.59 3.6-1.66 1.95.28 4.85 2.73 4.07 2.98-.95 4.72 3.27 1.94 4.7-2.28 1.17-1.6 4.6.96 4.8 3.12.27 3.12 4.83 0 5.1-2.56.2-3.24 3.63-.96 4.8 2.78 1.43 1.04 5.65-1.94 4.7-2.45-.78-4.39 2.12-2.73 4.08 2.02 2.38-1.21 5.61-3.59 3.6-1.96-1.67-4.86.27-4.08 2.72.95 2.98-3.27 4.72-4.7 1.94-1.17-2.28-4.6-1.6-4.81.96-.26 3.12-4.82 3.12-5.08 0-.21-2.56-3.64-3.24-4.81-.96-1.43 2.78-5.65 1.04-4.7-1.94.78-2.45-2.12-4.39-4.08-2.73-2.38 2.02-5.61-1.2-3.59-3.6 1.66-1.95-.28-4.85-2.73-4.07-2.98.95-4.72-3.27-1.94-4.7 2.28-1.17 1.6-4.6-.96-4.8-3.12-.27-3.12-4.83 0-5.1 2.56-.2 3.24-3.63.96-4.8-2.78-1.43-1.04-5.65 1.94-4.7 2.45.78 4.39-2.12 2.73-4.08-2.02-2.38 1.21-5.61 3.59-3.6 1.96 1.67 4.86-.27 4.08-2.72-.95-2.98 3.27-4.72 4.7-1.94 1.17 2.28 4.6 1.6 4.81-.96z" fill="#F4B442"/>
    <path d="M1403.7 31.3L1374 61" stroke="#DC8433" stroke-width="2"/>
    <circle cx="1403.7" cy="31.3" r="6" transform="rotate(45 1403.7 31.3)" fill="#F4B442"/>
    <path d="M1412.8 44.93L1374 61" stroke="#DC8433" stroke-width="2"/>
    <circle cx="1412.8" cy="44.93" r="6" transform="rotate(67.5 1412.8 44.93)" fill="#F4B442"/>
    <path d="M1416 61h-42" stroke="#DC8433" stroke-width="2"/>
    <circle cx="1416" cy="61" r="6" transform="rotate(90 1416 61)" fill="#F4B442"/>
    <path d="M1412.8 77.07L1374 61" stroke="#DC8433" stroke-width="2"/>
    <circle cx="1412.8" cy="77.07" r="6" transform="rotate(112.5 1412.8 77.07)" fill="#F4B442"/>
    <path d="M1403.7 90.7L1374 61" stroke="#DC8433" stroke-width="2"/>
    <circle cx="1403.7" cy="90.7" r="6" transform="rotate(135 1403.7 90.7)" fill="#F4B442"/>
    <path d="M1390.07 99.8L1374 61" stroke="#DC8433" stroke-width="2"/>
    <circle cx="1390.07" cy="99.8" r="6" transform="rotate(157.5 1390.07 99.8)" fill="#F4B442"/>
    <path d="M1374 103V61" stroke="#DC8433" stroke-width="2"/>
    <circle cx="1374" cy="103" r="6" transform="rotate(180 1374 103)" fill="#F4B442"/>
    <path d="M1357.93 99.8L1374 61" stroke="#DC8433" stroke-width="2"/>
    <circle cx="1357.93" cy="99.8" r="6" transform="rotate(-157.5 1357.93 99.8)" fill="#F4B442"/>
    <path d="M1344.3 90.7L1374 61" stroke="#DC8433" stroke-width="2"/>
    <circle cx="1344.3" cy="90.7" r="6" transform="rotate(-135 1344.3 90.7)" fill="#F4B442"/>
    <path d="M1335.2 77.07L1374 61" stroke="#DC8433" stroke-width="2"/>
    <circle cx="1335.2" cy="77.07" r="6" transform="rotate(-112.5 1335.2 77.07)" fill="#F4B442"/>
    <path d="M1332 61h42" stroke="#DC8433" stroke-width="2"/>
    <circle cx="1332" cy="61" r="6" transform="rotate(-90 1332 61)" fill="#F4B442"/>
    <path d="M1335.2 44.93L1374 61" stroke="#DC8433" stroke-width="2"/>
    <circle cx="1335.2" cy="44.93" r="6" transform="rotate(-67.5 1335.2 44.93)" fill="#F4B442"/>
    <path d="M1344.3 31.3L1374 61" stroke="#DC8433" stroke-width="2"/>
    <circle cx="1344.3" cy="31.3" r="6" transform="rotate(-45 1344.3 31.3)" fill="#F4B442"/>
    <path d="M1357.93 22.2L1374 61" stroke="#DC8433" stroke-width="2"/>
    <circle cx="1357.93" cy="22.2" r="6" transform="rotate(-22.5 1357.93 22.2)" fill="#F4B442"/>
    <path d="M1374 19v42" stroke="#DC8433" stroke-width="2"/>
    <circle cx="1374" cy="19" r="6" fill="#F4B442"/>
    <path d="M1390.07 22.2L1374 61" stroke="#DC8433" stroke-width="2"/>
    <circle cx="1390.07" cy="22.2" r="6" transform="rotate(22.5 1390.07 22.2)" fill="#F4B442"/>
    <path d="M1253.6 527.36a33.24 33.24 0 00-53.78 39.08c10.79 14.85 30.42 9.68 37.58-4.82 16.17-2.45 26.99-19.4 16.2-34.26z" fill="#742FAB"/>
    <path d="M1189.93 495.88c-2.23 1.63 3.42 50.54 3.42 50.54l43.08-31.3s-44.26-20.86-46.5-19.24z" fill="#742FAB"/>
    <path d="M1184.37 566.16a33.24 33.24 0 00-53.78-39.07c-10.79 14.85.19 31.92 16.19 34.25 7.33 14.62 26.8 19.67 37.59 4.82z" fill="#742FAB"/>
    <path d="M1194.63 495.88c-2.23-1.62-47.01 18.87-47.01 18.87l43.09 31.3s6.16-48.54 3.92-50.17z" fill="#742FAB"/>
    <path d="M1126.08 512.3a33.24 33.24 0 0020.54-63.22c-17.46-5.67-30.31 10.05-27.57 26-11.65 11.48-10.43 31.55 7.03 37.23z" fill="#742FAB"/>
    <path d="M1196.09 500.35c.85-2.62-32.47-38.87-32.47-38.87l-16.46 50.65s48.07-9.15 48.93-11.78z" fill="#742FAB"/>
    <path d="M1159.28 440.23a33.24 33.24 0 0066.48 0c0-18.36-18.92-25.72-33.24-18.2-14.52-7.51-33.24-.16-33.24 18.2z" fill="#742FAB"/>
    <path d="M1192.28 503.12c2.77 0 26.95-42.9 26.95-42.9h-53.26s23.55 42.9 26.31 42.9z" fill="#742FAB"/>
    <path d="M1238.09 449.53a33.25 33.25 0 0020.55 63.23c17.45-5.68 18.6-25.95 7.03-37.24 2.66-16.13-10.12-31.66-27.58-25.99z" fill="#742FAB"/>
    <path d="M1188.48 500.35c.85 2.63 49.12 12.37 49.12 12.37l-16.46-50.65s-33.51 35.65-32.66 38.28z" fill="#742FAB"/>
    <path d="M1188.21 476.19c.58-4.44 7-4.44 7.58 0a3.82 3.82 0 006.56 2.13c3.07-3.25 8.26.52 6.12 4.45a3.82 3.82 0 004.06 5.58c4.39-.82 6.38 5.28 2.34 7.2a3.82 3.82 0 000 6.9c4.04 1.92 2.05 8.02-2.34 7.2a3.82 3.82 0 00-4.06 5.58c2.14 3.93-3.05 7.7-6.12 4.45a3.82 3.82 0 00-6.56 2.13c-.58 4.44-7 4.44-7.58 0a3.82 3.82 0 00-6.56-2.13c-3.07 3.25-8.26-.52-6.12-4.45a3.82 3.82 0 00-4.06-5.58c-4.39.82-6.38-5.28-2.34-7.2a3.82 3.82 0 000-6.9c-4.04-1.92-2.05-8.02 2.34-7.2 3.17.6 5.6-2.75 4.06-5.58-2.14-3.93 3.05-7.7 6.12-4.45a3.82 3.82 0 006.56-2.13z" fill="#EED2F8" stroke="#824E8A" stroke-width="2"/>
    <circle cx="1174" cy="894" r="64" fill="#BD2A31"/>
    <path fill-rule="evenodd" clip-rule="evenodd" d="M1141.35 894.18a32 32 0 0032-32 32 32 0 0032 32 32 32 0 00-32 32 32 32 0 00-32-32z" fill="#93141A"/>
    <path d="M1173.98 894.7c-.75-17.97-.45-56.07 6.76-64.7" stroke="#93141A" stroke-width="2" stroke-linecap="round"/>
    <path d="M1173.7 895.04c17.59-.9 54.86-.54 63.3 8.1" stroke="#93141A" stroke-width="2" stroke-linecap="round"/>
    <path d="M1173.37 894.7c.9 17.59.54 54.86-8.11 63.3" stroke="#93141A" stroke-width="2" stroke-linecap="round"/>
    <path d="M1173.7 894.37c-17.97.9-56.07.54-64.7-8.1" stroke="#93141A" stroke-width="2" stroke-linecap="round"/>
    <ellipse rx="35.51" ry="35.52" transform="matrix(-.70711 .7071 .70711 .7071 213.23 141.22)" fill="#3C652F"/>
    <path d="M249.9 177.9l-1.39-41.74-40.23 40.24 41.61 1.5z" fill="#3C652F"/>
    <path d="M248.76 176.77c-19.19-9.6-57.56-35.53-57.56-62.52" stroke="#638A4E" stroke-width="2"/>
    <ellipse rx="35.51" ry="35.52" transform="rotate(45 -100.77 184.26)" fill="#3C652F"/>
    <path d="M64.1 161.9l1.4-41.74 40.22 40.24-41.61 1.5z" fill="#3C652F"/>
    <path d="M65.24 160.77c19.19-9.6 57.56-35.53 57.56-62.52" stroke="#638A4E" stroke-width="2"/>
    <path d="M122.5 98.5l37-37" stroke="#638A4E" stroke-width="2" stroke-linecap="round"/>
    <path d="M191 114.5l-31.5-31" stroke="#638A4E" stroke-width="2" stroke-linecap="round"/>
    <path d="M159.5 218V49.5C159.5 14.76 180-6 218-6h153" stroke="#638A4E" stroke-width="2"/>
    <path d="M82.63 318.37c18.36-11.28 59.29-42.28 76.14-76.14l-76.14 76.14z" fill="white"/>
    <path d="M82.63 318.37c11.28-18.36 42.28-59.29 76.14-76.14l-76.14 76.14z" fill="white"/>
    <path d="M159.24 241.76c18.35-11.27 59.28-42.27 76.13-76.13l-76.13 76.13z" fill="white"/>
    <path d="M159.24 241.76c11.27-18.35 42.27-59.28 76.13-76.13l-76.13 76.13z" fill="white"/>
    <path d="M59.22 283.33c21.27-3.39 70.95-16.38 99.47-41.2l-99.47 41.2z" fill="white"/>
    <path d="M59.22 283.33c17.44-12.65 61.75-38.6 99.47-41.2l-99.47 41.2z" fill="white"/>
    <path d="M159.3 241.87c21.28-3.39 70.95-16.37 99.48-41.2l-99.47 41.2z" fill="white"/>
    <path d="M159.3 241.87c17.44-12.64 61.75-38.59 99.48-41.2l-99.47 41.2z" fill="white"/>
    <path d="M51 242c20.95 5.01 71.81 12.02 107.67 0H51z" fill="white"/>
    <path d="M51 242c20.95-5.01 71.81-12.02 107.67 0H51z" fill="white"/>
    <path d="M159.33 242c20.95 5.01 71.81 12.02 107.67 0H159.33z" fill="white"/>
    <path d="M159.33 242c20.95-5.01 71.81-12.02 107.67 0H159.33z" fill="white"/>
    <path d="M59.22 200.67c17.44 12.65 61.75 38.59 99.47 41.2l-99.47-41.2z" fill="white"/>
    <path d="M59.22 200.67c21.27 3.39 70.95 16.37 99.47 41.2l-99.47-41.2z" fill="white"/>
    <path d="M159.3 242.13c17.44 12.64 61.75 38.59 99.48 41.2l-99.48-41.2z" fill="white"/>
    <path d="M159.3 242.13c21.28 3.38 70.95 16.37 99.48 41.2l-99.47-41.2z" fill="white"/>
    <path d="M82.63 165.63c11.27 18.36 42.28 59.28 76.13 76.13l-76.13-76.13z" fill="white"/>
    <path d="M82.63 165.63c18.36 11.27 59.28 42.28 76.13 76.13l-76.13-76.13z" fill="white"/>
    <path d="M159.23 242.23c11.28 18.36 42.28 59.29 76.14 76.14l-76.14-76.14z" fill="white"/>
    <path d="M159.23 242.23c18.36 11.28 59.29 42.28 76.14 76.14l-76.14-76.14z" fill="white"/>
    <path d="M117.67 142.22c3.39 21.27 16.37 70.95 41.2 99.47l-41.2-99.47z" fill="white"/>
    <path d="M117.67 142.22c12.64 17.44 38.59 61.75 41.2 99.47l-41.2-99.47z" fill="white"/>
    <path d="M159.13 242.3c3.38 21.28 16.37 70.95 41.2 99.48l-41.2-99.47z" fill="white"/>
    <path d="M159.13 242.3c12.64 17.44 38.59 61.75 41.2 99.48l-41.2-99.47z" fill="white"/>
    <path d="M159 134c-5.01 20.95-12.03 71.81 0 107.67V134z" fill="white"/>
    <path d="M159 134c5 20.95 12.02 71.81 0 107.67V134z" fill="white"/>
    <path d="M159 242.33c-5.01 20.95-12.03 71.81 0 107.67V242.33z" fill="white"/>
    <path d="M159 242.33c5 20.95 12.02 71.81 0 107.67V242.33z" fill="white"/>
    <path d="M200.33 142.22c-12.65 17.44-38.6 61.75-41.2 99.47l41.2-99.47z" fill="white"/>
    <path d="M200.33 142.22c-3.4 21.27-16.38 70.95-41.2 99.47l41.2-99.47z" fill="white"/>
    <path d="M158.87 242.3c-12.65 17.44-38.6 61.75-41.2 99.48l41.2-99.47z" fill="white"/>
    <path d="M158.87 242.3c-3.39 21.28-16.37 70.96-41.2 99.48l41.2-99.47z" fill="white"/>
    <path d="M235.36 165.63c-18.35 11.27-59.28 42.28-76.13 76.13l76.13-76.13z" fill="white"/>
    <path d="M235.36 165.63c-11.27 18.36-42.28 59.28-76.13 76.13l76.13-76.13z" fill="white"/>
    <path d="M158.76 242.23c-18.35 11.28-59.28 42.28-76.13 76.14l76.13-76.14z" fill="white"/>
    <path d="M158.76 242.23c-11.27 18.36-42.28 59.29-76.13 76.14l76.13-76.14z" fill="white"/>
    <path d="M258.77 200.67c-21.27 3.39-70.94 16.38-99.47 41.2l99.47-41.2z" fill="white"/>
    <path d="M258.77 200.67c-17.43 12.65-61.74 38.6-99.47 41.2l99.47-41.2z" fill="white"/>
    <path d="M158.7 242.13c-21.28 3.39-70.96 16.37-99.48 41.2l99.47-41.2z" fill="white"/>
    <path d="M158.69 242.13c-17.44 12.64-61.75 38.59-99.47 41.2l99.47-41.2z" fill="white"/>
    <path d="M267 242c-20.95-5.01-71.82-12.02-107.67 0H267z" fill="white"/>
    <path d="M267 242c-20.95 5.01-71.82 12.02-107.67 0H267z" fill="white"/>
    <path d="M158.67 242c-20.95-5.01-71.82-12.02-107.67 0h107.67z" fill="white"/>
    <path d="M158.67 242c-20.95 5.01-71.82 12.02-107.67 0h107.67z" fill="white"/>
    <path d="M258.78 283.33c-17.44-12.65-61.75-38.6-99.48-41.2l99.48 41.2z" fill="white"/>
    <path d="M258.78 283.33c-21.28-3.39-70.95-16.38-99.47-41.2l99.47 41.2z" fill="white"/>
    <path d="M158.7 241.87c-17.45-12.64-61.76-38.59-99.48-41.2l99.47 41.2z" fill="white"/>
    <path d="M158.7 241.87c-21.28-3.39-70.96-16.37-99.48-41.2l99.47 41.2z" fill="white"/>
    <path d="M235.36 318.37c-11.27-18.36-42.28-59.29-76.13-76.14l76.13 76.14z" fill="white"/>
    <path d="M235.36 318.37c-18.35-11.28-59.28-42.28-76.13-76.14l76.13 76.14z" fill="white"/>
    <path d="M158.76 241.76c-11.27-18.35-42.28-59.28-76.13-76.13l76.13 76.13z" fill="white"/>
    <path d="M158.76 241.76c-18.35-11.27-59.28-42.27-76.13-76.13l76.13 76.13z" fill="white"/>
    <path d="M200.32 341.78c-3.38-21.27-16.37-70.95-41.2-99.47l41.2 99.47z" fill="white"/>
    <path d="M200.32 341.78c-12.64-17.44-38.59-61.75-41.2-99.47l41.2 99.47z" fill="white"/>
    <path d="M158.87 241.7c-3.4-21.28-16.38-70.95-41.2-99.48l41.2 99.47z" fill="white"/>
    <path d="M158.87 241.7c-12.65-17.44-38.6-61.75-41.2-99.48l41.2 99.47z" fill="white"/>
    <path d="M159 350c5-20.95 12.02-71.82 0-107.67V350z" fill="white"/>
    <path d="M159 350c-5.01-20.95-12.03-71.82 0-107.67V350z" fill="white"/>
    <path d="M159 241.67c5-20.95 12.02-71.82 0-107.67v107.67z" fill="white"/>
    <path d="M159 241.67c-5.01-20.95-12.03-71.82 0-107.67v107.67z" fill="white"/>
    <path d="M117.67 341.78c12.65-17.44 38.6-61.75 41.2-99.47l-41.2 99.47z" fill="white"/>
    <path d="M117.67 341.78c3.39-21.27 16.37-70.95 41.2-99.47l-41.2 99.47z" fill="white"/>
    <path d="M159.13 241.7c12.64-17.44 38.59-61.75 41.2-99.48l-41.2 99.47z" fill="white"/>
    <path d="M159.13 241.7c3.39-21.28 16.37-70.96 41.2-99.48l-41.2 99.47z" fill="white"/>
    <path d="M157.23 224.35c.18-2.17 3.36-2.17 3.54 0 .15 1.78 2.53 2.25 3.35.66 1-1.94 3.94-.72 3.27 1.36-.54 1.7 1.48 3.05 2.84 1.9 1.66-1.41 3.91.84 2.5 2.5-1.15 1.36.2 3.38 1.9 2.84 2.08-.67 3.3 2.27 1.36 3.27-1.6.82-1.12 3.2.66 3.35 2.17.18 2.17 3.36 0 3.54-1.78.15-2.25 2.53-.66 3.35 1.94 1 .72 3.94-1.36 3.27-1.7-.54-3.05 1.48-1.9 2.84 1.41 1.66-.84 3.91-2.5 2.5-1.36-1.15-3.38.2-2.84 1.9.67 2.08-2.27 3.3-3.27 1.36-.82-1.6-3.2-1.12-3.35.66-.18 2.18-3.36 2.18-3.54 0-.15-1.78-2.53-2.25-3.35-.66-1 1.94-3.94.72-3.27-1.36.54-1.7-1.48-3.05-2.84-1.9-1.66 1.41-3.91-.84-2.5-2.5 1.15-1.36-.2-3.38-1.9-2.84-2.08.67-3.3-2.27-1.36-3.27 1.6-.82 1.12-3.2-.66-3.35-2.17-.18-2.17-3.36 0-3.54 1.78-.15 2.25-2.53.66-3.35-1.94-1-.72-3.94 1.36-3.27 1.7.54 3.05-1.48 1.9-2.84-1.41-1.66.84-3.91 2.5-2.5 1.36 1.15 3.38-.2 2.84-1.9-.67-2.08 2.27-3.3 3.27-1.36.82 1.6 3.2 1.12 3.35-.66z" fill="#F4B542" stroke="#638A4E" stroke-width="2"/>
  </g>
  <defs>
    <clipPath id="clip0">
      <path fill="white" d="M0 0h1440v1024H0z"/>
    </clipPath>
  </defs>
</svg>
