<svg fill="none" xmlns="http://www.w3.org/2000/svg" viewBox="0 0 1440 1024">
  <g clip-path="url(#clip0)">
    <path fill="white" d="M0 0h1440v1024H0z"/>
    <path fill="#EEF4FE" d="M0 0h1440v1024H0z"/>
    <path d="M.000915.000023L.0009 420 785.32 702.711c11.07 3.986 23.448 1.132 31.656-7.299l459.904-472.373c4-4.103 9.08-6.977 14.66-8.282L1440 180V.000062L.000915.000022z" fill="#F66060"/>
    <path d="M1440 1024V428.973l-309.9 425.151c-6.26 8.582-16.59 13.217-27.16 12.187l-587.582-57.244c-10.19-.992-20.183 3.28-26.505 11.333L329 1024h1111z" fill="#D3DAE9"/>
  </g>
  <defs>
    <clipPath id="clip0">
      <path fill="white" d="M0 0h1440v1024H0z"/>
    </clipPath>
  </defs>
</svg>
