<svg width="1920" height="1080" viewBox="0 0 1920 1080" fill="none" xmlns="http://www.w3.org/2000/svg">
<g clip-path="url(#clip0)">
<rect width="1920" height="1080" fill="#28272C"/>
<path d="M117 1032L167 1046L5 1208L-45 1194L117 1032Z" fill="#483C57"/>
<path d="M-60 1144L102 982L117 1032L-45 1194L-60 1144Z" fill="#8B76A5"/>
<path d="M102 982L152 996L167 1046L117 1032L102 982Z" fill="#C6B9D7"/>
<path d="M246 903L296 917L134 1079L84 1065L246 903Z" fill="#483C57"/>
<path d="M69 1015L231 853L246 903L84 1065L69 1015Z" fill="#8B76A5"/>
<path d="M231 853L281 867L296 917L246 903L231 853Z" fill="#C6B9D7"/>
<path d="M346 608L396 622L234 784L184 770L346 608Z" fill="#483C57"/>
<path d="M169 720L331 558L346 608L184 770L169 720Z" fill="#8B76A5"/>
<path d="M331 558L381 572L396 622L346 608L331 558Z" fill="#C6B9D7"/>
<path d="M85 414L135 428L-27 590L-77 576L85 414Z" fill="#483C57"/>
<path d="M-92 526L70 364L85 414L-77 576L-92 526Z" fill="#8B76A5"/>
<path d="M70 364L120 378L135 428L85 414L70 364Z" fill="#C6B9D7"/>
<path d="M541 803L591 817L429 979L379 965L541 803Z" fill="#483C57"/>
<path d="M364 915L526 753L541 803L379 965L364 915Z" fill="#8B76A5"/>
<path d="M526 753L576 767L591 817L541 803L526 753Z" fill="#C6B9D7"/>
<path d="M1745 769L1795 783L1758 820L1708 806L1745 769Z" fill="#483C57"/>
<path d="M1693 756L1730 719L1745 769L1708 806L1693 756Z" fill="#8B76A5"/>
<path d="M1730 719L1780 733L1795 783L1745 769L1730 719Z" fill="#C6B9D7"/>
<path d="M1713 281L1763 295L1726 332L1676 318L1713 281Z" fill="#483C57"/>
<path d="M1661 268L1698 231L1713 281L1676 318L1661 268Z" fill="#8B76A5"/>
<path d="M1698 231L1748 245L1763 295L1713 281L1698 231Z" fill="#C6B9D7"/>
<path d="M119 835L169 849L132 886L82 872L119 835Z" fill="#483C57"/>
<path d="M67 822L104 785L119 835L82 872L67 822Z" fill="#8B76A5"/>
<path d="M104 785L154 799L169 849L119 835L104 785Z" fill="#C6B9D7"/>
<path d="M461 688L511 702L474 739L424 725L461 688Z" fill="#483C57"/>
<path d="M409 675L446 638L461 688L424 725L409 675Z" fill="#8B76A5"/>
<path d="M446 638L496 652L511 702L461 688L446 638Z" fill="#C6B9D7"/>
<path d="M656 103L706 117L669 154L619 140L656 103Z" fill="#483C57"/>
<path d="M604 90L641 53L656 103L619 140L604 90Z" fill="#8B76A5"/>
<path d="M641 53L691 67L706 117L656 103L641 53Z" fill="#C6B9D7"/>
<path d="M378 771L428 785L266 947L216 933L378 771Z" fill="#483C57"/>
<path d="M201 883L363 721L378 771L216 933L201 883Z" fill="#8B76A5"/>
<path d="M363 721L413 735L428 785L378 771L363 721Z" fill="#C6B9D7"/>
<path d="M572 187L622 201L460 363L410 349L572 187Z" fill="#483C57"/>
<path d="M395 299L557 137L572 187L410 349L395 299Z" fill="#8B76A5"/>
<path d="M557 137L607 151L622 201L572 187L557 137Z" fill="#C6B9D7"/>
<path d="M573 966L623 980L461 1142L411 1128L573 966Z" fill="#483C57"/>
<path d="M396 1078L558 916L573 966L411 1128L396 1078Z" fill="#8B76A5"/>
<path d="M558 916L608 930L623 980L573 966L558 916Z" fill="#C6B9D7"/>
<path d="M670 479L720 493L558 655L508 641L670 479Z" fill="#483C57"/>
<path d="M493 591L655 429L670 479L508 641L493 591Z" fill="#8B76A5"/>
<path d="M655 429L705 443L720 493L670 479L655 429Z" fill="#C6B9D7"/>
<path d="M1937 57L1987 71L1825 233L1775 219L1937 57Z" fill="#483C57"/>
<path d="M1760 169L1922 7L1937 57L1775 219L1760 169Z" fill="#8B76A5"/>
<path d="M1254 -40L1304 -26L1142 136L1092 122L1254 -40Z" fill="#483C57"/>
<path d="M1077 72L1239 -90L1254 -40L1092 122L1077 72Z" fill="#8B76A5"/>
<path d="M1351 968L1401 982L1239 1144L1189 1130L1351 968Z" fill="#483C57"/>
<path d="M1174 1080L1336 918L1351 968L1189 1130L1174 1080Z" fill="#8B76A5"/>
<path d="M1336 918L1386 932L1401 982L1351 968L1336 918Z" fill="#C6B9D7"/>
</g>
<defs>
<clipPath id="clip0">
<rect width="1920" height="1080" fill="white"/>
</clipPath>
</defs>
</svg>
