<svg width="1920" height="1080" viewBox="0 0 1920 1080" fill="none" xmlns="http://www.w3.org/2000/svg">
<rect width="1920" height="1080" fill="#F2F1ED"/>
<mask id="mask0" mask-type="alpha" maskUnits="userSpaceOnUse" x="0" y="0" width="1920" height="1080">
<rect width="1920" height="1080" transform="matrix(-1 0 0 1 1920 0)" fill="#C4C4C4"/>
</mask>
<g mask="url(#mask0)">
<path d="M-47.3943 -47.3945L-346 251.211L232.174 829.385C314.631 911.842 448.322 911.842 530.779 829.385L680.082 680.082L-47.3943 -47.3945Z" fill="#F9FCFD"/>
<path d="M915.823 1513.04L1214.43 1214.43L680.082 680.083L530.779 829.385C448.321 911.843 448.321 1045.53 530.779 1127.99L915.823 1513.04Z" fill="#8B76A5"/>
<path d="M2037.82 680.034L2336.43 381.428L1802.08 -152.918L1652.78 -3.61568C1570.32 78.842 1570.32 212.532 1652.78 294.99L2037.82 680.034Z" fill="#FF5959"/>
<path d="M159.212 -438L-139.394 -139.394L530.779 530.779C613.237 613.237 746.927 613.237 829.385 530.779V530.779C911.843 448.321 911.843 314.631 829.385 232.173L159.212 -438Z" fill="#FF5959"/>
<path d="M680.082 680.082L515.827 515.827C441.627 441.627 441.627 321.326 515.827 247.126L680.082 82.8707L829.385 232.173C911.842 314.631 911.842 448.322 829.385 530.779L680.082 680.082Z" fill="#EB4F4F"/>
</g>
</svg>
