<svg fill="none" xmlns="http://www.w3.org/2000/svg" viewBox="0 0 1440 1024">
  <g clip-path="url(#clip0)">
    <path fill="#0A71C5" d="M0 0h1440v1024H0z"/>
    <path d="M1440 0H0v1024h1440V0z" fill="#1FBDC1"/>
    <path d="M290.474 569.292c114.557 0 207.424-93.777 207.424-209.457 0-115.679-92.867-209.456-207.424-209.456S83.0508 244.156 83.0508 359.835c0 115.68 92.8662 209.457 207.4232 209.457z" fill="url(#paint0_linear)"/>
    <path d="M1297.12 824.05c114.55 0 207.42-93.776 207.42-209.456 0-115.679-92.87-209.456-207.42-209.456-114.56 0-207.43 93.777-207.43 209.456 0 115.68 92.87 209.456 207.43 209.456z" fill="url(#paint1_linear)"/>
    <path d="M348.98 316.412c-2.394 0-4.76-.913-6.595-2.765-3.643-3.679-3.643-9.614 0-13.293L582.597 57.7875c3.643-3.6789 9.521-3.6789 13.164 0 3.643 3.6789 3.643 9.6135 0 13.2924L355.548 313.647c-1.808 1.852-4.175 2.765-6.568 2.765z" fill="#0A71C5"/>
    <path d="M-40.1528 803.373c-.3457 0-.6914-.134-.9307-.403-.5319-.537-.5319-1.369 0-1.906L302.841 453.769c.532-.537 1.356-.537 1.888 0 .532.537.532 1.37 0 1.907L-39.222 802.97c-.2394.269-.5851.403-.9308.403z" fill="#0A71C5"/>
    <path d="M1277.07 568.835c-.35 0-.69-.135-.93-.403-.53-.537-.53-1.37 0-1.907l356.34-359.835c.53-.537 1.36-.537 1.89 0 .53.537.53 1.369 0 1.906l-356.34 359.836c-.27.268-.62.403-.96.403z" fill="#0A71C5"/>
    <path d="M1172.48 413.542c-6.81 0-13.62-2.632-18.8-7.868-10.37-10.5-10.37-27.498 0-37.971L1510.02 7.8678c10.4-10.47282 27.23-10.47282 37.6 0 10.37 10.4997 10.37 27.4979 0 37.9707L1191.28 405.674c-5.19 5.236-11.99 7.868-18.8 7.868z" fill="#0A71C5"/>
    <path d="M112.505 982.861c-6.807 0-13.6152-2.632-18.8008-7.868-10.3712-10.5-10.3712-27.498 0-37.971L450.047 577.187c10.398-10.473 27.231-10.473 37.602 0 10.372 10.499 10.372 27.498 0 37.97L131.306 974.993c-5.185 5.263-11.993 7.868-18.801 7.868z" fill="#0A71C5"/>
    <path d="M1087.38 943.439c-.69 0-1.36-.268-1.89-.778-1.03-1.048-1.03-2.739 0-3.787l263.48-266.063c1.04-1.047 2.72-1.047 3.75 0 1.04 1.047 1.04 2.739 0 3.786l-263.48 266.064c-.5.51-1.17.778-1.86.778z" fill="#0A71C5"/>
    <path d="M1004.94 724.585c-2.39 0-4.76-.913-6.592-2.766-3.644-3.679-3.644-9.614 0-13.293l185.272-187.087c3.64-3.679 9.52-3.679 13.16 0 3.65 3.679 3.65 9.613 0 13.292l-185.27 187.088c-1.81 1.853-4.17 2.766-6.57 2.766z" fill="#0A71C5"/>
    <path d="M582.119 224.682c-.346 0-.692-.135-.931-.403-.532-.537-.532-1.37 0-1.907l84.219-85.044c.532-.537 1.357-.537 1.888 0 .532.537.532 1.369 0 1.906l-84.219 85.045c-.266.268-.612.403-.957.403z" fill="#0A71C5"/>
    <path d="M52.0445 448.908c-.3457 0-.6914-.134-.9308-.403-.5318-.537-.5318-1.369 0-1.907L325.897 169.123c.532-.538 1.356-.538 1.888 0 .532.537.532 1.369 0 1.906L52.9752 448.505c-.2659.269-.6116.403-.9307.403z" fill="#0A71C5"/>
  </g>
  <defs>
    <linearGradient id="paint0_linear" x1="429.631" y1="500.347" x2="64.8321" y2="139.088" gradientUnits="userSpaceOnUse">
      <stop stop-color="#21B6C5"/>
      <stop offset="1" stop-color="#11EA9E"/>
    </linearGradient>
    <linearGradient id="paint1_linear" x1="1157.98" y1="474.093" x2="1522.78" y2="835.352" gradientUnits="userSpaceOnUse">
      <stop stop-color="#21B6C5"/>
      <stop offset="1" stop-color="#11EA9E"/>
    </linearGradient>
    <clipPath id="clip0">
      <path fill="white" d="M0 0h1440v1024H0z"/>
    </clipPath>
  </defs>
</svg>
