<svg fill="none" xmlns="http://www.w3.org/2000/svg" viewBox="0 0 1440 1024">
  <g clip-path="url(#clip0)">
    <path fill="#F4F0ED" d="M0 0h1440v1024H0z"/>
    <path d="M234.63 856.76c-2.41 11.18 3.56 21.96 6.85 25.94-2.18 6.36-6.84 17.35-8.1 10.47-1.27-6.88-11.13-21.96-15.9-28.64-18.17-20.65-32.22-.28-29.83 12.27 1.91 10.04 24.75 24.84 35.94 30.98l-25.04 26.04c.52 2.87.86 6.43-1.98-2.25-3.56-10.86-22.49-47.49-40.37-33.75-14.3 11-10.58 24.64-5.3 30.65 12.01 13.64 23.5 19.28 30.76 20.22-7.61 8.25-22.7 23.7-22.14 19.49.69-5.27-5.43-20.54-18.97-35.92-10.84-12.31-25.8-14.6-29.24-8.24-10.42 35.82 27.87 52.08 30.84 55.46 2.38 2.7-18.5 14.29-29.25 19.74.64-2.55-.06-11.26-7.93-25.65-9.84-17.99-26.92-20.1-37.17-5.91-7.95 10.99 12.06 33.12 24.5 43.71l-73.27 37.86 15.03 8.75 66.16-37.6c.6 24.13 15.2 33.92 17.9 36.21 2.68 2.3 19.17 10.43 24.8-11.17 5.62-21.61-30.28-41.96-25.06-40.57 4.18 1.12 22.56-11.2 31.23-17.5 17.29 40.08 40.47 37.65 49.45 35.74 8.97-1.9 4.87-20.94-3.8-29.29-6.95-6.67-23.07-16.1-30.27-19.99l22.15-19.5c1.76 3.78 8.86 14.32 23.12 26.28 14.26 11.96 23.76 7.06 26.73 3.12 3.92-4.13 8.56-15.4-4.27-27.56-12.83-12.15-26.73-14.21-32.07-13.73l31.13-32.74c15.02 26.75 29.7 25.16 35.15 21.02 4.13-1.86 11.61-8.76 8.45-21.43s-22.17-15.34-31.28-15.1l4.53-9.98c5.86 2.61 20.31 4.9 31.26-6.87 13.7-14.72 7.9-34.93-3.85-45.24-9.4-8.25-20.94-3.1-25.54.5-8.75 3.98-13.88 17.78-15.35 24.18z" fill="#F3A361"/>
    <path d="M135.96 852.3c-3.53 2.39-14.83 14.2-20.26 20.51l7.69-.94c6.6-.51 26.27 6.28 35.56 9.9 20 9.3 33.5 25.04 26.26 42.74-7.24 17.7-30.2 11.2-40.4 10.53-10.2-.67-36.08-15.52-42.77-19.82l-12.12-7.78-16.58 25.82c1.37-.3 6.94.23 18.25 4.67 14.15 5.55 41.58 22.58 55.66 39.27 14.08 16.68 4.72 31.26-8.96 36.01-13.67 4.75-31.26-8.31-38.37-12.87l-27.17-17.45c-12.32-3.8-12.7 12.43-16.45 18.26-3.74 5.84.09 26.53-1.98 33.44-1.66 5.52-9.07 5.54-12.57 4.86-5.76-1.34-6.08-8.34-7.13-12.81-1.84-4.47-12.64-13.74-17-19.48-9.89-5.17-19.72-15.86-23.09-19.2-17.67-17.53-13.72-27.05-8.44-31.9 12.2-7.22 27.85 2.6 34.15 8.4 7.8 4.42 13.81 17.11 15.15 15.03 1.34-2.09-2.63-15.22-5.62-20.67-2.4-4.36-26.8-32.11-38.7-45.44-19.08-18.84-15-36.7-10.59-43.27 16.05-25 40.64 1.98 48.23 10.38 6.08 6.72 17.75 26.3 22.83 35.25 3.94-6.88-16.32-45.38-26.94-63.77-12.82-25.65-4.62-45.52 1.08-52.25 3.69-4.2 14.2-10.52 26.74-2.1 15.88 8.78 24.3 50.41 28.23 56.22 3.4 5 2.49.42 1.6-2.5-3.3-12.48 6.35-38.67 11.6-50.21 6.76-14.95 20.19-31.79 30.72-34.98 23.46-5.64 35.74 4.67 40 12.16 14.32 21.5-1.18 46.9-2.9 50.5-1.72 3.6-22.19 21.09-25.71 23.48z" fill="#4F7EDD"/>
    <ellipse cx="127.64" cy="812.51" rx="2.48" ry="2.97" transform="rotate(32.7 127.64 812.5)" fill="#F3DEE5"/>
    <ellipse cx="139.14" cy="794.6" rx="2.48" ry="4.45" transform="rotate(32.7 139.14 794.6)" fill="#F3DEE5"/>
    <ellipse rx="2.98" ry="4.33" transform="rotate(52 -739.31 560.88) skewX(-.12)" fill="#F3DEE5"/>
    <ellipse rx="2.98" ry="4.33" transform="rotate(52 -763.39 564.9) skewX(-.12)" fill="#F3DEE5"/>
    <ellipse rx="2.98" ry="4.33" transform="rotate(52 -786.15 555.38) skewX(-.12)" fill="#F3DEE5"/>
    <ellipse rx="2.98" ry="4.33" transform="rotate(52 -807.19 550.62) skewX(-.12)" fill="#F3DEE5"/>
    <ellipse rx="2.98" ry="4.33" transform="rotate(30.88 -1410.35 594.6) skewX(.01)" fill="#F3DEE5"/>
    <ellipse rx="2.98" ry="4.33" transform="rotate(30.88 -1374.95 599.74) skewX(.01)" fill="#F3DEE5"/>
    <ellipse rx="2.98" ry="4.33" transform="rotate(44.57 -878.63 553.15) skewX(-.08)" fill="#F3DEE5"/>
    <ellipse rx="2.98" ry="4.33" transform="rotate(58.61 -618.74 526.82) skewX(-.16)" fill="#F3DEE5"/>
    <ellipse rx="2.98" ry="4.33" transform="rotate(58.61 -680.3 516.83) skewX(-.16)" fill="#F3DEE5"/>
    <ellipse cx="104.86" cy="852.59" rx="2.98" ry="4.45" transform="rotate(32.7 104.86 852.59)" fill="#F3DEE5"/>
    <ellipse rx="2.98" ry="4.46" transform="rotate(6.79 -6973.38 1202.54) skewX(.16)" fill="#F3DEE5"/>
    <ellipse rx="2.98" ry="3.97" transform="matrix(.99414 -.10806 .11144 .99377 46.95 810.1)" fill="#F3DEE5"/>
    <ellipse rx="3.09" ry="3.97" transform="matrix(.99414 -.10806 .11144 .99377 32 811.17)" fill="#F3DEE5"/>
    <ellipse rx="3.1" ry="4.48" transform="rotate(12.92 -3638.87 571.46) skewX(.13)" fill="#F3DEE5"/>
    <ellipse rx="3.09" ry="4.48" transform="matrix(.97972 -.20037 .20378 .97902 56.11 831.77)" fill="#F3DEE5"/>
    <ellipse rx="3.09" ry="4.48" transform="rotate(8.17 -5917.3 707.08) skewX(.15)" fill="#F3DEE5"/>
    <ellipse rx="3.09" ry="4.48" transform="rotate(8.07 -5995.18 889.88) skewX(.15)" fill="#F3DEE5"/>
    <ellipse rx="3.1" ry="4.48" transform="rotate(17.06 -2864.95 618.45) skewX(.1)" fill="#F3DEE5"/>
    <ellipse rx="3.55" ry="5.49" transform="rotate(22.33 -2152.43 648.11) skewX(.07)" fill="#F3DEE5"/>
    <ellipse rx="2.81" ry="4.27" transform="rotate(48.56 -921.07 545.48) skewX(-.11)" fill="#F3DEE5"/>
    <ellipse rx="2.81" ry="4.28" transform="matrix(.2259 .97415 -.97493 .22252 129.4 884.3)" fill="#F3DEE5"/>
    <ellipse rx="2.81" ry="4.28" transform="matrix(.2259 .97415 -.97493 .22252 154.48 900.4)" fill="#F3DEE5"/>
    <ellipse rx="2.81" ry="4.28" transform="matrix(.2259 .97415 -.97493 .22252 173.8 903.4)" fill="#F3DEE5"/>
    <ellipse rx="2.81" ry="4.28" transform="matrix(.2259 .97415 -.97493 .22252 168.05 919.71)" fill="#F3DEE5"/>
    <ellipse rx="2.81" ry="4.28" transform="matrix(.2259 .97415 -.97493 .22252 146.59 920.05)" fill="#F3DEE5"/>
    <ellipse rx="2.81" ry="4.28" transform="matrix(.2259 .97415 -.97493 .22252 134.99 903.18)" fill="#F3DEE5"/>
    <ellipse rx="2.81" ry="4.27" transform="rotate(45.07 -1030.82 583.07) skewX(-.08)" fill="#F3DEE5"/>
    <ellipse rx="2.81" ry="4.27" transform="rotate(45.07 -1032.95 551.09) skewX(-.08)" fill="#F3DEE5"/>
    <ellipse rx="2.81" ry="4.27" transform="rotate(10.98 -4572.91 814.69) skewX(.14)" fill="#F3DEE5"/>
    <ellipse rx="2.81" ry="4.27" transform="rotate(45.07 -1055.63 531.21) skewX(-.08)" fill="#F3DEE5"/>
    <ellipse rx="3.03" ry="4.01" transform="matrix(.99553 -.09447 .1251 .99214 7.93 872.1)" fill="#F3DEE5"/>
    <ellipse rx="3.12" ry="4.57" transform="matrix(.93195 -.36258 .39008 .92078 5.28 894.13)" fill="#F3DEE5"/>
    <ellipse rx="3.13" ry="4.56" transform="matrix(.97169 -.23626 .26667 .96379 4.1 914.79)" fill="#F3DEE5"/>
    <ellipse rx="3.12" ry="4.57" transform="matrix(.9302 -.36703 .39439 .91894 20.36 890)" fill="#F3DEE5"/>
    <ellipse rx="3.12" ry="4.57" transform="matrix(.93613 -.35164 .3795 .9252 25.18 919.88)" fill="#F3DEE5"/>
    <ellipse rx="3.65" ry="5.5" transform="matrix(.92315 .38444 -.37407 .9274 45.14 936.14)" fill="#F3DEE5"/>
    <ellipse rx="3.51" ry="4.18" transform="matrix(.89504 .44599 -.4397 .89814 59.23 946.24)" fill="#F3DEE5"/>
    <ellipse rx="3.39" ry="3.19" transform="matrix(.66722 .74486 -.75585 .65475 74.78 952.7)" fill="#F3DEE5"/>
    <ellipse rx="2.85" ry="4.34" transform="matrix(.23953 .97089 -.97795 .20882 93.02 948.01)" fill="#F3DEE5"/>
    <ellipse rx="2.81" ry="4.4" transform="matrix(-.26006 .9656 -.96083 -.27715 116.83 959.77)" fill="#F3DEE5"/>
    <ellipse rx="2.85" ry="4.34" transform="matrix(.23953 .97089 -.97795 .20882 134.83 973.68)" fill="#F3DEE5"/>
    <ellipse rx="2.85" ry="4.34" transform="matrix(.23953 .97089 -.97795 .20883 132.55 986.35)" fill="#F3DEE5"/>
    <ellipse rx="2.8" ry="4.41" transform="matrix(-.37521 .92694 -.9227 -.38552 108 990)" fill="#F3DEE5"/>
    <ellipse rx="2.82" ry="4.38" transform="matrix(-.07305 .99733 -.9951 -.09894 131.76 1004.07)" fill="#F3DEE5"/>
    <ellipse rx="2.82" ry="4.38" transform="matrix(-.07305 .99733 -.9951 -.09894 144.97 993.67)" fill="#F3DEE5"/>
    <ellipse rx="2.8" ry="4.41" transform="matrix(-.37521 .92694 -.9227 -.38552 90.48 977.56)" fill="#F3DEE5"/>
    <ellipse rx="2.82" ry="4.39" transform="matrix(-.16596 .98613 -.98219 -.1879 113.96 975.58)" fill="#F3DEE5"/>
    <ellipse rx="2.85" ry="4.34" transform="matrix(.23953 .97089 -.97795 .20883 91.07 962.06)" fill="#F3DEE5"/>
    <ellipse rx="2.84" ry="4.35" transform="matrix(.18168 .98336 -.98857 .15074 70.62 968.65)" fill="#F3DEE5"/>
    <ellipse rx="2.86" ry="4.32" transform="matrix(.99986 -.01669 .0461 .99894 52.58 966.48)" fill="#F3DEE5"/>
    <ellipse rx="2.85" ry="4.34" transform="matrix(.97774 -.20981 .2405 .97065 25.6 937.66)" fill="#F3DEE5"/>
    <ellipse rx="3.82" ry="4.34" transform="matrix(.97774 -.20981 .24051 .97065 32.91 910.2)" fill="#F3DEE5"/>
    <ellipse rx="3.04" ry="4.34" transform="matrix(.97774 -.20981 .24051 .97065 63.32 928.02)" fill="#F3DEE5"/>
    <ellipse rx="2.86" ry="4.32" transform="matrix(.99999 -.00535 .0345 .9994 39.44 954.91)" fill="#F3DEE5"/>
    <ellipse rx="3.47" ry="4.46" transform="rotate(7.98 -7042.02 826.5) skewX(.15)" fill="#F3DEE5"/>
    <ellipse rx="3.48" ry="4.46" transform="rotate(22.28 -2529.24 616.61) skewX(.07)" fill="#F3DEE5"/>
    <ellipse rx="3.47" ry="4.46" transform="matrix(.98876 -.14948 .1529 .98824 27.36 985.4)" fill="#F3DEE5"/>
    <ellipse rx="3.47" ry="4.47" transform="rotate(-32.72 1728.16 455.34) skewX(.15)" fill="#F3DEE5"/>
    <ellipse rx="3.66" ry="3.46" transform="rotate(38.21 -1416.97 499.57) skewX(-.04)" fill="#F3DEE5"/>
    <ellipse rx="4.8" ry="3.69" transform="matrix(.32475 .9458 -.9469 .32154 6.52 967.24)" fill="#F3DEE5"/>
    <path d="M1381.25 827.35c18.45 11.71 59.64 4.06 76.81-.11 2.73-2.83 17.15-5.29 38.29-37.34 16.91-25.64 2.29-70.68-7.13-90-10.87 14.65-50.58 34.2-51.15 33.66-.45-.44 7.09-8.46 10.91-12.41 16.55-20.74 20.65-49.3 20.63-60.97.1-20.03-10.97-44.5-16.51-54.24-21.85 23.5-42.88 29.62-50.66 29.75 1.6-3.92 23.4-29.86 32.12-40.02 6.98-8.12 6.03-15.67 4.69-18.43-14.38-33.14-60.64-64.46-81.98-75.98-17.56-11.72-52.86-21.94-68.31-25.58.08 4.45-8.06 26.83-12.14 37.47-5.55 32.9 3.83 36.58 7.95 41.59 4.5 5.45 6.81 7.3 7.4 9.33-4.96 2.86-10.58-.38-19.73 17.01-9.15 17.4-.57 31.16 2.47 46.13 2.43 11.97 12.07 22.24 16.58 25.87 8.43 4.87 26.73 1.79 28.96 1.75 2.22-.03 7.22-.67 4.47 1.04-2.76 1.72-16.51 10.28-24.63 23.21-8.12 12.93 8.58 45.47 23.31 60.8 14.73 15.34 43.66 15.98 48.11 15.9 3.56-.05 4.11 1.8 3.94 2.72-6.05 3.62-19.93 12-26.97 16.57-8.8 5.71-9.79 12.4-6.91 18.47 4.67 9.81 23.18 26.8 39.48 33.81z" fill="#219653"/>
    <path d="M1311.24 540.96c-2.76 1.7-8.73 3.36-10.64-3.72-2.38-8.87 14.38-4.69 10.64 3.72z" fill="#F3DEE5"/>
    <path d="M1460.09 847.79c-1.81-1.75-87.5-212.17-130.12-317.15-.56-6.67 5.37-.28 8.41 3.75 6.81 7.68 124.68 292.21 127.66 303.84 2.98 11.63-3.69 11.75-5.95 9.56z" fill="#F3DEE5"/>
    <path d="M1381.31 795.68c13.04 8.24 26.81-4.33 32.06-11.65-1.76-4.98-8.9.14-19.97 3.66-8.85 2.82-11.75 6.5-12.09 7.99z" fill="#F3DEE5"/>
    <path d="M1481.68 746.2c3.47-5.4-.1-5.93-2.32-5.53-6.65 1.23-19.2 15.34-21.37 18.7-2.16 3.38-1.58 5.04 1.8 7.21 3.37 2.17 17.56-13.64 21.89-20.38z" fill="#F3DEE5"/>
    <path d="M1366.39 705.81c11.04-5.07 2.29-7.27-3.47-7.73-5 .27-17.21 1.73-26.05 5.43-8.83 3.7-3.97 6.37-.43 7.24 5.39.47 18.92.14 29.95-4.94z" fill="#F3DEE5"/>
    <path d="M1322.45 609.75c10.64-1.96 5.45-6.4 1.52-8.37-.57-.55-5.71-1.8-21.74-2.43-16.03-.63-8.07 4.95-2.09 7.82 3 1.8 11.66 4.93 22.31 2.98z" fill="#F3DEE5"/>
    <path d="M1383.64 578.15c-5.64 8.55 1.42 7.2 5.66 5.47 14.28-10.25 13.01-19.13 10.79-19.09-2.22.04-9.41 2.94-16.45 13.62z" fill="#F3DEE5"/>
    <path d="M1446.24 659.45c4.76-7.64-1.03-6.1-4.52-4.38-11.03 5.75-19.13 19.78-15.21 21.39 3.92 1.6 13.78-7.46 19.73-17.01z" fill="#F3DEE5"/>
    <path d="M1010.57 686.9c-16.1 3-12.06 12.35-10.26 21.35 8.14 15.49 10.16 31.86 12.62 39.59 1.97 6.18-.31 36.97-1.69 51.59-11.42 34.48 16.83 59.51 20.92 65.66 3.28 4.9 39.72 17.47 57.53 23.14-7.75 2.47-50.15 1.1-70.39.1-12.6.62-12.3 13.85-10.57 20.39 33.33 97.86 104.09 83.77 109.05 84.37 6.65.79 25.48.74 34.07-.23l-69.34 16.78c-17.29 4.67-30.47-4.11-34.9-9.08-15.39-2.75-20.71 9.79-21.44 16.41 5.32 26.74 61.52 52.44 75.96 54.22 15.94 1.96 91.16-8.57 105.68-13.21 11.63-3.7 10.6.88 8.63 3.64-4.94 21.99-55.39 38.22-80 43.58-28.67 9.14-21.84 21.85-14.84 27.07 56.45 53.26 210.63-8.65 234.05-28.88 18.74-16.18 24.82-42.65 25.51-53.86 19.47 4.85 56.16-16.84 72.07-28.29 48.71-26.6 52.13-80.8 47.75-104.57 4.73-38.73-13.83-90.25-24.65-120.84-4.39-12.43-49.97-79.8-66.21-90.58-12.99-8.62-17.57 7.38-18.23 16.45.49 20.27-7.94 54.3-12.22 68.78-11.42 25.76-24.34 31.87-29.37 31.7 29.78-69.91 5.81-109.2-9.77-127.72-44.65-53.05-87.14-42.42-94.89-39.95-6.2 1.98 3.8 29.64 4.09 29.54.28-.09 1.55 4.55 1.53 4.83-.39 9.49-5.21 28.26-7.58 36.46-4.9 19.43-13.41 23.77-17.04 23.51 7.3-25.3-13.99-63.97-25.55-80.14-10.95-20.97-27.02-21.17-34.01-26.38-5.6-4.17-35.27 8.76-49.4 15.74-14.26 8.8-6.18 20.76-.36 25.65 14.26 9.92 21.31 23.34 23.05 28.81 3.47 27.61-8.89 15.6-15.01 16.49-4.9.7-20.31-25.8-27.41-39.13-14.36-20.95-74.24-7.53-87.38-3z" fill="#0A2A5C"/>
    <path d="M1167.85 815.45c-3.8-3.89-24.12-14.3-33.8-19-15.5 4.93 53.01 54.72 89.19 78.99l-4.84 1.54c-12.78-5.28-71.18 18.8-98.79 31.5-17.08 8-4.24 12.34 4.31 13.51 20.14 12.3 82.65-18.54 111.38-35.5 8.32 2.66 41.45 46.35 47.17 50.9 4.58 3.65 12 15.33 15.13 20.71-13.1-.93-49.98 11.68-66.78 18.1-27.12 8.64-39.42 22.49-42.18 28.33 20.43 20.92 100.36-28.4 112.08-35.64l.27-.17c10.7-6.6 16.99 3.1 12.41 8.8-4.58 5.72-38.81 85.77-46.96 93.69-6.52 6.33-7.53 9.84-7.22 10.81 4.54 6.21 21.91-3.8 30.02-9.57 10.04-5.33 9.78-9.5 24.62-36.57 11.88-21.65 10.98-41.43 9.04-48.62 1.23 3.86 40.66 57.24 50.2 63.77 7.64 5.23 7.71.74 6.78-2.16-16.75-42.52-38.22-69.71-41.34-76.16-2.5-5.16-.98-6.43.09-6.41 21.86-1.02 43.12-11.98 51.02-17.33 10.04-5.33 24-38.5 22.47-43.33-1.54-4.82.93-20.5-5.85-18.34-5.43 1.73-16.44 18.71-21.27 26.99-4.2 5.59-16.08 15.4-21.49 19.61-9.55 2.2-26.29 17.95-33.46 25.56-20.52-40.26-61.03-78.76-78.72-92.97 36.64-45.72 34.5-75.88 36.61-89.32 1.7-10.75-4.81-8.4-8.27-5.87l-19.03 27.34c-10.99 13.71-16.3 47.03-17.58 61.98l-48.41-31.37c4.19-23.68-7.51-60.37-22.74-51.25-15.23 9.1.69 42.32-4.06 37.45z" fill="#F3DEE5"/>
  </g>
  <defs>
    <clipPath id="clip0">
      <path fill="white" d="M0 0h1440v1024H0z"/>
    </clipPath>
  </defs>
</svg>
