<svg fill="none" xmlns="http://www.w3.org/2000/svg" viewBox="0 0 1920 1080">
  <g clip-path="url(#clip0)">
    <path fill="#D1EBA5" d="M0 0h1920v1080H0z"/>
    <path d="M937.75 223.54s2.76 1.68 5.52-6.2c.4-.7 7.98-48.7 41.3-47.31.39 0 0 7.88 0 7.88s-18.54-3.05-23.37 26.02c-.1.3-4.04 15.77-1.28 19.71-.78-.1-7.1 6.4-22.17-.1z" fill="#85972B"/>
    <path opacity=".2" d="M958.94 202.65c-.1.3-5.03 17.64-3.35 22.96 2.66-.78 4.04-1.97 4.33-1.87-2.75-3.94 1.19-19.31 1.29-19.7 4.92-29.18 23.35-26.13 23.35-26.13s0-.59.1-1.47c-5.12-.8-20.2-.6-25.72 26.21z" fill="#333333"/>
    <mask id="mask0" maskUnits="userSpaceOnUse" x="757" y="222" width="366" height="366">
      <path d="M939.92 588c101.02 0 182.91-81.9 182.91-182.92 0-101.02-81.89-182.92-182.91-182.92S757 304.06 757 405.08C757 506.1 838.9 588 939.92 588z" fill="#A0BC3E"/>
    </mask>
    <g mask="url(#mask0)">
      <path d="M939.92 588c101.02 0 182.91-81.9 182.91-182.92 0-101.02-81.89-182.92-182.91-182.92S757 304.06 757 405.08C757 506.1 838.9 588 939.92 588z" fill="#A0BC3E"/>
      <path d="M893.6 214.68a79.35 79.35 0 0024.14 17.34c2.07.99 4.34 1.97 5.72 3.75 1.97 2.46 2.17 5.9 2.56 9.06 2.86 20 21.98 33.02 33.51 49.67 1.77 2.67 3.45 5.52 3.55 8.77.1 3.95-2.27 7.5-2.76 11.34-.89 7 4.14 13.2 8.87 18.43 5.71 6.3 11.43 12.61 17.05 18.92 6.1 6.7 12.42 13.9 14.49 22.67 2.26 9.36-.2 20.3 5.51 27.99 1.78 2.46 4.24 4.24 6.31 6.4 13.01 13.7 9.17 38.54 23.66 50.76 9.26 7.79 22.96 7.59 33.5 13.7 8.28 4.83 15.28 13.8 24.84 13.6" stroke="#E0E068" stroke-width="3" stroke-miterlimit="10"/>
      <path d="M929.87 209.85c4.23 7.39 1.38 16.85-3.06 24.04a54.48 54.48 0 01-17.74 17.74c-4.93 3.06-10.45 5.62-13.8 10.25-2.95 4.14-3.74 9.46-6.6 13.7-5.13 7.59-15.47 9.76-21.98 16.17-4.04 4.04-6.4 9.46-10.54 13.3-6.11 5.62-15.38 6.8-21.49 12.42-7.1 6.5-8.28 17.24-8.57 26.9-.5 16.46.2 33.02-1.38 49.48-1.58 16.46-5.62 33.01-14.69 46.81-5.32 8.08-12.41 15.47-14.1 24.94-1.57 8.77 1.78 17.73 1.49 26.7a33.04 33.04 0 01-5.52 17.05 79.34 79.34 0 01-13.4 15.28" stroke="#E0E068" stroke-width="3" stroke-miterlimit="10"/>
      <path d="M967.71 213c-3.75 3.45-.69 10.05 3.75 12.51 4.43 2.57 9.85 3.06 13.99 6.02 2.66 1.87 4.53 4.63 6.3 7.2 5.63 8.07 12.03 16.45 21.39 19.3 4.83 1.49 9.86 1.29 14.89 1.2 12.02-.4 24.04-.7 35.97-1.1" stroke="#E0E068" stroke-width="3" stroke-miterlimit="10"/>
      <path d="M821.55 255.57c-.88 10.45-1.77 20.9-2.76 31.35-.3 3.05-.49 6.1-1.57 8.96-1.19 3.36-3.25 6.21-5.33 9.17-2.95 4.14-5.9 8.28-8.87 12.42-1.77 2.56-3.64 5.12-4.23 8.18-.4 2.07-.2 4.24.1 6.4.88 8.28 1.87 16.56 2.75 24.84a350.72 350.72 0 00-43.75 61.1c-2.56 4.54-7.1 7.89-10.55 11.93" stroke="#E0E068" stroke-width="3" stroke-miterlimit="10"/>
      <path d="M1063.51 269.67c3.05 7.88 6.2 15.77 9.26 23.65 3.65 9.26 7.29 18.73 8.18 28.58 9.95-.79 19.91-1.48 29.76-2.26" stroke="#E0E068" stroke-width="3" stroke-miterlimit="10"/>
      <path d="M879.8 222.16a121.38 121.38 0 0015.87 26.32c13 16.46 30.55 29.47 40.8 47.7a74.57 74.57 0 019.46 34.6c.3 10.93-1.87 21.77-2.46 32.61-.1 2.37-.1 4.93.98 7.1 1.08 2.07 3.15 3.55 5.13 4.93 17.44 11.92 34.79 23.94 52.23 35.87a292.7 292.7 0 0016.46 10.74c7.19 4.24 16.26 7.89 23.45 3.75 5.82-3.35 8.09-10.45 9.86-16.85.89-3.06 1.87-6.21 4.14-8.28 1.58-1.38 3.65-2.17 5.62-2.86a278.27 278.27 0 0160.61-13.7" stroke="#E0E068" stroke-width="3" stroke-miterlimit="10"/>
      <path d="M986.63 217.04c-2.46 7-5.62 13.7-9.46 20.1-3.05 5.13-7.4 10.45-13.3 10.95-2.66.2-5.52-.6-8.09.2-5.32 1.67-6.4 8.57-8.08 13.89-3.45 10.44-13.4 18.43-24.34 19.41-4.04.4-8.38-.1-11.83 1.97-6.4 3.75-5.91 12.92-8.87 19.71-3.15 7.3-10.34 11.83-17.24 15.68a353.5 353.5 0 01-48.79 22.66c-2.56.99-5.22 1.97-7.98 1.97-8.77.3-15.18-7.98-22.96-12.12-11.14-6.01-24.64-3.55-37.36-2.56" stroke="#E0E068" stroke-width="3" stroke-miterlimit="10"/>
      <path d="M790.21 270.06c17.25 2.86 29.67 17.45 40.5 31.15 10.95 13.8 22.08 28.18 27.01 45.13 3.16 11.14 3.55 22.97 6.21 34.2a85.15 85.15 0 0037.25 51.94c7 4.44 14.99 7.98 19.72 14.78 4.53 6.6 5.22 15.38 3.64 23.26-1.57 7.89-5.32 15.18-8.97 22.38-8.87 17.24-17.64 34.59-26.5 51.83-1.39 2.76-2.96 5.72-5.62 7.3-3.36 1.97-7.7 1.38-11.14-.3-3.45-1.67-6.4-4.34-9.46-6.7a53.81 53.81 0 00-48-7.88c-4.63 1.47-8.47 2.56-13.1 4.04" stroke="#E0E068" stroke-width="3" stroke-miterlimit="10"/>
      <path d="M766.66 348.12c5.22 3.55 10.45 7.2 15.67 10.74a30.35 30.35 0 014.33 3.45c1.78 1.77 2.96 4.04 4.05 6.3 6.7 12.82 13.5 25.73 20.2 38.54a1155.63 1155.63 0 01-49.28 38.34" stroke="#E0E068" stroke-width="3" stroke-miterlimit="10"/>
      <path d="M1015.21 582.28c-11.53-6.3-23.06-12.61-34.69-18.92-6.1-3.35-12.32-6.7-19.22-7.59-6.4-.79-12.8.6-18.92 2.27-1.87.5-3.84 1.08-5.72.79-1.97-.3-3.84-1.38-5.51-2.47a442.2 442.2 0 01-41.7-29.56c-1.87-1.48-3.74-3.06-4.53-5.23-.59-1.47-.59-3.15-.59-4.83 0-6.1 0-12.22.1-18.33-18.43-1.57-36.86-3.15-55.19-4.63-1.18-.1-2.46-.2-3.45-.69-1.28-.59-2.27-1.87-3.25-2.95a6437.48 6437.48 0 01-24.15-30.16c-.98-1.28-2.16-2.56-3.64-3.16a8.88 8.88 0 00-3.95-.1c-6 .8-11.92 1.68-17.93 2.47-13.5 1.87-26.9-.3-40.31-2.76" stroke="#E0E068" stroke-width="3" stroke-miterlimit="10"/>
      <path d="M1033.94 571.93a166.8 166.8 0 01-12.52-21.97c-12.51 5.91-27.6.88-39.42-6.31a198.88 198.88 0 01-16.85-11.83c-5.32-3.94-10.75-7.98-14.49-13.5-3.35-4.83-5.32-10.84-9.86-14.59-8.87-7.39-22.56-3.15-33.5-6.9-5.23-1.77-9.66-5.31-14-8.76-18.33-14.79-36.76-29.67-55.1-44.45-2.65-2.17-5.41-4.34-8.66-5.42-7.79-2.47-16.26 2.07-24.25.3-6.6-1.49-11.53-6.9-15.96-12.03-2.67-3.16-5.33-6.21-7.99-9.36-1.48-1.68-2.95-3.45-4.93-4.54-1.47-.88-3.25-1.28-4.92-1.77-7.3-1.87-14.49-3.75-21.78-5.62" stroke="#E0E068" stroke-width="3" stroke-miterlimit="10"/>
      <path d="M757.5 365.46c25.42-.3 50.75 2.76 76.18 3.25 25.42.5 51.44-1.57 74.8-11.72a176.38 176.38 0 0027.1 30.94c4.63 4.24 9.66 8.38 12.32 14 6.8 14.39-4.14 32.03.79 47.2 2.86 8.78 10.64 15.18 14.1 23.66 3.93 9.76 1.67 20.8-.6 31.04-.99 4.54-2.07 9.17-4.63 13.01-4.83 7.2-14.2 10.65-18.23 18.33-2.57 4.83-2.67 10.45-2.67 15.87v45.63" stroke="#E0E068" stroke-width="3" stroke-miterlimit="10"/>
      <path d="M874.38 580.6c17.05-13.5 34.1-26.9 51.15-40.4 10.05-7.88 7.1-24.74 17.84-31.64 3.54-2.26 7.88-2.66 12.12-2.85 9.66-.4 19.32.39 28.78 2.16 1.57.3 3.15.7 4.24 1.78 1.28 1.28 1.67 3.15 2.26 4.93 2.17 5.42 7.89 8.96 9.36 14.58.89 3.35 0 6.8-.78 10.15-2.76 11.14-5.52 22.47-4.73 33.9.78 11.44 5.61 23.17 15.17 29.47" stroke="#E0E068" stroke-width="3" stroke-miterlimit="10"/>
      <path d="M1072.08 534.58c-13.8-3.35-27.6-6.6-41.39-9.95-2.47-.6-5.03-1.18-7-2.86-2.56-2.07-3.65-5.42-4.73-8.57a159.67 159.67 0 00-29.86-52.43c-2.96-3.45-6.41-7-10.75-8.28-3.35-.99-7-.6-10.54-.2-30.06 3.35-61.1 6.3-89.98-2.56-1.97-.6-4.04-1.28-5.72-2.66-1.97-1.58-3.15-3.94-4.34-6.21-11.33-22.87-21.97-46.22-35.97-67.51-18.43-28-42.57-52.24-57.85-82" stroke="#E0E068" stroke-width="3" stroke-miterlimit="10"/>
      <path d="M1025.36 233.9l-11.82 85.24c-1.38 9.96-2.76 20.01-7 29.18-8.08 17.44-24.93 28.77-38.53 42.37-8.97 9.07-16.66 19.32-24.35 29.57l-41.59 55.78c-6.6 8.87-13.3 17.84-17.15 28.19-3.25 8.67-4.33 17.94-5.42 27.2a1185.22 1185.22 0 00-5.52 67.12" stroke="#E0E068" stroke-width="3" stroke-miterlimit="10"/>
      <path d="M796.23 524.83c30.84-3.36 61.79-6.12 92.74-8.28-24.74 20.2-49.58 40.4-74.32 60.6" stroke="#E0E068" stroke-width="3" stroke-miterlimit="10"/>
      <path d="M781.93 526.2a115.4 115.4 0 0037.36-24.14c11.92-11.53 21.48-25.92 35.48-34.89 5.42-3.45 11.53-6.1 16.06-10.74 5.22-5.22 8.08-12.42 12.62-18.23 10.44-13.5 28.58-18.14 45.43-20.1 16.95-1.98 34.6-2.28 49.77-10.06 13.1-6.7 22.86-18.23 33.11-28.78 10.35-10.64 21.69-20.5 34.99-27 11.24-5.52 23.56-8.38 35.38-12.52a172.87 172.87 0 0043.56-22.67" stroke="#E0E068" stroke-width="3" stroke-miterlimit="10"/>
      <path d="M1113.28 380.84c-12.82-13.9-25.83-28.09-42.09-37.75-7.49-4.43-15.57-7.98-22.07-13.7-4.73-4.14-8.58-9.46-13.6-13.2-13.21-9.86-31.44-7.6-47.7-4.93-20.2 3.35-40.51 6.6-60.72 9.95a153.66 153.66 0 00-12.22-30.45c-1.77-3.25-3.84-6.7-7-8.57-7.48-4.54-17.73.78-25.81-2.67-5.92-2.56-8.97-9.16-11.04-15.27a123.43 123.43 0 01-5.92-27.9c-.3-3.34-.59-6.8-1.77-9.95-3.75-9.66-15.18-13.6-22.86-20.4" stroke="#E0E068" stroke-width="3" stroke-miterlimit="10"/>
      <path d="M1072.47 258.24a222.38 222.38 0 00-19.02 31.04c-2.26 4.53-4.43 9.26-7.98 13-6.6 6.9-16.66 8.78-25.53 12.43-21.58 8.77-36.86 27.99-51.05 46.52-8.18 0-16.36-.1-24.54-.1-1.87 0-3.84 0-5.52.79-2.07.88-3.55 2.85-5.02 4.63a671.65 671.65 0 01-21.2 26.41c-1.57 1.97-3.44 3.94-5.8 4.63-1.98.6-4.15.1-6.12-.3l-20.4-4.43c-1.87-.4-3.84-.79-5.71-.4-2.07.5-3.75 1.88-5.43 3.26-10.84 9.26-21.77 18.43-32.62 27.7-7.68 6.5-14.78 10.64-22.47 17.24-1.77 1.48-3.54 3.05-5.81 3.65-2.47.59-5.03 0-7.5.2-8.66.59-14.09 9.26-19.11 16.35-8.87 12.52-21.1 23.07-35.58 28.1" stroke="#E0E068" stroke-width="3" stroke-miterlimit="10"/>
      <path d="M1009.4 219.4a134.9 134.9 0 01-21.1 78.55c-.98 1.58-1.96 3.06-2.46 4.83-.49 2.07-.2 4.24.2 6.31a275.27 275.27 0 008.67 35.58c1.68 5.22 3.55 10.54 6.61 15.18 7.68 11.72 21.78 18.13 28.97 30.15a246.34 246.34 0 0140.61-12.12c2.26-.5 4.63-.89 6.9-.59 2.66.4 5.02 1.67 7.29 3.06a244.1 244.1 0 0128.48 19.6c15.08 12.03 29.07 26.12 46.62 34.2" stroke="#E0E068" stroke-width="3" stroke-miterlimit="10"/>
      <path d="M973.52 591.74c-3.84-16.75-7.58-33.4-11.43-50.16-.49-2.07-.98-4.14-.59-6.2.6-3.06 2.86-5.53 4.93-7.8a187.14 187.14 0 0047.4-99.14c1.38-9.56 2.66-20.2 10.15-26.22 3.16-2.46 7.2-3.94 9.76-7.1 4.44-5.31 2.96-13.3 4.83-20 .99-3.64 2.96-6.9 4.93-10.05a891.8 891.8 0 0046.22-86.04" stroke="#E0E068" stroke-width="3" stroke-miterlimit="10"/>
      <path d="M1046.95 248.28c-25.23 8.48-50.46 17.05-75.7 25.53-6.4 2.17-13 4.43-17.83 9.16-2.86 2.76-4.93 6.11-7.4 9.17-9.06 11.23-22.95 17.34-34.39 26.31-3.05 2.37-6.1 5.13-7.59 8.77-1.28 3.16-1.28 6.7-1.28 10.06.1 8.18.2 16.26.2 24.44.1 10.94 0 22.57-5.91 31.73-5.62 8.68-15.28 13.5-23.66 19.42-9.46 6.7-17.64 15.18-25.52 23.75a749.35 749.35 0 00-31.64 36.76c-14.59 18.13-29.96 38.14-52.33 44.15" stroke="#E0E068" stroke-width="3" stroke-miterlimit="10"/>
      <path d="M1106.57 345.56a211.49 211.49 0 01-30.55 39.52c-1.87 1.87-3.74 3.74-5.02 5.9-2.57 4.35-2.76 9.67-2.96 14.8l-1.78 62.18c-.09 3.65-.19 7.2-.98 10.74-.99 4.54-2.86 8.77-4.83 13.01-8.48 18.33-17.15 36.96-30.16 52.43-.98 1.19-2.07 2.57-2.17 4.14-.09 1.48.79 2.96 1.68 4.14 4.63 7 9.46 13.8 14.49 20.6" stroke="#E0E068" stroke-width="3" stroke-miterlimit="10"/>
      <path d="M1100.76 492.5c-6.41-16.95-12.91-33.8-19.32-50.75-.69-1.78-1.38-3.75-.98-5.62.39-1.78 1.57-3.16 2.76-4.54a152.57 152.57 0 0148.68-36.07" stroke="#E0E068" stroke-width="3" stroke-miterlimit="10"/>
      <path d="M1112.59 436.92c-14 4.63-27.99 9.26-41.89 13.8-6.7 2.16-13.4 4.43-19.12 8.57-2.66 1.87-4.93 4.23-7.29 6.5-5.92 5.82-11.93 11.63-17.84 17.45-2.37 2.26-4.73 4.63-7.59 6.1-2.96 1.58-6.31 2.17-9.66 2.67l-35.48 6.2c-1.87.3-3.84.7-5.62.2-2.07-.59-3.74-2.17-5.42-3.64-13.2-11.53-30.45-16.95-47.2-22.08-2.96-.89-6.02-1.87-9.17-1.77-3.15.1-6.2 1.28-9.26 2.46a405.89 405.89 0 00-29.87 13.4c-8.37 4.24-16.75 8.78-23.35 15.38-6.6 6.6-11.44 15.57-11.14 24.93l12.32 71.26" stroke="#E0E068" stroke-width="3" stroke-miterlimit="10"/>
      <path d="M829.83 226a819.58 819.58 0 0017.45 56.78c6.2 17.74 13.7 36.26 28.87 47.4 2.17 1.58 4.54 3.06 6.11 5.22 1.88 2.57 2.47 5.72 2.96 8.78 1.77 9.95 3.55 19.9 5.32 29.96.99 5.61 1.97 11.23 4.63 16.26 1.78 3.45 4.24 6.4 6.8 9.46 9.07 11.04 18.24 21.98 27.3 33.01 1.58 1.88 3.16 3.85 5.33 5.13 3.25 2.07 7.29 2.27 11.13 2.46 15.08.7 30.16 1.38 45.24 2.17 4.43.2 9.07.5 12.91 2.56 2.96 1.58 5.22 4.05 7.59 6.41a509.71 509.71 0 0091.06 75.4" stroke="#E0E068" stroke-width="3" stroke-miterlimit="10"/>
    </g>
    <path opacity=".2" d="M1040.64 252.42a182.26 182.26 0 0154.9 130.68c0 101.02-81.9 182.92-182.92 182.92a181.76 181.76 0 01-100.73-30.25A182.33 182.33 0 00939.92 588c101.02 0 182.92-81.9 182.92-182.92 0-63.76-32.73-119.94-82.2-152.66z" fill="#333333"/>
    <path opacity=".52" d="M1120.37 375.32c.4 5.32.69 10.74.69 16.26 0 107.13-82.59 194.15-185.28 196.32 1.38 0 2.76.1 4.14.1 101.02 0 182.91-81.9 182.91-182.92 0-10.15-.88-20.1-2.46-29.76z" fill="#333333"/>
    <g clip-path="url(#clip1)">
      <path d="M1312.79 721.63s3.48 2.12 6.96-7.84c.5-.87 10.08-61.53 52.14-59.79.5 0 0 9.96 0 9.96s-23.39-3.86-29.49 32.89c-.12.37-5.1 19.93-1.62 24.9-.87-.12-8.96 8.1-27.99-.12z" fill="#85972B"/>
      <path opacity=".2" d="M1339.54 695.23c-.13.37-6.35 22.3-4.23 29.02 3.36-1 5.1-2.5 5.47-2.37-3.48-4.98 1.5-24.4 1.62-24.9 6.22-36.88 29.49-33.01 29.49-33.01s0-.75.13-1.87c-6.47-1-25.51-.75-32.48 33.13z" fill="black"/>
      <path d="M1334.56 1181.87c128.44 0 232.56-104.22 232.56-232.8 0-128.56-104.12-232.8-232.56-232.8S1102 820.52 1102 949.08c0 128.58 104.12 232.8 232.56 232.8z" fill="#85972B"/>
      <path d="M1320.13 1165.43c.74-4.23-7.84-29.02-7.09-29.77-2.87 2.87-12.07-30.39-11.33-31.14 4.23 5.61 9.96-4.98 11.33-5.6-5.6-3.49-9.21-27.65-7.84-29.02 1.37-1.37-6.47-11.96-7.1-10.09v0c2.12-18.81 10.58-5.48 9.83-3.99 4.23-3.49 4.23-15.57 4.98-16.94-12.07-9.22-14.18-24.78-13.56-26.16-17.17 0-21.03-22.67-21.03-24.78 2.11-24.04 14.81-19.8 15.55-20.55 7.84-2.12 2.86-6.36 2.12-6.36-4.98-6.35-2.12-26.15-2.12-26.15s-6.34-.75-7.09 0c-9.95-7.1-7.84-29.77-7.84-29.03-.75-20.55 6.35-9.21 4.98-9.21 6.34 7.1 2.86-21.3 3.61-21.3-4.23-6.36-6.35-21.3-7.1-21.3-2.86-16.32 7.1-11.34 7.1-11.34s-4.98-12.08-6.35-14.82c-23.39-16.32-7.09-21.92-7.09-22.67 14.81-4.23 20.53 26.16 19.78 26.16 9.96-2.87 3.49-17.69 2.86-19.8-12.69-21.3 0-82.84 0-82.84-4.23 14.83-8.46 11.34-19.03 21.93-10.58 10.58-2.12 3.48-6.35 0-4.23-3.5-4.98 9.21-4.98 9.21s6.35 9.97-.74 15.57c-7.1 5.6-11.33 43.85-5.6 46.71 5.6 2.87 4.97 12.08 3.48 14.82-7.84-6.35-20.53 17.7-20.53 14.83-8.46 18.43 10.58 26.15 16.3 23.41 5.6-2.86-10.58 26.16-10.58 28.28 0 34.75-13.43 31.88-13.43 32.5 9.2 7.1 17.67 31.15 17.67 31.9 14.8 10.58-1.37 11.33-2.12 10.58-10.58 5.6-9.21 17.69-7.84 16.94 2.49 13.83 27.87 34.25 33.47 38.24.38.25.87.5 1.12.62 0 .13-.37-.12-1.12-.62-5.1-2.74-17.17-5.6-25.01 3.49-8.46 9.96 15.56 26.16 14.81 26.16 16.3 22.66-7.09 11.33-9.21 10.58-7.84-7.84-4.98 2.12-5.6 0 0 10.59 9.96 10.59 9.21 11.34 4.98 0 14.81 9.21 14.19 9.21 7.83 9.97-.75 33.26-1.37 34.76 8.46-.75 9.95 9.21 11.32 10.58 7.09 9.22 11.32 14.83 12.69 16.32 3.49 11.34-4.23 6.35-12.07 8.47-3.11.87-2.86 5.85-1.49 11.58 7.59 1.75 15.3 2.99 23.14 3.87-4.23-31.02 12.45-14.58 13.07-14.58z" fill="#A0BC3E"/>
      <path d="M1376.12 1150.11c3.49-6.6 8.34-12.45 10.45-19.68 3.74-12.95-2.48-27.15 1-40.11 2.36-8.84 9.08-16.69 8.46-25.78-.62-8.47-7.59-15.32-8.46-23.79-.5-5.23 1.49-10.34 1.24-15.57-.12-3.61-1.24-7.1-2.11-10.71-3.24-12.83-3.11-26.28-3.11-39.61 0-5.1.12-10.46 2.11-15.2 1.99-4.73 6.35-8.84 11.58-8.84-2.37-1.25-4.73-2.37-7.1-3.61 6.6-4.86 6.47-16.44-.12-21.18-1.99-1.5-4.48-2.36-6.1-4.23-1.62-1.87-1.99-5.23.13-6.48 1.12-.62 2.61-.37 3.73-1 3.11-1.49 1.87-6.1.12-9.09l-8.96-15.7c-1.24-2.23-2.61-4.85-2.11-7.34.5-2.62 4.11-4.49 5.85-2.5 1.12 2 1.37 4.5.74 6.6 5.6-.24 7.72-7.96 5.6-13.07-2.11-5.1-6.72-8.84-9.58-13.58a23.01 23.01 0 01-1.37-20.55c1.5-3.49 3.86-6.6 5.48-9.96 6.59-13.46.74-31.76-12.57-38.87a18.18 18.18 0 01-8.09 15.82c-4.23-5.48-4.73-12.83-6.22-19.68-1.49-6.72-5.1-14.2-11.82-15.69 2.99-.25 5.97-.62 8.96-.87a41.35 41.35 0 01-12.07-22.55c-.25 2.12-.62 4.36-.87 6.48-6.6-2.99-9.09-10.84-12.07-16.81-1.49-3.12-3.24-5.98-5.73-8.35-1.61-1.5-5.97-6.35-8.46-3.99-1.49 1.37-1.61 5.11-1.86 6.85-.25 2.5-.13 5.11 1.12 7.23 1.61 2.74 4.48 4.36 6.96 6.48 10.95 9.34 11.08 25.9 10.33 40.23 11.45-.63 21.16 13.08 16.55 23.66-.87 2.12-2.24 3.99-2.36 6.23-.13 2.87 1.62 5.48 2.11 8.35.38 2.86-.62 5.6-.74 8.47-.25 9.21 8.83 17.8 5.47 26.28-1.74 4.48-6.72 7.35-7.46 12.08-.63 3.74 1.49 7.23 3.36 10.46a73.84 73.84 0 018.83 42.35l6.22.38a111.54 111.54 0 01-23.02 22.3c-1.49 1.11-3.11 2.24-4.98 2.24-2.36.12-4.48-1.38-6.71-1.75-4.98-.75-8.96 3.86-11.83 7.97a35.58 35.58 0 0119.91 17.2c7.1-6.49 19.17-6.11 25.88.74 7.97 8.1 6.97 21.05 5.23 32.26-.5 3.24-1.24 6.97-4.23 8.34-3.11 1.5-6.72-.62-10.08-1.49-3.36-.87-8.34 1-7.46 4.36a108.67 108.67 0 0028.49 20.18c-11.95 1.49-17.79 15.82-18.04 27.9-.38 12.08 2.11 25.03-3.36 35.75 3.98 3.11 10.08-1.25 11.07-6.11 1-4.98-.99-9.96-1.86-14.94-.75-4.36-.38-8.97 1.86-12.83 2.24-3.74 6.85-6.36 11.2-5.23 3.61 17.56-.5 36.49-10.82 51.19-2.87 3.98-6.35 8.47-5.23 13.2.62 2.62 2.36 4.61 3.48 6.98 5.6 11.95-7.21 24.54-8.21 37.61-.25 3.62.37 7.23.5 10.96 2.99-.24 5.97-.62 8.83-.87.5-.87 1-1.74 1.37-2.61 4.48-8.47 6.47-18.19 10.95-26.91z" fill="#A0BC3E"/>
      <path d="M1242.23 1142.51c1.75 1.25 3.49 2.37 5.35 3.62a504.88 504.88 0 01-27.99-51.69c4.35.12 6.09-6.23 4.1-10.09-1.99-3.87-6.09-6.23-9.08-9.47-7.22-7.85-7.09-19.68-7.71-30.39-.63-10.71-3.99-23.05-13.82-26.78a12.1 12.1 0 0112.2-2.49c3.61-12.33-1.87-26.66-12.69-33.38-1.75-1.13-3.61-2-4.86-3.62-3.73-4.73 0-11.33 2.99-16.44 11.32-19.3 11.94-44.47 1.49-64.27-1.61-2.99-3.48-6.1-3.48-9.6 0-2.48.87-4.97 1.87-7.22a88.8 88.8 0 0127-34.62c-13.57-12.83-10.58-38.62 5.72-47.83.25 2.12.37 4.23.62 6.35 10.7-9.47 15.68-24.79 12.69-38.74-2.11 2.37-4.35 4.61-6.47 6.98 1.37-1.5 2.37-3.86 3.61-5.6a46.08 46.08 0 014.61-5.24c3.36-3.36 6.96-6.35 10.7-9.34 3.61-2.99 7.21-5.98 10.45-9.34 2.49-2.62 7.09-6.98 7.22-10.84.12-5.6-9.09-2.12-10.58 1-.87 1.99-.37 4.36-1.24 6.35-1.62 3.86-6.72 4.36-10.7 5.48-6.72 1.87-11.83 7.1-16.68 11.96-1.99 2-4.23 4.73-3.23 7.47-6.1 4.36-9.09 12.7-7.35 20.05-3.98-.87-7.96-1.74-11.94-1-3.98.76-7.72 3.75-8.21 7.73-.63 4.98 3.98 9.97 2.49 14.82-.75 2.37-2.62 3.99-4.48 5.6a79.94 79.94 0 00-19.54 27.54c-1.37 3.11-2.36 6.97-.37 9.84 2.11 2.86 6.59 3.23 8.83 5.98 2.37 3.1.87 7.72-1.74 10.46-2.61 2.86-6.22 4.6-8.96 7.35-4.98 4.85-6.84 11.95-8.46 18.8-4.23 17.7-8.46 36.25-4.11 53.94 1 3.86 2.37 7.72 2.74 11.7.37 3.87-.25 7.85-.25 11.72-.37 20.55 12.94 38.61 25.63 54.8-4.1-.87-8.33-1.74-12.44-2.62-2.49 1.75-1.49 5.98 1 7.85 2.49 1.87 5.72 2.12 8.71 3.12 9.83 3.36 15.3 16.06 10.82 25.53-3.61-2.37-9.33.37-9.7 4.61 6.59 3.86 13.56 8.09 17.42 14.7 2.24 3.86 3.36 8.22 5.35 12.2 6.34 12.83 21.65 22.55 20.28 36.87-2.36-3.86-4.6-7.6-6.97-11.46a8.35 8.35 0 00-3.98 10.22c1.49 3.73 6.1 5.73 9.95 4.48a17.86 17.86 0 008.71 13.08c-2.48 3.74-3.36 8.34-2.48 12.7 3.11 2 5.72 4.74 7.71 7.85 4.73 1.99 9.46 3.86 14.31 5.61a34.99 34.99 0 00-15.06-26.29z" fill="#A0BC3E"/>
      <path d="M1457.13 1078.24c.49-2.99.99-6.23.12-9.21-.75-2.99-2.86-5.49-3.98-8.23-7.47-17.43 17.17-37.36 8.59-54.43-2.62-5.1-8.09-10.34-5.48-15.44 1.24-2.37 3.86-3.61 5.6-5.6 3.61-4.24 2.61-10.6 1.37-15.95-1.62-7.23-3.24-14.57-4.98-21.8-2.11-9.34-4.23-19.06-2.49-28.52 1.87-9.47 8.71-18.69 18.17-20.06 1.74-.25 3.48-.25 5.1-.74 6.22-1.75 8.71-9.97 6.1-15.95-2.61-5.85-8.71-9.59-14.81-11.33-.37 3.98-5.6 5.73-9.21 4.23-3.61-1.62-5.72-5.23-7.46-8.84a127.69 127.69 0 01-12.69-46.34c2.11 2.5 4.35 4.86 6.47 7.35 2.11-4.98-1.5-10.58-5.73-13.95-4.23-3.36-9.33-5.85-12.19-10.46-5.48-8.6-.62-20.55-4.98-29.64-2.49-5.24-7.47-8.6-11.95-12.46a19.88 19.88 0 011.25 12.58 77.08 77.08 0 00-32.6-39.73c-3.11-1.87-6.35-3.5-9.58-5.11-3.24-1.62-6.6-3.36-9.83-4.98-3.11-1.62-6.47-3.86-9.83-4.99-1.5-.5-4.48.25-4.23 2.5.25 2.11 5.35 4.73 6.96 5.85 3.24 2.24 6.47 4.48 9.59 6.85 12.44 9.6 22.52 22.05 32.47 34.38 2.86 3.49 5.6 6.97 7.22 11.2 2.36 6.74 1.12 14.2 2.99 21.06 2.98 11.09 14.18 20.43 12.69 31.39 1.12-.87 3.61-.87 4.35.75 1.12 2.49-.37 5.23-.62 7.97-.5 5.23 3.36 9.71 6.22 14.07 9.33 14.08 9.83 33.38 1.25 47.96a5.69 5.69 0 015.1 5.73c0 2.86-2.49 5.35-5.23 5.6a28.73 28.73 0 016.47 26.53 9.12 9.12 0 00-6.09-3.36c3.35 8.1 5.59 16.69 6.96 25.28a15.63 15.63 0 00-8.08 4.36 28.85 28.85 0 003.85 4.86c-7.46 4.73-5.72 16.07-2.24 24.16 3.49 8.1 7.84 17.94 2.74 25.17-1.12 1.62-2.49 2.86-3.11 4.73-.5 1.49-.25 3.11 0 4.73 1.24 6.48 3.98 12.71 4.73 19.31.87 6.6-.75 14.2-6.35 17.81-1.37.87-2.98 1.62-3.86 2.99-1.12 1.87-.49 4.23-.24 6.48.62 6.6-3.86 13.32-10.21 15.57 3.24-.13 6.47 3.11 6.85 6.47.49 4.11-1.37 8.1-2.74 11.96a48.76 48.76 0 00-1.62 26.03c6.1-8.96 12.32-17.93 18.42-26.9-10.33 15.69-9.46 36.49-14.93 54.31a216.53 216.53 0 0019.66-9.1c5.35-11.08 7.21-23.41 9.2-35.62a3124.7 3124.7 0 006.85-41.48z" fill="#A0BC3E"/>
      <path d="M1509.14 1102.66c.25-5.86-1.25-11.71-1.37-17.57-.62-23.91 19.66-44.46 20.16-68.38.12-5.98-1-11.83-.87-17.69.12-5.98 1.61-12.2 6.09-16.19 4.36-3.98 12.2-4.36 15.81.38-5.85-8.1-5.73-19.06-3.74-28.78 2-9.71 5.73-19.18 6.23-29.14.49-9.97-2.99-21.05-11.83-25.66 3.49 10.09-.49 22.17-9.2 28.27 5.6-46.2-10.21-94.54-41.94-128.42-2.24-2.36-4.6-4.86-5.72-7.97-1.37-3.61-.75-7.6-.75-11.46a32.5 32.5 0 00-3.98-14.45 219.12 219.12 0 00-25.26-17.19c-.62-.12-1.37-.12-2.11-.12l.74 10.59c-.12-1-3.11-3.5-3.85-4.24-1.37-1.37-2.74-2.86-4.23-4.23a139.27 139.27 0 00-9.09-7.85 122.7 122.7 0 00-18.29-11.7 131.6 131.6 0 00-9.83-3.37c-.12.25-.12.62.12 1.24.63 1.5 3.12 3.12 4.24 4.36 1.36 1.37 2.73 2.87 4.1 4.36a153.04 153.04 0 0115.18 18.31 80.06 80.06 0 0111.7 23.8c1.24 4.48 2.24 9.21 5.47 12.57 5.73 5.86 15.81 4.11 23.15 7.98 10.7 5.6 11.69 20.3 11.32 32.38 1.25-3.61 2.37-7.22 3.61-10.96 4.6 1.37 6.35 7.1 6.1 11.96-.13 4.86-1.5 9.84.25 14.32 1.12 2.87 3.23 5.23 5.1 7.85 12.32 17.06 7.96 40.85 14.8 60.66 4.36 12.58 13.32 24.16 12.7 37.49-.75 17.06-16.93 29.4-32.98 35.37a24.22 24.22 0 0118.04 14.58c2.99 7.47 2 16.44-2.73 23.04-2.99 4.24-7.72 8.35-7.1 13.45.25 2 1.37 3.86 2 5.86 1.12 3.61.24 7.59-.63 11.21-2.36 10.71-4.72 21.3-7.09 32.01-1.37 6.48-2.86 12.95-5.85 18.81-2.61 5.1-6.22 9.59-8.96 14.45-2.49 4.48-4.48 9.46-6.34 14.32a252.45 252.45 0 0036.83-34.25z" fill="#A0BC3E"/>
      <path d="M1122.53 870.73c-2.86 6.48-7.46 11.96-10.08 18.56-2.86 7.35-3.11 15.44-3.36 23.3-.37 12.82-.74 25.77-.99 38.6-.25 10.34-.5 20.93 2.49 30.9 2.61 8.34 7.46 15.94 10.2 24.28a49.85 49.85 0 011.62 24.54c-.63 3.61-1.5 7.72.87 10.46.87 1 1.99 1.62 3.11 2.37 5.97 3.74 10.2 9.72 14.18 15.44 10.83 15.33 21.78 30.77 32.6 46.09 5.6 7.85 11.95 16.19 19.91 21.3a12.87 12.87 0 01-3.11-5.48c-1.12-4.23-.37-8.72-1.24-13.08-2.37-10.83-14.93-16.44-19.29-26.53 2.74-1 5.48-1.87 8.09-2.86a69.55 69.55 0 01-21.65-29.03 7.69 7.69 0 00-5.6 1.87c-.25-3.73-2.49-6.97-4.6-10.09-2.12-3.11-4.11-6.6-3.61-10.34.37-3.73 4.6-7.09 7.84-5.35-4.23-1.74-5.6-6.85-6.97-11.21-1.37-4.36-4.23-9.34-8.84-9.22-2.49.13-4.97 1.87-7.34.87-2.11-.87-2.86-3.36-3.36-5.6a174.12 174.12 0 01-2.98-22.55c-.25-4.6.99-10.83 5.6-11.08 4.23-.25 6.47 4.86 7.34 8.97 1.74 8.1 2.98 16.31 3.85 24.53.87-16.44-3.23-33-11.57-47.08l6.1.38c-2.99-1-5.35-4.49-5.48-7.98-.12-4.48 2.37-8.47 4.73-12.2 2.37-3.74 4.86-7.85 4.61-12.34 0-1-.25-1.99-.75-2.74-1.74-2.36-5.97-1.12-7.34 1.5s-.75 5.85 0 8.72c-3.86-.25-4.23-5.73-3.49-9.47l11.2-55.3c.87-4.24 1.99-8.97 5.73-11.21 2.86-1.75 7.34-.38 8.58 2.37-.37-13.58 7.22-26.41 14.44-38.12 9.95-15.94 20.4-32.5 36.08-42.97a25.56 25.56 0 00-8.34 3.86c7.6-7.97 15.19-15.94 22.78-23.8 1.61-1.74 3.36-3.48 4.97-5.22.75-.75 2.99-2.37 2.24-3-37.82 20.68-69.31 52.2-90.33 90.06-.5 1.37-1 2.74-1.37 4.24-2.86 10.09-3.11 21.05-7.47 30.64z" fill="#A0BC3E"/>
      <path opacity=".1" d="M1480.52 767.97a232.2 232.2 0 0151.64 146.23c0 128.54-104.15 232.8-232.56 232.8a231.04 231.04 0 01-146.09-51.69c42.68 52.81 107.76 86.56 180.93 86.56 128.41 0 232.44-104.25 232.44-232.8.12-73.1-33.6-138.38-86.36-181.1z" fill="black"/>
      <path opacity=".12" d="M1329.09 1181.87c1.86 0 3.61.13 5.47.13 115.47 0 211.41-84.33 229.45-194.93-30.61 110.85-123.81 192.06-234.92 194.8z" fill="black"/>
      <path opacity=".15" d="M1301.59 737.33a364.3 364.3 0 00-30.24 15.57 388.52 388.52 0 00-28.37 17.81c-18.29 12.58-35.34 26.78-50.52 42.72-1.86 2-3.73 4.11-5.6 6.1-.87 1-1.86 2-2.74 3.12l-2.61 3.12c-1.74 2.11-3.61 4.1-5.22 6.35l-4.98 6.47a311.77 311.77 0 00-17.92 27.78c-10.83 19.3-19.04 40.23-25.88 62.03.5-11.46 1.74-22.92 4.48-34.13 2.49-11.33 6.34-22.3 10.95-33l3.73-7.98a38.5 38.5 0 011.99-3.86l2.12-3.86 2.11-3.86c.62-1.25 1.5-2.5 2.24-3.74l4.73-7.47c3.36-4.74 6.72-9.6 10.45-14.08l2.74-3.36c.87-1.12 1.87-2.24 2.86-3.36 1.99-2.12 3.86-4.36 5.85-6.48a233.14 233.14 0 0155.12-42.47 232.04 232.04 0 0131.48-14.45c5.36-2 10.83-3.74 16.43-5.23a125.82 125.82 0 0116.8-3.74z" fill="#FFFCDC"/>
    </g>
    <g clip-path="url(#clip2)">
      <path d="M1709.23 190.05c-61.15 28.94-132.11 26.54-189.72-17-57.6-43.55-79.26-111.16-68.1-177.89l-102.27-77.3c-88.04 116.48-70.18 300.44 61.14 399.7 131.32 99.26 313.17 66.26 401.21-50.21l-102.26-77.3z" fill="#FEAD51"/>
      <path d="M1361.58-72.74l-12.44-9.4c-82.09 108.61-71.31 287.42 51.38 380.17 5.33 4.02 10.72 7.7 16.21 11.25-108.94-95.9-133.8-277.98-55.15-382.02z" fill="#E0E068"/>
      <path opacity=".15" d="M1499.37 199.7c84.38 63.77 166.65 60.17 235.61 9.81l-14.08-10.64-11.67-8.82c-61.15 28.94-132.11 26.54-189.72-17-57.6-43.55-79.26-111.16-68.1-177.89l-11.8-8.92-20.43-15.44c-28.26 79.33-4.18 165.11 80.19 228.9z" fill="#FFFCDC"/>
      <path d="M1811.49 267.35l-11.92-9.02c-78.55 103.92-261.24 129.31-383.06 50.99 4.91 4.3 9.92 8.5 15.25 12.52 122.57 92.65 297.64 54.12 379.73-54.5z" fill="#E0E068"/>
      <path d="M1812.89 268.4c-90.6 110.36-278.02 143.34-402.61 49.16-124.6-94.18-142.09-282.05-60.76-399.4-88.04 116.47-73.99 297.55 60.76 399.4 127.26 96.2 276.99 110.7 402.61-49.16z" fill="#85972B"/>
      <path d="M1804.64 262.17c-87.5 106.52-267.34 139.24-388.51 47.65-121.27-91.46-138.62-273.45-60.14-386.78l-6.72-5.08c-85.07 112.54-66.64 303.12 61.01 399.6 127.64 96.48 316.02 62.23 401.08-50.31l-6.72-5.08z" fill="#A0BC3E"/>
      <path d="M1349.27-82.04c-85.07 112.54-66.64 303.12 61.01 399.6 127.64 96.48 316.02 62.23 401.08-50.31" stroke="#4D9A30" stroke-width="2" stroke-miterlimit="10"/>
      <path d="M1514.33 179.9c72.71 54.95 156.35 42.42 201.75 15.32l-6.85-5.17c-61.15 28.94-131.99 26.63-189.72-17-57.6-43.55-79.26-111.16-68.1-177.89l-8.63-6.52c-16.37 56.21-1.4 136.11 71.55 191.26z" fill="#EB7C10"/>
      <path opacity=".15" d="M1381.47-34.17l-5.38 19.25-2.55 9.44c-.81 3.18-1.74 6.26-2.45 9.31l-2.46 9.31c-.71 3.06-1.51 6.23-2.23 9.28-.58 3.15-1.42 6.1-2.1 9.38-.35 1.53-.71 3.05-.94 4.67l-.94 4.68-1.06 4.57-.94 4.67c-.59 3.15-1.3 6.2-1.89 9.35-.58 3.15-.94 6.26-1.53 9.41-.35 1.53-.58 3.15-.81 4.77l-.59 4.74c-.36 3.11-1.17 6.29-1.4 9.5-.36 3.12-.82 6.36-1.28 9.6-.68 3.28-.91 6.49-1.24 9.83-.46 3.24-1.02 6.61-1.67 10.1a112.63 112.63 0 01-9.26-39.7c-.61-6.84-.2-13.7-.02-20.54.1-1.72.33-3.34.53-5.19l.65-5.08.66-5.1.91-4.89c.77-3.4 1.45-6.67 2.36-9.98 1.03-3.2 1.93-6.51 3.06-9.85 1.25-3.24 2.41-6.35 3.79-9.5 1.25-3.23 2.88-6.18 4.39-9.23.7-1.46 1.63-2.95 2.43-4.54.93-1.5 1.64-2.95 2.56-4.45 1.77-2.85 3.75-5.74 5.64-8.5 2.11-2.8 4.12-5.46 6.48-8.06a55.87 55.87 0 017.28-7.25z" fill="#FFFCDC"/>
      <path d="M1473.49 130.28c.49 5.16-1.01 14.79-3.98 15.54-3.15 1-6.89-9.6-7.03-14.69-.23-8.14 1.67-12.5 4.72-12.58 3.05-.08 5.62 3.65 6.29 11.73z" fill="#EDC74C"/>
      <path d="M1474.28 130.28c.49 5.16-1.23 14.82-4.25 15.13-3.03.3-6.3-9.35-6.76-14.28-.67-8.08 1.39-12.9 4.44-13 3.15-.2 5.9 4.07 6.57 12.15z" fill="#F9F3A2"/>
      <path d="M1468.53 119.16a8.46 8.46 0 013.3 4.08c.34.86.69 1.72.91 2.49.22.76.34 1.65.47 2.55-.35-1.66-.82-3.41-1.61-5a17.42 17.42 0 00-3.07-4.12z" fill="white"/>
      <path d="M1465.41 120.39c-1.23 5.05-5.94 13.65-8.99 12.94-3.05-.7-2.98-10.82-1.72-15.65 1.97-7.89 5.42-11.66 8.47-10.95 2.96.84 4.21 5.78 2.24 13.66z" fill="#EDC74C"/>
      <path d="M1466.78 119.63c-1.23 5.05-5.93 13.66-8.99 12.94-3.05-.7-2.98-10.82-1.72-15.65 1.97-7.88 5.42-11.66 8.47-10.95 3.05.72 4.21 5.78 2.24 13.66z" fill="#F9F3A2"/>
      <path d="M1463.23 107.97a4 4 0 011.77 2.14c.35.86.38 1.88.5 2.77.03 1.02.03 1.81-.07 2.74-.1.92-.33 1.74-.55 2.57l-.13-.1c.1-1.71-.02-3.4-.36-5.05-.22-.77-.57-1.63-.66-2.3-.25-.98-.47-1.75-.5-2.77z" fill="white"/>
    </g>
    <g clip-path="url(#clip3)">
      <path d="M550.17 798.15c-37.12 31.63-86.95 43.3-135.21 23.81-48.27-19.48-76.05-62.46-80.81-111l-85.7-34.57c-39.38 97.6 7.6 222.26 117.64 266.66 110.03 44.41 230.38-12.72 269.77-110.31l-85.69-34.59z" fill="#FEAD51"/>
      <path d="M258.88 680.6l-10.42-4.21c-36.73 91 4.36 213.41 107.17 254.9 4.46 1.8 8.9 3.35 13.4 4.79-93.83-46.27-145.34-168.31-110.15-255.49z" fill="#E0E068"/>
      <path opacity=".15" d="M405.95 844.29c70.7 28.53 127.27 10.57 165.8-37.42l-11.8-4.77-9.78-3.95c-37.12 31.63-86.95 43.3-135.21 23.81-48.27-19.48-76.05-62.46-80.81-111l-9.9-3.98-17.1-6.9c-4.77 60.5 28.1 115.68 98.8 144.21z" fill="#FFFCDC"/>
      <path d="M635.86 832.74l-10-4.04c-35.13 87.07-157.5 139.07-256.98 107.44 4.23 2.08 8.5 4.05 12.96 5.86 102.7 41.44 217.3-18.26 254.02-109.26z" fill="#E0E068"/>
      <path d="M637.03 833.2c-42.31 93.83-166.54 151.99-270.94 109.85-104.4-42.13-151.87-169.58-117.31-266.53-39.39 97.59 4.4 220.97 117.3 266.53 106.64 43.04 213.56 25 270.95-109.84z" fill="#85972B"/>
      <path d="M630.12 830.42c-40.88 90.57-159.89 147.12-261.42 106.15C267.13 895.7 220.87 772.32 254.2 678.7l-5.63-2.27c-38.06 94.3 10.57 223.46 117.52 266.62C473.04 986.22 597.69 927 635.75 832.7l-5.63-2.27z" fill="#A0BC3E"/>
      <path d="M248.56 676.43c-38.05 94.3 10.58 223.46 117.53 266.62C473.04 986.22 597.69 927 635.75 832.7" stroke="#4D9A30" stroke-width="2" stroke-miterlimit="10"/>
      <path d="M412.64 827.7c60.92 24.59 116.77.15 143.27-27.23l-5.74-2.32c-37.12 31.63-86.84 43.34-135.21 23.81-48.27-19.48-76.05-62.46-80.81-111l-7.23-2.9c-.84 42.18 24.59 94.97 85.72 119.65z" fill="#EB7C10"/>
      <path opacity=".15" d="M279.97 703.7l-.13 14.4v7.05c.03 2.36-.04 4.68.04 6.94l.04 6.94c.08 2.26.12 4.62.2 6.88.18 2.3.15 4.51.3 6.92.03 1.13.07 2.25.21 3.43l.23 3.42.12 3.39.22 3.43c.18 2.3.26 4.55.45 6.85.18 2.3.52 4.54.7 6.84.04 1.13.18 2.3.33 3.47l.48 3.4c.33 2.25.37 4.6.8 6.89.34 2.23.63 4.58.92 6.92.14 2.4.58 4.68.98 7.07.3 2.34.54 4.8.75 7.35a81.08 81.08 0 01-13.91-25.89c-1.71-4.65-2.72-9.5-3.88-14.3-.25-1.21-.4-2.38-.6-3.7l-.5-3.67-.5-3.66-.29-3.58c-.1-2.5-.24-4.92-.23-7.38.12-2.43.12-4.9.28-7.43.26-2.5.48-4.88.85-7.32.27-2.5.85-4.86 1.32-7.26.22-1.15.59-2.36.84-3.62.37-1.2.59-2.36.95-3.57.7-2.32 1.53-4.7 2.32-6.98a81.05 81.05 0 013-6.82c1.01-2.19 2.28-4.4 3.7-6.42z" fill="#FFFCDC"/>
      <path d="M374.9 800.85c1.3 3.5 2.07 10.48.15 11.56-2 1.3-6.6-5.39-7.66-8.9-1.69-5.63-1.19-9.01.92-9.64 2.11-.63 4.6 1.48 6.58 6.98z" fill="#EDC74C"/>
      <path d="M375.45 800.7c1.3 3.5 1.92 10.55-.12 11.33-2.05.78-6.14-5.32-7.39-8.67-1.98-5.5-1.46-9.24.65-9.88 2.16-.73 4.87 1.72 6.86 7.22z" fill="#F9F3A2"/>
      <path d="M369.36 794.04a6.06 6.06 0 013.06 2.22c.4.54.8 1.07 1.1 1.56.3.5.55 1.09.8 1.69a15.01 15.01 0 00-2.05-3.18c-.9-.86-1.79-1.71-2.91-2.29z" fill="white"/>
      <path d="M367.42 795.48c.09 3.75-1.57 10.62-3.83 10.7-2.25.08-4.1-6.97-4.14-10.57-.1-5.86 1.59-9.13 3.84-9.2 2.22.02 4.02 3.22 4.13 9.07z" fill="#EDC74C"/>
      <path d="M368.23 794.7c.1 3.75-1.57 10.62-3.83 10.7-2.25.07-4.1-6.98-4.14-10.58-.1-5.85 1.59-9.13 3.84-9.2 2.26-.08 4.02 3.22 4.13 9.08z" fill="#F9F3A2"/>
      <path d="M363.57 787.25c.68.15 1.23.62 1.63 1.16.4.53.62 1.24.87 1.83.21.7.36 1.26.46 1.92.1.66.1 1.28.1 1.9l-.1-.05a13.86 13.86 0 00-1.2-3.45c-.3-.5-.7-1.03-.9-1.47-.36-.64-.65-1.13-.86-1.84z" fill="white"/>
    </g>
    <path d="M264.5 409c83.67 0 151.5-67.83 151.5-151.5S348.17 106 264.5 106 113 173.83 113 257.5 180.83 409 264.5 409z" fill="#85972B"/>
    <path d="M264.5 404.1c80.97 0 146.6-65.63 146.6-146.6s-65.63-146.6-146.6-146.6-146.6 65.63-146.6 146.6 65.63 146.6 146.6 146.6z" stroke="#758525" stroke-width="3" stroke-miterlimit="10"/>
    <path d="M264.5 403.53c80.65 0 146.03-65.38 146.03-146.03S345.15 111.47 264.5 111.47 118.47 176.85 118.47 257.5s65.38 146.03 146.03 146.03z" fill="#E0E068"/>
    <path d="M264.5 395.2c76.05 0 137.7-61.65 137.7-137.7 0-76.05-61.65-137.7-137.7-137.7-76.05 0-137.7 61.65-137.7 137.7 0 76.05 61.65 137.7 137.7 137.7z" fill="#EE3E3E"/>
    <path opacity=".05" d="M264.5 353.33a95.83 95.83 0 0095.83-95.83 95.83 95.83 0 10-191.66 0 95.83 95.83 0 0095.83 95.83z" fill="#FFFCE1"/>
    <path d="M231.11 327.94c-.24-1.22 0-3.67.9-3.83.9-.17 2.13 2.04 2.37 3.18.4 1.96-.08 3.19-.98 3.35-.9.16-1.88-.74-2.29-2.7z" fill="#272A28"/>
    <path d="M232.18 324.44c.24 0 .48.16.65.32.16.16.32.4.4.57.25.41.33.9.33 1.3a3 3 0 00-.57-1.13c-.16-.17-.33-.33-.4-.5-.25-.16-.33-.24-.41-.56z" fill="#BABABA"/>
    <path d="M162.22 299.78c.5-1.14 2.12-3.02 3.02-2.6.82.4.57 2.93.08 4-.81 1.79-1.96 2.52-2.77 2.11-.82-.4-1.15-1.63-.33-3.5z" fill="#272A28"/>
    <path d="M165.08 297.58c.16.16.24.4.32.57.09.25 0 .49 0 .74-.08.49-.24.9-.49 1.22.17-.4.25-.82.25-1.23 0-.24-.08-.4-.08-.65-.08-.16-.08-.32 0-.65z" fill="#BABABA"/>
    <path d="M335.43 347.54c-.73-1.06-1.47-3.43-.65-3.92.74-.5 2.78 1.06 3.43 2.04 1.14 1.63 1.14 3.02.4 3.5-.8.5-2.03 0-3.18-1.62z" fill="#272A28"/>
    <path d="M335.03 343.94c.24-.08.49 0 .73 0 .25.09.4.25.57.41.33.33.66.74.82 1.14a3.48 3.48 0 00-.98-.9c-.17-.07-.41-.16-.57-.24-.17-.16-.33-.24-.57-.4z" fill="#BABABA"/>
    <path d="M356.25 273.1c-.65-1.07-1.23-3.52-.5-3.93.82-.49 2.7 1.23 3.36 2.2 1.06 1.72.97 3.03.16 3.52-.82.49-1.96-.08-3.02-1.8z" fill="#272A28"/>
    <path d="M356.08 269.42c.25-.08.5 0 .74.08.25.08.4.24.57.4.33.33.57.74.74 1.15a4.69 4.69 0 00-.9-.9c-.17-.08-.41-.16-.57-.32a.95.95 0 01-.58-.41z" fill="#BABABA"/>
    <path d="M276.25 365.5c-.08-1.31.66-3.68 1.56-3.68s1.7 2.37 1.8 3.6c.07 2.03-.66 3.1-1.56 3.18-.9.08-1.71-1.07-1.8-3.1z" fill="#272A28"/>
    <path d="M277.89 362.31c.24.08.4.25.57.4.16.17.24.42.24.66.17.5.17.9.09 1.39h-.09c-.08-.4-.16-.9-.32-1.22-.08-.17-.25-.33-.33-.58 0-.24-.08-.4-.16-.65z" fill="#BABABA"/>
    <path d="M279.44 338.15c-.08-1.3.65-3.67 1.55-3.67s1.71 2.36 1.8 3.59c.08 2.04-.66 3.1-1.56 3.18-.98 0-1.71-1.06-1.8-3.1z" fill="#272A28"/>
    <path d="M281.07 334.97c.25.08.4.24.57.4.17.17.25.41.25.66.16.49.16.9.08 1.39-.08-.41-.17-.9-.33-1.23-.08-.16-.24-.33-.32-.57-.09-.25-.17-.4-.25-.65z" fill="#BABABA"/>
    <path d="M229.07 365.33c.33-1.22 1.72-3.26 2.62-3.02.9.25.9 2.78.57 4-.57 1.96-1.55 2.77-2.45 2.53-.82-.33-1.23-1.63-.74-3.51z" fill="#272A28"/>
    <path d="M231.69 362.8c.16.16.32.33.4.57.09.25.09.5.09.74 0 .49-.17.9-.33 1.3.08-.4.16-.9.08-1.3 0-.25-.08-.41-.16-.58-.08-.32-.17-.48-.08-.73z" fill="#BABABA"/>
    <path d="M194.3 338.72c-.33-1.23-.33-3.67.57-3.92.9-.24 2.29 1.88 2.61 3.02.58 1.96.17 3.19-.73 3.43-.9.25-1.88-.57-2.45-2.53z" fill="#272A28"/>
    <path d="M195.03 335.21c.25 0 .5.08.66.25.16.16.32.32.4.57.25.4.41.81.41 1.3a3.2 3.2 0 00-.65-1.14c-.16-.16-.32-.25-.4-.4-.17-.17-.25-.34-.41-.58z" fill="#BABABA"/>
    <path d="M344.33 298.89c-.57-1.15-.9-3.6-.08-4 .82-.41 2.53 1.47 3.1 2.53.9 1.8.65 3.1-.16 3.5-.82.5-2.04-.16-2.86-2.03z" fill="#272A28"/>
    <path d="M344.5 295.3c.24 0 .48 0 .65.16.24.08.4.32.49.49.32.32.49.81.57 1.22-.25-.4-.5-.73-.82-.98-.16-.16-.32-.24-.49-.32-.08-.25-.24-.33-.4-.58z" fill="#BABABA"/>
    <path d="M205.73 303.21c.4-1.22 1.8-3.18 2.7-2.94.89.33.8 2.86.48 4-.65 1.88-1.71 2.7-2.53 2.45-.81-.24-1.3-1.55-.65-3.5z" fill="#272A28"/>
    <path d="M208.34 300.76c.16.17.33.33.4.57.09.25.09.5.09.74 0 .49-.16.9-.4 1.3.07-.4.16-.9.07-1.3 0-.25-.08-.4-.08-.57-.08-.25-.08-.5-.08-.74z" fill="#BABABA"/>
    <path d="M259.68 311.95c-.24-1.23-.08-3.68.82-3.92.9-.25 2.12 2.04 2.45 3.18.4 1.96-.08 3.19-.98 3.35-.82.32-1.8-.66-2.29-2.61z" fill="#272A28"/>
    <path d="M260.75 308.52c.24 0 .49.16.65.32.16.17.33.41.4.58.25.4.33.9.33 1.3-.08-.4-.32-.82-.57-1.14-.16-.16-.32-.33-.4-.5a1.47 1.47 0 01-.42-.56z" fill="#BABABA"/>
    <path d="M315.35 323.86c.33-1.22 1.64-3.34 2.53-3.1.9.25 1.06 2.78.74 3.92-.5 1.96-1.47 2.86-2.37 2.61-.9-.24-1.39-1.47-.9-3.43z" fill="#272A28"/>
    <path d="M317.8 321.25c.25.08.33.33.41.57.08.25.08.5.08.74 0 .49-.08.9-.32 1.3.08-.4.08-.9 0-1.3 0-.25-.17-.41-.17-.57v-.74z" fill="#BABABA"/>
    <path d="M222.87 269.5c-.4-1.22-.49-3.67.4-3.92.9-.32 2.38 1.72 2.78 2.86.66 1.88.33 3.18-.57 3.5-.9.25-1.96-.56-2.61-2.44z" fill="#272A28"/>
    <path d="M223.44 265.99c.25 0 .5.08.66.25l.48.49c.25.4.41.81.5 1.3-.17-.4-.41-.81-.66-1.06-.16-.16-.32-.25-.49-.4-.24-.25-.4-.33-.49-.58z" fill="#BABABA"/>
    <path d="M264.34 269.34c-.08-1.31.65-3.68 1.55-3.68s1.71 2.37 1.8 3.6c.07 2.04-.66 3.1-1.56 3.18-.9 0-1.71-1.14-1.8-3.1z" fill="#272A28"/>
    <path d="M265.97 266.07c.24.08.4.25.57.4.16.17.25.42.25.66.16.5.16.9.08 1.39h-.08c-.09-.4-.17-.9-.33-1.22-.08-.17-.25-.33-.33-.58 0-.16-.08-.32-.16-.65z" fill="#BABABA"/>
    <path d="M305.07 277.42c-.4-1.23-.5-3.68.4-3.92.9-.33 2.37 1.71 2.78 2.86.65 1.87.33 3.18-.57 3.5-.82.25-1.88-.56-2.61-2.44z" fill="#272A28"/>
    <path d="M305.72 273.9c.25 0 .5.09.65.25l.5.5c.24.4.4.8.48 1.3-.16-.4-.4-.82-.65-1.06-.16-.17-.32-.25-.49-.41-.24-.25-.4-.33-.49-.57z" fill="#BABABA"/>
    <path d="M242.87 196.28c-.25-1.22 0-3.67.9-3.84.9-.16 2.12 2.04 2.36 3.19.41 1.96-.08 3.18-.98 3.34-.9.17-1.87-.73-2.28-2.69z" fill="#272A28"/>
    <path d="M243.93 192.77c.25 0 .49.16.65.33.17.16.33.4.41.57.25.4.33.9.33 1.3-.08-.4-.33-.81-.57-1.14-.17-.16-.33-.33-.41-.49a1.47 1.47 0 01-.41-.57z" fill="#BABABA"/>
    <path d="M171.6 183.8c.5-1.15 2.13-3.03 3.03-2.62.81.4.57 2.94.08 4-.82 1.8-1.96 2.53-2.78 2.12-.97-.33-1.14-1.63-.32-3.5z" fill="#272A28"/>
    <path d="M174.47 181.59c.16.16.24.4.32.57.08.24 0 .49 0 .73-.08.5-.24.9-.49 1.23.16-.41.25-.82.25-1.23 0-.24-.09-.4-.09-.65-.08-.16-.08-.33 0-.65z" fill="#BABABA"/>
    <path d="M337.72 236.03c-.74-1.06-1.47-3.43-.65-3.92.73-.49 2.77 1.06 3.43 2.04 1.14 1.64 1.14 3.03.4 3.51-.73.5-2.04 0-3.18-1.63z" fill="#272A28"/>
    <path d="M337.4 232.44c.24-.08.48 0 .73 0 .24.08.4.25.57.4.33.34.65.74.81 1.15a3.46 3.46 0 00-.97-.9l-.58-.24c-.16-.16-.4-.25-.57-.4z" fill="#BABABA"/>
    <path d="M356.66 203.87c-.66-1.06-1.23-3.5-.5-3.92.82-.49 2.7 1.23 3.35 2.2 1.06 1.72.98 3.03.17 3.52-.74.49-1.96-.08-3.02-1.8z" fill="#272A28"/>
    <path d="M356.5 200.28c.24-.08.48 0 .73.08.24.08.4.25.57.41.33.33.57.73.74 1.14a4.68 4.68 0 00-.9-.9c-.17-.08-.41-.16-.57-.32-.25-.16-.41-.25-.58-.41z" fill="#BABABA"/>
    <path d="M288.09 233.83c-.08-1.3.65-3.68 1.55-3.68s1.72 2.37 1.8 3.6c.08 2.04-.66 3.1-1.55 3.18-.9.08-1.72-1.14-1.8-3.1z" fill="#272A28"/>
    <path d="M289.72 230.56c.25.09.41.25.57.41.17.16.25.41.33.66.16.48.16.9.08 1.38-.08-.4-.16-.9-.32-1.22-.09-.16-.25-.33-.33-.57-.16-.17-.33-.33-.33-.66z" fill="#BABABA"/>
    <path d="M302.38 212.36c-.09-1.3.65-3.67 1.55-3.67s1.71 2.37 1.8 3.59c.07 2.04-.66 3.1-1.56 3.18-.98 0-1.8-1.14-1.8-3.1z" fill="#272A28"/>
    <path d="M304 209.1c.25.08.42.24.58.4.16.17.24.41.24.66.17.49.17.9.08 1.38-.08-.4-.16-.9-.32-1.22-.08-.16-.25-.33-.33-.57-.08-.16-.24-.33-.24-.65z" fill="#BABABA"/>
    <path d="M240.91 233.66c.33-1.22 1.71-3.26 2.61-3.01.9.24.9 2.77.57 4-.57 1.95-1.55 2.77-2.45 2.53-.9-.25-1.3-1.64-.73-3.52z" fill="#272A28"/>
    <path d="M243.44 231.05c.16.17.33.33.4.57.09.25.09.5.09.74 0 .49-.16.9-.33 1.3.09-.4.17-.9.09-1.3 0-.25-.09-.4-.17-.57-.08-.25-.08-.41-.08-.74z" fill="#BABABA"/>
    <path d="M203.85 218.73c-.16-1.3.25-3.68 1.22-3.76.99-.08 1.96 2.2 2.13 3.43.24 1.96-.33 3.19-1.3 3.27-.99.08-1.8-.9-2.05-2.94z" fill="#272A28"/>
    <path d="M205.16 215.38c.24 0 .4.16.65.33.16.16.25.4.33.65.16.4.24.9.16 1.39-.08-.41-.25-.82-.4-1.23a2.14 2.14 0 00-.42-.49c-.08-.24-.24-.32-.32-.65z" fill="#BABABA"/>
    <path d="M185 262.64c-.17-1.3.24-3.67 1.22-3.75.98-.08 1.96 2.2 2.12 3.43.25 1.95-.33 3.18-1.3 3.26-.98.08-1.8-.98-2.04-2.94z" fill="#272A28"/>
    <path d="M186.3 259.3c.25 0 .4.16.65.32.17.17.25.41.33.65.16.41.25.9.16 1.4-.08-.42-.24-.82-.4-1.23-.09-.17-.25-.33-.41-.5-.08-.24-.25-.4-.33-.64z" fill="#BABABA"/>
    <path d="M158.22 232.52c-.32-1.22-.32-3.67.57-3.92.9-.24 2.29 1.88 2.62 3.03.57 1.95.16 3.18-.74 3.42-.82.25-1.88-.65-2.45-2.53z" fill="#272A28"/>
    <path d="M159.04 228.93c.24 0 .49.08.65.25.16.16.33.32.4.57.25.4.42.81.42 1.3-.17-.4-.33-.81-.66-1.14-.16-.16-.32-.25-.4-.4-.17-.17-.33-.25-.41-.58z" fill="#BABABA"/>
    <path d="M370.2 232.69c-.56-1.15-.9-3.6-.07-4 .81-.41 2.53 1.47 3.1 2.53.9 1.8.65 3.1-.17 3.5-.81.41-2.04-.24-2.85-2.03z" fill="#272A28"/>
    <path d="M370.37 229.1c.25 0 .49 0 .65.16.25.08.41.32.5.49.32.32.48.81.56 1.22-.24-.4-.48-.73-.81-.98-.16-.16-.33-.24-.5-.33-.07-.24-.24-.32-.4-.57z" fill="#BABABA"/>
    <path d="M217.48 171.55c.41-1.23 1.8-3.19 2.7-2.94.9.32.81 2.86.49 4-.66 1.88-1.72 2.7-2.53 2.45-.9-.33-1.23-1.63-.66-3.51z" fill="#272A28"/>
    <path d="M220.18 169.1c.16.16.32.33.4.57.09.25.09.49.09.74 0 .48-.17.9-.41 1.3.08-.4.16-.9.08-1.3 0-.25-.08-.41-.08-.58-.08-.32-.16-.49-.08-.73z" fill="#BABABA"/>
    <path d="M271.52 180.28c-.25-1.22-.08-3.67.82-3.92.9-.16 2.12 2.04 2.45 3.19.4 1.96-.09 3.18-.99 3.34-.9.25-1.87-.65-2.28-2.6z" fill="#272A28"/>
    <path d="M272.5 176.85c.24 0 .49.17.65.33.17.16.33.4.41.57.25.4.33.9.33 1.3a3 3 0 00-.57-1.14c-.17-.16-.33-.32-.41-.49-.17-.24-.33-.32-.41-.57z" fill="#BABABA"/>
    <path d="M322.37 184.36c.33-1.22 1.64-3.34 2.53-3.1.9.25 1.06 2.78.74 3.92-.5 1.96-1.47 2.86-2.37 2.61-.9-.24-1.39-1.47-.9-3.43z" fill="#272A28"/>
    <path d="M324.82 181.75c.25.08.33.33.41.57.08.25.08.5.08.74 0 .49-.08.9-.32 1.3.08-.4.08-.9 0-1.3 0-.25-.17-.41-.17-.57.08-.33 0-.5 0-.74z" fill="#BABABA"/>
    <path d="M240.91 152.04c-.4-1.23-.49-3.68.4-3.92.9-.25 2.38 1.71 2.78 2.86.66 1.87.33 3.18-.57 3.5-.9.25-1.96-.56-2.61-2.44z" fill="#272A28"/>
    <path d="M241.48 148.45c.25 0 .5.08.65.24l.5.5c.24.4.4.8.48 1.3-.16-.41-.4-.82-.65-1.06-.16-.17-.33-.25-.49-.41a1.1 1.1 0 01-.49-.57z" fill="#BABABA"/>
    <path d="M275.27 151.55c-.08-1.3.66-3.68 1.56-3.68s1.71 2.37 1.8 3.6c.07 2.04-.66 3.1-1.56 3.18-.98 0-1.71-1.14-1.8-3.1z" fill="#272A28"/>
    <path d="M276.9 148.37c.25.08.42.24.58.4.16.17.24.41.32.66.17.49.17.9.09 1.38-.08-.4-.17-.9-.33-1.22-.08-.16-.25-.33-.33-.57-.16-.25-.24-.41-.32-.66z" fill="#BABABA"/>
    <path d="M307.03 166.16c-.41-1.22-.5-3.67.4-3.92.9-.33 2.37 1.72 2.78 2.86.65 1.88.33 3.18-.57 3.5-.9.25-1.96-.56-2.61-2.44z" fill="#272A28"/>
    <path d="M307.6 162.57c.24 0 .49.08.65.24l.5.5c.24.4.4.8.48 1.3-.16-.41-.4-.82-.65-1.06-.16-.17-.33-.25-.5-.41a3.54 3.54 0 01-.48-.57z" fill="#BABABA"/>
  </g>
  <defs>
    <clipPath id="clip0">
      <path fill="white" d="M0 0h1920v1080H0z"/>
    </clipPath>
    <clipPath id="clip1">
      <path fill="white" transform="translate(1102 654)" d="M0 0h465v528H0z"/>
    </clipPath>
    <clipPath id="clip2">
      <path fill="white" transform="rotate(37.09 797.72 1967.91)" d="M0 0h582.75v283.58H0z"/>
    </clipPath>
    <clipPath id="clip3">
      <path fill="white" transform="rotate(21.98 -1616.86 975.29)" d="M0 0h420.06v204.41H0z"/>
    </clipPath>
  </defs>
</svg>
