<svg fill="none" xmlns="http://www.w3.org/2000/svg" viewBox="0 0 1920 1080">
  <g clip-path="url(#clip0)">
    <path fill="#0A0A0A" d="M0 0h1920v1080H0z"/>
    <path d="M1782.06 680.3l-.15-.61c-2.93-10.4-19.94-15.35-42.42-13.9-9.72.64-20.47 2.48-31.54 5.6a154.9 154.9 0 00-29.82 11.68c-19.94 10.46-31.88 23.56-28.95 33.96l.19.6" stroke="#5DD0D8" stroke-width="9.06" stroke-miterlimit="10"/>
    <path d="M1814.59 671.26l-.18-.72c-5.47-19.43-43.96-26.1-90.1-17.15a253.9 253.9 0 00-20.08 4.78 251.25 251.25 0 00-19.7 6.42c-44 16.43-73.33 42.18-67.87 61.59l.22.7" stroke="#5DD0D8" stroke-width="2.24" stroke-miterlimit="10"/>
    <path d="M1728.26 743.57a42.98 42.98 0 0029.7-53.03 42.99 42.99 0 00-53-29.76 42.98 42.98 0 00-29.7 53.03 42.98 42.98 0 0053 29.76z" fill="#9C03F8"/>
    <path opacity=".2" d="M1704.96 660.78c-1.6.45-3.17 1-4.71 1.63 0 0 54.19 26.78 23.14 82.24a42.97 42.97 0 0016.2-6.18 42.96 42.96 0 0012.43-12.09 43.13 43.13 0 006.65-16.03 43.17 43.17 0 00-.23-17.35 43.1 43.1 0 00-7.07-15.86 42.85 42.85 0 00-12.75-11.77 42.93 42.93 0 00-33.66-4.6z" fill="#0A0A0A"/>
    <path opacity=".04" d="M1704.96 660.78c-1.6.45-3.17 1-4.71 1.63a42.95 42.95 0 0129.95 6.23 43.05 43.05 0 0118.23 24.59 43.06 43.06 0 01-2.74 30.49 42.9 42.9 0 01-22.3 20.93 42.97 42.97 0 0016.2-6.18 42.96 42.96 0 0012.43-12.09 43.13 43.13 0 006.65-16.03 43.17 43.17 0 00-.23-17.35 43.1 43.1 0 00-7.07-15.86 42.85 42.85 0 00-12.75-11.77 42.93 42.93 0 00-33.66-4.6z" fill="#0A0A0A"/>
    <path d="M1782.06 680.3c3.31 14.85-22.78 34.87-58.93 45.04-36.16 10.17-68.86 6.7-73.77-7.7" stroke="#5DD0D8" stroke-width="9.06" stroke-miterlimit="10"/>
    <path d="M1814.59 671.26c5.22 22.13-33.73 52.1-87.75 67.29-54.01 15.2-102.87 9.94-109.96-11.66" stroke="#5DD0D8" stroke-width="2.24" stroke-miterlimit="10"/>
    <path d="M1791.62 714.28a6.1 6.1 0 004.22-7.52 6.1 6.1 0 00-7.52-4.22 6.1 6.1 0 00-4.22 7.52 6.1 6.1 0 007.52 4.22z" fill="#5DD0D8"/>
    <path opacity=".2" d="M1790.65 702.35a5.47 5.47 0 00-.7-.04s5.69 6.42-1.36 12.04a6.1 6.1 0 005.18-1.17 6.1 6.1 0 002.25-4.08 6.1 6.1 0 00-1.28-4.49 6.11 6.11 0 00-4.09-2.26z" fill="#0A0A0A"/>
    <path opacity=".04" d="M1790.65 702.35a5.47 5.47 0 00-.7-.04 6.1 6.1 0 014.66 6.63 6.09 6.09 0 01-6.02 5.41 6.1 6.1 0 005.18-1.17 6.1 6.1 0 002.25-4.08 6.1 6.1 0 00-1.28-4.49 6.11 6.11 0 00-4.09-2.26z" fill="#0A0A0A"/>
    <path d="M1650.79 711.57a4.17 4.17 0 002.88-5.14 4.17 4.17 0 10-8.02 2.26 4.17 4.17 0 005.14 2.88z" fill="#5DD0D8"/>
    <path opacity=".2" d="M1653.76 708.29l.06-.48s-4.61 3.6-8.15-1.45c-.05.15-.09.3-.11.47a4.07 4.07 0 00-.02 1.67c.1.55.32 1.07.63 1.54a4.17 4.17 0 004.41 1.73 4.17 4.17 0 003.18-3.5v.02z" fill="#0A0A0A"/>
    <path opacity=".04" d="M1653.76 708.29l.06-.48a4.16 4.16 0 01-7.27 1.39 4.12 4.12 0 01-.88-2.84c-.05.15-.09.3-.11.47a4.07 4.07 0 00-.02 1.67c.1.55.32 1.07.63 1.54a4.17 4.17 0 004.41 1.73 4.17 4.17 0 003.18-3.5v.02z" fill="#0A0A0A"/>
    <g clip-path="url(#clip1)">
      <path d="M1411.2 260.58l-3.03-14.54c-.73-3.52-3.99-9.04-6.49-8.51l-.87.18a58.1 58.1 0 00-31.57-29.33v-.06c0-3.2-6.34-5.8-10.78-5.8h-18.41c-4.44 0-11.98 2.6-11.98 5.8v.06a57.97 57.97 0 00-23.6 16.9l-.73-.5c-1.05-.68-3.25.88-4.2 2.35l-3.94 6.11c-.95 1.47-1.71 4.53-.66 5.22l.94.6a58.65 58.65 0 00-4.24 32.8l-1.52.77c-2.28 1.17-1.82 6.67-.21 9.86l6.68 13.26c1.61 3.2 6.2 7.68 8.47 6.52l.9-.46a57.67 57.67 0 0019.35 14.03 57.28 57.28 0 0023.34 4.94c2.73 0 5.45-.2 8.15-.59l.69 1.7c.79 1.97 5.34 1.96 8.07.83l11.32-4.66c2.73-1.12 6.72-4.63 5.92-6.6l-.61-1.5a57.88 57.88 0 0015.88-17.22 58.31 58.31 0 007.79-22.16l2.57-.54c2.51-.51 3.5-5.95 2.77-9.46z" fill="#0A0A0A"/>
      <path d="M1411.2 260.58l-3.03-14.54c-.73-3.52-3.99-9.04-6.49-8.51l-.87.18a58.1 58.1 0 00-31.57-29.33v-.06c0-3.2-6.34-5.8-10.78-5.8h-18.41c-4.44 0-11.98 2.6-11.98 5.8v.06a57.97 57.97 0 00-23.6 16.9l-.73-.5c-1.05-.68-3.25.88-4.2 2.35l-3.94 6.11c-.95 1.47-1.71 4.53-.66 5.22l.94.6a58.65 58.65 0 00-4.24 32.8l-1.52.77c-2.28 1.17-1.82 6.67-.21 9.86l6.68 13.26c1.61 3.2 6.2 7.68 8.47 6.52l.9-.46a57.67 57.67 0 0019.35 14.03 57.28 57.28 0 0023.34 4.94c2.73 0 5.45-.2 8.15-.59l.69 1.7c.79 1.97 5.34 1.96 8.07.83l11.32-4.66c2.73-1.12 6.72-4.63 5.92-6.6l-.61-1.5a57.88 57.88 0 0015.88-17.22 58.31 58.31 0 007.79-22.16l2.57-.54c2.51-.51 3.5-5.95 2.77-9.46z" fill="#5DD0D8"/>
      <path d="M1415.4 260.42l-3.23-15.55c-.78-3.75-4.27-9.66-6.94-9.1l-.92.2a62.04 62.04 0 00-33.74-31.36v-.06c0-3.42-6.77-6.2-11.52-6.2h-19.67c-4.76 0-12.82 2.78-12.82 6.2v.06a61.88 61.88 0 00-25.22 18.06l-.78-.51c-1.11-.73-3.47.92-4.48 2.5l-4.21 6.53c-1.01 1.57-1.83 4.84-.71 5.57l1 .66a62.72 62.72 0 00-4.53 35.05l-1.61.82c-2.43 1.24-1.94 7.13-.22 10.54l7.14 14.16c1.72 3.42 6.62 8.22 9.05 6.97l.96-.48a61.68 61.68 0 0024.73 16.6 61.4 61.4 0 0029.59 3.05l.73 1.81c.86 2.1 5.71 2.1 8.63.88l12.1-4.99c2.92-1.2 7.18-4.94 6.33-7.04l-.65-1.6a61.94 61.94 0 0016.96-18.41 62.26 62.26 0 008.33-23.67l2.74-.59c2.68-.55 3.74-6.35 2.96-10.1z" stroke="#5DD0D8" stroke-width="2.42" stroke-miterlimit="10"/>
      <path opacity=".2" d="M1349.55 282.03c9.16 0 16.58-6.7 16.58-14.95 0-8.26-7.42-14.95-16.58-14.95-9.16 0-16.58 6.7-16.58 14.95 0 8.26 7.42 14.95 16.58 14.95z" fill="#0A0A0A"/>
      <path opacity=".6" d="M1349.55 280.18c-8.81 0-16.03-6.2-16.55-14.03-.02.3-.03.62-.03.93 0 8.26 7.42 14.96 16.58 14.96 9.16 0 16.58-6.7 16.58-14.96 0-.31 0-.62-.03-.93-.53 7.82-7.74 14.03-16.55 14.03z" fill="#0A0A0A"/>
      <path opacity=".1" d="M1349.55 253.98c8.81 0 16.03 6.2 16.55 14.03.02-.3.03-.62.03-.93 0-8.26-7.42-14.96-16.58-14.96-9.16 0-16.58 6.7-16.58 14.96 0 .31 0 .62.03.93.53-7.82 7.74-14.03 16.55-14.03z" fill="#0A0A0A"/>
      <path opacity=".2" d="M1349.55 285.32c7.93 0 14.45-3.81 15.28-8.7.06.35.09.7.09 1.06 0 5.39-6.88 9.76-15.37 9.76-8.49 0-15.37-4.37-15.37-9.76 0-.35.03-.7.09-1.06.83 4.9 7.35 8.7 15.28 8.7z" fill="#0A0A0A"/>
      <path opacity=".1" d="M1349.55 250.03c-8.55 0-15.59 3.82-16.49 8.7-.06-.35-.09-.7-.09-1.06 0-5.39 7.42-9.75 16.58-9.75 9.16 0 16.58 4.36 16.58 9.75 0 .36-.03.71-.1 1.06-.89-4.89-7.93-8.7-16.48-8.7z" fill="#0A0A0A"/>
      <path opacity=".2" d="M1341.74 310.45c.75-2.21-2.01-5.16-6.16-6.58-4.14-1.42-8.11-.79-8.86 1.42s2.01 5.16 6.15 6.58c4.15 1.42 8.12.79 8.87-1.42z" fill="#0A0A0A"/>
      <path opacity=".6" d="M1333.04 311.38c-3.99-1.37-6.7-4.15-6.22-6.32a2.1 2.1 0 00-.1.24c-.75 2.2 2 5.15 6.15 6.58 4.15 1.42 8.12.78 8.87-1.42l.07-.26c-.95 2.01-4.78 2.55-8.77 1.18z" fill="#0A0A0A"/>
      <path opacity=".1" d="M1335.42 304.38c3.99 1.37 6.7 4.14 6.22 6.32l.1-.24c.75-2.21-2.01-5.16-6.16-6.58-4.14-1.42-8.11-.79-8.86 1.42a2.3 2.3 0 00-.07.25c.95-2 4.77-2.54 8.77-1.18z" fill="#0A0A0A"/>
      <path opacity=".2" d="M1332.58 312.76c3.59 1.23 6.89 1.23 7.71.05l-.06.3c-.49 1.43-4 1.53-7.85.21-3.84-1.32-6.56-3.56-6.07-5a.9.9 0 01.13-.26c-.06 1.43 2.54 3.46 6.14 4.7z" fill="#0A0A0A"/>
      <path opacity=".1" d="M1335.78 303.32c-3.88-1.33-7.41-1.4-8.26-.24 0-.1.02-.2.05-.3.49-1.43 4.25-1.46 8.39-.02 4.15 1.43 7.12 3.74 6.63 5.18a1.27 1.27 0 01-.14.27c.04-1.45-2.8-3.56-6.67-4.89z" fill="#0A0A0A"/>
      <path opacity=".2" d="M1378.54 224.37c.95-2.82-2.57-6.58-7.87-8.4-5.3-1.82-10.37-1-11.32 1.81-.96 2.82 2.56 6.59 7.86 8.4 5.3 1.82 10.37 1.01 11.33-1.81z" fill="#0A0A0A"/>
      <path opacity=".6" d="M1370.46 216.6c5.1 1.76 8.55 5.3 7.95 8.08.05-.1.1-.2.13-.3.96-2.83-2.56-6.59-7.87-8.41-5.3-1.82-10.37-1-11.32 1.81l-.09.33c1.22-2.57 6.1-3.26 11.2-1.5z" fill="#0A0A0A"/>
      <path opacity=".1" d="M1367.43 225.56c-5.1-1.75-8.55-5.3-7.94-8.08-.04.1-.09.19-.12.29-.96 2.82 2.56 6.59 7.87 8.4 5.3 1.82 10.37 1.01 11.32-1.81.04-.1.07-.22.09-.32-1.23 2.58-6.12 3.27-11.22 1.52z" fill="#0A0A0A"/>
      <path opacity=".2" d="M1371.06 214.85c-4.59-1.58-8.8-1.57-9.85-.07 0-.13.03-.25.07-.38.62-1.84 5.11-1.96 10.02-.29 4.92 1.67 8.39 4.55 7.77 6.39-.04.12-.1.24-.18.34.09-1.82-3.24-4.42-7.83-6z" fill="#0A0A0A"/>
      <path opacity=".1" d="M1366.97 226.9c4.96 1.7 9.46 1.8 10.55.3-.01.13-.03.26-.07.38-.62 1.84-5.43 1.86-10.72.04-5.3-1.82-9.09-4.79-8.46-6.63.04-.12.1-.24.18-.34-.06 1.86 3.57 4.56 8.52 6.26z" fill="#0A0A0A"/>
      <path opacity=".2" d="M1306.76 274.75c4.16-.48 6.91-6.3 6.15-12.98-.76-6.68-4.75-11.71-8.91-11.23-4.16.48-6.92 6.29-6.15 12.97.76 6.69 4.75 11.72 8.91 11.24z" fill="#0A0A0A"/>
      <path opacity=".6" d="M1300.8 269.57c-2.97-4.9-3.24-12.17-.69-16.6l-.33.47c-2.88 4.37-2.72 12.03.37 17.11 3.09 5.09 7.94 5.66 10.82 1.3l.32-.52c-2.92 3.85-7.52 3.13-10.49-1.76z" fill="#0A0A0A"/>
      <path opacity=".1" d="M1309.94 255.7c2.97 4.9 3.24 12.18.69 16.62.11-.16.22-.3.33-.48 2.89-4.37 2.72-12.02-.37-17.11-3.09-5.09-7.94-5.66-10.81-1.3-.11.17-.22.34-.31.52 2.91-3.85 7.51-3.13 10.47 1.76z" fill="#0A0A0A"/>
      <path opacity=".2" d="M1299 272.3c2.68 4.4 6.21 6 8.2 3.87-.1.21-.21.42-.34.61-1.88 2.85-5.73 1.35-8.6-3.37-2.86-4.71-3.66-10.85-1.78-13.7.12-.17.25-.34.4-.5-1.43 3.05-.55 8.68 2.12 13.08z" fill="#0A0A0A"/>
      <path opacity=".1" d="M1311.33 253.62c-2.88-4.74-6.59-6.63-8.6-4.55.1-.21.21-.42.34-.62 1.88-2.85 5.91-1.04 9 4.04s4.08 11.51 2.19 14.37c-.12.18-.25.35-.4.5 1.4-3.07.36-9-2.53-13.74z" fill="#0A0A0A"/>
      <path opacity=".2" d="M1391.92 291.77c.68-2-1.22-4.47-4.24-5.5-3.02-1.04-6.01-.26-6.69 1.75-.68 2 1.21 4.48 4.23 5.51 3.02 1.04 6.02.25 6.7-1.76z" fill="#0A0A0A"/>
      <path opacity=".6" d="M1388.64 293.42c-2.67.43-5.88-.88-7.34-2.94l.14.25c1.37 2.21 4.73 3.64 7.51 3.18 2.77-.45 3.91-2.61 2.55-4.82a2.56 2.56 0 00-.17-.25c1.13 2.12-.03 4.14-2.69 4.58z" fill="#0A0A0A"/>
      <path opacity=".1" d="M1384.29 286.4c2.67-.44 5.88.86 7.34 2.93-.05-.08-.09-.17-.15-.25-1.36-2.21-4.72-3.64-7.5-3.18-2.77.45-3.92 2.61-2.55 4.83l.16.24c-1.13-2.12.03-4.14 2.7-4.57z" fill="#0A0A0A"/>
      <path opacity=".2" d="M1389.48 294.8c2.4-.4 3.75-1.74 3.19-3.1l.2.29c.9 1.44-.47 2.95-3.04 3.38-2.57.42-5.38-.41-6.28-1.85l-.14-.3c1.06 1.28 3.67 1.97 6.07 1.58z" fill="#0A0A0A"/>
      <path opacity=".1" d="M1383.63 285.34c-2.59.42-4.09 1.8-3.55 3.15a1.85 1.85 0 01-.21-.28c-.89-1.44.64-2.98 3.41-3.44 2.78-.45 5.75.35 6.64 1.8.06.09.11.19.15.29-1.08-1.28-3.84-1.94-6.44-1.52z" fill="#0A0A0A"/>
      <path opacity=".1" d="M1411.41 260.58l-3.02-14.54c-.73-3.52-3.99-9.04-6.49-8.51l-.87.18a58.1 58.1 0 00-31.57-29.33v-.06c0-3.2-6.34-5.8-10.79-5.8h-7.74a70.17 70.17 0 0124.07 24.76 70.66 70.66 0 019.44 33.3 70.84 70.84 0 01-7.48 33.82 70.24 70.24 0 01-22.59 26.13c.89-.08 1.77-.19 2.65-.3l.69 1.68c.8 1.97 5.35 1.97 8.08.84l11.32-4.66c2.73-1.12 6.72-4.63 5.92-6.6l-.61-1.5a57.97 57.97 0 0015.87-17.23 58.33 58.33 0 007.8-22.15l2.57-.54c2.5-.54 3.48-5.98 2.75-9.49z" fill="#0A0A0A"/>
      <path opacity=".1" d="M1411.2 260.58l-3.03-14.55c-.73-3.51-3.99-9.04-6.49-8.5l-.87.18a58.17 58.17 0 00-28.02-27.84 69.82 69.82 0 0119.38 25.74 70.38 70.38 0 01-3.11 62.77 69.88 69.88 0 01-21.83 23.67l9.65-3.97c2.73-1.13 6.72-4.63 5.92-6.6l-.61-1.5a58.02 58.02 0 0015.88-17.23 58.31 58.31 0 007.79-22.15l2.57-.54c2.51-.53 3.5-5.97 2.77-9.47z" fill="#0A0A0A"/>
    </g>
    <g clip-path="url(#clip2)">
      <path d="M1499.9 937.73l3.13-10.04c.76-2.43.63-6.97-1.11-7.5l-.6-.2a41.27 41.27 0 00-9.52-29.08l.01-.03c1.11-1.98-1.94-5.79-4.7-7.33l-11.45-6.38c-2.76-1.54-8.35-2.55-9.46-.57l-.01.03a41.24 41.24 0 00-20.5 2.26l-.29-.56c-.41-.78-2.32-.58-3.42 0l-4.55 2.41c-1.1.58-2.63 2.2-2.21 3l.37.7a41.26 41.26 0 00-13.94 18.8l-1.21-.06c-1.82-.06-3.43 3.5-3.53 6.03l-.41 10.5c-.1 2.54 1.2 6.9 3.02 6.97l.72.03a41.1 41.1 0 007.19 15.39 40.98 40.98 0 0012.82 11.14 40.87 40.87 0 005.26 2.47l-.15 1.28c-.18 1.5 2.65 3.07 4.73 3.32l8.65 1.05c2.09.25 5.78-.53 5.96-2.03l.13-1.13a41.15 41.15 0 0015.82-5.15 41.2 41.2 0 0012.48-10.99l1.79.56c1.73.55 4.22-2.46 4.98-4.89z" fill="#0A0A0A"/>
      <path d="M1499.9 937.73l3.13-10.04c.76-2.43.63-6.97-1.11-7.5l-.6-.2a41.27 41.27 0 00-9.52-29.08l.01-.03c1.11-1.98-1.94-5.79-4.7-7.33l-11.45-6.38c-2.76-1.54-8.35-2.55-9.46-.57l-.01.03a41.24 41.24 0 00-20.5 2.26l-.29-.56c-.41-.78-2.32-.58-3.42 0l-4.55 2.41c-1.1.58-2.63 2.2-2.21 3l.37.7a41.26 41.26 0 00-13.94 18.8l-1.21-.06c-1.82-.06-3.43 3.5-3.53 6.03l-.41 10.5c-.1 2.54 1.2 6.9 3.02 6.97l.72.03a41.1 41.1 0 007.19 15.39 40.98 40.98 0 0012.82 11.14 40.87 40.87 0 005.26 2.47l-.15 1.28c-.18 1.5 2.65 3.07 4.73 3.32l8.65 1.05c2.09.25 5.78-.53 5.96-2.03l.13-1.13a41.15 41.15 0 0015.82-5.15 41.2 41.2 0 0012.48-10.99l1.79.56c1.73.55 4.22-2.46 4.98-4.89z" fill="#F930CE"/>
      <path d="M1502.57 939.09l3.35-10.73c.8-2.59.67-7.45-1.18-8.03l-.64-.2a44.15 44.15 0 00-10.18-31.08l.02-.04c1.18-2.12-2.08-6.18-5.03-7.83l-12.23-6.82c-2.96-1.65-8.93-2.73-10.11-.62l-.02.04a44.08 44.08 0 00-21.91 2.41l-.31-.58c-.44-.84-2.48-.63-3.65-.01l-4.87 2.57c-1.17.63-2.8 2.36-2.36 3.2l.4.76a44.1 44.1 0 00-14.9 20.1l-1.29-.06c-1.94-.08-3.67 3.73-3.77 6.44l-.44 11.23c-.11 2.7 1.29 7.37 3.23 7.44l.76.04a43.97 43.97 0 0027.01 30.98l-.17 1.38c-.19 1.6 2.83 3.27 5.07 3.53l9.24 1.12c2.23.27 6.17-.57 6.36-2.16l.15-1.21a43.93 43.93 0 0030.24-17.24l1.91.59c1.85.59 4.51-2.64 5.32-5.22z" stroke="#F930CE" stroke-width="2.42" stroke-miterlimit="10"/>
      <path opacity=".2" d="M1454.16 929.6c5.7 3.18 12.62 1.62 15.47-3.48 2.84-5.1.53-11.82-5.16-15-5.7-3.17-12.62-1.61-15.47 3.5-2.85 5.1-.53 11.8 5.16 14.99z" fill="#0A0A0A"/>
      <path opacity=".6" d="M1454.8 928.46c-5.48-3.06-7.83-9.4-5.46-14.4l-.34.55c-2.85 5.1-.54 11.82 5.16 15 5.69 3.18 12.62 1.61 15.47-3.5.1-.19.21-.38.3-.58-3.03 4.65-9.65 5.99-15.13 2.93z" fill="#0A0A0A"/>
      <path opacity=".1" d="M1463.83 912.27c5.48 3.06 7.83 9.4 5.46 14.4l.34-.55c2.84-5.1.54-11.83-5.16-15-5.7-3.18-12.62-1.61-15.47 3.5-.1.19-.21.38-.3.58 3.03-4.65 9.65-5.99 15.13-2.93z" fill="#0A0A0A"/>
      <path opacity=".2" d="M1453.03 931.64c4.93 2.75 10.3 2.65 12.5-.08-.08.24-.19.47-.31.69-1.86 3.33-7.64 3.64-12.92.7s-8.06-8.04-6.2-11.37c.12-.21.26-.42.42-.62-1.17 3.31 1.58 7.93 6.51 10.68z" fill="#0A0A0A"/>
      <path opacity=".1" d="M1465.19 909.83c-5.32-2.97-11.01-3.05-13.25-.34.08-.24.18-.47.3-.7 1.86-3.32 7.98-3.45 13.68-.27 5.69 3.18 8.81 8.45 6.95 11.78-.12.22-.27.43-.43.62 1.13-3.33-1.93-8.12-7.25-11.1z" fill="#0A0A0A"/>
      <path opacity=".2" d="M1439.51 944.46c1.22-1.1.53-3.88-1.56-6.2s-4.78-3.3-6.01-2.2c-1.22 1.11-.53 3.89 1.56 6.2s4.78 3.3 6.01 2.2z" fill="#0A0A0A"/>
      <path opacity=".6" d="M1433.78 942.02c-2.01-2.23-2.74-4.89-1.69-6.06a3 3 0 00-.15.11c-1.23 1.1-.53 3.88 1.56 6.2 2.09 2.32 4.78 3.3 6.01 2.2l.13-.13c-1.29.9-3.85-.09-5.86-2.32z" fill="#0A0A0A"/>
      <path opacity=".1" d="M1437.67 938.52c2.01 2.23 2.74 4.88 1.69 6.06l.15-.11c1.22-1.1.52-3.89-1.57-6.2s-4.77-3.3-6-2.2l-.13.13c1.28-.91 3.85.09 5.86 2.32z" fill="#0A0A0A"/>
      <path opacity=".2" d="M1433.01 942.71c1.81 2 3.86 3.15 4.78 2.7a.63.63 0 01-.14.17c-.79.72-3.02-.44-4.95-2.59-1.94-2.15-2.86-4.48-2.06-5.2a.62.62 0 01.18-.11c-.54.86.39 3.02 2.19 5.03z" fill="#0A0A0A"/>
      <path opacity=".1" d="M1438.26 937.99c-1.96-2.17-4.13-3.44-5.06-3.01a.66.66 0 01.14-.17c.8-.72 3.14.57 5.23 2.9 2.08 2.32 3.13 4.78 2.33 5.5a.6.6 0 01-.18.11c.53-.88-.51-3.17-2.46-5.33z" fill="#0A0A0A"/>
      <path opacity=".2" d="M1492.06 904.02c1.57-1.41.68-4.96-1.99-7.92s-6.1-4.22-7.67-2.8c-1.57 1.4-.67 4.95 1.99 7.92 2.67 2.96 6.11 4.21 7.67 2.8z" fill="#0A0A0A"/>
      <path opacity=".6" d="M1489.72 896.42c2.56 2.86 3.49 6.24 2.16 7.75l.19-.14c1.56-1.42.67-4.96-2-7.93-2.67-2.96-6.11-4.22-7.67-2.8-.06.05-.12.1-.17.17 1.64-1.17 4.92.1 7.49 2.95z" fill="#0A0A0A"/>
      <path opacity=".1" d="M1484.75 900.9c-2.57-2.84-3.49-6.24-2.15-7.74-.07.04-.13.08-.18.13-1.57 1.42-.68 4.96 1.99 7.93 2.68 2.96 6.11 4.22 7.67 2.8.06-.05.12-.1.17-.17-1.66 1.17-4.93-.1-7.5-2.95z" fill="#0A0A0A"/>
      <path opacity=".2" d="M1490.7 895.54c-2.31-2.56-4.94-4.02-6.11-3.45a1 1 0 01.18-.21c1.02-.93 3.85.55 6.33 3.3 2.48 2.73 3.65 5.71 2.63 6.63a.86.86 0 01-.23.16c.68-1.1-.49-3.86-2.8-6.43z" fill="#0A0A0A"/>
      <path opacity=".1" d="M1484 901.58c2.49 2.77 5.26 4.39 6.46 3.84-.05.08-.11.15-.18.2-1.02.93-4.01-.72-6.68-3.69-2.67-2.96-4-6.1-2.97-7.02a.76.76 0 01.22-.15c-.67 1.12.66 4.05 3.15 6.82z" fill="#0A0A0A"/>
      <path opacity=".2" d="M1430.06 910.26c2.75 1.15 6.47-1.49 8.3-5.88 1.83-4.4 1.08-8.9-1.68-10.04-2.75-1.14-6.46 1.5-8.29 5.89-1.83 4.4-1.09 8.89 1.67 10.03z" fill="#0A0A0A"/>
      <path opacity=".6" d="M1428.14 905c-.17-4.06 2.18-8.65 5.29-10.5a9.92 9.92 0 00-.37.17c-3.3 1.7-5.83 6.5-5.67 10.7.17 4.22 2.99 6.26 6.29 4.56l.37-.2c-3.14 1.36-5.75-.68-5.91-4.73z" fill="#0A0A0A"/>
      <path opacity=".1" d="M1438.6 899.6c.16 4.05-2.18 8.64-5.3 10.5.13-.05.24-.1.37-.18 3.3-1.7 5.84-6.49 5.67-10.7-.17-4.22-2.98-6.25-6.28-4.55l-.37.2c3.14-1.36 5.75.68 5.91 4.73z" fill="#0A0A0A"/>
      <path opacity=".2" d="M1426.08 906.06c.15 3.64 1.79 5.86 3.76 5.24a2.87 2.87 0 01-.42.26c-2.15 1.1-4.03-1.16-4.19-5.07-.15-3.9 1.47-7.98 3.62-9.08.13-.07.28-.13.42-.18-1.94 1.4-3.34 5.18-3.19 8.83z" fill="#0A0A0A"/>
      <path opacity=".1" d="M1440.18 898.8c-.15-3.94-1.81-6.4-3.78-5.8.14-.1.28-.2.42-.27 2.16-1.1 4.04 1.4 4.21 5.62.17 4.21-1.43 8.53-3.59 9.64l-.42.18c1.93-1.42 3.32-5.45 3.16-9.38z" fill="#0A0A0A"/>
      <path opacity=".2" d="M1477.15 950.32c1.12-1 .79-3.19-.73-4.87-1.52-1.69-3.66-2.24-4.77-1.24-1.12 1-.79 3.19.73 4.88 1.52 1.68 3.66 2.24 4.77 1.23z" fill="#0A0A0A"/>
      <path opacity=".6" d="M1474.55 950.2a5.73 5.73 0 01-3.55-4.36v.2c.09 1.85 1.69 3.9 3.57 4.58 1.88.68 3.34-.26 3.25-2.1l-.02-.21c-.03 1.7-1.45 2.54-3.25 1.9z" fill="#0A0A0A"/>
      <path opacity=".1" d="M1474.26 944.35a5.72 5.72 0 013.55 4.36.69.69 0 000-.2c-.09-1.84-1.68-3.89-3.57-4.57-1.88-.68-3.34.26-3.25 2.1l.02.2c.02-1.7 1.44-2.54 3.25-1.89z" fill="#0A0A0A"/>
      <path opacity=".2" d="M1474.6 951.35c1.62.59 2.93.22 3.04-.8a1 1 0 01.03.24c.06 1.2-1.31 1.66-3.05 1.03-1.75-.63-3.21-2.12-3.27-3.32l.01-.23c.22 1.16 1.61 2.49 3.24 3.08z" fill="#0A0A0A"/>
      <path opacity=".1" d="M1474.22 943.47c-1.76-.63-3.17-.3-3.3.72l-.03-.25c-.06-1.2 1.42-1.62 3.31-.94 1.88.68 3.45 2.2 3.51 3.41l-.01.23c-.24-1.16-1.72-2.53-3.48-3.17z" fill="#0A0A0A"/>
      <path opacity=".1" d="M1500.03 937.8l3.13-10.03c.76-2.43.64-6.98-1.1-7.51l-.61-.2a41.27 41.27 0 00-9.52-29.07l.02-.03c1.1-1.99-1.94-5.79-4.71-7.33l-4.82-2.69a49.83 49.83 0 016.45 23.65 49.88 49.88 0 01-5.62 23.87 49.81 49.81 0 01-16.3 18.3 49.88 49.88 0 01-23.06 8.32c.58.25 1.17.5 1.76.72l-.16 1.29c-.18 1.5 2.65 3.06 4.73 3.32l8.65 1.04c2.09.25 5.78-.53 5.96-2.02l.13-1.14a41.15 41.15 0 0015.82-5.14 41.2 41.2 0 0012.48-11l1.79.56c1.74.53 4.22-2.48 4.98-4.9z" fill="#0A0A0A"/>
      <path opacity=".1" d="M1499.9 937.73l3.13-10.04c.76-2.43.63-6.97-1.11-7.5l-.6-.2a41.29 41.29 0 00-7.83-26.92 49.5 49.5 0 013.18 22.63 49.48 49.48 0 01-7.32 21.65 49.55 49.55 0 01-16.25 16.07 49.56 49.56 0 01-21.74 7.05l7.37.9c2.09.25 5.78-.54 5.96-2.03l.14-1.14a41.16 41.16 0 0015.81-5.14 41.08 41.08 0 0012.48-10.99l1.79.56c1.74.54 4.23-2.48 4.99-4.9z" fill="#0A0A0A"/>
    </g>
    <path d="M1072.5 98.72a62.22 62.22 0 100-124.44 62.22 62.22 0 000 124.44z" fill="#1A4447"/>
    <path opacity=".2" d="M1072.5-25.72c-2.41 0-4.82.14-7.22.42 0 0 65.07 58.54 0 123.62a62.23 62.23 0 0051.22-17.8 62.21 62.21 0 0018.22-44 62.21 62.21 0 00-62.22-62.23v-.01z" fill="#0A0A0A"/>
    <path opacity=".04" d="M1072.5-25.72c-2.41 0-4.82.14-7.22.42a62.24 62.24 0 0139.31 20.42 62.24 62.24 0 010 82.78 62.24 62.24 0 01-39.31 20.42 62.23 62.23 0 0051.22-17.8 62.21 62.21 0 0018.22-44 62.21 62.21 0 00-62.22-62.23v-.01z" fill="#0A0A0A"/>
    <path opacity=".5" d="M1072.5 128.21a91.71 91.71 0 100-183.42 91.71 91.71 0 000 183.42z" stroke="#343434" stroke-width="18.12" stroke-miterlimit="10"/>
    <path d="M1072.5 136.38c55.16 0 99.88-44.72 99.88-99.88s-44.72-99.88-99.88-99.88-99.88 44.72-99.88 99.88 44.72 99.88 99.88 99.88z" stroke="#343434" stroke-width="3.02" stroke-miterlimit="10"/>
    <path d="M1072.5 164.44c70.66 0 127.94-57.28 127.94-127.94S1143.16-91.44 1072.5-91.44 944.56-34.16 944.56 36.5s57.28 127.94 127.94 127.94z" stroke="#343434" stroke-width="2" stroke-miterlimit="10"/>
    <path d="M1308.37 560.6l-4.27-20.44c-1.03-4.94-5.65-12.7-9.18-11.95l-1.23.26a81.93 81.93 0 00-44.61-41.23v-.07c0-4.5-8.97-8.15-15.25-8.15h-26.04c-6.28 0-16.95 3.65-16.95 8.15v.07a81.85 81.85 0 00-33.35 23.74l-1.04-.66c-1.48-.96-4.6 1.23-5.94 3.3l-5.56 8.58c-1.35 2.06-2.42 6.37-.94 7.33l1.33.86a81.9 81.9 0 00-6 46.06l-2.13 1.08c-3.22 1.65-2.57 9.37-.29 13.86l9.44 18.62c2.28 4.5 8.76 10.8 11.98 9.16l1.27-.64a81.42 81.42 0 0060.35 26.66c3.86 0 7.71-.28 11.54-.83l.97 2.38c1.13 2.77 7.56 2.76 11.42 1.18l15.97-6.53c3.86-1.58 9.5-6.5 8.36-9.27l-.85-2.1a81.58 81.58 0 0022.44-24.22 81.48 81.48 0 0011.02-31.12l3.63-.76c3.55-.75 4.94-8.37 3.91-13.31z" fill="#9C03F8"/>
    <path d="M1308.37 560.6l-4.27-20.44c-1.03-4.94-5.65-12.7-9.18-11.95l-1.23.26a81.93 81.93 0 00-44.61-41.23v-.07c0-4.5-8.97-8.15-15.25-8.15h-26.04c-6.28 0-16.95 3.65-16.95 8.15v.07a81.85 81.85 0 00-33.35 23.74l-1.04-.66c-1.48-.96-4.6 1.23-5.94 3.3l-5.56 8.58c-1.35 2.06-2.42 6.37-.94 7.33l1.33.86a81.9 81.9 0 00-6 46.06l-2.13 1.08c-3.22 1.65-2.57 9.37-.29 13.86l9.44 18.62c2.28 4.5 8.76 10.8 11.98 9.16l1.27-.64a81.42 81.42 0 0060.35 26.66c3.86 0 7.71-.28 11.54-.83l.97 2.38c1.13 2.77 7.56 2.76 11.42 1.18l15.97-6.53c3.86-1.58 9.5-6.5 8.36-9.27l-.85-2.1a81.58 81.58 0 0022.44-24.22 81.48 81.48 0 0011.02-31.12l3.63-.76c3.55-.75 4.94-8.37 3.91-13.31z" fill="#9C03F8"/>
    <path opacity=".2" d="M1221.21 590.74c12.95 0 23.44-9.4 23.44-21 0-11.61-10.49-21.02-23.44-21.02-12.95 0-23.44 9.4-23.44 21.01 0 11.6 10.49 21 23.44 21z" fill="#0A0A0A"/>
    <path opacity=".6" d="M1221.21 588.13c-12.46 0-22.66-8.7-23.4-19.7-.03.43-.04.86-.04 1.3 0 11.6 10.49 21.02 23.44 21.02 12.95 0 23.44-9.4 23.44-21.02 0-.44 0-.87-.04-1.3-.75 11-10.94 19.7-23.4 19.7z" fill="#9C03F8"/>
    <path opacity=".1" d="M1221.21 551.33c12.46 0 22.66 8.7 23.4 19.7.03-.43.04-.86.04-1.3 0-11.6-10.49-21.02-23.44-21.02-12.95 0-23.44 9.4-23.44 21.02 0 .44 0 .87.04 1.3.75-11 10.95-19.7 23.4-19.7z" fill="#9C03F8"/>
    <path opacity=".2" d="M1221.21 595.36c11.21 0 20.43-5.35 21.61-12.22.08.49.12.99.12 1.49 0 7.57-9.73 13.7-21.73 13.7s-21.73-6.13-21.73-13.7c0-.5.04-1 .13-1.5 1.17 6.88 10.39 12.23 21.6 12.23z" fill="#0A0A0A"/>
    <path opacity=".1" d="M1221.21 545.77c-12.09 0-22.04 5.36-23.31 12.22a8.2 8.2 0 01-.13-1.48c0-7.58 10.49-13.72 23.44-13.72 12.95 0 23.44 6.14 23.44 13.72 0 .5-.04.99-.13 1.48-1.27-6.86-11.22-12.22-23.31-12.22z" fill="#9C03F8"/>
    <path opacity=".2" d="M1210.17 630.67c1.05-3.1-2.84-7.24-8.7-9.24-5.87-2-11.48-1.1-12.54 2-1.06 3.1 2.84 7.24 8.7 9.24 5.87 2 11.48 1.1 12.54-2z" fill="#0A0A0A"/>
    <path opacity=".6" d="M1197.87 631.98c-5.64-1.92-9.47-5.83-8.79-8.88-.06.1-.1.22-.14.34-1.06 3.11 2.83 7.23 8.7 9.24 5.86 2 11.47 1.1 12.53-2l.1-.35c-1.34 2.81-6.75 3.58-12.4 1.65z" fill="#9C03F8"/>
    <path opacity=".1" d="M1201.23 622.14c5.64 1.92 9.48 5.82 8.8 8.88l.14-.34c1.06-3.1-2.84-7.24-8.7-9.24-5.87-2-11.47-1.1-12.53 2a2.2 2.2 0 00-.1.35c1.34-2.82 6.74-3.58 12.39-1.65z" fill="#9C03F8"/>
    <path opacity=".2" d="M1197.22 633.91c5.08 1.74 9.75 1.73 10.9.07 0 .15-.03.28-.08.42-.68 2.02-5.65 2.16-11.09.3-5.43-1.85-9.28-5-8.59-7.02.05-.13.11-.26.19-.38-.1 2.03 3.59 4.88 8.67 6.62z" fill="#0A0A0A"/>
    <path opacity=".1" d="M1201.76 620.65c-5.48-1.86-10.47-1.97-11.67-.33 0-.14.02-.28.07-.4.69-2.04 6-2.07 11.86-.05 5.87 2.01 10.06 5.26 9.37 7.29-.04.13-.11.26-.2.37.04-2.04-3.98-5.01-9.43-6.88z" fill="#9C03F8"/>
    <path opacity=".2" d="M1262.19 509.72c1.35-3.96-3.63-9.25-11.12-11.8-7.49-2.56-14.66-1.42-16.01 2.55-1.35 3.96 3.63 9.25 11.12 11.8 7.49 2.56 14.66 1.42 16.01-2.55z" fill="#0A0A0A"/>
    <path opacity=".6" d="M1250.79 498.8c7.21 2.48 12.09 7.46 11.24 11.36.07-.14.13-.29.18-.43 1.35-3.97-3.62-9.25-11.12-11.8-7.5-2.56-14.67-1.42-16.02 2.54-.05.15-.09.3-.12.46 1.71-3.61 8.62-4.58 15.84-2.12z" fill="#9C03F8"/>
    <path opacity=".1" d="M1246.49 511.39c-7.21-2.48-12.09-7.45-11.24-11.35-.07.14-.13.28-.18.43-1.35 3.97 3.63 9.25 11.13 11.8 7.49 2.56 14.66 1.42 16.01-2.54.05-.15.09-.3.12-.46-1.72 3.61-8.63 4.58-15.84 2.12z" fill="#9C03F8"/>
    <path opacity=".2" d="M1251.62 496.34c-6.49-2.21-12.45-2.2-13.93-.09.01-.18.04-.36.1-.53.88-2.59 7.23-2.76 14.17-.42 6.95 2.35 11.86 6.39 10.98 8.98-.06.17-.14.33-.25.48.13-2.56-4.58-6.2-11.07-8.42z" fill="#0A0A0A"/>
    <path opacity=".1" d="M1245.85 513.28c7 2.39 13.37 2.53 14.91.42-.01.18-.04.36-.1.53-.88 2.59-7.67 2.61-15.16.06-7.49-2.56-12.85-6.73-11.95-9.32.06-.17.15-.33.25-.47-.08 2.6 5.04 6.4 12.05 8.78z" fill="#9C03F8"/>
    <path opacity=".2" d="M1160.72 580.5c5.88-.67 9.77-8.83 8.69-18.23s-6.72-16.46-12.6-15.78c-5.88.67-9.77 8.84-8.69 18.23 1.07 9.4 6.72 16.46 12.6 15.79z" fill="#0A0A0A"/>
    <path opacity=".6" d="M1152.31 573.23c-4.22-6.85-4.6-17.1-.99-23.34l-.47.66c-4.08 6.14-3.84 16.9.53 24.05 4.36 7.14 11.22 7.95 15.3 1.81l.44-.71c-4.12 5.41-10.62 4.4-14.81-2.47z" fill="#9C03F8"/>
    <path opacity=".1" d="M1165.23 553.76c4.21 6.87 4.58 17.1.97 23.33l.48-.67c4.08-6.14 3.84-16.9-.53-24.04-4.37-7.15-11.22-7.95-15.3-1.81l-.44.7c4.12-5.4 10.62-4.38 14.82 2.49z" fill="#9C03F8"/>
    <path opacity=".2" d="M1149.75 577.06c3.78 6.18 8.78 8.44 11.59 5.45-.14.3-.3.58-.48.85-2.66 4.01-8.1 1.9-12.15-4.73-4.05-6.62-5.18-15.25-2.52-19.24.17-.26.36-.5.57-.72-2.02 4.29-.79 12.2 2.99 18.39z" fill="#0A0A0A"/>
    <path opacity=".1" d="M1167.18 550.82c-4.08-6.67-9.31-9.32-12.16-6.39.14-.3.3-.58.48-.86 2.66-4 8.36-1.47 12.73 5.68 4.37 7.14 5.77 16.17 3.09 20.2a5.18 5.18 0 01-.57.7c1.99-4.34.51-12.66-3.57-19.33z" fill="#9C03F8"/>
    <path opacity=".2" d="M1281.11 604.43c.96-2.82-1.72-6.29-5.99-7.74-4.26-1.46-8.5-.35-9.46 2.47-.96 2.82 1.72 6.29 5.98 7.74 4.27 1.46 8.51.35 9.47-2.47z" fill="#0A0A0A"/>
    <path opacity=".6" d="M1276.46 606.74c-3.78.61-8.32-1.22-10.38-4.12l.2.35c1.94 3.1 6.69 5.1 10.61 4.47 3.93-.64 5.54-3.68 3.61-6.78l-.23-.35c1.6 2.97-.03 5.81-3.81 6.43z" fill="#9C03F8"/>
    <path opacity=".1" d="M1270.32 596.88c3.78-.62 8.32 1.21 10.38 4.12a6.24 6.24 0 00-.2-.35c-1.94-3.11-6.69-5.11-10.61-4.48-3.92.64-5.54 3.68-3.61 6.79l.23.34c-1.6-2.98.04-5.81 3.81-6.42z" fill="#9C03F8"/>
    <path opacity=".2" d="M1277.67 608.67c3.39-.55 5.3-2.44 4.5-4.34.11.13.21.27.29.41 1.26 2.03-.66 4.16-4.3 4.75-3.64.6-7.61-.57-8.87-2.6a2.95 2.95 0 01-.21-.41c1.49 1.77 5.2 2.76 8.59 2.2z" fill="#0A0A0A"/>
    <path opacity=".1" d="M1269.4 595.4c-3.66.59-5.77 2.51-5.03 4.41-.1-.12-.2-.25-.29-.39-1.26-2.02.9-4.19 4.82-4.83 3.93-.64 8.13.5 9.4 2.52.08.13.14.27.2.41-1.53-1.78-5.45-2.7-9.1-2.13z" fill="#9C03F8"/>
    <path opacity=".1" d="M1308.67 560.6l-4.27-20.44c-1.03-4.94-5.64-12.7-9.18-11.95l-1.23.26a81.94 81.94 0 00-44.61-41.23v-.07c0-4.5-8.97-8.15-15.25-8.15h-10.95a98.88 98.88 0 0134.04 34.78 98.98 98.98 0 0113.34 46.8 98.95 98.95 0 01-42.51 84.23c1.26-.12 2.51-.27 3.75-.44l.97 2.38c1.13 2.77 7.56 2.76 11.42 1.18l15.99-6.56c3.85-1.58 9.47-6.5 8.36-9.27l-.86-2.1a81.73 81.73 0 0022.45-24.22 81.62 81.62 0 0011.01-31.12l3.64-.76c3.53-.75 4.94-8.37 3.89-13.31z" fill="#0A0A0A"/>
    <path opacity=".1" d="M1308.37 560.6l-4.27-20.44c-1.03-4.94-5.65-12.7-9.18-11.95l-1.23.26a81.95 81.95 0 00-39.6-39.13 98.32 98.32 0 0127.4 36.17 98.39 98.39 0 01-4.4 88.2 98.4 98.4 0 01-30.87 33.25l13.64-5.57c3.86-1.58 9.5-6.5 8.36-9.27l-.85-2.1a81.58 81.58 0 0022.44-24.22 81.48 81.48 0 0011.02-31.12l3.63-.76c3.55-.75 4.94-8.37 3.91-13.31z" fill="#0A0A0A"/>
    <path d="M554.13 979.94l7.3-9.73c1.77-2.36 3.39-7.35 1.7-8.6l-.58-.44a47.61 47.61 0 00.9-35.3l.04-.03c1.97-1.73.13-7.04-2.28-9.78l-10-11.34c-2.4-2.74-8.09-5.98-10.06-4.25l-.03.03a47.52 47.52 0 00-23.17-5.4l-.1-.7c-.15-1.02-2.3-1.53-3.72-1.32l-5.9.88c-1.4.2-3.7 1.4-3.55 2.41l.13.91a47.87 47.87 0 00-22.44 15.11l-1.28-.5c-1.96-.78-5.08 2.47-6.17 5.2l-4.52 11.28c-1.09 2.72-1.36 7.96.59 8.74l.77.3a47.27 47.27 0 001.87 19.51 47.12 47.12 0 009.62 17.05 47.7 47.7 0 004.79 4.7l-.67 1.34c-.77 1.56 1.7 4.36 3.87 5.43l8.98 4.45c2.17 1.07 6.49 1.63 7.26.08l.59-1.19a47.43 47.43 0 0019.2.46 47.62 47.62 0 0017.82-7.17l1.73 1.29c1.69 1.25 5.55-1.07 7.32-3.42z" fill="#9C03F8"/>
    <path d="M554.13 979.94l7.3-9.73c1.77-2.36 3.39-7.35 1.7-8.6l-.58-.44a47.61 47.61 0 00.9-35.3l.04-.03c1.97-1.73.13-7.04-2.28-9.78l-10-11.34c-2.4-2.74-8.09-5.98-10.06-4.25l-.03.03a47.52 47.52 0 00-23.17-5.4l-.1-.7c-.15-1.02-2.3-1.53-3.72-1.32l-5.9.88c-1.4.2-3.7 1.4-3.55 2.41l.13.91a47.87 47.87 0 00-22.44 15.11l-1.28-.5c-1.96-.78-5.08 2.47-6.17 5.2l-4.52 11.28c-1.09 2.72-1.36 7.96.59 8.74l.77.3a47.27 47.27 0 001.87 19.51 47.12 47.12 0 009.62 17.05 47.7 47.7 0 004.79 4.7l-.67 1.34c-.77 1.56 1.7 4.36 3.87 5.43l8.98 4.45c2.17 1.07 6.49 1.63 7.26.08l.59-1.19a47.43 47.43 0 0019.2.46 47.62 47.62 0 0017.82-7.17l1.73 1.29c1.69 1.25 5.55-1.07 7.32-3.42z" fill="#9C03F8"/>
    <path opacity=".2" d="M507.53 953.56c4.97 5.64 13.1 6.6 18.18 2.13s5.15-12.66.19-18.3c-4.97-5.64-13.1-6.6-18.18-2.13-5.07 4.47-5.15 12.66-.19 18.3z" fill="#0A0A0A"/>
    <path opacity=".6" d="M508.67 952.56c-4.78-5.43-4.88-13.23-.36-17.78-.2.15-.4.31-.59.48-5.07 4.47-5.16 12.66-.2 18.3 4.97 5.65 13.11 6.6 18.19 2.13.19-.17.38-.34.55-.52-5.1 3.9-12.8 2.82-17.59-2.61z" fill="#9C03F8"/>
    <path opacity=".1" d="M524.76 938.4c4.78 5.42 4.89 13.22.36 17.77.2-.15.4-.31.59-.48 5.07-4.47 5.16-12.66.2-18.3-4.97-5.65-13.11-6.6-18.19-2.13-.19.17-.38.34-.55.52 5.1-3.9 12.81-2.81 17.59 2.61z" fill="#9C03F8"/>
    <path opacity=".2" d="M505.51 955.34c4.3 4.88 10.18 6.84 13.63 4.7a4.96 4.96 0 01-.6.64c-3.3 2.9-9.72 1.03-14.33-4.2-4.6-5.23-5.65-11.83-2.34-14.74.22-.2.45-.37.7-.52-2.56 3.16-1.36 9.23 2.94 14.12z" fill="#0A0A0A"/>
    <path opacity=".1" d="M527.19 936.25c-4.64-5.26-10.8-7.54-14.28-5.45.18-.22.38-.44.6-.63 3.3-2.91 10.01-.7 14.98 4.94 4.97 5.64 6.3 12.58 3 15.49a4.74 4.74 0 01-.7.51c2.51-3.2 1.04-9.59-3.6-14.86z" fill="#9C03F8"/>
    <path opacity=".2" d="M485.84 964.11c1.77-.73 2.08-4.02.7-7.34-1.37-3.33-3.91-5.43-5.68-4.7-1.76.74-2.07 4.03-.7 7.35 1.38 3.33 3.92 5.43 5.68 4.7z" fill="#0A0A0A"/>
    <path opacity=".6" d="M480.56 959.26c-1.33-3.2-1.1-6.37.5-7.25a1.9 1.9 0 00-.2.07c-1.77.74-2.07 4.02-.7 7.35 1.37 3.33 3.92 5.42 5.68 4.69a2.02 2.02 0 00.2-.1c-1.75.5-4.16-1.56-5.49-4.76z" fill="#9C03F8"/>
    <path opacity=".1" d="M486.15 956.94c1.32 3.2 1.09 6.37-.51 7.25l.2-.07c1.76-.73 2.08-4.02.7-7.35-1.37-3.32-3.92-5.42-5.68-4.69l-.2.1c1.76-.5 4.16 1.55 5.49 4.76z" fill="#9C03F8"/>
    <path opacity=".2" d="M479.46 959.72c1.2 2.88 2.98 4.91 4.15 4.78a.84.84 0 01-.2.12c-1.16.48-3.13-1.63-4.4-4.71-1.27-3.08-1.38-5.97-.22-6.45a.83.83 0 01.23-.06c-.92.74-.75 3.44.44 6.32z" fill="#0A0A0A"/>
    <path opacity=".1" d="M487 956.6c-1.29-3.11-3.16-5.33-4.34-5.22a.82.82 0 01.21-.12c1.15-.48 3.2 1.82 4.57 5.15s1.56 6.4.4 6.89a.79.79 0 01-.23.05c.9-.77.66-3.66-.61-6.76z" fill="#9C03F8"/>
    <path opacity=".2" d="M558.66 940.24c2.25-.94 2.66-5.14.9-9.4-1.76-4.24-5-6.92-7.26-5.99-2.25.94-2.65 5.14-.9 9.4 1.76 4.24 5.01 6.92 7.26 5.98z" fill="#0A0A0A"/>
    <path opacity=".6" d="M559.06 931.07c1.69 4.1 1.38 8.13-.65 9.27l.26-.1c2.25-.93 2.65-5.13.9-9.38-1.77-4.25-5.01-6.94-7.27-6a2.42 2.42 0 00-.24.12c2.23-.64 5.3 2 7 6.09z" fill="#9C03F8"/>
    <path opacity=".1" d="M551.91 934.04c-1.68-4.1-1.38-8.14.65-9.27a2.17 2.17 0 00-.26.09c-2.25.94-2.65 5.14-.89 9.39 1.76 4.25 5 6.93 7.26 6 .08-.04.17-.08.24-.13-2.23.64-5.3-2-7-6.08z" fill="#9C03F8"/>
    <path opacity=".2" d="M560.46 930.48c-1.52-3.68-3.81-6.27-5.3-6.1.08-.07.17-.12.27-.16 1.47-.61 3.98 2.08 5.61 6.01 1.64 3.93 1.76 7.63.3 8.24a1.02 1.02 0 01-.31.08c1.16-.94.95-4.4-.57-8.07z" fill="#0A0A0A"/>
    <path opacity=".1" d="M550.84 934.49c1.64 3.97 4.03 6.8 5.54 6.65a1.02 1.02 0 01-.27.17c-1.47.6-4.09-2.34-5.84-6.59-1.76-4.24-2-8.19-.52-8.79a1 1 0 01.3-.07c-1.16.96-.85 4.66.79 8.63z" fill="#9C03F8"/>
    <path opacity=".2" d="M488.8 923.26c2.55 2.3 7.61.86 11.3-3.22s4.62-9.26 2.07-11.57c-2.55-2.3-7.6-.85-11.3 3.23-3.7 4.09-4.62 9.26-2.07 11.56z" fill="#0A0A0A"/>
    <path opacity=".6" d="M488.75 916.8c1.38-4.47 5.72-8.58 9.83-9.4a6.63 6.63 0 00-.47.04c-4.25.59-8.86 4.83-10.3 9.48-1.46 4.66.82 7.95 5.07 7.37l.48-.09c-3.95.3-6-2.93-4.6-7.4z" fill="#9C03F8"/>
    <path opacity=".1" d="M502.23 914.94c-1.4 4.47-5.72 8.57-9.83 9.4l.47-.05c4.25-.58 8.86-4.83 10.31-9.48 1.45-4.65-.83-7.95-5.08-7.36l-.48.08c3.94-.29 6 2.93 4.6 7.41z" fill="#9C03F8"/>
    <path opacity=".2" d="M486.1 917.16c-1.25 4.03-.32 7.07 2.07 7.15a4.08 4.08 0 01-.56.12c-2.77.38-3.94-2.8-2.6-7.12 1.34-4.31 4.68-8.12 7.45-8.5.18-.02.35-.03.53-.03-2.65.77-5.64 4.36-6.89 8.38z" fill="#0A0A0A"/>
    <path opacity=".1" d="M504.26 914.66c1.35-4.34.5-7.65-1.87-7.76a3.7 3.7 0 01.55-.12c2.78-.38 3.85 3.08 2.4 7.73-1.44 4.65-4.85 8.74-7.63 9.12a2.92 2.92 0 01-.53.03c2.66-.81 5.73-4.66 7.08-9z" fill="#9C03F8"/>
    <path opacity=".2" d="M524.52 984.92c1.6-.66 2.1-3.16 1.1-5.58s-3.12-3.84-4.72-3.18c-1.6.67-2.09 3.17-1.09 5.59 1 2.42 3.11 3.84 4.72 3.17z" fill="#0A0A0A"/>
    <path opacity=".6" d="M521.73 983.78a6.59 6.59 0 01-2.18-6.1 3.64 3.64 0 00-.07.22c-.62 2.04.33 4.88 2.11 6.34 1.79 1.47 3.73 1 4.35-1.04l.06-.23c-.68 1.84-2.55 2.22-4.27.81z" fill="#9C03F8"/>
    <path opacity=".1" d="M523.69 977.32a6.59 6.59 0 012.18 6.1l.07-.22c.62-2.04-.33-4.88-2.11-6.34-1.79-1.46-3.73-1-4.35 1.04a4.54 4.54 0 00-.06.23c.69-1.84 2.55-2.22 4.27-.81z" fill="#9C03F8"/>
    <path opacity=".2" d="M521.35 985.06c1.54 1.26 3.1 1.37 3.63.29a2.14 2.14 0 01-.07.28c-.4 1.34-2.07 1.31-3.73-.04-1.65-1.36-2.67-3.54-2.27-4.87l.1-.25c-.2 1.33.8 3.33 2.34 4.59z" fill="#0A0A0A"/>
    <path opacity=".1" d="M523.98 976.34c-1.66-1.36-3.31-1.54-3.86-.48l.06-.28c.4-1.33 2.18-1.22 3.96.24 1.79 1.47 2.9 3.73 2.5 5.06a1.72 1.72 0 01-.1.25c.2-1.35-.9-3.42-2.56-4.79z" fill="#9C03F8"/>
    <path opacity=".1" d="M554.25 980.07l7.3-9.73c1.76-2.35 3.38-7.35 1.7-8.6l-.58-.44a47.62 47.62 0 00.9-35.3l.04-.03c1.97-1.73.12-7.04-2.29-9.78l-4.2-4.76a57.54 57.54 0 01-2.15 28.21 57.78 57.78 0 01-15.33 23.82 57.8 57.8 0 01-24.83 13.68 57.6 57.6 0 01-28.3.22c.54.5 1.08.98 1.63 1.46l-.66 1.34c-.78 1.55 1.69 4.35 3.86 5.42l9 4.45c2.17 1.07 6.48 1.62 7.26.07l.59-1.18a47.44 47.44 0 0019.2.46 47.62 47.62 0 0017.82-7.18l1.73 1.3c1.68 1.24 5.55-1.07 7.31-3.43z" fill="#0A0A0A"/>
    <path opacity=".1" d="M554.14 979.93l7.3-9.72c1.76-2.36 3.38-7.35 1.7-8.6l-.59-.44a47.65 47.65 0 001.91-32.3 57.27 57.27 0 01-5.3 25.85 57.46 57.46 0 01-40.23 32.02 57.2 57.2 0 01-26.38-.65l7.67 3.8c2.17 1.07 6.49 1.63 7.26.07l.59-1.18a47.47 47.47 0 0019.2.46 47.62 47.62 0 0017.82-7.18l1.73 1.3c1.69 1.25 5.55-1.07 7.32-3.43z" fill="#0A0A0A"/>
    <g clip-path="url(#clip3)">
      <path d="M629.88 509.25c-39.11 14.26-81.64 17.2-111.16 17.07a112.48 112.48 0 00111.16-17.07z" fill="#9C03F8"/>
      <path d="M572.82 309.8a111.71 111.71 0 00-28.97.3 112.92 112.92 0 00-66.82 34.87c21.73 3.41 60.15 2.21 95.8-35.18z" fill="#9C03F8"/>
      <path d="M482.81 503.82a112.28 112.28 0 0032.5 21.11c1.15.49 2.27.95 3.42 1.4 29.51.12 72.04-2.81 111.16-17.08a111.99 111.99 0 0033.04-43.55 114.38 114.38 0 004.8-13.55c-30.8 28.33-87.52 59.52-184.92 51.67z" fill="#F930CE"/>
      <path d="M644.86 348.23a111.71 111.71 0 00-31.17-25.3 118.84 118.84 0 00-13.42-6.26 112.25 112.25 0 00-27.45-6.88c-35.64 37.4-74.06 38.59-95.79 35.18a112.12 112.12 0 00-12.24 15.82 115.76 115.76 0 00-5.5 9.64 98.63 98.63 0 00-3.22 6.86 112.26 112.26 0 00-8.4 32.02c44.19-4.83 137.5-19.54 197.19-61.08z" fill="#F930CE"/>
      <path d="M447.58 432.65a113.21 113.21 0 002.75 15.88 113.17 113.17 0 0013.16 31.56 112 112 0 008.79 12.44c39-5.25 143.44-23.46 199.72-72.78a112.9 112.9 0 00-13.05-50.81c-.43-.82-.88-1.63-1.33-2.44-37.09 41.14-106.76 92.7-210.04 66.15z" fill="#F930CE"/>
      <path d="M644.86 348.23c-59.7 41.54-153 56.25-197.2 61.08a112.09 112.09 0 00-.08 23.34c103.28 26.56 172.95-25.01 210.04-66.15a114.16 114.16 0 00-5.53-8.9 114.41 114.41 0 00-7.23-9.37z" fill="#9C03F8"/>
      <path d="M472.26 492.53a111.78 111.78 0 0010.55 11.29c97.4 7.85 154.12-23.34 184.92-51.64a111.77 111.77 0 004.25-32.4c-56.27 49.3-160.71 67.5-199.72 72.75z" fill="#9C03F8"/>
      <path opacity=".2" d="M559.3 309c-4.36 0-8.71.25-13.04.76 0 0 117.61 105.83 0 223.44 4.33.5 8.68.75 13.04.75 62.12 0 112.48-50.35 112.48-112.47S621.42 309 559.3 309z" fill="#0A0A0A"/>
      <path opacity=".04" d="M559.3 309c-4.36 0-8.71.25-13.04.76 55.97 6.46 99.43 54.01 99.43 111.72 0 57.7-43.46 105.28-99.43 111.74 4.33.5 8.68.75 13.04.76 62.12 0 112.48-50.36 112.48-112.48 0-62.12-50.36-112.5-112.48-112.5z" fill="#0A0A0A"/>
    </g>
    <g clip-path="url(#clip4)">
      <path d="M1688.21 164.45a62.5 62.5 0 00-4.83-24.18 114.19 114.19 0 00-45.63 33.75 114.89 114.89 0 00-23.86 51.62c4.02.8 8.1 1.19 12.19 1.18a61.98 61.98 0 0043.92-18.27 62.55 62.55 0 0018.21-44.1z" fill="#9C03F8"/>
      <path d="M1697.01 315.46c0-8.5-3.02-16.71-8.52-23.17a35.45 35.45 0 00-21.48-12.03 35.32 35.32 0 00-24.1 4.9 35.56 35.56 0 00-15.14 19.46 114.66 114.66 0 0046.66 44.02 35.44 35.44 0 0016.39-13.09 35.71 35.71 0 006.19-20.09z" fill="#9C03F8" stroke="#9C03F8" stroke-width=".6" stroke-miterlimit="10"/>
      <path d="M1807.31 326.74a17.32 17.32 0 00-21.62-.56 17.48 17.48 0 00-6.37 9.57 17.6 17.6 0 00.94 11.47 114.3 114.3 0 0027.05-20.48z" fill="#9C03F8"/>
      <path d="M1768.43 205.83a18.36 18.36 0 00-7.03 6.02 18.41 18.41 0 00-3.2 8.7 18.32 18.32 0 007.02-6.02c1.8-2.58 2.9-5.57 3.21-8.7z" fill="#F930CE"/>
      <path d="M1776.39 203.99a18.15 18.15 0 00-7.96 1.84 18.32 18.32 0 01-3.21 8.7 18.32 18.32 0 01-7.02 6.01 18.4 18.4 0 002.99 12.03 18.3 18.3 0 008.2 6.76 18.22 18.22 0 0019.92-3.98 18.32 18.32 0 005-9.4c.71-3.56.35-7.26-1.04-10.6a18.28 18.28 0 00-6.73-8.25 18.2 18.2 0 00-10.15-3.1V204z" fill="#9C03F8"/>
      <path d="M1726 132a113.2 113.2 0 00-42.62 8.27 62.46 62.46 0 014.83 24.17 62.56 62.56 0 01-18.18 44.11 62 62 0 01-56.11 17.11 115.19 115.19 0 0013.85 78.96 35.65 35.65 0 0112.33-17.53 35.4 35.4 0 0120.12-7.22c.01 2.93.91 5.78 2.58 8.18a14.3 14.3 0 006.79 5.23 14.19 14.19 0 0015.76-4.2 35.64 35.64 0 019.77 14.98 35.74 35.74 0 011.27 17.86 35.6 35.6 0 01-7.54 16.23 35.44 35.44 0 01-14.44 10.49 113.73 113.73 0 00105.85-1.42 17.6 17.6 0 01-.94-11.47c.99-3.82 3.23-7.19 6.37-9.57a17.32 17.32 0 0121.62.56A114.36 114.36 0 001840 246.5c0-63.24-51.04-114.5-114-114.5zm50.39 108.68a18.25 18.25 0 01-10.16-3.1c-3-2.01-5.35-4.88-6.73-8.24a18.44 18.44 0 01-1.03-10.62 18.33 18.33 0 015.02-9.4 18.24 18.24 0 019.37-5 18.2 18.2 0 0110.56 1.06 18.27 18.27 0 018.19 6.78 18.35 18.35 0 013.06 10.21 18.38 18.38 0 01-5.37 12.95 18.22 18.22 0 01-12.91 5.36z" fill="#F930CE"/>
      <path opacity=".05" d="M1726 132c-4.42 0-8.83.26-13.22.77 0 0 119.2 107.73 0 227.46 4.39.51 8.8.77 13.22.77 62.96 0 114-51.26 114-114.5S1788.96 132 1726 132z" fill="#0A0A0A"/>
      <path opacity=".05" d="M1726 132c-4.42 0-8.83.26-13.22.77 56.73 6.58 100.79 54.98 100.79 113.73s-44.06 107.15-100.79 113.73c4.39.51 8.8.77 13.22.77 62.96 0 114-51.26 114-114.5S1788.96 132 1726 132z" fill="#0A0A0A"/>
    </g>
    <path d="M300.76 745.6l.02-.65c0-11.06-15.44-20.65-38.05-25.44-9.8-2.07-20.92-3.24-32.72-3.24s-22.94 1.17-32.72 3.24c-22.61 4.79-38.05 14.38-38.05 25.44 0 .21 0 .43.02.65" stroke="#5DD0D8" stroke-width="9.06" stroke-miterlimit="10"/>
    <path d="M320.73 745.6l.02-.65c0-17.78-31.14-32.61-72.53-36.03a222.2 222.2 0 00-18.22-.74c-6.24 0-12.38.26-18.29.75-41.35 3.42-72.45 18.25-72.45 36.02 0 .21 0 .43.02.65" stroke="#5DD0D8" stroke-width="1.92" stroke-miterlimit="10"/>
    <path d="M230 793a44.04 44.04 0 0044.09-44c0-24.3-19.74-44-44.1-44a44.04 44.04 0 00-44.08 44c0 24.3 19.74 44 44.09 44z" fill="#F930CE"/>
    <path opacity=".05" d="M230 705a44.76 44.76 0 00-5.11.3s46.1 41.4 0 87.41a44.2 44.2 0 0017.73-1.59 44.12 44.12 0 0015.66-8.46 44.01 44.01 0 0011.03-13.94 43.9 43.9 0 002.02-34.75 44 44 0 00-9.33-15.13 44.1 44.1 0 00-14.57-10.21A44.17 44.17 0 00230 705z" fill="#0A0A0A"/>
    <path opacity=".05" d="M230 705a44.76 44.76 0 00-5.11.3 44.12 44.12 0 0127.85 14.44A43.95 43.95 0 01263.9 749a43.95 43.95 0 01-11.17 29.27 44.12 44.12 0 01-27.85 14.44 44.2 44.2 0 0017.73-1.59 44.12 44.12 0 0015.66-8.45 44.01 44.01 0 0011.03-13.95 43.9 43.9 0 002.02-34.75 44 44 0 00-9.33-15.13 44.1 44.1 0 00-14.57-10.21A44.17 44.17 0 00230 705z" fill="#0A0A0A"/>
    <path d="M300.76 745.6c-.86 15.54-32.2 28.02-70.76 28.02-38.55 0-69.9-12.49-70.76-28.02" stroke="#5DD0D8" stroke-width="9.06" stroke-miterlimit="10"/>
    <path d="M320.73 745.6c-.86 20.01-41.16 36.11-90.73 36.11s-89.87-16.1-90.74-36.11" stroke="#5DD0D8" stroke-width="1.92" stroke-miterlimit="10"/>
    <path d="M189 248.18a50.18 50.18 0 100-100.36 50.18 50.18 0 000 100.36z" fill="#5DD0D8"/>
    <path opacity=".05" d="M189 147.82a50.93 50.93 0 00-5.82.34s52.48 47.21 0 99.7A50.18 50.18 0 10189 147.83v-.01z" fill="#0A0A0A"/>
    <path opacity=".05" d="M189 147.82a50.93 50.93 0 00-5.82.34 50.18 50.18 0 010 99.7A50.18 50.18 0 10189 147.83v-.01z" fill="#0A0A0A"/>
    <path d="M189 271.97a73.97 73.97 0 100-147.94 73.97 73.97 0 000 147.94z" stroke="#F930CE" stroke-width="6" stroke-miterlimit="10"/>
    <path d="M189 278.55a80.55 80.55 0 100-161.1 80.55 80.55 0 000 161.1z" stroke="#F930CE" stroke-width="2" stroke-miterlimit="10"/>
    <path opacity=".2" d="M189 301.28c57.04 0 103.28-46.24 103.28-103.28S246.04 94.72 189 94.72 85.72 140.96 85.72 198 131.96 301.28 189 301.28z" stroke="#F930CE" stroke-width="20" stroke-miterlimit="10"/>
    <g clip-path="url(#clip5)">
      <path d="M868.77 890.4c29.2 5.04 54.66-1.3 56.87-14.14 2.22-12.85-19.64-27.35-48.84-32.4-29.19-5.03-54.65 1.3-56.87 14.15-2.22 12.85 19.65 27.35 48.84 32.39z" fill="#249E90"/>
      <path d="M868.58 893.17c27.53 4.75 51.54-1.22 53.63-13.33 2.09-12.12-18.53-25.8-46.05-30.55-27.53-4.75-51.54 1.22-53.63 13.34-2.1 12.11 18.52 25.78 46.05 30.54z" fill="#F930CE"/>
      <path d="M867.75 897.94c20.5 3.54 38.37-.9 39.93-9.92 1.56-9.02-13.8-19.2-34.28-22.74-20.5-3.54-38.37.9-39.93 9.92-1.56 9.02 13.8 19.2 34.28 22.74z" fill="#F930CE"/>
      <path d="M870.16 882.32c59.87 10.34 110.53 6.4 113.15-8.8 2.62-15.2-43.78-35.9-103.64-46.23-59.87-10.34-110.53-6.4-113.15 8.8-2.62 15.2 43.78 35.9 103.64 46.23z" fill="#E02CB9"/>
      <path opacity=".1" d="M976.08 861c.15.87.16 1.75.01 2.61-2.62 15.2-53.28 19.14-113.15 8.8-44.55-7.69-81.65-21.12-96.63-33.75 2.6 14.88 47.12 33.86 103.63 43.62 59.86 10.34 110.53 6.39 113.15-8.8.67-3.9-1.87-8.13-7.01-12.47z" fill="#010002"/>
      <path d="M883.22 806.72c-29.19-5.04-55.95 8.88-59.78 31.1a31.78 31.78 0 00-.33 8.27c13.77 6.66 31.26 12.2 50.64 15.55 19.39 3.35 37.72 3.98 52.93 2.33a31.61 31.61 0 002.44-7.9c3.84-22.22-16.71-44.32-45.9-49.36z" fill="#F930CE"/>
      <path opacity=".1" d="M929.12 856.06c3.84-22.21-16.71-44.3-45.9-49.34a68.9 68.9 0 00-3.61-.53c27.32 6.21 45.9 28.65 41.97 51.46a35.9 35.9 0 01-1.92 6.9c2.4-.14 4.74-.34 7.01-.58a31.65 31.65 0 002.45-7.9z" fill="#010002"/>
      <path d="M874.8 848.3c-4.37-.76-8.73 3.33-9.74 9.15a13.9 13.9 0 00-.2 2.5 230.21 230.21 0 0015.37 2.74c.3-.82.53-1.65.67-2.5.99-5.83-1.74-11.15-6.1-11.9z" fill="#F4E6DD"/>
      <path d="M848.94 843.83c-4.32-.75-8.63 3.24-9.7 8.94a198.78 198.78 0 0015.36 4.72c.18-.58.33-1.18.43-1.78 1.02-5.8-1.72-11.13-6.1-11.88z" fill="#F4E6DD"/>
      <path d="M900.63 852.75c-4.37-.75-8.73 3.34-9.73 9.16a14.4 14.4 0 00-.2 2.03c5.5.52 10.84.82 16 .9l.04-.2c1-5.81-1.74-11.14-6.11-11.89z" fill="#F4E6DD"/>
    </g>
    <path fill-rule="evenodd" clip-rule="evenodd" d="M718.2 639.47a1.73 1.73 0 00-3.4 0l-.84 5.6a7 7 0 01-5.9 5.89l-5.59.83a1.73 1.73 0 000 3.42l5.6.83a7 7 0 015.89 5.9l.83 5.59a1.73 1.73 0 003.42 0l.83-5.6a7 7 0 015.9-5.89l5.59-.83a1.73 1.73 0 000-3.42l-5.6-.83a7 7 0 01-5.89-5.9l-.83-5.59z" fill="white"/>
    <path fill-rule="evenodd" clip-rule="evenodd" d="M1775.66 913a1.18 1.18 0 00-1.16-1c-.58 0-1.07.42-1.16 1l-.51 3.44a5.22 5.22 0 01-4.39 4.39l-3.44.51a1.17 1.17 0 000 2.32l3.44.51a5.22 5.22 0 014.39 4.39l.51 3.44a1.18 1.18 0 002.32 0l.51-3.44a5.22 5.22 0 014.39-4.39l3.44-.51a1.17 1.17 0 000-2.32l-3.44-.51a5.22 5.22 0 01-4.39-4.39l-.51-3.44z" fill="white"/>
    <path fill-rule="evenodd" clip-rule="evenodd" d="M235.2 500.47a1.73 1.73 0 00-3.4 0l-.84 5.6a7 7 0 01-5.9 5.89l-5.59.83a1.73 1.73 0 000 3.42l5.6.83a7 7 0 015.89 5.9l.83 5.59a1.73 1.73 0 003.42 0l.83-5.6a7 7 0 015.9-5.89l5.59-.83a1.73 1.73 0 000-3.42l-5.6-.83a7 7 0 01-5.89-5.9l-.83-5.59z" fill="white" opacity=".3"/>
    <path fill-rule="evenodd" clip-rule="evenodd" d="M599.2 122.47a1.73 1.73 0 00-3.4 0l-.84 5.6a7 7 0 01-5.9 5.89l-5.59.83a1.73 1.73 0 000 3.42l5.6.83a7 7 0 015.89 5.9l.83 5.59a1.73 1.73 0 003.42 0l.83-5.6a7 7 0 015.9-5.89l5.59-.83a1.73 1.73 0 000-3.42l-5.6-.83a7 7 0 01-5.89-5.9l-.83-5.59z" fill="white" opacity=".3"/>
    <path fill-rule="evenodd" clip-rule="evenodd" d="M994.44 358.8a.95.95 0 00-1.88 0l-.41 2.8a4.22 4.22 0 01-3.55 3.55l-2.8.41a.95.95 0 000 1.88l2.8.41a4.22 4.22 0 013.55 3.55l.41 2.8a.95.95 0 001.88 0l.41-2.8a4.22 4.22 0 013.55-3.55l2.79-.41a.94.94 0 00.81-.94.94.94 0 00-.81-.94l-2.79-.41a4.22 4.22 0 01-3.55-3.55l-.41-2.8z" fill="white"/>
    <path fill-rule="evenodd" clip-rule="evenodd" d="M1341.21 720.47a1.74 1.74 0 00-1.71-1.47c-.85 0-1.58.63-1.71 1.47l-.83 5.6a7.01 7.01 0 01-5.89 5.89l-5.6.83a1.73 1.73 0 00-1.47 1.71c0 .85.63 1.58 1.47 1.7l5.6.84a7.01 7.01 0 015.89 5.9l.83 5.59c.13.84.86 1.47 1.71 1.47s1.58-.63 1.71-1.47l.83-5.6a7.01 7.01 0 015.89-5.89l5.6-.83a1.73 1.73 0 001.47-1.71 1.73 1.73 0 00-1.47-1.7l-5.6-.84a7.01 7.01 0 01-5.89-5.9l-.83-5.59z" fill="white" opacity=".3"/>
    <path fill-rule="evenodd" clip-rule="evenodd" d="M1049.21 959.47a1.74 1.74 0 00-1.71-1.47c-.85 0-1.58.63-1.71 1.47l-.83 5.6a7.01 7.01 0 01-5.89 5.89l-5.6.83a1.73 1.73 0 00-1.47 1.71c0 .85.63 1.58 1.47 1.7l5.6.84a7.01 7.01 0 015.89 5.9l.83 5.59c.13.84.86 1.47 1.71 1.47s1.58-.63 1.71-1.47l.83-5.6a7.01 7.01 0 015.89-5.89l5.6-.83a1.73 1.73 0 001.47-1.71 1.73 1.73 0 00-1.47-1.7l-5.6-.84a7.01 7.01 0 01-5.89-5.9l-.83-5.59z" fill="white" opacity=".3"/>
    <path fill-rule="evenodd" clip-rule="evenodd" d="M1727.98 464.14a2.5 2.5 0 00-2.48-2.14c-1.24 0-2.3.9-2.48 2.14l-1.56 10.43a6.99 6.99 0 01-5.89 5.9l-10.43 1.55a2.5 2.5 0 00-2.14 2.48c0 1.24.91 2.3 2.14 2.48l10.43 1.56a6.99 6.99 0 015.89 5.89l1.56 10.43a2.5 2.5 0 002.48 2.14c1.24 0 2.3-.9 2.48-2.14l1.56-10.43a6.99 6.99 0 015.89-5.9l10.43-1.55a2.5 2.5 0 002.14-2.48 2.5 2.5 0 00-2.14-2.48l-10.43-1.56a6.99 6.99 0 01-5.89-5.89l-1.56-10.43z" fill="white" opacity=".1"/>
    <path fill-rule="evenodd" clip-rule="evenodd" d="M1477.98 134.14a2.5 2.5 0 00-2.48-2.14c-1.24 0-2.3.9-2.48 2.14l-1.56 10.43a6.99 6.99 0 01-5.89 5.9l-10.43 1.55a2.5 2.5 0 00-2.14 2.48c0 1.24.91 2.3 2.14 2.48l10.43 1.56a6.99 6.99 0 015.89 5.89l1.56 10.43a2.5 2.5 0 002.48 2.14c1.24 0 2.3-.9 2.48-2.14l1.56-10.43a6.99 6.99 0 015.89-5.9l10.43-1.55a2.5 2.5 0 002.14-2.48 2.5 2.5 0 00-2.14-2.48l-10.43-1.56a6.99 6.99 0 01-5.89-5.89l-1.56-10.43z" fill="white" opacity=".1"/>
    <path fill-rule="evenodd" clip-rule="evenodd" d="M204.2 964.47a1.73 1.73 0 00-3.4 0l-.84 5.6a7 7 0 01-5.9 5.89l-5.59.83a1.73 1.73 0 000 3.42l5.6.83a7 7 0 015.89 5.9l.83 5.59a1.73 1.73 0 003.42 0l.83-5.6a7 7 0 015.9-5.89l5.59-.83a1.73 1.73 0 000-3.42l-5.6-.83a7 7 0 01-5.89-5.9l-.83-5.59z" fill="white" opacity=".3"/>
  </g>
  <defs>
    <clipPath id="clip0">
      <path fill="white" d="M0 0h1920v1080H0z"/>
    </clipPath>
    <clipPath id="clip1">
      <path fill="white" transform="translate(1284 198)" d="M0 0h132v130H0z"/>
    </clipPath>
    <clipPath id="clip2">
      <path fill="white" transform="rotate(29.15 -923 3201.36)" d="M0 0h94v92H0z"/>
    </clipPath>
    <clipPath id="clip3">
      <path fill="white" transform="translate(447 309)" d="M0 0h225v225H0z"/>
    </clipPath>
    <clipPath id="clip4">
      <path fill="white" transform="translate(1612 132)" d="M0 0h228v229H0z"/>
    </clipPath>
    <clipPath id="clip5">
      <path fill="white" transform="rotate(9.8 -4210.5 4915.02)" d="M0 0h220v93H0z"/>
    </clipPath>
  </defs>
</svg>
