<svg fill="none" xmlns="http://www.w3.org/2000/svg" viewBox="0 0 1920 1080">
  <path fill="#8800DA" d="M0 0h1920v1080H0z"/>
  <path d="M251.13 256.02a15.08 15.08 0 00-12.54 17.26l23.63 148.83a15.08 15.08 0 0017.25 12.53h.01a15.08 15.08 0 0012.53-17.26l-23.63-148.83a15.08 15.08 0 00-17.25-12.53z" fill="#EBB57A"/>
  <path d="M280.83 382.8l2.92 18.38" stroke="#CF8F33" stroke-width="1.5" stroke-miterlimit="10" stroke-linecap="round"/>
  <path d="M277.4 396.16l3.72 23.5" stroke="#CF8F33" stroke-width="1.5" stroke-miterlimit="10" stroke-linecap="round"/>
  <path d="M268.65 385.82l6.02 37.95" stroke="#CF8F33" stroke-width="1.5" stroke-miterlimit="10" stroke-linecap="round"/>
  <path d="M264.43 403l-1.87-11.74" stroke="#CF8F33" stroke-width="1.5" stroke-miterlimit="10" stroke-linecap="round"/>
  <path opacity=".05" d="M251.13 256.02a15.15 15.15 0 00-4.76 1.6 15.09 15.09 0 0112.24 12.48l23.63 148.82a15.1 15.1 0 01-7.8 15.66c1.66.3 3.36.32 5.03.05a15.05 15.05 0 009.84-6.03 15.08 15.08 0 002.69-11.23l-23.64-148.79a15.08 15.08 0 00-17.23-12.56z" fill="#333333"/>
  <path d="M245.83 214.65l-1.93.3a50.89 50.89 0 00-42.25 58.22L218.8 381.1a4.85 4.85 0 001.94 3.16 4.83 4.83 0 003.6.86l92.84-14.73a4.85 4.85 0 004.02-5.55L304.07 256.9a50.88 50.88 0 00-58.24-42.25z" fill="#F930CE"/>
  <path opacity=".05" d="M245.83 214.65l-1.93.3a50.69 50.69 0 00-4.75 1 50.88 50.88 0 0153.39 42.8l17.14 107.91a4.85 4.85 0 01-.86 3.6 4.83 4.83 0 01-3.16 1.95l11.5-1.83a4.85 4.85 0 004.03-5.54L304.07 256.9a50.88 50.88 0 00-58.24-42.26z" fill="#333333"/>
  <path opacity=".2" d="M233.27 224.72s-16.1 5.58-21.16 21.25" stroke="white" stroke-width="4.51" stroke-miterlimit="10" stroke-linecap="round"/>
  <path opacity=".2" d="M210.34 251.68a22.61 22.61 0 00-2.08 8.21" stroke="white" stroke-width="4.51" stroke-miterlimit="10" stroke-linecap="round"/>
  <path d="M272.01 245.28a12.2 12.2 0 019.09 2.18 12.2 12.2 0 014.88 7.97l18.57 116.97-24.1 3.83-18.58-116.98a12.2 12.2 0 0110.14-13.97z" fill="#C726A5"/>
  <path opacity=".15" d="M285.98 255.42a12.2 12.2 0 00-13.96-10.13s9.41 2.42 10.51 9.38l18.78 118.24 3.22-.52-18.55-116.97z" fill="#333333"/>
  <path d="M245.07 263.21a13.48 13.48 0 00-5.39-8.8 13.47 13.47 0 00-10.03-2.4 13.48 13.48 0 00-11.2 15.46l18.38 115.68 26.62-4.25" fill="#C726A5"/>
  <path opacity=".15" d="M244.87 261.94c-1.29-5.7-7.77-11.06-14.69-10.01 0 0 10.12 2.3 11.25 9.26l18.77 118.24 3.22-.52-18.55-116.97z" fill="#333333"/>
  <g clip-path="url(#clip0)">
    <path d="M1215.15 417.92h-.01a15.08 15.08 0 00-4.12 20.92L1295 563.97a15.08 15.08 0 0025.04-16.8l-83.97-125.14a15.08 15.08 0 00-20.92-4.12z" fill="#EBB57A"/>
    <path d="M1295.37 520.48l10.37 15.45" stroke="#CF8F33" stroke-width="1.5" stroke-miterlimit="10" stroke-linecap="round"/>
    <path d="M1297.87 534.04l13.25 19.76" stroke="#CF8F33" stroke-width="1.5" stroke-miterlimit="10" stroke-linecap="round"/>
    <path d="M1285.58 528.33l21.42 31.91" stroke="#CF8F33" stroke-width="1.5" stroke-miterlimit="10" stroke-linecap="round"/>
    <path d="M1288.98 545.7l-6.64-9.87" stroke="#CF8F33" stroke-width="1.5" stroke-miterlimit="10" stroke-linecap="round"/>
    <path opacity=".05" d="M1215.14 417.9c-1.4.95-2.63 2.12-3.64 3.47a15.09 15.09 0 0116.35 6.18l83.97 125.11a15.05 15.05 0 012.55 8.83 15.16 15.16 0 01-3.04 8.66 14.97 14.97 0 004.58-2.07 15.03 15.03 0 004.15-4.17 14.97 14.97 0 002.24-5.44c.39-1.94.38-3.94-.01-5.89a15.12 15.12 0 00-2.26-5.43l-83.97-125.08a15.03 15.03 0 00-4.16-4.17 15 15 0 00-5.44-2.25 15.05 15.05 0 00-5.88 0 15.14 15.14 0 00-5.44 2.26z" fill="#333333"/>
    <path d="M1192.96 382.6l-1.63 1.08a50.89 50.89 0 00-21.54 32.42 50.82 50.82 0 007.67 38.16l60.9 90.75a4.78 4.78 0 003.09 2.05 4.83 4.83 0 003.63-.73l78.05-52.38a4.8 4.8 0 002.05-3.09 4.82 4.82 0 00-.73-3.63l-60.89-90.76a50.9 50.9 0 00-32.43-21.55 50.88 50.88 0 00-38.17 7.68z" fill="#5DD0D8"/>
    <path opacity=".05" d="M1192.96 382.6l-1.63 1.08a51.47 51.47 0 00-3.9 2.9 50.9 50.9 0 0136.39-4.63 50.87 50.87 0 0130.04 21.03l60.91 90.73c.35.52.6 1.12.73 1.74.12.63.12 1.27 0 1.9a4.84 4.84 0 01-.72 1.74c-.35.53-.8.99-1.33 1.34l9.68-6.5a4.88 4.88 0 002.05-3.08 4.87 4.87 0 00-.73-3.64l-60.9-90.74a50.88 50.88 0 00-70.59-13.87z" fill="#333333"/>
    <path opacity=".2" d="M1185.79 397s-12.27 11.84-10.27 28.19" stroke="white" stroke-width="4.51" stroke-miterlimit="10" stroke-linecap="round"/>
    <path opacity=".2" d="M1176.31 431.11a22.6 22.6 0 001.56 8.33" stroke="white" stroke-width="4.51" stroke-miterlimit="10" stroke-linecap="round"/>
    <path d="M1229.59 399.4a12.18 12.18 0 019.15-1.85 12.2 12.2 0 017.78 5.18l66 98.34-20.27 13.6-66-98.34a12.24 12.24 0 01-1.84-9.16 12.22 12.22 0 015.18-7.78z" fill="#4FA6AD"/>
    <path opacity=".15" d="M1246.52 402.73a12.2 12.2 0 00-3.37-3.37 12.26 12.26 0 00-4.4-1.81 12.23 12.23 0 00-9.16 1.84s9.56-1.75 13.49 4.1l66.72 99.4 2.7-1.82-65.98-98.35z" fill="#333333"/>
    <path d="M1212.67 426.98a13.43 13.43 0 00-8.59-5.72 13.48 13.48 0 00-5.26.01 13.5 13.5 0 00-4.85 2.03 13.37 13.37 0 00-3.72 3.73 13.49 13.49 0 00-1.98 10.14 13.46 13.46 0 002.03 4.86l65.29 97.25 22.37-15.04" fill="#4FA6AD"/>
    <path opacity=".15" d="M1211.96 425.91c-3.57-4.63-11.7-6.77-17.54-2.91 0 0 10.15-2.16 14.09 3.68l66.72 99.4 2.71-1.82-65.98-98.35z" fill="#333333"/>
  </g>
  <g clip-path="url(#clip1)">
    <path d="M558.95 779.6a14.6 14.6 0 00-19.66 6.38l-66.32 130.05A14.6 14.6 0 10499 929.31l66.33-130.06a14.6 14.6 0 00-6.38-19.65z" fill="#EBB57A"/>
    <path d="M509.95 895.85l-8.2 16.06" stroke="#CF8F33" stroke-width="1.5" stroke-miterlimit="10" stroke-linecap="round"/>
    <path d="M499.64 904.36l-10.47 20.54" stroke="#CF8F33" stroke-width="1.5" stroke-miterlimit="10" stroke-linecap="round"/>
    <path d="M498.69 891.27l-16.92 33.17" stroke="#CF8F33" stroke-width="1.5" stroke-miterlimit="10" stroke-linecap="round"/>
    <path d="M485.58 902.33l5.24-10.27" stroke="#CF8F33" stroke-width="1.5" stroke-miterlimit="10" stroke-linecap="round"/>
    <path opacity=".05" d="M558.95 779.6a14.6 14.6 0 00-4.65-1.46 14.62 14.62 0 012.47 16.75l-66.33 130.09a14.62 14.62 0 01-15 7.8 14.56 14.56 0 003.92 2.9 14.6 14.6 0 0011.14.89 14.62 14.62 0 008.5-7.26l66.33-130.06a14.6 14.6 0 00.88-11.14 14.6 14.6 0 00-7.26-8.5z" fill="#333333"/>
    <path d="M593.16 755.61l-71.04 139.32 23.51 11.99a4.7 4.7 0 003.58.28 4.7 4.7 0 002.73-2.33l48.1-94.32a49.3 49.3 0 00-6.88-54.94z" fill="#F930CE"/>
    <path d="M539.75 740.25a49.14 49.14 0 00-29.2 24.67l-48.1 94.32a4.7 4.7 0 002.05 6.3l23.51 12 71.04-139.32a49.3 49.3 0 00-19.3 2.04z" fill="#9C03F8"/>
    <path d="M578.53 744.25l-1.67-.86a49.13 49.13 0 00-17.8-5.17L488 877.53l34.1 17.4 71.05-139.32a49.09 49.09 0 00-14.63-11.36z" fill="#FFF6E3"/>
    <path opacity=".05" d="M578.39 744.17l-1.67-.85a48.54 48.54 0 00-4.29-1.93 49.3 49.3 0 0117.41 63.96l-48.1 94.32a4.7 4.7 0 01-6.3 2.05l10.05 5.12a4.69 4.69 0 006.3-2.05l48.1-94.31a49.3 49.3 0 00-21.5-66.3z" fill="#333333"/>
    <path opacity=".2" d="M562.79 744.9s-15.77-4.81-28.67 4.58" stroke="white" stroke-width="4.51" stroke-miterlimit="10" stroke-linecap="round"/>
    <path opacity=".2" d="M529.47 752.96a21.94 21.94 0 00-6.3 5.24" stroke="white" stroke-width="4.51" stroke-miterlimit="10" stroke-linecap="round"/>
    <path opacity=".1" d="M581.43 783.1a11.83 11.83 0 015.17 15.9l-52.13 102.23-21.07-10.75 52.13-102.22a11.82 11.82 0 0115.9-5.16z" fill="#333333"/>
    <path opacity=".15" d="M586.6 799a11.86 11.86 0 00-5.17-15.9s6 7.26 2.88 13.37l-52.68 103.31 2.84 1.45L586.6 799z" fill="#333333"/>
    <path opacity=".1" d="M550.11 781.79a13.06 13.06 0 00-1.7-14.42 13.06 13.06 0 00-4-3.15 13.06 13.06 0 00-17.56 5.7l-51.57 101.12 23.27 11.87" fill="#333333"/>
    <path opacity=".15" d="M550.68 780.67c2.24-5.16.21-13.08-5.8-16.21 0 0 6.63 7.58 3.53 13.66l-52.7 103.34 2.84 1.44 52.13-102.23z" fill="#333333"/>
  </g>
  <path d="M1781.41 584.34c21.47 7.45 29.06 33.93 14.82 51.63 14.86 17.18 8.2 43.91-13.01 52.12 4.27 22.31-14.85 42.12-37.33 38.64-7.45 21.46-33.93 29.05-51.63 14.8-17.19 14.87-43.91 8.21-52.12-13-22.32 4.28-42.13-14.85-38.65-37.32-21.41-7.39-29-33.88-14.76-51.58-14.87-17.19-8.21-43.92 13.01-52.12-4.28-22.32 14.85-42.13 37.32-38.64 7.46-21.47 33.94-29.06 51.63-14.82 17.19-14.86 43.92-8.2 52.12 13.01 22.28-4.3 42.07 14.83 38.6 37.28z" fill="#5DD0D8"/>
  <path d="M1742.77 547.04l-49.59 90.34" stroke="#4FA6AD" stroke-width="6.24" stroke-miterlimit="10"/>
  <path d="M1693.18 637.38l-104.46 2.25" stroke="#4FA6AD" stroke-width="6.24" stroke-miterlimit="10"/>
  <path d="M1642.18 728.55l51-91.17-54.16-88.51" stroke="#4FA6AD" stroke-width="6.24" stroke-miterlimit="10"/>
  <path d="M1745.94 726.73l-52.76-89.35 103.05-1.41" stroke="#4FA6AD" stroke-width="6.24" stroke-miterlimit="10"/>
  <path d="M1783.24 688.09c21.19-8.21 27.85-34.94 13.01-52.12 14.25-17.7 6.65-44.18-14.81-51.63 3.48-22.45-16.33-41.58-38.65-37.32-8.24-21.17-34.96-27.83-52.14-12.96-17.7-14.24-44.18-6.65-51.63 14.8-22.46-3.48-41.58 16.33-37.33 38.65-21.19 8.2-27.85 34.93-13.01 52.12-14.19 17.7-6.6 44.2 14.86 51.62-3.48 22.45 16.33 41.58 38.64 37.33 8.21 21.19 34.94 27.84 52.13 13 17.7 14.25 44.17 6.65 51.63-14.8 22.45 3.48 41.58-16.33 37.32-38.65l-.02-.04zm-38.51 36.65c-7.29 20.99-33.17 28.41-50.48 14.49-16.81 14.53-42.94 8.02-50.96-12.7-21.82 4.18-41.19-14.52-37.78-36.47-20.97-7.29-28.4-33.17-14.47-50.47-14.53-16.81-8.02-42.94 12.7-50.96-4.19-21.82 14.52-41.19 36.47-37.78 7.29-20.99 33.17-28.41 50.48-14.48 16.81-14.54 42.93-8.02 50.96 12.7 21.82-4.2 41.19 14.51 37.78 36.46 20.99 7.3 28.41 33.17 14.48 50.48 14.54 16.8 8.03 42.93-12.69 50.96 4.18 21.81-14.52 41.18-36.49 37.77z" fill="#4FA6AD"/>
  <g opacity=".6">
    <mask id="mask0" maskUnits="userSpaceOnUse" x="1581" y="526" width="225" height="224">
      <path d="M1782.41 584.34c21.47 7.45 29.06 33.93 14.82 51.63 14.86 17.18 8.2 43.91-13.01 52.12 4.27 22.31-14.85 42.12-37.33 38.64-7.45 21.46-33.93 29.05-51.63 14.8-17.19 14.87-43.91 8.21-52.12-13-22.32 4.28-42.13-14.85-38.65-37.32-21.41-7.39-29-33.88-14.76-51.58-14.87-17.19-8.21-43.92 13.01-52.12-4.28-22.32 14.85-42.13 37.32-38.64 7.46-21.47 33.94-29.06 51.63-14.82 17.19-14.86 43.92-8.2 52.12 13.01 22.28-4.3 42.07 14.83 38.6 37.28z" fill="#F7DB94"/>
    </mask>
    <g mask="url(#mask0)" fill="#4FA6AD">
      <path opacity=".6" d="M1684.43 659.26l8.54-15.38 9.29 15.4-8.67 15.37-9.16-15.39z"/>
      <path opacity=".6" d="M1684.93 693.8l8.54-15.37 9.29 15.38-8.66 15.38-9.17-15.39z"/>
      <path opacity=".6" d="M1675.02 711.87l8.54-15.38 9.29 15.4-8.66 15.36-9.17-15.38z"/>
      <path opacity=".6" d="M1695.41 712.06l8.54-15.37 9.29 15.38-8.67 15.38-9.16-15.39z"/>
      <path opacity=".6" d="M1665.12 729.45l8.54-15.37 9.29 15.38-8.66 15.37-9.17-15.38z"/>
      <path opacity=".6" d="M1685.5 729.32l8.54-15.38 9.29 15.39-8.67 15.38-9.16-15.4z"/>
      <path opacity=".6" d="M1705.86 729.84l8.55-15.37 9.29 15.38-8.67 15.38-9.17-15.4z"/>
      <path opacity=".6" d="M1655.21 747.03l8.54-15.37 9.3 15.38-8.67 15.38-9.17-15.39z"/>
      <path opacity=".6" d="M1695.86 747.12l8.54-15.38 9.29 15.38-8.67 15.38-9.16-15.39z"/>
      <path opacity=".6" d="M1675.51 747.45l8.54-15.37 9.29 15.38-8.67 15.38-9.16-15.39z"/>
      <path opacity=".6" d="M1716.21 747.61l8.54-15.37 9.29 15.38-8.67 15.38-9.16-15.39z"/>
      <path opacity=".6" d="M1674.33 677l8.54-15.37 9.29 15.39-8.67 15.37-9.16-15.38z"/>
      <path opacity=".6" d="M1664.5 694.75l8.54-15.38 9.29 15.39-8.66 15.38-9.17-15.4z"/>
      <path opacity=".6" d="M1654.68 712.5l8.54-15.38 9.29 15.39-8.67 15.37-9.16-15.39z"/>
      <path opacity=".6" d="M1644.85 730.23l8.54-15.37 9.3 15.39-8.67 15.37-9.17-15.39z"/>
      <path opacity=".6" d="M1694.88 677.02l8.55-15.38 9.29 15.39-8.67 15.37-9.17-15.38z"/>
      <path opacity=".6" d="M1705.34 694.77l8.54-15.37 9.29 15.38-8.67 15.38-9.16-15.39z"/>
      <path opacity=".6" d="M1715.79 712.53l8.54-15.38 9.3 15.39-8.67 15.38-9.17-15.4z"/>
      <path opacity=".6" d="M1726.25 730.28l8.54-15.37 9.29 15.39-8.67 15.37-9.16-15.38z"/>
      <path opacity=".6" d="M1708.43 656.52l-8.98-15.12 17.85-.49 8.92 15.23-17.79.38z"/>
      <path opacity=".6" d="M1738.39 673.24l-8.98-15.12 17.84-.5 8.93 15.24-17.79.38z"/>
      <path opacity=".6" d="M1749.01 690.9l-8.98-15.13 17.85-.5 8.92 15.24-17.79.38z"/>
      <path opacity=".6" d="M1759.31 673.13l-8.99-15.11 17.85-.5 8.92 15.23-17.78.38z"/>
      <path opacity=".6" d="M1759.22 708.3l-8.99-15.12 17.85-.5 8.92 15.23-17.78.39z"/>
      <path opacity=".6" d="M1769.22 690.39l-8.99-15.12 17.86-.5 8.92 15.23-17.79.39z"/>
      <path opacity=".6" d="M1779.79 672.81l-8.99-15.11 17.85-.5 8.93 15.23-17.79.38z"/>
      <path opacity=".6" d="M1769.42 725.7l-8.98-15.12 17.85-.49 8.92 15.22-17.79.39z"/>
      <path opacity=".6" d="M1789.68 690.14l-8.99-15.1 17.85-.5 8.92 15.22-17.78.38z"/>
      <path opacity=".6" d="M1779.86 708.14l-8.98-15.12 17.85-.5 8.92 15.23-17.79.39z"/>
      <path opacity=".6" d="M1800.21 672.59l-8.98-15.12 17.85-.5 8.92 15.23-17.79.39z"/>
      <path opacity=".6" d="M1718.68 674.18l-8.99-15.11 17.85-.5 8.92 15.23-17.78.38z"/>
      <path opacity=".6" d="M1729.06 691.6l-8.99-15.12 17.85-.5 8.93 15.23-17.79.39z"/>
      <path opacity=".6" d="M1739.44 709.02l-8.98-15.12 17.85-.5 8.92 15.23-17.79.39z"/>
      <path opacity=".6" d="M1749.83 726.43l-8.99-15.11 17.85-.5 8.92 15.23-17.78.38z"/>
      <path opacity=".6" d="M1728.9 656.18l-8.98-15.11 17.84-.5 8.92 15.23-17.78.39z"/>
      <path opacity=".6" d="M1749.36 655.85l-8.98-15.12 17.85-.5 8.92 15.24-17.79.38z"/>
      <path opacity=".6" d="M1769.83 655.51l-8.99-15.11 17.85-.5 8.92 15.23-17.78.38z"/>
      <path opacity=".6" d="M1790.29 655.18l-8.98-15.12 17.85-.5 8.92 15.23-17.79.39z"/>
      <path opacity=".6" d="M1677.63 618.7l9.05 15.08-17.85.57-8.98-15.19 17.78-.46z"/>
      <path opacity=".6" d="M1647.6 602.1l9.05 15.09-17.85.56-8.98-15.19 17.78-.46z"/>
      <path opacity=".6" d="M1636.91 584.5l9.05 15.08-17.85.57-8.98-15.2 17.78-.45z"/>
      <path opacity=".6" d="M1626.69 602.3l9.05 15.08-17.85.57-8.98-15.19 17.78-.46z"/>
      <path opacity=".6" d="M1626.63 567.14l9.05 15.08-17.85.57-8.98-15.2 17.78-.45z"/>
      <path opacity=".6" d="M1616.71 585.09l9.04 15.08-17.85.57-8.98-15.2 17.79-.45z"/>
      <path opacity=".6" d="M1606.21 602.7l9.05 15.1-17.85.56-8.99-15.2 17.79-.45z"/>
      <path opacity=".6" d="M1616.36 549.78l9.04 15.07-17.84.58-8.99-15.2 17.79-.45z"/>
      <path opacity=".6" d="M1596.25 585.42l9.04 15.07-17.85.57-8.98-15.19 17.79-.45z"/>
      <path opacity=".6" d="M1605.99 567.38l9.04 15.08-17.85.57-8.98-15.2 17.79-.45z"/>
      <path opacity=".6" d="M1585.79 603.03l9.04 15.07-17.85.57-8.98-15.2 17.79-.44z"/>
      <path opacity=".6" d="M1667.32 601.08l9.04 15.08-17.85.57-8.98-15.2 17.79-.45z"/>
      <path opacity=".6" d="M1656.86 583.7l9.05 15.08-17.85.58-8.99-15.2 17.79-.45z"/>
      <path opacity=".6" d="M1646.4 566.34l9.05 15.07-17.85.57-8.98-15.19 17.78-.45z"/>
      <path opacity=".6" d="M1635.95 548.96l9.05 15.08-17.85.57-8.98-15.19 17.78-.46z"/>
      <path opacity=".6" d="M1657.17 619.12l9.04 15.08-17.84.57-8.99-15.2 17.79-.45z"/>
      <path opacity=".6" d="M1636.7 619.54l9.05 15.08-17.85.57-8.98-15.19 17.78-.46z"/>
      <path opacity=".6" d="M1616.24 619.96l9.05 15.08-17.85.57-8.98-15.19 17.78-.46z"/>
      <path opacity=".6" d="M1595.77 620.39l9.05 15.07-17.85.57-8.98-15.19 17.78-.45z"/>
      <path opacity=".6" d="M1669.13 641.97l17.47-.25-8.55 15.83-17.53.13 8.61-15.7z"/>
      <path opacity=".6" d="M1639.75 659.71l17.47-.24-8.54 15.82-17.54.13 8.61-15.7z"/>
      <path opacity=".6" d="M1619.29 660.12l17.46-.25-8.54 15.82-17.53.13 8.61-15.7z"/>
      <path opacity=".6" d="M1629.33 678.01l17.47-.24-8.54 15.82-17.53.13 8.6-15.7z"/>
      <path opacity=".6" d="M1599.25 660.27l17.47-.24-8.55 15.82-17.53.13 8.61-15.7z"/>
      <path opacity=".6" d="M1609.57 678l17.47-.25-8.54 15.83-17.53.13 8.6-15.71z"/>
      <path opacity=".6" d="M1619.33 696.05l17.46-.25-8.53 15.82-17.54.14 8.61-15.71z"/>
      <path opacity=".6" d="M1579.2 660.44l17.47-.25-8.54 15.82-17.53.14 8.6-15.71z"/>
      <path opacity=".6" d="M1599.5 695.96l17.47-.24-8.54 15.82-17.54.13 8.61-15.7z"/>
      <path opacity=".6" d="M1589.01 678.37l17.47-.25-8.54 15.82-17.53.14 8.6-15.71z"/>
      <path opacity=".6" d="M1609.26 713.98l17.47-.25-8.54 15.82-17.53.14 8.6-15.7z"/>
      <path opacity=".6" d="M1648.85 642.04l17.46-.25-8.54 15.83-17.53.13 8.61-15.71z"/>
      <path opacity=".6" d="M1628.7 642.35l17.47-.25-8.54 15.83-17.53.13 8.6-15.71z"/>
      <path opacity=".6" d="M1608.56 642.66l17.47-.25-8.54 15.83-17.53.13 8.6-15.71z"/>
      <path opacity=".6" d="M1588.42 642.97l17.47-.24-8.54 15.82-17.54.13 8.61-15.71z"/>
      <path opacity=".6" d="M1659.13 660l17.47-.25-8.54 15.82-17.53.14 8.6-15.71z"/>
      <path opacity=".6" d="M1649.15 678.02l17.46-.25-8.54 15.82-17.53.14 8.61-15.71z"/>
      <path opacity=".6" d="M1639.15 696.04l17.47-.24-8.54 15.82-17.54.13 8.61-15.7z"/>
      <path opacity=".6" d="M1629.16 714.07l17.47-.25-8.55 15.83-17.52.13 8.6-15.71z"/>
      <path opacity=".6" d="M1717.17 633.14l-17.47.24 8.54-15.82 17.53-.13-8.6 15.71z"/>
      <path opacity=".6" d="M1746.55 615.4l-17.47.24 8.54-15.82 17.53-.13-8.6 15.71z"/>
      <path opacity=".6" d="M1767.01 615l-17.47.24 8.54-15.82 17.53-.13-8.6 15.7z"/>
      <path opacity=".6" d="M1756.96 597.1l-17.47.24 8.54-15.82 17.54-.14-8.61 15.72z"/>
      <path opacity=".6" d="M1787.05 614.83l-17.47.25 8.54-15.82 17.54-.14-8.61 15.71z"/>
      <path opacity=".6" d="M1776.73 597.11l-17.47.25 8.54-15.82 17.53-.14-8.6 15.71z"/>
      <path opacity=".6" d="M1766.97 579.07l-17.47.24 8.54-15.82 17.53-.13-8.6 15.7z"/>
      <path opacity=".6" d="M1807.09 614.68l-17.46.24 8.54-15.82 17.53-.13-8.61 15.7z"/>
      <path opacity=".6" d="M1786.8 579.14l-17.47.25 8.54-15.82 17.53-.14-8.6 15.71z"/>
      <path opacity=".6" d="M1797.28 596.74l-17.46.25 8.54-15.83 17.53-.13-8.61 15.71z"/>
      <path opacity=".6" d="M1777.04 561.13l-17.47.24 8.54-15.82 17.53-.13-8.6 15.71z"/>
      <path opacity=".6" d="M1737.45 633.07l-17.47.25 8.54-15.83 17.53-.13-8.6 15.71z"/>
      <path opacity=".6" d="M1757.59 632.76l-17.46.24 8.54-15.81 17.53-.14-8.61 15.71z"/>
      <path opacity=".6" d="M1777.73 632.45l-17.46.24 8.54-15.82 17.53-.13-8.61 15.71z"/>
      <path opacity=".6" d="M1797.88 632.14l-17.47.24 8.54-15.82 17.53-.13-8.6 15.7z"/>
      <path opacity=".6" d="M1727.16 615.12l-17.46.24 8.54-15.82 17.53-.14-8.61 15.72z"/>
      <path opacity=".6" d="M1737.15 597.09l-17.47.25 8.55-15.83 17.52-.13-8.6 15.7z"/>
      <path opacity=".6" d="M1747.14 579.07l-17.46.24 8.54-15.82 17.53-.13-8.61 15.7z"/>
      <path opacity=".6" d="M1757.13 561.04l-17.46.25 8.54-15.83 17.53-.13-8.61 15.71z"/>
      <path opacity=".6" d="M1701.59 615.57l-8.4 15.45-9.44-15.29 8.53-15.46 9.31 15.3z"/>
      <path opacity=".6" d="M1700.77 581.04l-8.4 15.45-9.44-15.3 8.53-15.45 9.31 15.3z"/>
      <path opacity=".6" d="M1710.5 562.87l-8.39 15.46-9.44-15.3 8.52-15.45 9.31 15.3z"/>
      <path opacity=".6" d="M1690.11 562.87l-8.39 15.46-9.44-15.3 8.53-15.45 9.3 15.3z"/>
      <path opacity=".6" d="M1720.24 545.2l-8.4 15.46-9.43-15.3 8.52-15.46 9.31 15.3z"/>
      <path opacity=".6" d="M1699.87 545.53l-8.4 15.46-9.44-15.3 8.53-15.46 9.31 15.3z"/>
      <path opacity=".6" d="M1679.49 545.2l-8.39 15.46-9.44-15.3 8.53-15.46 9.3 15.3z"/>
      <path opacity=".6" d="M1729.98 527.52l-8.4 15.46-9.44-15.3 8.53-15.45 9.31 15.3z"/>
      <path opacity=".6" d="M1689.33 527.83l-8.39 15.46-9.44-15.3 8.53-15.45 9.3 15.3z"/>
      <path opacity=".6" d="M1709.68 527.3l-8.4 15.45-9.43-15.3 8.52-15.45 9.31 15.3z"/>
      <path opacity=".6" d="M1668.99 527.52l-8.4 15.46-9.44-15.3 8.53-15.45 9.31 15.3z"/>
      <path opacity=".6" d="M1711.52 597.73l-8.39 15.46-9.44-15.3 8.52-15.45 9.31 15.3z"/>
      <path opacity=".6" d="M1721.18 579.9l-8.4 15.45-9.43-15.3 8.52-15.45 9.31 15.3z"/>
      <path opacity=".6" d="M1730.84 562.06l-8.4 15.46-9.44-15.3 8.53-15.46 9.31 15.3z"/>
      <path opacity=".6" d="M1740.5 544.22l-8.4 15.46-9.44-15.3 8.53-15.45 9.31 15.3z"/>
      <path opacity=".6" d="M1690.96 597.92l-8.39 15.46-9.44-15.3 8.52-15.46 9.31 15.3z"/>
      <path opacity=".6" d="M1680.34 580.26l-8.39 15.46-9.44-15.3 8.52-15.45 9.31 15.3z"/>
      <path opacity=".6" d="M1669.73 562.6l-8.4 15.46-9.44-15.3 8.53-15.45 9.31 15.3z"/>
      <path opacity=".6" d="M1659.11 544.95l-8.4 15.46-9.44-15.3 8.53-15.45 9.31 15.3z"/>
    </g>
  </g>
  <path opacity=".1" d="M1796.23 635.63a32.8 32.8 0 007.18-18.2 32.77 32.77 0 00-4.45-19.05c-5.6 77.77-68.57 139.69-146.82 143.53a32.89 32.89 0 0021.21 7.3 32.89 32.89 0 0020.96-8.01c17.7 14.25 44.17 6.65 51.63-14.81 22.45 3.48 41.58-16.33 37.32-38.64 21.17-8.2 27.83-34.94 12.97-52.12z" fill="#333333"/>
  <g clip-path="url(#clip2)">
    <path d="M1587.15 381.51c2.27-1.65 3.54-7 5.74-8.83 3.18-2.63 7.23-1.82 10.21-4.81 18-18.08 30.3-41.09 35.35-66.14a130.42 130.42 0 00-6.97-74.72c-1.2-2.98-8.69-4.5-10.13-7.41-1.52-3.08 2.14-8.4.35-11.37a121.08 121.08 0 00-18.7-24.21 129.34 129.34 0 00-47.86-30.43 129 129 0 00-56.23-6.99c-3.85.37-10.54 5.82-14.35 6.54-3.81.72-4.75-3.3-8.49-2.24a129.65 129.65 0 00-61.15 38.32 130.29 130.29 0 00-31.32 65.16c-.4 2.41 2.46 8.1 2.19 10.53-.35 3.27-3.79 3.27-3.9 6.54a130 130 0 008.92 52.23 129.67 129.67 0 0029.01 44.3c45.61 45.7 116.69 50.2 167.33 13.53zm-95.87-128.04a30.09 30.09 0 0115.42-8.27 30.03 30.03 0 0117.4 1.72 30.14 30.14 0 0113.51 11.13 30.27 30.27 0 015.08 16.78c0 5.97-1.77 11.81-5.08 16.78a30.14 30.14 0 01-13.51 11.13 30.04 30.04 0 01-17.4 1.72 30.1 30.1 0 01-15.42-8.27 30.24 30.24 0 01-8.82-21.36c0-8.01 3.17-15.7 8.82-21.36z" fill="#F7D1A4"/>
    <path d="M1587.15 381.51c2.27-1.65 3.54-7 5.74-8.83 3.18-2.63 7.23-1.82 10.21-4.81 18-18.08 30.3-41.09 35.35-66.14a130.42 130.42 0 00-6.97-74.72c-1.2-2.98-8.69-4.5-10.13-7.41-1.52-3.08 1.94-8.61.16-11.6a118.84 118.84 0 00-18.51-23.98 129.34 129.34 0 00-47.86-30.43 129 129 0 00-56.23-6.99c-3.85.37-10.54 5.82-14.35 6.54-3.81.72-4.75-3.3-8.49-2.24a129.65 129.65 0 00-61.15 38.32 130.29 130.29 0 00-31.32 65.16c-.4 2.41 2.46 8.1 2.19 10.53-.35 3.27-3.79 3.27-3.9 6.54a130 130 0 008.92 52.23 129.67 129.67 0 0029.01 44.3c45.61 45.7 116.69 50.2 167.33 13.53zM1394.9 277.52c.1-2.8 3.05-2.8 3.36-5.6.23-2.09-2.23-6.98-1.88-9.05a111.8 111.8 0 0126.85-55.9 111.23 111.23 0 0152.47-32.88c3.21-.91 4.03 2.54 7.27 1.92 3.24-.61 9.01-5.3 12.32-5.6a111.12 111.12 0 0160.76 11.43 111.55 111.55 0 0145.32 42.17c1.53 2.57-2.34 6.38-1.03 9.03 1.23 2.48 7.66 3.8 8.69 6.35a111.9 111.9 0 015.98 64.11 111.75 111.75 0 01-30.34 56.74c-2.55 2.57-6.05 1.87-8.74 4.13-1.88 1.56-2.97 6.16-4.93 7.57a110.98 110.98 0 01-57.57 20.78 110.94 110.94 0 01-59.82-12.92 111.43 111.43 0 01-43.95-42.7 111.76 111.76 0 01-14.77-59.56l.01-.02z" fill="#EBB57A"/>
    <path opacity=".4" d="M1515.93 304.74a30.01 30.01 0 01-14.64-2.06 30.05 30.05 0 01-11.9-8.81 30.3 30.3 0 01-6.28-13.43 30.22 30.22 0 01.85-14.8c-11.5-10.7-36.44-9.44-48.97-8.28 0 0-20.84 89.67 71.25 89.6-.03-.03 21.42-23.67 9.69-42.22z" fill="#EBB57A"/>
    <path d="M1480.12 250.04a38.74 38.74 0 0115.66-9.57 38.63 38.63 0 0118.29-1.29 38.7 38.7 0 0116.83 7.3 38.86 38.86 0 0111.61 14.23 38.98 38.98 0 013.79 18 38.94 38.94 0 01-4.88 17.73 38.85 38.85 0 01-12.46 13.5 38.67 38.67 0 01-17.25 6.23l1.71 2.75a44.96 44.96 0 0024.24-6.78 45.15 45.15 0 0016.83-18.77 45.34 45.34 0 004.16-24.89 45.2 45.2 0 00-9.79-23.25 45.03 45.03 0 00-20.7-14.35 44.93 44.93 0 00-46.88 11.74 45.22 45.22 0 00-11.55 22.43l.86.78a38.7 38.7 0 019.53-15.79z" fill="#EBB57A"/>
    <path opacity=".2" d="M1535.99 403.65a129.17 129.17 0 01-52.08-8.9 129.6 129.6 0 01-44.22-29.02 130 130 0 01-29-44.3 130.22 130.22 0 01-8.95-52.24c.11-3.28 3.55-3.28 3.91-6.54.27-2.42-2.6-8.1-2.19-10.53a130.26 130.26 0 0126.81-59.86 129.75 129.75 0 0152.51-39.13c-2.47-.52-3.64-3.1-6.73-2.23a129.65 129.65 0 00-61.14 38.33 130.27 130.27 0 00-31.31 65.15c-.4 2.41 2.46 8.1 2.19 10.53-.35 3.27-3.79 3.27-3.9 6.54a130.4 130.4 0 0010.88 56.87 129.93 129.93 0 0034.41 46.48 129.54 129.54 0 0051.12 26.89 129.24 129.24 0 0057.69 1.96z" fill="#333333"/>
    <path d="M1476.55 390.69c-.9 1.52 24.97 9.34 24.97 9.34s29.52 3.08 43.22-15.69c1.07-.57 24.5 8.77 53.77-22.82.09 0 24.06-12.5 25.29-32.37-1.55 1.35-4.28-17.91 9.54-37.08 0 0 13.33-20.23 2.51-38.77-.53-.62-14.25-33.96-13.29-43.1-.58-1.08 2.01-38.03-33.3-39.72-35.32-1.7-37.65-12.75-37.65-12.75s-10.48-8.98-31.39-.48c-.94.16-28.4-15.77-41.93-.54-1.07.58-29.33 24.57-34.96 22.54-1.8.03-36.17-1.82-35.3 19.1 0 0 4.85 28.11-15.11 47.1-.47.3-18.32 16.03-9.28 30.89.72-.68 11.87 18.88 10.34 26.97-.67.67 5.45 10.18 4.26 11.17-1.19 1 4.63 14.42 4.79 15.37.16.95 5.85 19.29 17.55 25.07.41.12 18.58 18.65 17.79 24.28.16.9-5.7 27.87 38.18 11.49zm-1.01-93.48c-1.19-2.78-.64-6.19-3.59-8-6.09-3.76-4.45-19.5-3.52-19.5 1.87-2.81 4.91-11.5 5.14-11.74 0-7.99 6.79-9.64 7.49-9.87 5.62-.95 14.04-11.28 14.45-12.14 5.32-5.81 17.86.4 17.47.97 14.85-4.37 20.51 9.28 21.98 10.16 1.48.87 10.73 10.84 10.49 10.6 6.56 5.17 3.76 13.15 3.76 13.15-1.08 3.08-.41 6.48.22 9.56 1.14 5.64-3.19 7.42-6.92 10.64a50 50 0 00-10.88 12.5c-4.71 8-15.65 11.95-15.88 11.7-6.09 0-21.07-4.68-20.37-5.38-.18.17-10.86-6.03-11.74-6.47-3.16-1.63-6.6-2.65-8.1-6.18z" fill="#F930CE"/>
    <path opacity=".09" d="M1599.17 202.64c-1.07 9.4 12.7 43.48 13.24 44.1 10.92 18.92-2.93 39.78-2.93 39.78-14.37 19.82-11.75 39.51-10.15 38.16-1.44 20.37-26.15 33.45-26.25 33.42-30.33 32.66-54.28 23.32-55.38 23.9-6.58 8.96-16.59 13.16-25.46 15.09 5.01 1.63 9.28 2.92 9.28 2.92s29.52 3.08 43.22-15.69c1.07-.57 24.5 8.77 53.77-22.82.09 0 24.06-12.5 25.29-32.37-1.55 1.35-4.28-17.91 9.54-37.08 0 0 13.33-20.23 2.51-38.77-.53-.62-14.25-33.96-13.29-43.1-.58-1.08 2.01-38.03-33.3-39.72l-1.7-.1c12.63 11.65 11.23 31.48 11.61 32.28z" fill="#FEFEEC"/>
    <path opacity=".2" d="M1460.18 395.33c-.01-1.32.05-2.63.17-3.95.82-5.83-18.09-25.1-18.52-25.24-12.18-6.01-18.1-25.1-18.27-26.08-.17-.99-6.22-14.98-4.98-16 1.25-1.03-5.11-10.9-4.43-11.64 1.59-8.4-10.01-28.73-10.76-28.03-9.42-15.47 9.16-31.86 9.65-32.15 20.78-19.76 15.73-49.01 15.73-49.01-.91-21.78 34.86-19.86 36.74-19.89 5.89 2.11 35.3-22.86 36.41-23.46a19.65 19.65 0 0110.03-6.07c-9.41-3.55-24.62-7.25-33.64 2.9-1.07.58-29.33 24.57-34.96 22.54-1.8 0-36.17-1.82-35.29 19.11 0 0 4.84 28.1-15.12 47.1-.51.33-18.35 16.04-9.3 30.9.72-.68 11.87 18.88 10.34 26.94-.67.67 5.45 10.18 4.26 11.16-1.2.99 4.62 14.43 4.78 15.37.16.95 5.86 19.3 17.55 25.07.41.13 18.58 18.65 17.79 24.28.15.8-4.08 20.48 21.82 16.15z" fill="#333333"/>
    <g opacity=".2" fill="#333333">
      <path opacity=".2" d="M1565.76 265.65c.07-.21.17-.42.29-.6a40.54 40.54 0 006.86-20.1c0-.66.27-1.29.73-1.75a2.47 2.47 0 013.5.02c.46.47.72 1.1.72 1.76a44.96 44.96 0 01-7.71 22.86c-.34.5-.85.86-1.42 1a2.48 2.48 0 01-2.92-1.45 2.44 2.44 0 01-.05-1.74z"/>
      <path opacity=".2" d="M1546.3 344.13c.01-.23.06-.46.14-.68a40.58 40.58 0 001.75-21.17 2.63 2.63 0 01-.04-.97 2.46 2.46 0 01.99-1.62 2.46 2.46 0 012.75-.12 2.55 2.55 0 011.12 1.54 44.97 44.97 0 01-1.95 24.07 2.45 2.45 0 01-2.85 1.58 2.49 2.49 0 01-1.47-.95 2.53 2.53 0 01-.47-1.68h.03z"/>
      <path opacity=".2" d="M1428.6 325.65c.22-.09.45-.15.68-.17a40.26 40.26 0 0019.61-8.01 2.47 2.47 0 013.49.26 2.42 2.42 0 01.59 1.81 2.47 2.47 0 01-.85 1.7 44.58 44.58 0 01-22.25 9.17 2.48 2.48 0 01-1.68-.42 2.5 2.5 0 01.45-4.34h-.04z"/>
      <path opacity=".2" d="M1434.47 179.56c.08.22.14.45.16.68a40.58 40.58 0 007.99 19.65 2.49 2.49 0 01-.27 3.5 2.45 2.45 0 01-1.8.6 2.49 2.49 0 01-1.69-.87 44.87 44.87 0 01-9.15-22.31 2.58 2.58 0 01.42-1.7c.34-.48.85-.84 1.42-1a2.48 2.48 0 012.92 1.46z"/>
      <path opacity=".2" d="M1382.54 282.96c.22-.09.44-.14.67-.17a40.26 40.26 0 0019.58-8 2.48 2.48 0 014.09 2.07 2.48 2.48 0 01-.86 1.7 44.58 44.58 0 01-22.25 9.17 2.48 2.48 0 01-2.67-1.85 2.46 2.46 0 01.18-1.73c.26-.53.71-.95 1.26-1.18v-.01z"/>
      <path opacity=".2" d="M1517.22 196.2c.08-.21.18-.4.31-.59a40.51 40.51 0 007.4-19.9c.05-.65.34-1.25.81-1.68a2.48 2.48 0 013.44.12c.44.46.7 1.07.7 1.71a44.9 44.9 0 01-8.33 22.65 2.46 2.46 0 01-3.16.73 2.45 2.45 0 01-1.15-1.3 2.48 2.48 0 01-.02-1.74z"/>
      <path opacity=".2" d="M1493.93 359.47c.19.1.37.25.52.4a40.4 40.4 0 0018.3 10.72 2.48 2.48 0 011.91 2.94 2.45 2.45 0 01-2.93 1.93 44.61 44.61 0 01-20.83-12.1 2.42 2.42 0 01-.71-1.6c-.04-.6.15-1.2.51-1.67a2.48 2.48 0 013.21-.62h.02z"/>
      <path opacity=".2" d="M1447.74 267.6c.22-.1.44-.15.67-.18a40.45 40.45 0 0019.62-8 2.46 2.46 0 013.49.26c.42.5.64 1.15.58 1.8a2.47 2.47 0 01-.85 1.7 44.52 44.52 0 01-22.24 9.17c-.6.08-1.2-.07-1.7-.4a2.5 2.5 0 01-.82-3.17c.27-.54.72-.96 1.28-1.19h-.03z"/>
      <path opacity=".2" d="M1605.4 312.29c.23.02.46.07.67.15 6.72 2.56 14 3.27 21.08 2.06a2.47 2.47 0 011.87.32c.56.35.95.9 1.1 1.54a2.47 2.47 0 01-1.86 2.98 44.48 44.48 0 01-23.95-2.26 2.46 2.46 0 01-1.31-1.15 2.44 2.44 0 01-.23-1.74 2.46 2.46 0 012.66-1.9h-.03z"/>
      <path opacity=".2" d="M1574.35 189.01c.22-.09.44-.14.68-.17a40.34 40.34 0 0019.61-8c.5-.44 1.15-.65 1.8-.6a2.48 2.48 0 012.28 2.67 2.47 2.47 0 01-.85 1.7 44.6 44.6 0 01-22.25 9.16c-.6.07-1.2-.07-1.69-.41a2.5 2.5 0 01-1-1.43 2.48 2.48 0 011.46-2.92h-.04z"/>
      <path opacity=".2" d="M1480.21 218.98a2.5 2.5 0 01-.67 0 40.2 40.2 0 00-21.11 1.62c-.61.26-1.29.26-1.9.01a2.48 2.48 0 01-1.34-1.33 2.5 2.5 0 01-.02-1.9c.25-.62.73-1.1 1.34-1.36a44.51 44.51 0 0123.97-1.96 2.46 2.46 0 012.02 2.58 2.47 2.47 0 01-.7 1.6 2.5 2.5 0 01-1.59.74z"/>
      <path opacity=".2" d="M1566.56 219.85a2.6 2.6 0 01-.67.13 40.28 40.28 0 00-20.08 6.74c-.52.4-1.18.57-1.83.48a2.45 2.45 0 01-1.63-.97 2.48 2.48 0 01-.48-1.83c.1-.66.44-1.25.97-1.64a44.51 44.51 0 0122.78-7.75 2.49 2.49 0 01.93 4.84h.01z"/>
      <path opacity=".2" d="M1596.17 335.6a2.8 2.8 0 01-.41-.53 40.29 40.29 0 00-15.09-14.9 2.5 2.5 0 01.34-4.5c.6-.23 1.26-.21 1.84.04a44.66 44.66 0 0117.19 16.85 2.48 2.48 0 01-.61 3.22c-.47.37-1.07.55-1.67.52a2.5 2.5 0 01-1.59-.72v.02z"/>
      <path opacity=".2" d="M1450.07 357.76c.15-.16.33-.3.52-.4a40.41 40.41 0 0014.86-15.15c.3-.55.82-.97 1.42-1.16a2.49 2.49 0 011.84.14 2.5 2.5 0 011.19 3.2 44.8 44.8 0 01-16.81 17.26 2.46 2.46 0 01-3.2-.62 2.51 2.51 0 01-.52-1.67 2.52 2.52 0 01.71-1.6h-.01z"/>
      <path opacity=".2" d="M1571.46 386.42a3.29 3.29 0 01-.41-.53 40.52 40.52 0 00-15.09-14.9 2.47 2.47 0 01-1.25-1.43 2.48 2.48 0 011.54-3.15c.62-.22 1.3-.17 1.89.12a44.75 44.75 0 0117.2 16.85c.3.52.4 1.14.29 1.73a2.48 2.48 0 01-.91 1.49 2.46 2.46 0 01-1.66.52 2.5 2.5 0 01-1.6-.72v.02z"/>
      <path opacity=".2" d="M1442.6 305.13a2.67 2.67 0 01-.67-.06 40.18 40.18 0 00-21.16 1.08 2.47 2.47 0 01-3.2-1.41 2.4 2.4 0 01-.17-.96c0-.32.08-.64.21-.94a2.44 2.44 0 011.36-1.32 44.5 44.5 0 0124.02-1.3 2.51 2.51 0 011.45.96 2.5 2.5 0 01.47 1.67 2.48 2.48 0 01-.74 1.57c-.43.42-.99.67-1.58.7h.01z"/>
      <path opacity=".2" d="M1601.31 262.03c.02-.23.08-.46.17-.67a40.73 40.73 0 002.58-21.09 2.5 2.5 0 011.93-2.93 2.47 2.47 0 012.92 1.94 44.93 44.93 0 01-2.85 23.96 2.47 2.47 0 01-1.19 1.27 2.47 2.47 0 01-3.15-.82 2.53 2.53 0 01-.41-1.7v.04z"/>
      <path opacity=".2" d="M1535.44 340.92a2.8 2.8 0 01-.41-.53 40.38 40.38 0 00-15.09-14.9 2.47 2.47 0 01-1.25-1.43 2.48 2.48 0 011.54-3.15c.62-.22 1.3-.17 1.89.12a44.7 44.7 0 0117.2 16.85c.3.52.39 1.13.28 1.72a2.51 2.51 0 01-.91 1.48 2.5 2.5 0 01-1.66.52 2.47 2.47 0 01-1.59-.7v.02z"/>
      <path opacity=".2" d="M1514.04 177.98a2.58 2.58 0 01-.12-.67 40.56 40.56 0 00-6.45-20.23 2.5 2.5 0 01-.37-1.81c.12-.63.47-1.19.98-1.57a2.46 2.46 0 011.78-.45c.63.08 1.21.4 1.61.9a44.86 44.86 0 017.39 22.95 2.46 2.46 0 01-.54 1.65 2.5 2.5 0 01-1.5.89 2.46 2.46 0 01-1.7-.31c-.51-.3-.9-.79-1.09-1.36l.01.01z"/>
      <path opacity=".2" d="M1413.43 255.33a2.7 2.7 0 01-.41-.53 40.29 40.29 0 00-15.09-14.9 2.5 2.5 0 01-1.16-1.43 2.5 2.5 0 011.5-3.08 2.48 2.48 0 011.84.05 44.76 44.76 0 0117.2 16.85c.3.52.4 1.13.29 1.73a2.49 2.49 0 01-.91 1.49c-.47.37-1.07.55-1.66.51a2.5 2.5 0 01-1.6-.7z"/>
    </g>
    <path d="M1567.78 266.05c.07-.2.17-.41.3-.6a40.53 40.53 0 006.85-20.1c.04-.63.32-1.23.78-1.67a2.5 2.5 0 011.72-.67 2.49 2.49 0 012.46 2.38 45.08 45.08 0 01-7.72 22.86 2.47 2.47 0 01-3.15.82 2.48 2.48 0 01-1.19-1.27 2.55 2.55 0 01-.05-1.75z" fill="#EB7789"/>
    <path d="M1548.32 344.53c.02-.23.07-.45.14-.67a40.58 40.58 0 001.76-21.17 2.43 2.43 0 01.29-1.88 2.47 2.47 0 013.4-.83c.56.34.96.9 1.12 1.53a44.87 44.87 0 01-1.92 24.08 2.45 2.45 0 01-1.13 1.33c-.52.29-1.14.38-1.72.25a2.5 2.5 0 01-1.47-.95 2.53 2.53 0 01-.47-1.69z" fill="#EB7789"/>
    <path d="M1430.63 326.03c.21-.08.44-.14.67-.17a40.26 40.26 0 0019.61-7.99 2.47 2.47 0 014.07 2.08 2.47 2.47 0 01-.85 1.7 44.57 44.57 0 01-22.25 9.17 2.48 2.48 0 01-1.74-.38 2.52 2.52 0 01-1.04-1.45 2.53 2.53 0 01.2-1.77c.28-.55.75-.97 1.33-1.19z" fill="#EB7789"/>
    <path d="M1436.49 179.98c.08.21.14.44.17.67a40.55 40.55 0 007.98 19.64c.43.5.64 1.15.59 1.8a2.51 2.51 0 01-.85 1.7 2.48 2.48 0 01-3.5-.26 44.86 44.86 0 01-9.14-22.32 2.48 2.48 0 014.75-1.23z" fill="#EB7789"/>
    <path d="M1384.56 283.36c.22-.08.44-.14.67-.17a40.3 40.3 0 0019.62-8 2.46 2.46 0 013.49.26 2.48 2.48 0 01-.27 3.5 44.59 44.59 0 01-22.27 9.18 2.47 2.47 0 01-1.68-.42c-.5-.34-.85-.85-1-1.43a2.47 2.47 0 01.18-1.73c.26-.53.71-.96 1.26-1.19z" fill="#EB7789"/>
    <path d="M1519.24 196.6c.08-.2.19-.4.32-.58a40.6 40.6 0 007.39-19.91 2.48 2.48 0 014.28-1.62c.45.48.69 1.12.67 1.78a44.9 44.9 0 01-8.31 22.65 2.48 2.48 0 01-3.17.73 2.54 2.54 0 01-1.15-1.3 2.54 2.54 0 01-.02-1.75h-.01z" fill="#EB7789"/>
    <path d="M1495.94 359.87c.2.11.38.25.53.41a40.32 40.32 0 0018.29 10.72 2.5 2.5 0 011.57 1.07 2.45 2.45 0 01.35 1.87 2.46 2.46 0 01-2.93 1.92 44.6 44.6 0 01-20.84-12.1 2.52 2.52 0 01-.71-1.6 2.48 2.48 0 012.01-2.58c.58-.12 1.2-.01 1.71.3h.02z" fill="#EB7789"/>
    <path d="M1449.76 268c.22-.1.45-.15.68-.17a40.26 40.26 0 0019.61-8.01 2.46 2.46 0 013.49.26c.43.5.64 1.15.59 1.81a2.47 2.47 0 01-.85 1.7 44.63 44.63 0 01-22.28 9.17 2.47 2.47 0 01-1.68-.42 2.5 2.5 0 01-1-1.42 2.47 2.47 0 01.18-1.73 2.46 2.46 0 011.26-1.2z" fill="#EB7789"/>
    <path d="M1607.43 312.7c.23.01.45.07.67.15a40.27 40.27 0 0021.07 2.05 2.48 2.48 0 012.97 1.87c.15.64.03 1.32-.32 1.87-.35.56-.9.96-1.54 1.1a44.49 44.49 0 01-23.95-2.25 2.52 2.52 0 01-1.32-1.15 2.55 2.55 0 01-.23-1.74 2.51 2.51 0 01.98-1.46c.49-.35 1.09-.5 1.69-.45h-.02z" fill="#EB7789"/>
    <path d="M1576.38 189.42c.21-.1.44-.15.67-.17a40.43 40.43 0 0019.59-8.01 2.45 2.45 0 013.48.27c.43.5.64 1.15.59 1.8a2.51 2.51 0 01-.85 1.7 44.57 44.57 0 01-22.25 9.17c-.6.07-1.19-.08-1.68-.42a2.49 2.49 0 01-.99-1.43 2.46 2.46 0 01.18-1.72c.26-.54.71-.96 1.26-1.2z" fill="#EB7789"/>
    <path d="M1482.24 219.38c-.22.03-.44.03-.67 0a40.35 40.35 0 00-21.12 1.63c-.6.24-1.27.23-1.87-.02a2.49 2.49 0 01-.05-4.56 44.45 44.45 0 0123.97-1.96 2.46 2.46 0 012.02 2.58 2.48 2.48 0 01-.7 1.6c-.42.43-.99.69-1.59.73h.01z" fill="#F4E6DD"/>
    <path d="M1568.59 220.26c-.22.07-.45.11-.68.13a40.2 40.2 0 00-20.07 6.74 2.5 2.5 0 01-1.84.48 2.45 2.45 0 01-1.63-.97 2.48 2.48 0 01-.48-1.84 2.5 2.5 0 01.96-1.64 44.53 44.53 0 0122.8-7.71 2.48 2.48 0 012.6 2 2.5 2.5 0 01-1.66 2.83v-.02z" fill="#F4E6DD"/>
    <path d="M1598.2 336c-.16-.15-.3-.33-.41-.52a40.44 40.44 0 00-15.09-14.9 2.48 2.48 0 01-1.17-1.43 2.5 2.5 0 011.5-3.08c.6-.22 1.26-.2 1.84.04a44.76 44.76 0 0117.2 16.86c.3.52.4 1.13.28 1.72a2.46 2.46 0 01-.91 1.47 2.47 2.47 0 01-3.24-.17v.01z" fill="#F4E6DD"/>
    <path d="M1452.09 358.17c.16-.16.33-.3.52-.42a40.4 40.4 0 0014.86-15.13 2.48 2.48 0 013.26-1.03c.57.28 1.01.77 1.23 1.37.23.6.21 1.26-.04 1.84a44.74 44.74 0 01-16.8 17.25 2.48 2.48 0 01-3.21-.62 2.5 2.5 0 01-.52-1.67c.04-.6.29-1.16.71-1.6h-.01z" fill="#F4E6DD"/>
    <path d="M1573.49 386.82c-.16-.15-.3-.33-.41-.52a40.44 40.44 0 00-15.09-14.9 2.48 2.48 0 01-1.17-1.43 2.5 2.5 0 011.5-3.08c.6-.22 1.26-.2 1.84.04a44.6 44.6 0 0117.2 16.86c.3.52.4 1.13.28 1.72a2.46 2.46 0 01-.91 1.47 2.47 2.47 0 01-3.24-.17v.01z" fill="#F4E6DD"/>
    <path d="M1444.63 305.53c-.23.02-.45 0-.67-.05a40.23 40.23 0 00-21.15 1.07c-.61.24-1.29.23-1.89-.03a2.46 2.46 0 01-1.32-1.37 2.46 2.46 0 01.04-1.9c.26-.61.75-1.08 1.36-1.32a44.54 44.54 0 0124.03-1.3 2.46 2.46 0 011.44.95c.36.48.52 1.08.47 1.67a2.52 2.52 0 01-.73 1.58 2.49 2.49 0 01-1.59.7h.01z" fill="#F4E6DD"/>
    <path d="M1603.33 262.44c.02-.23.08-.46.17-.67a40.52 40.52 0 002.58-21.09 2.48 2.48 0 011.93-2.93 2.47 2.47 0 012.92 1.94 44.84 44.84 0 01-2.85 23.96 2.49 2.49 0 01-1.18 1.27 2.48 2.48 0 01-3.15-.82 2.47 2.47 0 01-.42-1.69v.03z" fill="#F4E6DD"/>
    <path d="M1537.46 341.32a2.75 2.75 0 01-.4-.52 40.52 40.52 0 00-15.09-14.91 2.47 2.47 0 01-1.07-3.29c.28-.58.78-1.02 1.38-1.24a2.47 2.47 0 011.86.07 44.55 44.55 0 0117.2 16.86c.3.52.4 1.13.28 1.72a2.48 2.48 0 01-4.16 1.3v.01z" fill="#F4E6DD"/>
    <path d="M1516.06 178.37a3.08 3.08 0 01-.11-.68 40.67 40.67 0 00-6.45-20.23 2.48 2.48 0 01.54-3.47 2.46 2.46 0 011.84-.45c.64.1 1.23.46 1.61.99a44.87 44.87 0 017.4 22.96 2.5 2.5 0 01-2.04 2.52 2.48 2.48 0 01-2.79-1.64z" fill="#F4E6DD"/>
    <path d="M1415.46 255.73a2.35 2.35 0 01-.41-.52 40.44 40.44 0 00-15.09-14.9 2.48 2.48 0 01-1.17-1.44 2.5 2.5 0 01.14-1.84 2.48 2.48 0 013.2-1.19 44.87 44.87 0 0117.21 16.86c.29.52.39 1.13.27 1.71a2.46 2.46 0 01-.91 1.48 2.47 2.47 0 01-3.24-.17v.01z" fill="#F4E6DD"/>
  </g>
  <g clip-path="url(#clip3)">
    <path d="M154.38 883.49c1.66 0 4.12-2.1 5.8-2.2 2.43-.14 4.06 1.65 6.52 1.27a76.6 76.6 0 0039.78-19.1 76.74 76.74 0 0022.67-37.9c.47-1.83-2.56-5.16-2.23-7.04.35-2 3.93-3.24 4.12-5.28a71.17 71.17 0 00-.46-18 76.1 76.1 0 00-12.14-31.08 75.92 75.92 0 00-24.26-22.87c-1.96-1.17-7.03-.9-9.1-1.9-2.05-.97-1.1-3.21-3.24-4a76.31 76.31 0 00-42.36-3.08 76.67 76.67 0 00-37.52 20.05c-1.03 1-1.65 4.7-2.63 5.76-1.3 1.43-2.93.23-4.12 1.75a76.5 76.5 0 00-13.93 27.9 76.3 76.3 0 00-1.63 31.1 76.09 76.09 0 0074.73 64.62zm-.99-94.12a17.71 17.71 0 0110.2 1.43 17.67 17.67 0 017.66 6.87 17.73 17.73 0 012.55 9.98 17.81 17.81 0 01-11.68 15.94 17.74 17.74 0 01-10.28.58 17.66 17.66 0 01-8.86-5.24 17.7 17.7 0 01-4.44-9.28 17.8 17.8 0 013.24-13.2 17.8 17.8 0 0111.61-7.08z" fill="#F7D1A4"/>
    <path d="M154.38 883.49c1.66 0 4.12-2.1 5.8-2.2 2.43-.14 4.06 1.65 6.52 1.27a76.6 76.6 0 0039.78-19.1 76.74 76.74 0 0022.67-37.9c.47-1.83-2.56-5.16-2.23-7.04.35-2 3.91-3.42 4.1-5.45a69.8 69.8 0 00-.44-17.83 76.1 76.1 0 00-12.14-31.08 75.92 75.92 0 00-24.26-22.87c-1.96-1.17-7.03-.9-9.1-1.9-2.05-.97-1.1-3.21-3.24-4a76.31 76.31 0 00-42.36-3.08 76.67 76.67 0 00-37.52 20.05c-1.03 1-1.65 4.7-2.63 5.76-1.3 1.43-2.93.23-4.12 1.75a76.5 76.5 0 00-13.93 27.9 76.3 76.3 0 00-1.63 31.1 76.09 76.09 0 0074.73 64.62zm-55.1-116.22c1.02-1.3 2.42-.27 3.54-1.5.83-.9 1.37-4.08 2.25-4.94a65.77 65.77 0 0132.19-17.2 65.45 65.45 0 0136.34 2.63c1.84.69 1.03 2.61 2.78 3.45 1.75.83 6.12.62 7.8 1.62a65.38 65.38 0 0124.87 26.55 65.63 65.63 0 016.85 35.78c-.16 1.75-3.33 2.22-3.63 3.93-.28 1.6 2.32 4.47 1.92 6.04a65.84 65.84 0 01-19.46 32.51 65.72 65.72 0 01-34.13 16.4c-2.1.32-3.52-1.23-5.58-1.09-1.44.09-3.56 1.89-4.98 1.88a65.31 65.31 0 01-34.55-10.15 65.27 65.27 0 01-23.9-26.93 65.53 65.53 0 01-6.02-35.56 65.8 65.8 0 0113.69-33.41h.01z" fill="#EBB57A"/>
    <path opacity=".4" d="M147.26 822.28a17.66 17.66 0 01-6.23-6.07 17.73 17.73 0 01-2.58-8.32 17.82 17.82 0 017.24-15.3c-1.75-9.07-14.02-17.15-20.37-20.95 0 0-41.08 35.33 2.67 67.31 0-.02 18.4-3.79 19.27-16.67z" fill="#EBB57A"/>
    <path d="M149.29 783.86a22.8 22.8 0 0110.76.9 22.76 22.76 0 0114.59 15.06 22.86 22.86 0 01.56 10.8 22.94 22.94 0 01-12.94 16.58 22.86 22.86 0 01-10.61 2.07 22.77 22.77 0 01-10.36-3.03l-.14 1.9a26.44 26.44 0 0013.86 5.2 26.55 26.55 0 0014.51-3.05 26.65 26.65 0 0014.07-24.81 26.5 26.5 0 00-4.84-14.01 26.43 26.43 0 00-11.6-9.2 26.49 26.49 0 00-14.74-1.53 26.61 26.61 0 00-13.27 6.63l.13.67a22.76 22.76 0 0110.02-4.18z" fill="#EBB57A"/>
    <path opacity=".2" d="M122.4 876.2a76.05 76.05 0 01-21.63-22.33 76.24 76.24 0 01-10.9-29.15 76.52 76.52 0 011.64-31.11 76.71 76.71 0 0113.9-27.92c1.2-1.51 2.83-.32 4.14-1.74.97-1.06 1.58-4.74 2.62-5.76a76.71 76.71 0 0133.54-19.1 76.38 76.38 0 0138.53-.31c-.98-1.11-.64-2.74-2.41-3.4a76.31 76.31 0 00-42.36-3.07 76.68 76.68 0 00-37.51 20.05c-1.03 1-1.65 4.7-2.63 5.76-1.3 1.43-2.93.23-4.12 1.75a76.72 76.72 0 00-14.61 30.78 76.49 76.49 0 00.17 34.03 76.19 76.19 0 0014.92 30.54 76.03 76.03 0 0026.7 20.99z" fill="#333333"/>
    <path d="M98.69 849.39c-.96.4 8.6 13.11 8.6 13.11s12.94 11.73 25.97 7.58c.7.1 8.59 12.69 33.47 7.87.04.03 15.76 2.43 23.26-6.57-1.2.1 4.2-10 17.42-14.3 0 0 13.36-4.96 14.68-17.53-.04-.47 5.04-21.07 8.67-25.08.1-.71 14.18-17.35-2-30.44-16.17-13.08-13.43-19.14-13.43-19.14s-1.86-7.9-14.75-11.14c-.5-.25-8-17.36-19.71-14.84-.71-.1-22.47 1.47-24.43-1.45-.87-.61-16.54-13.45-23.4-3.2 0 0-7.48 15.02-23.56 17.1-.33-.02-14.26 1.23-15.14 11.43.58-.07-.93 13.1-4.47 16.4-.55.09-.95 6.73-1.86 6.79-.91.06-2.82 8.45-3.08 8.96-.25.5-3.93 11.19-.38 18 .15.2 2.34 15.32 0 17.72-.23.48-12.4 11.25 14.14 18.73zm32.02-44.73c.4-1.74 1.85-3.16 1.08-5.05-1.58-3.9 4.66-10.8 5.1-10.48 1.87-.68 6.34-3.75 6.53-3.78 2.78-3.8 6.57-2.22 6.99-2.09 3 1.5 10.59-.47 11.08-.74 4.55-.9 8.34 6.4 7.96 6.54 8.57 3.09 6.5 11.54 6.9 12.47.4.92 1.32 8.87 1.29 8.68 1.32 4.73-2.79 7.55-2.79 7.55-1.58 1.08-2.44 2.93-3.22 4.61-1.42 3.07-4.1 2.41-6.98 2.65a29.5 29.5 0 00-9.51 2.15c-5.02 2.16-11.59.23-11.61.03-2.9-2.11-8.38-9.55-7.8-9.64-.14.02-3.06-6.64-3.32-7.15-.93-1.87-2.21-3.55-1.7-5.75z" fill="#F930CE"/>
    <path opacity=".09" d="M222.29 802.75c-3.78 4.09-9.1 25.06-9.05 25.54-1.4 12.78-15.23 17.87-15.23 17.87-13.7 4.4-19.31 14.67-18.08 14.59-7.77 9.16-24.05 6.78-24.09 6.73-25.75 4.96-33.87-7.8-34.6-7.91-6.24 1.96-12.45.48-17.33-1.69a288.47 288.47 0 003.39 4.61s12.94 11.73 25.97 7.59c.7.1 8.58 12.68 33.46 7.86.05.03 15.77 2.43 23.26-6.57-1.2.1 4.2-10 17.43-14.29 0 0 13.36-4.97 14.67-17.53-.04-.48 5.04-21.08 8.68-25.1.1-.7 14.18-17.34-2-30.43l-.78-.63c1.95 9.92-5.6 18.85-5.7 19.36z" fill="#FEFEEC"/>
    <path opacity=".2" d="M89.3 845.9c.45-.63.94-1.24 1.45-1.82 2.42-2.48.14-18.2-.02-18.42-3.68-7.09.14-18.2.4-18.73.27-.53 2.26-9.28 3.2-9.33.95-.06 1.37-6.96 1.94-7.07 3.68-3.43 5.24-17.12 4.64-17.04.91-10.62 15.43-11.94 15.77-11.9 16.73-2.17 24.5-17.81 24.5-17.81 7.15-10.66 23.46 2.7 24.36 3.33 2.07 3.05 24.71 1.42 25.45 1.52 2.3-.5 4.7-.28 6.87.61-3.23-4.95-9.17-12-16.98-10.32-.71-.1-22.47 1.47-24.43-1.45-.86-.63-16.55-13.45-23.4-3.2 0 0-7.48 15.02-23.56 17.1-.36-.02-14.28 1.23-15.16 11.43.58-.07-.93 13.1-4.45 16.39-.56.08-.96 6.73-1.87 6.78-.9.05-2.82 8.46-3.07 8.96s-3.93 11.2-.39 18c.15.2 2.34 15.32.01 17.72-.21.42-9.06 8.3 4.74 15.25z" fill="#333333"/>
    <g opacity=".2" fill="#333333">
      <path opacity=".2" d="M184.51 821.05c.11-.08.23-.14.35-.19a23.86 23.86 0 0010.25-7.15c.23-.32.57-.52.95-.58a1.45 1.45 0 011.66 1.23c.05.38-.05.77-.28 1.08a26.4 26.4 0 01-11.6 8.17 1.46 1.46 0 01-1.33-2.56z"/>
      <path opacity=".2" d="M147.99 851.54c.08-.1.18-.2.3-.27a23.89 23.89 0 008.2-9.45 1.46 1.46 0 012.37-.47 1.45 1.45 0 01.32 1.6 26.44 26.44 0 01-9.3 10.74 1.45 1.45 0 01-2.27-1.2c0-.35.13-.7.36-.96h.02z"/>
      <path opacity=".2" d="M98.54 801.84c.13.03.26.08.38.15a23.69 23.69 0 0012.1 3.02 1.46 1.46 0 011.06.34 1.45 1.45 0 01.5 1 1.47 1.47 0 01-.8 1.42 1.46 1.46 0 01-.54.15 26.21 26.21 0 01-13.76-3.38 1.46 1.46 0 01.06-2.56 1.45 1.45 0 011.02-.13l-.02-.01z"/>
      <path opacity=".2" d="M152.12 734.53a1.53 1.53 0 01-.16.37 23.84 23.84 0 00-3.04 12.1 1.47 1.47 0 01-1.34 1.58 1.46 1.46 0 01-1.57-1.34 26.39 26.39 0 013.42-13.78 1.47 1.47 0 011.8-.63 1.46 1.46 0 01.89 1.7z"/>
      <path opacity=".2" d="M91.52 765.55c.13.04.26.09.37.16a23.7 23.7 0 0012.08 3 1.46 1.46 0 011.22 2.41 1.47 1.47 0 01-1 .5 26.23 26.23 0 01-13.75-3.37 1.46 1.46 0 01.06-2.57 1.46 1.46 0 011.01-.12z"/>
      <path opacity=".2" d="M185.62 771.2c.1-.08.23-.13.35-.17a23.85 23.85 0 0010.44-6.88 1.46 1.46 0 012.3 1.8 26.45 26.45 0 01-11.84 7.85 1.46 1.46 0 01-1.85-1.77c.1-.34.3-.64.6-.83z"/>
      <path opacity=".2" d="M117.8 840.6c.04.13.08.26.1.39a23.77 23.77 0 004.96 11.44 1.46 1.46 0 01-.12 2.07 1.46 1.46 0 01-2.06-.11 26.28 26.28 0 01-5.68-13 1.47 1.47 0 011.05-1.61 1.46 1.46 0 011.73.82h.01z"/>
      <path opacity=".2" d="M127.81 780.93c.13.04.26.09.38.16a23.77 23.77 0 0012.1 3.01 1.45 1.45 0 011.56 1.34 1.46 1.46 0 01-1.34 1.57 26.2 26.2 0 01-13.75-3.38 1.45 1.45 0 01-.64-1.8 1.46 1.46 0 011.7-.89z"/>
      <path opacity=".2" d="M187.12 856.97c.1.1.19.2.26.31a23.72 23.72 0 009.3 8.3 1.46 1.46 0 01.75 1.92 1.46 1.46 0 01-1.91.77 26.18 26.18 0 01-10.59-9.4 1.46 1.46 0 01.27-1.9 1.46 1.46 0 011.93.01h-.01z"/>
      <path opacity=".2" d="M215.24 787.65c.14.04.26.09.38.16a23.75 23.75 0 0012.1 3.01 1.45 1.45 0 011.56 1.35 1.46 1.46 0 01-1.34 1.57 26.23 26.23 0 01-13.75-3.39 1.46 1.46 0 011.07-2.68l-.02-.02z"/>
      <path opacity=".2" d="M160.13 769.14a1.46 1.46 0 01-.32-.23 23.66 23.66 0 00-10.58-6.57 1.45 1.45 0 01-1.08-1.76 1.46 1.46 0 011.76-1.08 26.2 26.2 0 0112.06 7.4c.24.26.38.6.4.95a1.47 1.47 0 01-1.23 1.5 1.46 1.46 0 01-1.01-.2z"/>
      <path opacity=".2" d="M200.82 799.59c-.13-.05-.25-.1-.36-.18a23.69 23.69 0 00-11.88-3.78 1.45 1.45 0 01-1.47-1.43 1.47 1.47 0 011.44-1.49 26.21 26.21 0 0113.5 4.25 1.46 1.46 0 01.52 1.84 1.46 1.46 0 01-1.75.78z"/>
      <path opacity=".2" d="M174.63 864.83a1.56 1.56 0 01-.01-.4 23.78 23.78 0 00-1.98-12.31 1.47 1.47 0 011.72-2.03c.36.1.67.34.86.66a26.32 26.32 0 012.3 13.99 1.46 1.46 0 01-2.38.97 1.45 1.45 0 01-.5-.89l-.01.01z"/>
      <path opacity=".2" d="M97.56 824.55c.13-.03.26-.03.4-.01 4.2.43 8.45-.27 12.31-2.03a1.46 1.46 0 012.02 1.73c-.1.36-.35.67-.67.86a26.37 26.37 0 01-13.97 2.34 1.45 1.45 0 01-1.3-1.4 1.46 1.46 0 011.22-1.49z"/>
      <path opacity=".2" d="M145.23 880.36a1.56 1.56 0 01-.01-.39 23.85 23.85 0 00-1.98-12.32 1.46 1.46 0 011.73-2.08c.36.12.67.38.85.72a26.33 26.33 0 012.3 13.98 1.47 1.47 0 01-1.4 1.31 1.46 1.46 0 01-1.49-1.22z"/>
      <path opacity=".2" d="M112.32 796.96a1.61 1.61 0 01-.3-.26 23.64 23.64 0 00-10.42-6.84 1.46 1.46 0 01-.88-.68 1.44 1.44 0 01-.15-1.1 1.46 1.46 0 011.79-1.05 26.17 26.17 0 0111.85 7.74 1.47 1.47 0 01-1.9 2.19z"/>
      <path opacity=".2" d="M202.65 831.69c.1-.1.2-.2.32-.26a23.87 23.87 0 008.55-9.11 1.47 1.47 0 011.94-.72 1.46 1.46 0 01.71 1.93 26.45 26.45 0 01-9.68 10.39 1.46 1.46 0 01-2.22-1.3c.01-.35.15-.69.4-.95l-.02.02z"/>
      <path opacity=".2" d="M143.95 846.24a1.6 1.6 0 01-.01-.4c.45-4.2-.24-8.46-1.98-12.32a1.46 1.46 0 011.73-2.07c.36.11.67.37.85.71a26.27 26.27 0 012.3 13.99 1.46 1.46 0 01-2.37.96 1.46 1.46 0 01-.52-.88z"/>
      <path opacity=".2" d="M190.45 761.44c.04-.13.1-.25.18-.36a23.88 23.88 0 003.97-11.84 1.47 1.47 0 012.47-1c.27.27.43.62.45 1a26.45 26.45 0 01-4.48 13.46 1.47 1.47 0 01-1.85.5 1.47 1.47 0 01-.75-1.76z"/>
      <path opacity=".2" d="M115.79 763.18a1.47 1.47 0 01-.01-.4 23.77 23.77 0 00-1.98-12.32 1.47 1.47 0 011.72-2.02c.36.1.67.34.86.66a26.33 26.33 0 012.3 13.98 1.47 1.47 0 01-1.4 1.32 1.45 1.45 0 01-1.49-1.23z"/>
    </g>
    <path d="M185.33 821.94c.11-.08.23-.14.35-.18a23.85 23.85 0 0010.25-7.16 1.46 1.46 0 012-.24 1.46 1.46 0 01.34 1.98 26.46 26.46 0 01-11.61 8.17 1.45 1.45 0 01-1.79-.7 1.46 1.46 0 01.46-1.87z" fill="#EB7789"/>
    <path d="M148.8 852.43c.1-.1.2-.2.3-.27a23.84 23.84 0 008.2-9.44 1.47 1.47 0 011.91-.8 1.46 1.46 0 01.79 1.92 26.44 26.44 0 01-9.28 10.76 1.46 1.46 0 01-1.91-.24 1.46 1.46 0 010-1.93z" fill="#EB7789"/>
    <path d="M99.37 802.72c.13.04.26.1.37.16a23.7 23.7 0 0012.1 3.02 1.45 1.45 0 011.55 1.34 1.46 1.46 0 01-1.34 1.57 26.23 26.23 0 01-13.75-3.38 1.46 1.46 0 01-.68-1.83 1.47 1.47 0 011.75-.88z" fill="#EB7789"/>
    <path d="M152.94 735.42c-.04.14-.09.26-.16.38a23.84 23.84 0 00-3.04 12.1 1.46 1.46 0 01-1.34 1.58 1.45 1.45 0 01-1.57-1.35 26.38 26.38 0 013.42-13.77 1.47 1.47 0 011.8-.63 1.46 1.46 0 01.89 1.7z" fill="#EB7789"/>
    <path d="M92.33 766.45c.14.03.26.09.38.15a23.72 23.72 0 0012.1 3.02 1.46 1.46 0 011.21 2.4 1.46 1.46 0 01-1 .51 26.22 26.22 0 01-13.76-3.39 1.45 1.45 0 01-.63-1.8 1.47 1.47 0 011.7-.89z" fill="#EB7789"/>
    <path d="M186.44 772.1c.11-.08.23-.14.35-.18a23.9 23.9 0 0010.44-6.88 1.46 1.46 0 012.05-.25 1.46 1.46 0 01.24 2.05 26.4 26.4 0 01-11.82 7.86 1.46 1.46 0 01-1.85-1.77c.1-.34.3-.63.6-.83h-.01z" fill="#EB7789"/>
    <path d="M118.6 841.5c.06.12.1.25.12.38a23.7 23.7 0 004.95 11.45 1.46 1.46 0 01-2.17 1.95 26.22 26.22 0 01-5.68-12.99c-.05-.35.02-.7.22-1a1.46 1.46 0 012.56.2v.01z" fill="#EB7789"/>
    <path d="M128.63 781.83c.13.03.26.08.38.15a23.69 23.69 0 0012.1 3.02 1.46 1.46 0 011.06.34 1.46 1.46 0 01.15 2.06c-.25.3-.6.48-1 .5a26.24 26.24 0 01-13.76-3.38 1.46 1.46 0 01-.63-1.8 1.46 1.46 0 011.7-.9z" fill="#EB7789"/>
    <path d="M187.94 857.87c.1.09.19.2.26.3a23.71 23.71 0 009.3 8.31 1.46 1.46 0 01.75 1.92 1.46 1.46 0 01-1.92.76 26.18 26.18 0 01-10.58-9.4 1.47 1.47 0 011.24-2.26c.35 0 .7.14.96.38l-.01-.01z" fill="#EB7789"/>
    <path d="M216.06 788.55c.14.03.26.08.38.15a23.78 23.78 0 0012.09 3.01 1.45 1.45 0 011.56 1.34 1.46 1.46 0 01-1.35 1.57 26.23 26.23 0 01-13.75-3.38 1.47 1.47 0 011.07-2.7z" fill="#EB7789"/>
    <path d="M160.96 770.04a1.47 1.47 0 01-.32-.23 23.74 23.74 0 00-10.6-6.57 1.45 1.45 0 01-1.04-1.75 1.47 1.47 0 011.72-1.1 26.16 26.16 0 0112.07 7.4c.24.26.38.6.4.96a1.47 1.47 0 01-1.23 1.49 1.45 1.45 0 01-1.01-.2z" fill="#F4E6DD"/>
    <path d="M201.64 800.48c-.13-.04-.25-.1-.36-.17a23.68 23.68 0 00-11.88-3.78 1.45 1.45 0 01-1.48-1.44 1.47 1.47 0 011.44-1.48 26.21 26.21 0 0113.51 4.26 1.46 1.46 0 01.53 1.86 1.46 1.46 0 01-1.77.76h.01z" fill="#F4E6DD"/>
    <path d="M175.45 865.73a1.52 1.52 0 01-.01-.4 23.77 23.77 0 00-1.98-12.32 1.47 1.47 0 011.72-2.02c.36.1.67.34.86.66a26.34 26.34 0 012.3 13.98 1.47 1.47 0 01-2.37.97 1.46 1.46 0 01-.51-.88z" fill="#F4E6DD"/>
    <path d="M98.38 825.44a1.56 1.56 0 01.4-.01 23.77 23.77 0 0012.31-2.02 1.45 1.45 0 011.9.65 1.46 1.46 0 01-.55 1.93 26.32 26.32 0 01-13.97 2.35 1.45 1.45 0 01-1.3-1.4 1.47 1.47 0 011.22-1.5z" fill="#F4E6DD"/>
    <path d="M146.05 881.26a1.62 1.62 0 01-.01-.4 23.77 23.77 0 00-1.98-12.31 1.47 1.47 0 011.72-2.03c.36.1.67.34.86.66a26.32 26.32 0 012.3 13.99 1.47 1.47 0 01-1.4 1.3 1.46 1.46 0 01-1.49-1.22v.01z" fill="#F4E6DD"/>
    <path d="M113.14 797.86a1.43 1.43 0 01-.3-.26 23.66 23.66 0 00-10.41-6.84 1.46 1.46 0 01-1.04-1.79 1.46 1.46 0 011.79-1.04 26.2 26.2 0 0111.86 7.74 1.47 1.47 0 010 1.91 1.47 1.47 0 01-1.9.28z" fill="#F4E6DD"/>
    <path d="M203.47 832.59c.09-.1.2-.2.31-.26a23.87 23.87 0 008.56-9.12 1.46 1.46 0 011.93-.71 1.46 1.46 0 01.72 1.93 26.41 26.41 0 01-9.69 10.39 1.46 1.46 0 01-1.88-.33 1.47 1.47 0 01.06-1.92l-.01.02z" fill="#F4E6DD"/>
    <path d="M144.77 847.13a1.5 1.5 0 01-.01-.39 23.85 23.85 0 00-1.98-12.32 1.46 1.46 0 011.72-2.04c.37.1.68.35.86.68a26.25 26.25 0 012.3 13.98 1.47 1.47 0 01-1.4 1.3 1.46 1.46 0 01-1.49-1.21z" fill="#F4E6DD"/>
    <path d="M191.27 762.33c.05-.13.11-.25.18-.36a23.93 23.93 0 003.98-11.85 1.47 1.47 0 011.46-1.46 1.46 1.46 0 011.45 1.46 26.42 26.42 0 01-4.47 13.47 1.47 1.47 0 01-1.84.49 1.46 1.46 0 01-.76-1.75z" fill="#F4E6DD"/>
    <path d="M116.61 764.08a1.43 1.43 0 01-.01-.4 23.77 23.77 0 00-1.98-12.32 1.46 1.46 0 01-.06-1.08 1.46 1.46 0 012.64-.28 26.35 26.35 0 012.3 13.98 1.47 1.47 0 01-1.4 1.3 1.46 1.46 0 01-1.49-1.21z" fill="#F4E6DD"/>
  </g>
  <g clip-path="url(#clip4)">
    <path d="M583.97 452.81c3.18.02 7.9-4 11.11-4.2 4.66-.28 7.8 3.16 12.5 2.42a146.86 146.86 0 0076.28-36.63 147.14 147.14 0 0043.47-72.66c.9-3.51-4.9-9.9-4.27-13.5.66-3.82 7.54-6.21 7.9-10.12a136.41 136.41 0 00-.89-34.5 145.91 145.91 0 00-23.27-59.6 145.54 145.54 0 00-46.52-43.86c-3.76-2.23-13.48-1.73-17.43-3.62-3.95-1.88-2.12-6.17-6.23-7.7a146.3 146.3 0 00-81.22-5.88 147.02 147.02 0 00-71.95 38.43c-1.97 1.92-3.15 9-5.02 11.05-2.5 2.73-5.63.44-7.92 3.35a146.68 146.68 0 00-26.7 53.49 146.32 146.32 0 00-3.12 59.65c11.03 72.02 72.74 123.5 143.28 123.88zm-1.9-180.46a33.95 33.95 0 0119.55 2.75 33.88 33.88 0 0114.7 13.17 34 34 0 014.88 19.14 34.17 34.17 0 01-22.38 30.55 34 34 0 01-19.72 1.12 33.88 33.88 0 01-16.98-10.04 33.95 33.95 0 01-8.53-17.8 34.14 34.14 0 016.22-25.33 34.14 34.14 0 0122.26-13.56z" fill="#F7D1A4"/>
    <path d="M583.97 452.81c3.18.02 7.9-4 11.11-4.2 4.66-.28 7.8 3.16 12.5 2.42a146.86 146.86 0 0076.28-36.63 147.14 147.14 0 0043.47-72.66c.9-3.51-4.9-9.9-4.27-13.5.66-3.82 7.5-6.55 7.87-10.45a133.8 133.8 0 00-.86-34.18 145.91 145.91 0 00-23.27-59.6 145.54 145.54 0 00-46.52-43.85c-3.76-2.23-13.48-1.73-17.43-3.62-3.95-1.88-2.12-6.17-6.23-7.7a146.3 146.3 0 00-81.22-5.88 147.02 147.02 0 00-71.95 38.43c-1.97 1.92-3.15 9-5.02 11.05-2.5 2.73-5.63.44-7.92 3.35a146.68 146.68 0 00-26.7 53.49 146.32 146.32 0 00-3.12 59.65c11.03 72.02 72.74 123.5 143.28 123.88zM478.31 230c1.96-2.5 4.65-.53 6.8-2.87 1.6-1.74 2.62-7.83 4.32-9.48a126.1 126.1 0 0161.7-32.98 125.5 125.5 0 0169.69 5.05c3.53 1.3 1.98 5 5.33 6.6 3.36 1.6 11.74 1.18 14.96 3.1a125.36 125.36 0 0147.68 50.92 125.85 125.85 0 0113.13 68.6c-.31 3.36-6.38 4.25-6.95 7.53-.54 3.09 4.44 8.57 3.68 11.58a126.26 126.26 0 01-37.3 62.34 126.01 126.01 0 01-65.45 31.43c-4.03.63-6.75-2.34-10.7-2.07-2.76.17-6.82 3.62-9.55 3.6a125.23 125.23 0 01-66.25-19.47 125.15 125.15 0 01-45.84-51.64 125.66 125.66 0 01-11.53-68.17A126.17 126.17 0 01478.28 230l.03-.01z" fill="#EBB57A"/>
    <path opacity=".4" d="M570.33 335.45a33.87 33.87 0 01-11.95-11.64 33.98 33.98 0 01-4.96-15.95c-.3-5.65.81-11.29 3.23-16.4a34.19 34.19 0 0110.65-12.92c-3.34-17.4-26.88-32.88-39.05-40.18 0 0-78.76 67.73 5.11 129.06 0-.04 35.28-7.26 36.97-31.97z" fill="#EBB57A"/>
    <path d="M574.2 261.79a43.72 43.72 0 0120.64 1.72 43.61 43.61 0 0117.5 11.03 43.67 43.67 0 0110.47 17.86 43.87 43.87 0 011.08 20.7 44 44 0 01-24.82 31.79 43.81 43.81 0 01-20.34 3.98 43.66 43.66 0 01-19.86-5.82 258.4 258.4 0 01-.28 3.64 50.7 50.7 0 0026.59 9.98 50.92 50.92 0 0027.83-5.86 51.12 51.12 0 0020.38-19.88 51.07 51.07 0 006.59-27.7 50.82 50.82 0 00-9.28-26.85 50.66 50.66 0 00-22.24-17.65 50.78 50.78 0 00-28.26-2.92 51.03 51.03 0 00-25.46 12.71l.26 1.29a43.65 43.65 0 0119.2-8.02z" fill="#EBB57A"/>
    <path opacity=".2" d="M522.65 438.86a145.81 145.81 0 01-41.48-42.83 146.18 146.18 0 01-20.9-55.89 146.73 146.73 0 013.15-59.66 147.1 147.1 0 0126.67-53.52c2.29-2.9 5.42-.62 7.92-3.35 1.86-2.02 3.03-9.1 5.03-11.04a147.1 147.1 0 0164.3-36.61 146.46 146.46 0 0173.9-.61c-1.9-2.13-1.25-5.26-4.64-6.51a146.32 146.32 0 00-81.21-5.89 147.03 147.03 0 00-71.94 38.44c-1.97 1.92-3.15 9-5.02 11.05-2.5 2.73-5.63.44-7.92 3.35a147.08 147.08 0 00-28 59.01 146.67 146.67 0 00.33 65.26 146.09 146.09 0 0028.6 58.56 145.81 145.81 0 0051.21 40.24z" fill="#333333"/>
    <path d="M477.19 387.43c-1.84.79 16.5 25.15 16.5 25.15s24.8 22.5 49.8 14.54c1.35.19 16.45 24.31 64.16 15.07.08.06 30.22 4.67 44.6-12.6-2.31.2 8.05-19.15 33.4-27.39 0 0 25.62-9.53 28.14-33.62-.08-.91 9.67-40.4 16.63-48.1.2-1.36 27.2-33.27-3.83-58.35-31.02-25.09-25.76-36.7-25.76-36.7s-3.56-15.16-28.27-21.37c-.96-.48-15.33-33.29-37.8-28.45-1.36-.19-43.08 2.82-46.84-2.79-1.67-1.17-31.72-25.77-44.88-6.14 0 0-14.32 28.82-45.15 32.79-.64-.03-27.36 2.38-29.04 21.93 1.1-.13-1.78 25.1-8.57 31.44-1.06.17-1.83 12.9-3.57 13.01-1.74.11-5.4 16.22-5.9 17.19-.48.97-7.53 21.45-.73 34.52.3.38 4.48 29.36.01 33.96-.45.92-23.77 21.57 27.1 35.91zm61.4-85.76c.76-3.33 3.54-6.06 2.07-9.68-3.04-7.48 8.94-20.7 9.79-20.09 3.58-1.32 12.14-7.2 12.5-7.26 5.34-7.27 12.61-4.24 13.4-4 5.75 2.9 20.3-.9 21.25-1.4 8.72-1.75 15.99 12.26 15.26 12.52 16.43 5.92 12.48 22.13 13.23 23.9.76 1.78 2.53 17.02 2.48 16.65 2.53 9.08-5.35 14.47-5.35 14.47-3.03 2.08-4.68 5.63-6.17 8.85-2.72 5.9-7.85 4.63-13.4 5.07a56.6 56.6 0 00-18.23 4.13c-9.62 4.14-22.2.44-22.26.07-5.54-4.06-16.05-18.31-14.95-18.5-.27.05-5.87-12.72-6.37-13.7-1.79-3.6-4.24-6.82-3.26-11.03z" fill="#9C03F8"/>
    <path opacity=".09" d="M714.17 298.01c-7.23 7.84-17.42 48.04-17.35 48.97-2.68 24.5-29.19 34.25-29.19 34.25-26.29 8.47-37.03 28.14-34.68 27.98-14.9 17.58-46.1 13-46.17 12.92-49.39 9.5-64.96-14.97-66.35-15.18-11.96 3.77-23.88.92-33.23-3.23 3.47 4.82 6.5 8.84 6.5 8.84s24.81 22.5 49.8 14.54c1.35.19 16.45 24.31 64.16 15.08.08.05 30.23 4.66 44.6-12.6-2.3.2 8.05-19.16 33.41-27.4 0 0 25.61-9.53 28.13-33.62-.07-.91 9.67-40.4 16.64-48.1.2-1.36 27.19-33.27-3.83-58.35l-1.5-1.22c3.74 19.02-10.75 36.14-10.94 37.12z" fill="#FEFEEC"/>
    <path opacity=".2" d="M459.18 380.74a43.44 43.44 0 012.8-3.48c4.63-4.76.27-34.92-.04-35.32-7.07-13.6.27-34.91.77-35.92.5-1.01 4.32-17.78 6.13-17.89 1.82-.1 2.62-13.33 3.72-13.54 7.05-6.59 10.05-32.83 8.9-32.69 1.74-20.36 29.58-22.89 30.22-22.83 32.09-4.13 47-34.13 47-34.13 13.69-20.43 44.96 5.17 46.7 6.4 3.95 5.84 47.37 2.72 48.78 2.91a22.2 22.2 0 0113.18 1.17c-6.2-9.5-17.58-23.02-32.57-19.8-1.35-.18-43.07 2.82-46.84-2.78-1.64-1.2-31.72-25.78-44.87-6.14 0 0-14.33 28.82-45.16 32.79-.69-.04-27.39 2.37-29.07 21.92 1.11-.13-1.78 25.1-8.54 31.42-1.06.17-1.83 12.9-3.57 13-1.75.1-5.41 16.22-5.9 17.19-.48.96-7.53 21.46-.73 34.52.28.39 4.48 29.35 0 33.96-.4.81-17.37 15.92 9.1 29.24z" fill="#333333"/>
    <g opacity=".2" fill="#333333">
      <path opacity=".2" d="M641.75 333.1c.2-.16.43-.27.67-.36a45.74 45.74 0 0019.64-13.72 2.8 2.8 0 011.84-1.1 2.79 2.79 0 013.16 2.35 2.8 2.8 0 01-.52 2.08A50.58 50.58 0 01644.28 338a2.79 2.79 0 01-1.96-.03 2.8 2.8 0 01-1.69-3.27 2.8 2.8 0 011.12-1.62z"/>
      <path opacity=".2" d="M571.71 391.55c.17-.2.36-.37.58-.52a45.78 45.78 0 0015.71-18.1 2.8 2.8 0 011.52-1.51 2.79 2.79 0 013.05.6 2.78 2.78 0 01.81 1.98 2.82 2.82 0 01-.21 1.07 50.7 50.7 0 01-17.82 20.62 2.8 2.8 0 01-1.92.46 2.78 2.78 0 01-2.44-2.77c0-.68.25-1.33.7-1.85l.02.02z"/>
      <path opacity=".2" d="M476.9 296.26c.26.07.5.17.73.3a45.42 45.42 0 0023.2 5.78 2.8 2.8 0 012.03.66 2.8 2.8 0 01.3 3.95 2.81 2.81 0 01-1.91.98 50.28 50.28 0 01-26.37-6.49 2.8 2.8 0 01-1.2-3.46 2.81 2.81 0 013.25-1.7l-.03-.02z"/>
      <path opacity=".2" d="M579.63 167.2a2.94 2.94 0 01-.3.73 45.73 45.73 0 00-5.82 23.2 2.8 2.8 0 01-2.58 3.02 2.79 2.79 0 01-3-2.57 50.6 50.6 0 016.55-26.42 2.81 2.81 0 011.5-1.26 2.8 2.8 0 013.42 1.35c.3.6.4 1.3.23 1.95z"/>
      <path opacity=".2" d="M463.44 226.7c.25.06.5.16.72.29a45.43 45.43 0 0023.16 5.77 2.79 2.79 0 013 2.57 2.81 2.81 0 01-2.58 3 50.27 50.27 0 01-26.37-6.47 2.79 2.79 0 01-1.24-1.5 2.81 2.81 0 013.3-3.66z"/>
      <path opacity=".2" d="M643.87 237.51c.21-.14.44-.24.68-.32a45.73 45.73 0 0020-13.2 2.8 2.8 0 013.87-.39 2.8 2.8 0 01.53 3.85 50.72 50.72 0 01-22.68 15.06 2.8 2.8 0 01-3.36-1.45 2.8 2.8 0 01-.18-1.95 2.82 2.82 0 011.14-1.6z"/>
      <path opacity=".2" d="M513.82 370.6c.1.23.17.47.2.72a45.58 45.58 0 009.51 21.96 2.8 2.8 0 01-.22 3.95 2.79 2.79 0 01-3.94-.2 50.38 50.38 0 01-10.9-24.92 2.8 2.8 0 01.42-1.92 2.8 2.8 0 011.58-1.18 2.79 2.79 0 013.33 1.58l.02.01z"/>
      <path opacity=".2" d="M533.03 256.18c.25.06.5.16.72.3a45.58 45.58 0 0023.2 5.78 2.78 2.78 0 013 2.57 2.8 2.8 0 01-2.58 3 50.22 50.22 0 01-26.36-6.48 2.79 2.79 0 01-1.27-1.5 2.8 2.8 0 013.31-3.66l-.02-.01z"/>
      <path opacity=".2" d="M646.74 401.98c.2.17.37.37.5.59a45.5 45.5 0 0017.83 15.92 2.78 2.78 0 011.49 1.54 2.81 2.81 0 01-1.57 3.64 2.8 2.8 0 01-2.14-.03 50.2 50.2 0 01-20.3-18.02 2.8 2.8 0 01.52-3.67 2.8 2.8 0 011.86-.67 2.79 2.79 0 011.83.72l-.02-.02z"/>
      <path opacity=".2" d="M700.67 269.06c.25.06.5.16.72.3a45.54 45.54 0 0023.2 5.78 2.79 2.79 0 013 2.57 2.81 2.81 0 01-2.58 3.02 50.3 50.3 0 01-26.36-6.5 2.78 2.78 0 01-1.26-1.5 2.8 2.8 0 013.31-3.64l-.03-.03z"/>
      <path opacity=".2" d="M595 233.57a2.78 2.78 0 01-.61-.44 45.37 45.37 0 00-20.3-12.6 2.79 2.79 0 01-2.07-3.37 2.81 2.81 0 011.26-1.74 2.8 2.8 0 012.1-.34 50.24 50.24 0 0123.14 14.2c.47.5.74 1.14.76 1.82a2.8 2.8 0 01-4.29 2.47h.01z"/>
      <path opacity=".2" d="M673.01 291.94a2.99 2.99 0 01-.7-.33 45.41 45.41 0 00-22.76-7.25 2.79 2.79 0 01-2.83-2.75 2.8 2.8 0 012.76-2.84 50.25 50.25 0 0125.9 8.13c.56.38.97.94 1.15 1.59a2.81 2.81 0 01-3.52 3.44v.01z"/>
      <path opacity=".2" d="M622.8 417.04a2.96 2.96 0 01-.02-.75 45.57 45.57 0 00-3.8-23.63 2.8 2.8 0 011.24-3.66 2.8 2.8 0 013.71 1.05 50.47 50.47 0 014.41 26.81 2.8 2.8 0 01-2.7 2.52 2.79 2.79 0 01-2.83-2.35l-.01.01z"/>
      <path opacity=".2" d="M475.03 339.8c.25-.04.5-.05.75-.02a45.62 45.62 0 0023.61-3.87 2.8 2.8 0 013.87 3.3 2.82 2.82 0 01-1.27 1.65 50.55 50.55 0 01-26.8 4.5 2.78 2.78 0 01-2.5-2.7 2.8 2.8 0 012.35-2.85h-.01z"/>
      <path opacity=".2" d="M566.42 446.83a3 3 0 01-.02-.76 45.73 45.73 0 00-3.8-23.63 2.8 2.8 0 01-.19-2.13 2.81 2.81 0 011.38-1.65 2.79 2.79 0 013.77 1.18 50.46 50.46 0 014.41 26.8 2.8 2.8 0 01-2.7 2.52 2.79 2.79 0 01-2.84-2.35v.02z"/>
      <path opacity=".2" d="M503.32 286.92a3.11 3.11 0 01-.57-.5 45.31 45.31 0 00-19.97-13.13 2.78 2.78 0 01-1.7-1.3 2.78 2.78 0 01-.35-1.03 2.78 2.78 0 01.07-1.09 2.8 2.8 0 013.42-2 50.2 50.2 0 0122.73 14.84 2.8 2.8 0 010 3.67 2.81 2.81 0 01-1.73.94 2.8 2.8 0 01-1.9-.41z"/>
      <path opacity=".2" d="M676.52 353.5c.18-.2.38-.37.6-.5a45.77 45.77 0 0016.41-17.48 2.81 2.81 0 011.58-1.45 2.8 2.8 0 013.5 3.79 50.72 50.72 0 01-18.57 19.91 2.8 2.8 0 01-1.93.37 2.79 2.79 0 01-1.7-1 2.8 2.8 0 01.14-3.67l-.03.03z"/>
      <path opacity=".2" d="M563.97 381.4a2.96 2.96 0 01-.02-.76 45.57 45.57 0 00-3.8-23.63 2.8 2.8 0 013.31-3.97c.71.22 1.3.7 1.64 1.36a50.39 50.39 0 014.42 26.82 2.81 2.81 0 01-2.7 2.48 2.8 2.8 0 01-2.84-2.32l-.01.01z"/>
      <path opacity=".2" d="M653.12 218.8c.08-.24.2-.47.35-.68a45.8 45.8 0 007.61-22.72 2.81 2.81 0 012.8-2.66 2.8 2.8 0 012.8 2.66 50.73 50.73 0 01-8.58 25.83c-.38.56-.95.96-1.6 1.13a2.8 2.8 0 01-3.3-1.6 2.8 2.8 0 01-.08-1.96z"/>
      <path opacity=".2" d="M509.98 222.14a2.75 2.75 0 01-.02-.75 45.57 45.57 0 00-3.8-23.63 2.81 2.81 0 013.3-3.88 2.79 2.79 0 011.65 1.27 50.46 50.46 0 014.42 26.8 2.8 2.8 0 01-2.7 2.52 2.78 2.78 0 01-2.84-2.34h-.01z"/>
    </g>
    <path d="M643.32 334.8c.2-.14.43-.26.67-.34a45.76 45.76 0 0019.64-13.72 2.81 2.81 0 011.83-1 2.8 2.8 0 012.66 4.33 50.71 50.71 0 01-22.26 15.66 2.78 2.78 0 01-3.42-1.34 2.8 2.8 0 01.88-3.58z" fill="#EB7789"/>
    <path d="M573.28 393.27c.17-.2.37-.37.58-.52a45.71 45.71 0 0015.71-18.1 2.8 2.8 0 011.52-1.52 2.8 2.8 0 013.65 1.52 2.8 2.8 0 010 2.14 50.69 50.69 0 01-17.8 20.63 2.8 2.8 0 01-1.91.46 2.79 2.79 0 01-2.44-2.76c0-.68.25-1.34.7-1.85z" fill="#EB7789"/>
    <path d="M478.49 297.96c.25.07.5.17.72.3a45.44 45.44 0 0023.18 5.8 2.78 2.78 0 013 2.57 2.8 2.8 0 01-2.58 3 50.28 50.28 0 01-26.37-6.48 2.8 2.8 0 01-1.3-3.51 2.81 2.81 0 013.35-1.68z" fill="#EB7789"/>
    <path d="M581.2 168.92a2.87 2.87 0 01-.3.73 45.72 45.72 0 00-5.82 23.2 2.81 2.81 0 01-2.58 3.01 2.8 2.8 0 01-2.03-.66 2.8 2.8 0 01-.97-1.9 50.6 50.6 0 016.55-26.42 2.82 2.82 0 011.51-1.25 2.8 2.8 0 013.4 1.35 2.8 2.8 0 01.24 1.94z" fill="#EB7789"/>
    <path d="M465 228.41c.26.07.5.16.73.3a45.5 45.5 0 0023.2 5.78 2.79 2.79 0 013 2.57 2.8 2.8 0 01-2.59 3 50.28 50.28 0 01-26.39-6.49 2.79 2.79 0 01-1.25-1.5 2.8 2.8 0 011.36-3.42 2.8 2.8 0 011.95-.24z" fill="#EB7789"/>
    <path d="M645.44 239.23c.21-.14.44-.24.68-.32a45.82 45.82 0 0020-13.2 2.81 2.81 0 011.87-1.05 2.79 2.79 0 013.1 2.43 2.8 2.8 0 01-.57 2.07 50.64 50.64 0 01-22.66 15.07 2.8 2.8 0 01-3.37-1.44 2.82 2.82 0 01.96-3.55v-.01z" fill="#EB7789"/>
    <path d="M515.38 372.31c.1.23.17.48.21.73a45.48 45.48 0 009.5 21.95 2.8 2.8 0 01-.21 3.95 2.8 2.8 0 01-3.95-.2 50.28 50.28 0 01-10.9-24.91 2.8 2.8 0 012-3.1 2.78 2.78 0 013.33 1.57l.02.01z" fill="#EB7789"/>
    <path d="M534.6 257.9c.26.06.5.16.73.29a45.43 45.43 0 0023.2 5.78 2.8 2.8 0 013 2.57 2.81 2.81 0 01-2.58 3.02 50.32 50.32 0 01-26.4-6.5 2.8 2.8 0 01-1.25-1.5 2.81 2.81 0 013.3-3.67z" fill="#EB7789"/>
    <path d="M648.31 403.7c.2.17.37.36.51.58a45.47 45.47 0 0017.81 15.93 2.79 2.79 0 011.46 3.67 2.81 2.81 0 01-1.54 1.5 2.79 2.79 0 01-2.14-.03 50.19 50.19 0 01-20.3-18.02 2.8 2.8 0 01-.42-1.93 2.8 2.8 0 012.8-2.41 2.78 2.78 0 011.84.72l-.02-.02z" fill="#EB7789"/>
    <path d="M702.24 270.78c.25.07.5.16.72.3a45.59 45.59 0 0023.17 5.76 2.79 2.79 0 013 2.57 2.8 2.8 0 01-2.58 3.01 50.28 50.28 0 01-26.37-6.48 2.8 2.8 0 01-1.2-3.47 2.81 2.81 0 013.26-1.69z" fill="#EB7789"/>
    <path d="M596.58 235.3a2.77 2.77 0 01-.61-.45 45.53 45.53 0 00-20.31-12.6 2.78 2.78 0 01-1.7-1.27 2.8 2.8 0 013-4.18 50.16 50.16 0 0123.13 14.2 2.8 2.8 0 01.12 3.69 2.8 2.8 0 01-1.7.98 2.78 2.78 0 01-1.94-.38z" fill="#F4E6DD"/>
    <path d="M674.59 293.66a2.95 2.95 0 01-.7-.33 45.42 45.42 0 00-22.77-7.25 2.79 2.79 0 01-2.84-2.75 2.8 2.8 0 012.76-2.85 50.24 50.24 0 0125.9 8.18c.58.36 1 .93 1.19 1.58a2.8 2.8 0 01-3.56 3.44l.02-.02z" fill="#F4E6DD"/>
    <path d="M624.37 418.76a2.97 2.97 0 01-.02-.75 45.58 45.58 0 00-3.8-23.63 2.81 2.81 0 011.24-3.66 2.8 2.8 0 012.07-.22 2.79 2.79 0 011.64 1.27 50.52 50.52 0 014.42 26.81 2.82 2.82 0 01-2.7 2.49 2.79 2.79 0 01-2.84-2.32h-.01z" fill="#F4E6DD"/>
    <path d="M476.6 341.52a3 3 0 01.75-.02 45.58 45.58 0 0023.62-3.88 2.8 2.8 0 013.86 3.3 2.81 2.81 0 01-1.27 1.66 50.47 50.47 0 01-26.8 4.5 2.78 2.78 0 01-2.5-2.7 2.8 2.8 0 012.35-2.85z" fill="#F4E6DD"/>
    <path d="M568 448.54a2.96 2.96 0 01-.03-.75 45.58 45.58 0 00-3.8-23.62 2.81 2.81 0 011.25-3.66 2.8 2.8 0 013.71 1.05 50.45 50.45 0 014.42 26.8 2.81 2.81 0 01-2.7 2.5 2.79 2.79 0 01-2.85-2.33v.01z" fill="#F4E6DD"/>
    <path d="M504.9 288.64a2.82 2.82 0 01-.57-.5 45.37 45.37 0 00-19.97-13.12 2.79 2.79 0 01-1.7-1.3 2.8 2.8 0 011.02-3.83 2.8 2.8 0 012.12-.29 50.23 50.23 0 0122.73 14.83 2.81 2.81 0 01-3.64 4.2h.01z" fill="#F4E6DD"/>
    <path d="M678.09 355.22c.18-.2.38-.36.6-.5a45.78 45.78 0 0016.4-17.47 2.82 2.82 0 011.58-1.46 2.79 2.79 0 013.6 1.65 2.8 2.8 0 01-.1 2.14 50.65 50.65 0 01-18.56 19.92 2.8 2.8 0 01-1.93.36 2.79 2.79 0 01-1.69-1 2.8 2.8 0 01-.63-1.85 2.81 2.81 0 01.75-1.81l-.02.02z" fill="#F4E6DD"/>
    <path d="M565.54 383.11a2.93 2.93 0 01-.01-.75 45.73 45.73 0 00-3.8-23.63 2.8 2.8 0 01-.14-2.1 2.81 2.81 0 011.35-1.6 2.78 2.78 0 013.74 1.1 50.34 50.34 0 014.42 26.8 2.81 2.81 0 01-2.71 2.5 2.8 2.8 0 01-1.86-.64 2.8 2.8 0 01-.98-1.7v.02z" fill="#F4E6DD"/>
    <path d="M654.7 220.5c.1-.23.21-.47.35-.68a45.87 45.87 0 007.62-22.71 2.8 2.8 0 012.8-2.8 2.79 2.79 0 012.8 2.79 50.66 50.66 0 01-8.58 25.83 2.81 2.81 0 01-1.6 1.12 2.8 2.8 0 01-3.38-3.54z" fill="#F4E6DD"/>
    <path d="M511.55 223.86a2.75 2.75 0 01-.02-.76 45.57 45.57 0 00-3.8-23.62 2.8 2.8 0 01-.1-2.08 2.82 2.82 0 011.34-1.58 2.8 2.8 0 013.72 1.05 50.53 50.53 0 014.41 26.81 2.81 2.81 0 01-2.7 2.49 2.8 2.8 0 01-1.86-.63 2.8 2.8 0 01-.98-1.7v.02z" fill="#F4E6DD"/>
  </g>
  <g clip-path="url(#clip5)">
    <path d="M1372.84 839.35c.27-1.86-1.71-4.96-1.56-6.85.21-2.76 2.48-4.32 2.43-7.14a86.96 86.96 0 00-15.28-47.72 87.14 87.14 0 00-39.09-31.4c-1.98-.8-6.2 2.07-8.26 1.41-2.19-.7-3.03-4.93-5.29-5.45a80.78 80.78 0 00-20.32-2.29 86.4 86.4 0 00-36.85 8.8 86.16 86.16 0 00-29.5 23.73c-1.61 2.02-2.11 7.76-3.54 9.93-1.42 2.16-3.79.74-5.02 3.03a86.64 86.64 0 00-10.05 47.16 87.03 87.03 0 0016.69 45.32c.97 1.31 5.03 2.58 6.07 3.84 1.4 1.7-.19 3.34 1.32 4.92a86.9 86.9 0 0029.21 20 86.65 86.65 0 0034.73 6.69 86.4 86.4 0 0084.31-73.98zm-106-13.55a20.07 20.07 0 0112.12-18.79 20.13 20.13 0 0111.62-1.3c3.92.71 7.54 2.58 10.41 5.36a20.17 20.17 0 015.69 10.24c.85 3.9.52 7.96-.95 11.66a20.07 20.07 0 01-7.26 9.14 20.14 20.14 0 01-11.14 3.56 20.24 20.24 0 01-14.35-5.7 20.21 20.21 0 01-6.14-14.17z" fill="#F7D1A4"/>
    <path d="M1372.84 839.35c.27-1.86-1.71-4.96-1.56-6.85.21-2.76 2.48-4.32 2.43-7.14a86.96 86.96 0 00-15.28-47.72 87.14 87.14 0 00-39.09-31.4c-1.98-.8-6.2 2.07-8.26 1.41-2.19-.7-3.23-4.93-5.49-5.46a79.3 79.3 0 00-20.12-2.28 86.4 86.4 0 00-36.85 8.8 86.16 86.16 0 00-29.5 23.73c-1.61 2.02-2.11 7.76-3.54 9.93-1.42 2.16-3.79.74-5.02 3.03a86.64 86.64 0 00-10.05 47.16 87.03 87.03 0 0016.69 45.32c.97 1.31 5.03 2.58 6.07 3.84 1.4 1.7-.19 3.34 1.32 4.92a86.9 86.9 0 0029.21 20 86.65 86.65 0 0034.73 6.69 86.4 86.4 0 0084.31-73.98zm-139.28 43.87c-1.31-1.35.06-2.77-1.13-4.22-.89-1.08-4.38-2.17-5.21-3.3a74.7 74.7 0 01-14.33-38.88 74.34 74.34 0 018.62-40.46c1.06-1.96 3.09-.76 4.31-2.6 1.21-1.84 1.65-6.78 3.03-8.51a74.28 74.28 0 0133.75-23.83 74.5 74.5 0 0141.3-2.13c1.94.46 1.97 4.09 3.85 4.69 1.77.57 5.39-1.9 7.09-1.21a74.67 74.67 0 0133.53 26.94 74.61 74.61 0 0113.12 40.94c.04 2.42-1.92 3.77-2.09 6.11-.12 1.63 1.57 4.3 1.34 5.89a74.17 74.17 0 01-16.8 37.28 74.17 74.17 0 01-34.01 22.69 74.43 74.43 0 01-40.93 1.22 74.71 74.71 0 01-35.44-20.6v-.02z" fill="#EBB57A"/>
    <path opacity=".4" d="M1302.9 837.82a20.15 20.15 0 01-7.8 6.06 20.17 20.17 0 01-19.12-1.62 20.25 20.25 0 01-6.71-7.3c-10.48.56-21.47 13.1-26.74 19.65 0 0 33.32 51.7 76.11 7.49-.02 0-1.39-21.28-15.74-24.28z" fill="#EBB57A"/>
    <path d="M1260 829.56c-.07-4.15.85-8.25 2.69-11.97a25.83 25.83 0 0119.22-14.05c4.09-.64 8.29-.28 12.22 1.05a26 26 0 0116.63 17.14 25.95 25.95 0 01.69 12.25 25.86 25.86 0 01-5.03 11.18l2.11.45a30.05 30.05 0 008.02-14.78c1.21-5.59.8-11.42-1.18-16.8a30.25 30.25 0 00-25.71-19.68 30.09 30.09 0 00-16.51 3.26 30.03 30.03 0 00-12.16 11.6 30.13 30.13 0 00-4.01 16.34 30.23 30.23 0 005.39 15.97l.78-.05c-2-3.66-3.08-7.75-3.15-11.91z" fill="#EBB57A"/>
    <path opacity=".2" d="M1359.67 874.19a86.39 86.39 0 01-28.49 20.84 86.53 86.53 0 01-34.48 7.72 86.92 86.92 0 01-34.74-6.7 87.13 87.13 0 01-29.22-19.99c-1.52-1.57.08-3.22-1.32-4.91-1.04-1.26-5.09-2.52-6.07-3.85a87.12 87.12 0 01-16.25-40.7 86.76 86.76 0 015.65-43.38c-1.4.94-3.18.3-4.2 2.19a86.71 86.71 0 00-10.05 47.15 87.1 87.1 0 0016.7 45.32c.97 1.31 5.03 2.58 6.07 3.84 1.4 1.7-.19 3.34 1.33 4.92a87.04 87.04 0 0032.33 21.22 86.88 86.88 0 0038.31 5.11 86.52 86.52 0 0036.67-12.02 86.38 86.38 0 0027.76-26.76z" fill="#333333"/>
    <path d="M1325.81 896.67c.31 1.14 16.09-7.63 16.09-7.63s15.21-12.73 12.58-28.03c.22-.78 15.6-7.67 14.05-36.4.05-.05 5.2-17.36-3.76-27.19-.07 1.37-10.58-6.28-13.35-21.82 0 0-3.51-15.8-17.44-19.23-.54-.03-22.91-8.96-26.86-13.67-.78-.23-17.3-18.65-34.53-2.5-17.24 16.16-23.63 12.13-23.63 12.13s-9.17.86-14.82 14.84c-.36.53-20.77 6.3-19.76 19.86-.22.79-1.85 25.5-5.44 27.25-.83.88-17.7 16.51-7.26 25.83 0 0 15.74 10.74 15.57 29.14-.07.37-.83 16.24 10.5 18.82.01-.66 14.58 3.08 17.75 7.58.01.64 7.42 2.12 7.34 3.15-.08 1.03 9.07 4.5 9.6 4.85.53.37 11.97 6.17 20.19 3.24.25-.14 17.58-.24 19.92 2.76.5.34 10.72 15.7 23.26-12.98zm-45.31-42.98c-1.89-.72-3.27-2.57-5.51-2-4.63 1.17-11.42-6.93-10.98-7.38-.49-2.2-3.24-7.7-3.25-7.92-3.83-3.72-1.46-7.74-1.25-8.19 2.16-3.13 1.12-11.98.89-12.57-.31-5.26 8.5-8.38 8.59-7.94 4.81-9.15 13.99-5.52 15.1-5.81 1.1-.3 10.19-.1 9.96-.1 5.53-.75 8.06 4.3 8.06 4.3.97 1.96 2.92 3.21 4.69 4.35 3.23 2.08 2.07 4.98 1.88 8.27-.3 3.7.02 7.43.94 11.03 1.65 5.98-1.55 13.06-1.77 13.06-2.83 2.92-12.04 7.93-12.06 7.26 0 .17-7.94 2.41-8.56 2.63-2.25.75-4.34 1.93-6.73 1.01z" fill="#9C03F8"/>
    <path opacity=".09" d="M1292.63 750.4c4 4.88 26.76 14.13 27.3 14.16 14.16 3.56 17.73 19.9 17.73 19.9 2.82 16.11 13.49 24.02 13.59 22.62 9.1 10.17 3.88 28.1 3.82 28.13 1.56 29.74-14.06 36.89-14.29 37.68 1.23 7.33-1.4 14.08-4.6 19.23 3.11-1.64 5.71-3.09 5.71-3.09s15.21-12.72 12.58-28.03c.22-.77 15.6-7.67 14.06-36.4.04-.05 5.19-17.36-3.77-27.19-.07 1.37-10.58-6.28-13.35-21.82 0 0-3.51-15.8-17.44-19.23-.54-.03-22.91-8.96-26.86-13.67-.78-.23-17.3-18.65-34.53-2.5l-.84.78c11.46-.64 20.32 9.24 20.89 9.43z" fill="#FEFEEC"/>
    <path opacity=".2" d="M1320.43 906.69a25 25 0 01-1.82-1.92c-2.41-3.1-20.46-3-20.72-2.85-8.55 3.04-20.46-3-21.01-3.37-.55-.38-10.08-3.98-9.99-5.05.09-1.08-7.61-2.62-7.64-3.28-3.29-4.68-18.44-8.57-18.45-7.88-11.8-2.68-11.02-19.21-10.93-19.58.18-19.16-16.2-30.34-16.2-30.34-10.88-9.69 6.68-25.95 7.54-26.87 3.75-1.85 5.45-27.57 5.68-28.38-.21-2.67.41-5.33 1.75-7.64-6.07 2.87-14.92 8.45-14.25 17.5-.22.78-1.85 25.49-5.44 27.25-.84.86-17.7 16.5-7.25 25.82 0 0 15.74 10.74 15.56 29.15-.07.4-.83 16.26 10.5 18.83.01-.66 14.58 3.08 17.73 7.56.01.64 7.42 2.12 7.34 3.16-.09 1.03 9.07 4.49 9.6 4.85.52.36 11.97 6.16 20.18 3.24.26-.14 17.59-.25 19.92 2.75.45.3 7.93 11.49 17.9-2.95z" fill="#333333"/>
    <g opacity=".2" fill="#333333">
      <path opacity=".2" d="M1307.31 795.74a1.58 1.58 0 01-.15-.43 26.97 26.97 0 00-6.45-12.63 1.7 1.7 0 01-.5-1.17 1.67 1.67 0 011.64-1.67c.44 0 .86.17 1.18.48a30.05 30.05 0 017.38 14.33 1.65 1.65 0 01-2.23 1.87 1.68 1.68 0 01-.87-.78z"/>
      <path opacity=".2" d="M1335.91 841.57a1.8 1.8 0 01-.26-.39 27.03 27.03 0 00-9.34-10.68 1.73 1.73 0 01-.48-.43 1.6 1.6 0 01-.28-.59 1.65 1.65 0 01.17-1.25 1.71 1.71 0 011.01-.76 1.69 1.69 0 011.26.17 29.96 29.96 0 0110.64 12.13c.18.36.22.77.12 1.16a1.7 1.7 0 01-.68.95 1.67 1.67 0 01-2.17-.3l.01-.01z"/>
      <path opacity=".2" d="M1272.32 889.43c.05-.14.13-.28.23-.4a26.93 26.93 0 005.28-13.14 1.62 1.62 0 011.11-1.46 1.62 1.62 0 011.26.08 1.7 1.7 0 01.85.95c.07.2.1.42.08.64a29.75 29.75 0 01-5.94 14.94 1.68 1.68 0 01-2.13.42 1.63 1.63 0 01-.74-.89c-.14-.37-.13-.79.01-1.16l-.01.02z"/>
      <path opacity=".2" d="M1204.97 818.68c.14.06.27.14.4.24a27.07 27.07 0 0013.14 5.3 1.65 1.65 0 011.55 1.76 1.66 1.66 0 01-1.75 1.55 29.94 29.94 0 01-14.96-5.99 1.65 1.65 0 01-.61-.98c-.08-.4-.02-.8.18-1.15a1.64 1.64 0 012.05-.72z"/>
      <path opacity=".2" d="M1230.42 891.67c.05-.14.13-.27.23-.4a26.86 26.86 0 005.26-13.11c.03-.44.23-.85.56-1.14a1.66 1.66 0 012.75 1.34 29.75 29.75 0 01-5.94 14.94 1.65 1.65 0 01-2.13.42 1.69 1.69 0 01-.75-.88 1.7 1.7 0 01.02-1.16z"/>
      <path opacity=".2" d="M1251.43 786.72a1.6 1.6 0 01-.14-.42 27.07 27.07 0 00-6.11-12.8 1.62 1.62 0 01-.42-1.17c.01-.43.19-.84.5-1.13a1.66 1.66 0 012.3 0 30.04 30.04 0 016.99 14.52c.07.4-.01.8-.21 1.14a1.67 1.67 0 01-.91.72 1.66 1.66 0 01-2-.86z"/>
      <path opacity=".2" d="M1318.92 873.82c.14-.04.29-.06.44-.06a27 27 0 0013.65-3.8c.36-.24.81-.33 1.24-.25a1.65 1.65 0 011.31 1.95c-.08.43-.33.8-.69 1.05a29.86 29.86 0 01-15.5 4.37c-.4 0-.79-.14-1.09-.4a1.66 1.66 0 01-.57-1.02c-.05-.4.04-.8.26-1.14.22-.34.55-.58.94-.69h.01z"/>
      <path opacity=".2" d="M1253.37 853.25c.05-.14.13-.28.23-.4a27.04 27.04 0 005.28-13.13c.02-.44.22-.85.55-1.14a1.66 1.66 0 012.75 1.34 29.72 29.72 0 01-5.94 14.94 1.66 1.66 0 01-2.89-.46c-.13-.38-.12-.79.03-1.16l-.01.01z"/>
      <path opacity=".2" d="M1348.12 798.4c.12-.1.25-.18.39-.24a26.96 26.96 0 0010.79-9.16 1.65 1.65 0 012.28-.56 1.67 1.67 0 01.56 2.28 29.77 29.77 0 01-12.22 10.44 1.67 1.67 0 01-2.11-.6c-.22-.34-.3-.75-.24-1.15.06-.4.26-.76.57-1.02l-.02.02z"/>
      <path opacity=".2" d="M1274.55 755.97c.06-.14.13-.28.23-.4a26.94 26.94 0 005.28-13.13c.02-.44.22-.85.55-1.14a1.66 1.66 0 012.34.14c.29.33.44.76.42 1.2a29.84 29.84 0 01-5.95 14.94 1.65 1.65 0 01-2.13.43 1.65 1.65 0 01-.75-.9 1.72 1.72 0 01.02-1.15l-.01.01z"/>
      <path opacity=".2" d="M1245.15 815.07c-.09.12-.2.23-.32.32a26.9 26.9 0 00-9.04 10.88c-.15.41-.47.74-.87.92a1.66 1.66 0 01-2.19-.86 1.69 1.69 0 01-.03-1.26 29.8 29.8 0 0110.21-12.42 1.66 1.66 0 012.62 1.32c.01.4-.13.8-.39 1.1h.01z"/>
      <path opacity=".2" d="M1285.72 774.05c-.07.14-.15.27-.25.38a26.87 26.87 0 00-6.1 12.77 1.67 1.67 0 01-1.85 1.44 1.67 1.67 0 01-1.44-1.85 29.8 29.8 0 016.88-14.54 1.66 1.66 0 012.15-.28 1.65 1.65 0 01.6 2.09h.01z"/>
      <path opacity=".2" d="M1355.01 813.67c-.14 0-.29-.01-.44-.04a26.96 26.96 0 00-14.16.3c-.41.13-.85.09-1.23-.1a1.69 1.69 0 01-.82-.92 1.66 1.66 0 01.92-2.1 29.88 29.88 0 0116.08-.4 1.65 1.65 0 011.25 1.78c-.04.4-.22.77-.52 1.04-.3.27-.68.43-1.08.44z"/>
      <path opacity=".2" d="M1297.7 894.07c0-.15.01-.3.05-.45a27.13 27.13 0 00-.35-14.16 1.63 1.63 0 01.1-1.23 1.66 1.66 0 012.15-.77c.39.17.7.49.86.88a29.89 29.89 0 01.46 16.08c-.09.4-.33.74-.65.97a1.66 1.66 0 01-2.17-.24 1.63 1.63 0 01-.44-1.09h-.01z"/>
      <path opacity=".2" d="M1367.9 849.16c-.15 0-.3-.01-.44-.05a27.09 27.09 0 00-14.17.3 1.67 1.67 0 01-2.12-1 1.63 1.63 0 011-2.12 29.87 29.87 0 0116.08-.4 1.65 1.65 0 011.25 1.79c-.04.4-.23.77-.52 1.04-.3.27-.68.42-1.08.43z"/>
      <path opacity=".2" d="M1268.98 873.17c-.1.12-.21.22-.34.3-4 2.65-7.22 6.33-9.32 10.65-.08.2-.21.38-.36.53a1.66 1.66 0 01-1.81.35c-.2-.08-.38-.2-.53-.36a1.54 1.54 0 01-.36-.54 1.73 1.73 0 01-.13-.64c.01-.21.05-.43.13-.63a29.78 29.78 0 0110.55-12.13 1.67 1.67 0 012.56 1.39c.01.4-.14.79-.4 1.1l.01-.02z"/>
      <path opacity=".2" d="M1322.11 777c-.1-.12-.18-.25-.25-.4a27.04 27.04 0 00-8.91-11.04 1.69 1.69 0 01-.73-1.04 1.7 1.7 0 01.22-1.25 1.66 1.66 0 012.29-.5 29.97 29.97 0 0110.17 12.51c.16.37.18.78.06 1.16a1.66 1.66 0 01-1.86 1.13 1.68 1.68 0 01-1.01-.59l.02.02z"/>
      <path opacity=".2" d="M1329.32 845.28c-.14 0-.29-.01-.44-.05a27 27 0 00-14.17.3 1.67 1.67 0 01-2.12-1 1.64 1.64 0 011-2.12 29.82 29.82 0 0116.08-.4c.39.1.73.34.95.67a1.65 1.65 0 01-1.3 2.6z"/>
      <path opacity=".2" d="M1241.21 779.78a1.52 1.52 0 01-.38-.26 27.14 27.14 0 00-12.7-6.31 1.67 1.67 0 01-1.34-1.87 1.66 1.66 0 011.79-1.42 30.05 30.05 0 0114.45 7.13c.3.27.49.64.54 1.03a1.66 1.66 0 01-2.37 1.7h.01z"/>
      <path opacity=".2" d="M1231.53 864c-.15.01-.3 0-.45-.04a26.97 26.97 0 00-14.16.3 1.67 1.67 0 01-2.05-1.02 1.66 1.66 0 01.92-2.1 29.88 29.88 0 0116.08-.4c.39.1.73.33.97.66a1.67 1.67 0 01-1.32 2.6h.01z"/>
    </g>
    <path d="M1308.45 794.95a1.57 1.57 0 01-.15-.42 27.16 27.16 0 00-6.45-12.63 1.64 1.64 0 01-.44-1.16 1.66 1.66 0 012.75-1.21 30 30 0 017.38 14.34 1.64 1.64 0 01-1.07 1.9 1.66 1.66 0 01-2.02-.82z" fill="#EB7789"/>
    <path d="M1337.05 840.78c-.1-.11-.19-.24-.26-.38a27.08 27.08 0 00-9.34-10.68 1.67 1.67 0 01-.77-1.02c-.11-.42-.05-.88.18-1.25a1.65 1.65 0 012.26-.59 30.04 30.04 0 0110.66 12.11c.18.36.22.78.11 1.17-.1.38-.34.72-.68.94a1.65 1.65 0 01-2.16-.3z" fill="#EB7789"/>
    <path d="M1273.44 888.64c.06-.15.14-.28.23-.4a26.9 26.9 0 005.29-13.13 1.66 1.66 0 011.75-1.55 1.66 1.66 0 011.55 1.76 29.75 29.75 0 01-5.94 14.94 1.66 1.66 0 01-2.93-.43 1.68 1.68 0 01.05-1.2z" fill="#EB7789"/>
    <path d="M1206.1 817.9c.15.06.28.14.4.24a27.11 27.11 0 0013.14 5.3c.44.03.85.23 1.14.56.29.33.44.76.42 1.2a1.67 1.67 0 01-.56 1.14c-.32.29-.76.44-1.19.41a29.93 29.93 0 01-14.96-5.99 1.67 1.67 0 01-.62-.99 1.69 1.69 0 01.19-1.14c.19-.35.51-.61.88-.74a1.67 1.67 0 011.16.02z" fill="#EB7789"/>
    <path d="M1231.55 890.9c.06-.15.14-.28.23-.4a26.94 26.94 0 005.28-13.14 1.67 1.67 0 011.75-1.55c.44.03.85.23 1.14.56.29.33.44.76.42 1.2a29.8 29.8 0 01-5.96 14.95c-.24.31-.59.53-.98.6a1.67 1.67 0 01-1.9-1.07c-.13-.37-.12-.78.02-1.16z" fill="#EB7789"/>
    <path d="M1252.56 785.94a1.59 1.59 0 01-.13-.42 27.18 27.18 0 00-6.12-12.8c-.3-.33-.47-.75-.46-1.19a1.64 1.64 0 011.68-1.62c.44 0 .86.19 1.16.5a29.91 29.91 0 017 14.52c.07.4 0 .8-.21 1.14a1.67 1.67 0 01-.91.72 1.66 1.66 0 01-2-.85h-.01z" fill="#EB7789"/>
    <path d="M1320.05 873.04c.14-.04.29-.06.44-.06a26.96 26.96 0 0013.65-3.8 1.65 1.65 0 012.3.46c.12.18.21.38.25.6a1.56 1.56 0 01-.24 1.24c-.12.18-.27.33-.45.45a29.77 29.77 0 01-15.5 4.37c-.4 0-.79-.14-1.09-.4a1.6 1.6 0 01-.56-1.02 1.64 1.64 0 011.19-1.83h.01z" fill="#EB7789"/>
    <path d="M1254.5 852.47c.06-.14.14-.28.23-.4a26.93 26.93 0 005.28-13.13c.03-.44.23-.85.55-1.14a1.66 1.66 0 012.34.14c.3.33.45.76.42 1.2a29.81 29.81 0 01-5.96 14.95c-.24.32-.59.54-.98.61-.39.08-.8.02-1.15-.18a1.7 1.7 0 01-.75-.89c-.13-.38-.12-.79.02-1.16z" fill="#EB7789"/>
    <path d="M1349.26 797.62c.12-.1.25-.18.39-.25a26.91 26.91 0 0010.78-9.15c.23-.38.6-.64 1.02-.75.43-.1.88-.03 1.26.2.37.22.64.59.75 1.02.11.42.04.87-.19 1.25a29.7 29.7 0 01-12.22 10.44 1.66 1.66 0 01-2.11-.6 1.7 1.7 0 01-.24-1.15c.06-.4.26-.76.57-1.02l-.01.01z" fill="#EB7789"/>
    <path d="M1275.68 755.19c.06-.14.14-.28.23-.4a27 27 0 005.27-13.12 1.67 1.67 0 011.75-1.55c.44.03.85.23 1.14.56.29.33.44.76.42 1.2a29.76 29.76 0 01-5.95 14.94c-.24.31-.59.53-.98.6-.39.08-.8.02-1.15-.18a1.67 1.67 0 01-.74-.9c-.14-.37-.13-.78.01-1.15z" fill="#EB7789"/>
    <path d="M1246.28 814.28c-.09.12-.19.23-.31.32a26.93 26.93 0 00-9.04 10.9 1.66 1.66 0 01-3.04.04c-.18-.4-.2-.85-.05-1.25a29.77 29.77 0 0110.2-12.42 1.66 1.66 0 012.24 2.42z" fill="#F4E6DD"/>
    <path d="M1286.86 773.27c-.07.14-.16.27-.26.38a26.96 26.96 0 00-6.1 12.77c-.05.44-.28.83-.62 1.1a1.66 1.66 0 01-2.67-1.51 29.88 29.88 0 016.9-14.53c.27-.3.63-.5 1.03-.57a1.68 1.68 0 011.84 1.2c.1.4.07.81-.11 1.17l-.01-.01z" fill="#F4E6DD"/>
    <path d="M1356.15 812.9c-.15 0-.3-.02-.44-.06a27 27 0 00-14.17.31 1.67 1.67 0 01-1.23-.1 1.64 1.64 0 01-.81-.93 1.65 1.65 0 01.91-2.1 29.92 29.92 0 0116.09-.4 1.7 1.7 0 011.24 1.79 1.7 1.7 0 01-.52 1.03c-.3.28-.68.43-1.08.44l.01.01z" fill="#F4E6DD"/>
    <path d="M1298.84 893.29c-.01-.15.01-.3.04-.45a26.92 26.92 0 00-.35-14.16 1.68 1.68 0 01.1-1.23 1.66 1.66 0 012.15-.77c.39.17.7.49.87.88a29.89 29.89 0 01.46 16.08 1.66 1.66 0 01-2.83.72 1.68 1.68 0 01-.44-1.08z" fill="#F4E6DD"/>
    <path d="M1369.04 848.38c-.15 0-.3-.02-.45-.05a26.96 26.96 0 00-14.16.3 1.67 1.67 0 01-1.23-.1 1.7 1.7 0 01-.82-.92 1.66 1.66 0 01.92-2.1 29.89 29.89 0 0116.09-.4 1.66 1.66 0 01-.36 3.27h.01z" fill="#F4E6DD"/>
    <path d="M1270.12 872.39c-.1.11-.21.21-.34.3-4 2.65-7.22 6.32-9.32 10.64a1.64 1.64 0 01-2.17.89c-.4-.18-.72-.5-.89-.9a1.64 1.64 0 010-1.27 29.79 29.79 0 0110.55-12.13 1.65 1.65 0 011.13-.25c.4.05.76.25 1.02.55.27.3.41.68.41 1.08.01.4-.13.79-.39 1.1v-.01z" fill="#F4E6DD"/>
    <path d="M1323.25 776.22c-.1-.12-.18-.25-.25-.4a27.04 27.04 0 00-8.91-11.04 1.69 1.69 0 01-.73-1.04 1.66 1.66 0 012.51-1.75 29.94 29.94 0 0110.17 12.51 1.65 1.65 0 01-1.8 2.29 1.66 1.66 0 01-1-.58h.01z" fill="#F4E6DD"/>
    <path d="M1330.46 844.5c-.15 0-.3-.02-.44-.05a27.09 27.09 0 00-14.17.3c-.41.14-.85.1-1.24-.08a1.68 1.68 0 01-.84-.93 1.67 1.67 0 01.95-2.1 29.82 29.82 0 0116.09-.41 1.69 1.69 0 011.24 1.79c-.05.4-.23.76-.52 1.03-.3.27-.68.43-1.08.44h.01z" fill="#F4E6DD"/>
    <path d="M1242.33 778.99a1.98 1.98 0 01-.37-.26 27.18 27.18 0 00-12.7-6.32 1.68 1.68 0 01-1.1-.64 1.68 1.68 0 01-.32-1.23 1.65 1.65 0 011.87-1.4 30 30 0 0114.45 7.12 1.65 1.65 0 01-.68 2.82c-.38.11-.79.07-1.15-.1z" fill="#F4E6DD"/>
    <path d="M1232.66 863.22c-.15 0-.3 0-.44-.04a27 27 0 00-14.17.3c-.4.13-.84.09-1.22-.1a1.66 1.66 0 01-.82-.92 1.64 1.64 0 01.92-2.1 29.9 29.9 0 0116.08-.4c.39.1.73.33.95.66a1.65 1.65 0 01-1.3 2.6z" fill="#F4E6DD"/>
  </g>
  <path d="M257.5 593.92l4.43-15.84a16.8 16.8 0 0120.35-11.75v0a16.8 16.8 0 0020.35-11.75v0a16.8 16.8 0 0120.35-11.75l15.93 4.09" stroke="#9C03F8" stroke-width="8" stroke-linecap="round"/>
  <path d="M107 521.32l3.66-13.66a14.14 14.14 0 0117.32-10v0a14.14 14.14 0 0017.32-10v0a14.14 14.14 0 0117.32-10l13.66 3.66" stroke="#5DD0D8" stroke-width="5" stroke-linecap="round"/>
  <path d="M820.36 872.66l3.66-13.66a14.14 14.14 0 0117.32-10v0a14.14 14.14 0 0017.32-10v0a14.14 14.14 0 0117.32-10l13.66 3.66" stroke="#5DD0D8" stroke-width="5" stroke-linecap="round"/>
  <path d="M1009 189.32l3.66-13.66a14.14 14.14 0 0117.32-10v0a14.14 14.14 0 0017.32-10v0a14.14 14.14 0 0117.32-10l13.66 3.66" stroke="#F930CE" stroke-width="5" stroke-linecap="round"/>
  <path d="M1505 967.32l3.66-13.66a14.14 14.14 0 0117.32-10v0a14.14 14.14 0 0017.32-10v0a14.14 14.14 0 0117.32-10l13.66 3.66" stroke="#F930CE" stroke-width="5" stroke-linecap="round"/>
  <path d="M1826.57 86v14.14c0 7.81-6.33 14.14-14.14 14.14v0a14.15 14.15 0 00-14.15 14.15v0c0 7.8-6.33 14.14-14.14 14.14H1770" stroke="#5DD0D8" stroke-width="5" stroke-linecap="round"/>
  <circle cx="1214.5" cy="215.5" r="5.5" fill="#F930CE"/>
  <circle cx="1790.5" cy="439.5" r="5.5" fill="#F930CE"/>
  <circle cx="315.5" cy="105.5" r="5.5" fill="#F930CE"/>
  <circle cx="426" cy="969" r="4" fill="#F930CE"/>
  <circle cx="1723.5" cy="898.5" r="5.5" fill="#9C03F8"/>
  <circle cx="884.5" cy="681.5" r="5.5" fill="#9C03F8"/>
  <circle cx="1422" cy="350" r="3" fill="#C4C4C4"/>
  <circle cx="763" cy="426" r="3" fill="#C4C4C4"/>
  <circle cx="1081" cy="518" r="3" fill="#C4C4C4"/>
  <circle cx="95" cy="634" r="3" fill="#C4C4C4"/>
  <defs>
    <clipPath id="clip0">
      <path fill="white" transform="rotate(-24.85 1485.82 -2414.34)" d="M0 0h121v223H0z"/>
    </clipPath>
    <clipPath id="clip1">
      <path fill="white" transform="rotate(27.02 -1234.05 1469.64)" d="M0 0h100.45v215.6H0z"/>
    </clipPath>
    <clipPath id="clip2">
      <path fill="white" transform="translate(1381 146)" d="M0 0h260v260H0z"/>
    </clipPath>
    <clipPath id="clip3">
      <path fill="white" transform="rotate(36.22 -1000.96 561.6)" d="M0 0h153v153H0z"/>
    </clipPath>
    <clipPath id="clip4">
      <path fill="white" transform="rotate(36.22 122.26 896.46)" d="M0 0h293.36v293.36H0z"/>
    </clipPath>
    <clipPath id="clip5">
      <path fill="white" transform="rotate(-45.89 1560.78 -960.4)" d="M0 0h173.7v173.7H0z"/>
    </clipPath>
  </defs>
</svg>
