<svg fill="none" xmlns="http://www.w3.org/2000/svg" viewBox="0 0 1920 1080">
  <g clip-path="url(#clip0)">
    <path fill="#FFBF4C" d="M0 0h1920v1080H0z"/>
    <path d="M2126.45 267.36c0 203.63-136 393-339.66 393-203.66 0-388.67-155.36-390.19-393C1395.19 48 1553.91-99 1773.22-99c203.62 0 353.23 162.74 353.23 366.36z" fill="#F2B645"/>
    <path d="M1704.89-157.32c-244.06 4.26-364.24 144.32-374.61 353.15-13.66 275.43 222.13 447.66 446.99 440.17 233.42-7.81 298.81-201.84 320.54-412.5C2119 18.13 1930.7-161.26 1704.89-157.32z" fill="#FFD089"/>
    <path d="M2077.07 220.73c-20.54 199.07-82.34 382.44-302.92 389.82-212.5 7.1-435.33-155.66-422.41-415.95 9.79-197.4 123.46-326 354-333.73 240.4-8.04 391.35 165.8 371.33 359.86z" fill="#FFEDE1"/>
    <path d="M1427.38 73.24s-13.41 23.83 0 53.61c0 0 3 21.6 18.61 35.74-3-.74 8.47 2.43 0 8.76 0 0-24.27 13.69-19 35.29 0 0-4.21 28.45 25.29 37.93 0 0-30 17.78-23.18 35.49 0 0-31.39 6.12 7.75 79.34.68-.52 7.53 20 15.43 20a70.93 70.93 0 013.72 19.51s7.91 32.14 37.41 37.93c0 0 13.16 3.69 16.33 2.11 0 0-1.06 22.65 33.18 44.25 0 0 9 6.32 17.91 5.79 0 0 .53 14.22 31.61 26.87 0 0 26.86.52 33.19 6.84 0 0 30 10 42.14-19 0 0 5.27-10.54 13.17 1 0 0 11.06 9.49 21.07 6.85 0 0 3.16 8.43 15.27 8.43 0 0 13.7 21.78 34.77 4.31 0 0 6.32-6.42 6.85 1.48 0 0 1.58 37.41 54.26 39.51 0 0 46.88 4.74 79-31.6 0 0 24.24-25.29 25.29-36.35 0 0 27.92-26.34 23.18-57.42.52 3.69-1-8.86-9-12.85 0 0 19.9 3.68 34.29-12.24 0 0 13.78-12.86 11.64-22.35 0 0 29.08-9.8 38-43.78 0 0 15.31-34.6-12.24-53 0 0 28.47-1.84 27.24-42.25 0 0 7.35-41.95-19-57.26 0 0 7-22-7-36.74 0 0-8.57-17.45-25.41-16.53 0 0 31.23-11.94 24.19-52.66 0 0-1.54-14.7-10.72-19.29 0 0-13.17-11.63-17.45-27.86-.31-.61-11-14.7-22.35-13.78 0 0 5.82-10.41-20.52-22.65.31 0-17.75-19.29-39.18-10.41 0 0 12.24-23.88-11.95-35.21-.61-.61-20.2-25.72-37.35-14.7 0 0-3.37-24.49-26.63-30.31-.62-.61-34.3-15-75.93-6.12 0 0-32.76 16.53-40.11 36.13 0 0-7.66 15.61-3.37 23.57 0 0-11.94-11-20.82.31 0 0-2.14-30-52-31.23 0 0-33.06 4-35.82 12.86 0 0-28.17-10.41-51.74 1.83 0-.91-41.33 17.76-37 66.75 0 0-21.12-8.57-41.64 9.8-.16.12-29.85 24.06-31.38 43.3z" fill="url(#paint0_radial)"/>
    <path opacity=".5" d="M1427.38 73.24s-13.41 23.83 0 53.61c0 0 3 21.6 18.61 35.74-3-.74 8.47 2.43 0 8.76 0 0-24.27 13.69-19 35.29 0 0-4.21 28.45 25.29 37.93 0 0-30 17.78-23.18 35.49 0 0-31.39 6.12 7.75 79.34.68-.52 7.53 20 15.43 20a70.93 70.93 0 013.72 19.51s7.91 32.14 37.41 37.93c0 0 13.16 3.69 16.33 2.11 0 0-1.06 22.65 33.18 44.25 0 0 9 6.32 17.91 5.79 0 0 .53 14.22 31.61 26.87 0 0 26.86.52 33.19 6.84 0 0 30 10 42.14-19 0 0 5.27-10.54 13.17 1 0 0 11.06 9.49 21.07 6.85 0 0 3.16 8.43 15.27 8.43 0 0 13.7 21.78 34.77 4.31 0 0 6.32-6.42 6.85 1.48 0 0 1.58 37.41 54.26 39.51 0 0 46.88 4.74 79-31.6 0 0 24.24-25.29 25.29-36.35 0 0 27.92-26.34 23.18-57.42.52 3.69-1-8.86-9-12.85 0 0 19.9 3.68 34.29-12.24 0 0 13.78-12.86 11.64-22.35 0 0 29.08-9.8 38-43.78 0 0 15.31-34.6-12.24-53 0 0 28.47-1.84 27.24-42.25 0 0 7.35-41.95-19-57.26 0 0 7-22-7-36.74 0 0-8.57-17.45-25.41-16.53 0 0 31.23-11.94 24.19-52.66 0 0-1.54-14.7-10.72-19.29 0 0-13.17-11.63-17.45-27.86-.31-.61-11-14.7-22.35-13.78 0 0 5.82-10.41-20.52-22.65.31 0-17.75-19.29-39.18-10.41 0 0 12.24-23.88-11.95-35.21-.61-.61-20.2-25.72-37.35-14.7 0 0-3.37-24.49-26.63-30.31-.62-.61-34.3-15-75.93-6.12 0 0-32.76 16.53-40.11 36.13 0 0-7.66 15.61-3.37 23.57 0 0-11.94-11-20.82.31 0 0-2.14-30-52-31.23 0 0-33.06 4-35.82 12.86 0 0-28.17-10.41-51.74 1.83 0-.91-41.33 17.76-37 66.75 0 0-21.12-8.57-41.64 9.8-.16.12-29.85 24.06-31.38 43.3z" fill="url(#paint1_radial)"/>
    <path opacity=".5" d="M1660.66 169.3s18.82 9.42 20.84 25.55c-.67-1.34 4.7 26.2-13.44 30.92l-26.89 5.37s30.25 2.69 34.95 8.74c0 0 5.38 5.38-.37 17.3l-9.86 14.82s16-14.8 26.7-11.1c11.65 4 13.18 14.57 8.23 25.08 0 0 9.45-21.38 20.14-18.91 3.36.77 6.3.05 9.66 1.89 7.28 4 9.63 13.87 13.36 20.7.14-4.55.36-18.07 6.57-18.9 0 0 10.28-3.28 20.14 9-5.49-6.86-14.5-20.37-6.89-28.43 8.56-9.07 21.74-9.8 32.78-5.26 0 0-30.82-7-25.89-27.13-9.58-2.34-23.56-3.9-30.84-11.18-5.78-5.8 10.15-12.41 14.39-12.68 2.98-.13 5.96.26 8.81 1.15a172.1 172.1 0 0111.75 5.45c.41-.41-28.36-18.33-17.67-32.4-.45.6-4.08 1.53-5 1.73-4 .86-10.24-2.07-13.53-4.5-4.65-3.41-6.43-9-6.12-14.56-.82.82-5.43 21.37-17.72 19.3 0 0-19.68-1.22-24.62-19.3 1.53 5.58 4.76 15.78.3 20.75-5.79 6.45-23.92-.62-29.78-3.4z" fill="#EDE2E2"/>
    <path d="M1662.78 171.18s18.13 9.07 20.08 24.61c-.65-1.29 4.53 25.26-13 29.8l-25.86 5.18s29.15 2.59 33.68 8.42c0 0 5.19 5.19-.35 16.67l-9.51 14.26s15.43-14.25 25.73-10.7c11.23 3.87 12.71 14.05 7.94 24.18 0 0 9.11-20.61 19.4-18.23 3.24.74 6.08.05 9.31 1.82 7 3.84 9.28 13.37 12.88 20 .14-4.39.35-17.42 6.33-18.22 0 0 9.9-3.17 19.41 8.72-5.29-6.62-14-19.64-6.64-27.41 8.25-8.74 20.95-9.44 31.59-5.07 0 0-29.7-6.74-24.95-26.14-9.24-2.25-22.71-3.76-29.72-10.78-5.57-5.58 9.78-12 13.87-12.22 2.87-.12 5.74.25 8.48 1.11 1.22.35 11.41 5.17 11.33 5.25.4-.4-27.33-17.67-17-31.21-.43.57-3.93 1.47-4.82 1.66-3.87.83-9.87-2-13-4.33-4.48-3.3-6.2-8.63-5.91-14.05-.79.8-5.22 20.6-17.07 18.62 0 0-19-1.19-23.72-18.62 1.47 5.38 4.58 15.22.28 20-5.65 6.16-23.12-.65-28.76-3.32z" fill="#FFF5EB"/>
    <g opacity=".6" fill="#FFEDE1">
      <path opacity=".6" d="M1662.78 171.18a9040.82 9040.82 0 00-108.24-3.51c-18-.45-36.08-.85-54.12-1-9-.1-18-.14-27-.06-4.5.05-9 .12-13.49.29-2.25.08-4.49.18-6.71.34-2.17.12-4.33.38-6.47.77l-.69-2.92c2.31-.41 4.65-.66 7-.75 2.28-.14 4.55-.2 6.81-.26 4.54-.1 9.06-.1 13.58-.1 9 .05 18.06.22 27.09.44 18 .44 36.1 1.08 54.13 1.78 36.03 1.4 72.06 3.06 108.11 4.98z"/>
      <path opacity=".6" d="M1497.35 14.81c.49 1 1.04 1.98 1.64 2.92.58 1 1.25 2 1.91 2.94 1.28 2 2.77 3.82 4.15 5.73 1.38 1.91 2.95 3.71 4.42 5.56 1.47 1.85 3.08 3.62 4.61 5.43 1.53 1.81 3.13 3.59 4.73 5.34l4.8 5.28 9.89 10.31c13.36 13.59 27.39 26.53 41.53 39.33a1388.12 1388.12 0 0043.35 37.37l11 9.13c3.67 3 7.33 6.1 11.07 9.07l22.3 18-22.54-17.67c-3.77-2.92-7.48-5.93-11.19-8.92l-11.14-9c-14.83-12-29.46-24.28-43.88-36.83-14.32-12.63-28.54-25.4-42.12-38.86l-10.07-10.22-4.9-5.25c-1.64-1.75-3.27-3.5-4.83-5.32-1.56-1.82-3.19-3.58-4.73-5.42a245.64 245.64 0 01-4.55-5.58c-1.49-1.89-3-3.79-4.32-5.81-.69-1-1.4-2-2-3a32.08 32.08 0 01-1.9-3.3l2.77-1.23z"/>
      <path opacity=".6" d="M1644 230.77c-8.51.42-17 .94-25.48 1.86-8.48.92-16.88 2.22-25.33 3.33-4.23.55-8.46 1.07-12.69 1.57-4.24.48-8.45 1-12.65 1.61-8.4 1.3-16.74 3-25.11 4.61a294.13 294.13 0 01-25.31 4c-4.25.44-8.57.71-12.82.86-4.25.15-8.51.35-12.78.48-8.53.24-17.09.3-25.66-.17-4.28-.25-8.56-.6-12.83-1.19-4.28-.59-8.52-1.4-12.71-2.44l.77-2.9c4.06 1.07 8.18 1.91 12.34 2.53 4.17.63 8.38 1 12.6 1.34 8.44.57 16.94.62 25.44.49 4.25-.07 8.5-.19 12.76-.31s8.46-.31 12.69-.69c8.44-.78 16.83-2.18 25.2-3.67 8.37-1.49 16.76-3.1 25.22-4.29 4.23-.59 8.5-1 12.73-1.43 4.23-.43 8.47-.87 12.7-1.35 8.46-.95 16.9-2.11 25.4-2.86s17-1.15 25.52-1.38z"/>
      <path opacity=".6" d="M1504 445.5a2168.38 2168.38 0 0138.08-46.57 2310.17 2310.17 0 0139.31-45.52c13.36-14.95 27-29.7 41.11-43.9a501.74 501.74 0 0121.77-20.75c7.4-6.77 15.27-13 23.56-18.64a211.37 211.37 0 00-23.48 18.74 495.22 495.22 0 00-21.67 20.83 1089.69 1089.69 0 00-40.93 44.06 2080.7 2080.7 0 00-39.12 45.66c-12.83 15.4-25.46 31-37.86 46.7l-.77-.61z"/>
      <path opacity=".6" d="M1674.68 508.87a524.76 524.76 0 01-3.68-57.28c-.11-9.57.01-19.14.36-28.7.35-9.56.99-19.1 1.92-28.63a405.76 405.76 0 019.27-56.6 344 344 0 018-27.53 266.88 266.88 0 0110.88-26.53 267.32 267.32 0 00-10.76 26.57c-3 9.07-5.71 18.25-7.9 27.55a405.19 405.19 0 00-9 56.58 515.86 515.86 0 00-1.79 28.61c-.33 9.55-.41 19.11-.24 28.67.26 19.1 1.56 38.19 3.9 57.15l-.96.14z"/>
      <path opacity=".6" d="M1743.07 287.15l4.61 15.22a199.66 199.66 0 013.78 15.44l6.64 31.09c4.39 20.73 8.46 41.58 10.49 62.7a265.53 265.53 0 011.26 31.79c-.12 5.3-.48 10.6-.89 15.89-.41 5.28-.87 10.57-1.42 15.84a442.15 442.15 0 01-1.93 15.8 160.88 160.88 0 01-2.8 15.68 91.88 91.88 0 01-4.93 15.18 43.07 43.07 0 01-3.82 7.06 19.37 19.37 0 01-5.7 5.75l-.51-.85a18.57 18.57 0 005.41-5.45 43.9 43.9 0 003.74-6.9 89.86 89.86 0 004.92-15 163.13 163.13 0 002.84-15.58c.78-5.24 1.43-10.5 2-15.76a603 603 0 001.48-15.81c.43-5.27.81-10.56.94-15.85a264.5 264.5 0 00-1.13-31.72c-2-21.1-5.94-42-10.25-62.7l-6.52-31.12a200.54 200.54 0 00-3.7-15.45l-4.51-15.25z"/>
      <path opacity=".6" d="M1945.38 436.46c-16.72-10.84-33.38-21.87-49.38-33.75a482.64 482.64 0 01-46-38.22 351.38 351.38 0 01-39.5-44.9c-5.94-8-11.88-16-18.57-23.35a109.47 109.47 0 00-10.73-10.35 64.58 64.58 0 00-12.4-8.24c9 4.27 16.75 10.93 23.56 18.18 6.81 7.25 12.86 15.28 18.87 23.22 12 15.83 25 31 39.5 44.66a481.35 481.35 0 0046 38.08c16 11.79 32.55 23 49.24 33.83l-.59.84z"/>
      <path opacity=".6" d="M2021.42 299a3096.53 3096.53 0 01-57.67-10.55 4361 4361 0 01-57.5-11.48c-19.12-4-38.21-8.26-57.17-13a614.87 614.87 0 01-28.27-7.73 231.12 231.12 0 01-13.9-4.65c-2.29-.85-4.55-1.78-6.78-2.8a35.54 35.54 0 01-6.37-3.6c2 1.41 4.14 2.61 6.38 3.58 2.23 1 4.5 1.92 6.79 2.76 4.58 1.7 9.24 3.18 13.91 4.59 9.36 2.8 18.82 5.26 28.3 7.6 19 4.66 38.08 8.8 57.21 12.76a3027.3 3027.3 0 0057.54 11.24c19.21 3.58 38.44 7 57.7 10.29l-.17.99z"/>
      <path opacity=".6" d="M1994.41 140.9l.02.05.03.02h-.06l-.23-.05a4 4 0 00-.6 0c-.42 0-.86 0-1.3.08-.88.1-1.76.23-2.64.38-1.76.29-3.52.64-5.28 1-3.51.72-7 1.49-10.53 2.26-7 1.55-14.05 3.1-21.09 4.54a380.49 380.49 0 01-21.24 3.78c-7.1 1.15-14.3 1.65-21.49 1.5 7.19.05 14.37-.55 21.45-1.8 7.1-1.1 14.15-2.51 21.17-4 7.02-1.47 14-3.14 21-4.77 3.5-.81 7-1.63 10.52-2.4 1.76-.37 3.52-.74 5.3-1.06.89-.16 1.79-.3 2.7-.41a20.29 20.29 0 012.13-.11l.42.09.26.1c.12.09.21.18.29.3l-.83.5z"/>
      <path opacity=".6" d="M1899.35-10.06c-22.93 31-46.19 61.77-69.76 92.28a3895.28 3895.28 0 01-35.88 45.36l-9.19 11.16c-3 3.74-6.22 7.37-9.32 11.05-3.1 3.68-6.36 7.25-9.54 10.87l-2.41 2.7-2.51 2.6-5 5.22 5-5.24 2.49-2.62 2.4-2.7c3.17-3.63 6.43-7.19 9.49-10.91 3.06-3.72 6.24-7.34 9.28-11.09l9.13-11.2a2468.74 2468.74 0 0035.68-45.51 5209.04 5209.04 0 0069.35-92.56l.79.59z"/>
      <path opacity=".6" d="M1679.49-37.45a109.2 109.2 0 00-4.49 11.59c-1.32 3.94-2.46 8-3.49 12a208.33 208.33 0 00-4.65 24.52 241.68 241.68 0 00-1 49.87 269.6 269.6 0 008.84 49.14 313.25 313.25 0 0017.15 46.93 314.12 314.12 0 01-17.39-46.87 270.08 270.08 0 01-9.1-49.16 241.53 241.53 0 01.78-50c1.02-8.3 2.53-16.52 4.54-24.63 1-4.06 2.14-8.09 3.45-12.06 1.28-4 2.78-7.92 4.5-11.74l.86.41z"/>
      <path opacity=".6" d="M1703-17.07a52.44 52.44 0 017.33 8.42c1 1.55 2.12 3.08 3.12 4.65l2.81 4.85c.48.8.91 1.63 1.29 2.48l1.23 2.52c.79 1.69 1.69 3.34 2.33 5.09l2.09 5.2c.34.87.73 1.73 1 2.61l.86 2.67a182.97 182.97 0 015.85 21.58l2 11c.19.91.3 1.84.4 2.77l.33 2.78.66 5.56.63 5.57c.15 1.86.22 3.72.33 5.59l.61 11.18.08 1.39v9.8c0 3.73.05 7.46-.1 11.19l-.64 11.17-.32 5.59c-.13 1.86-.17 3.72-.41 5.58l-2.48 22.29 2-22.26c.21-1.86.24-3.72.33-5.58l.26-5.58.5-11.16c.06-.93.06-1.86.05-2.79V88.94l-.07-1.39-.66-11.15c-.12-1.85-.2-3.71-.35-5.57l-.65-5.54a205.56 205.56 0 00-8.94-43.63l-.83-2.66c-.28-.89-.66-1.74-1-2.61l-2-5.2c-.62-1.76-1.49-3.41-2.26-5.1l-1.19-2.52c-.39-.84-.78-1.69-1.25-2.49l-2.7-4.89c-.95-1.59-2-3.13-3-4.7a52.42 52.42 0 00-7.24-8.56z"/>
    </g>
    <path d="M1711.36 243.72s5.22-13.76 11.43-11.28c.69.63 1.24 1.4 1.61 2.25a7.64 7.64 0 00-2.23-3.92c-6.21-2.49-11.43 11.28-11.43 11.28-1.7 3.71 0 8.28 0 8.28.23 1.18.59 2.33 1.07 3.43-.16-.53-.31-1.1-.45-1.76 0 0-1.71-4.57 0-8.28z" fill="#DB6A5A"/>
    <path d="M1722.17 248.06c3-6.31 3-10.63 2.23-13.37a6.59 6.59 0 00-1.61-2.25c-6.21-2.48-11.43 11.28-11.43 11.28-1.71 3.71 0 8.28 0 8.28.14.66.29 1.23.45 1.76 3.51 7.63 9.9-5.52 10.36-5.7z" fill="#E69378"/>
    <path d="M1710.55 217.89c.91.3 1.72.85 2.33 1.6a4.83 4.83 0 00-2.73-2.23 4.55 4.55 0 01-2.12-1.6 4.8 4.8 0 002.52 2.23z" fill="#E69378"/>
    <path d="M1700.92 212.53s.92-10.32 5.1-4.44c0 0 0-.1-.07-.14-4.47-6.92-5.44 3.95-5.44 3.95-2 5.93 2.25 14.18 2.48 14.4.4.96.9 1.88 1.49 2.74a16.7 16.7 0 01-1.08-2.11c-.23-.23-4.4-8.47-2.48-14.4z" fill="#DB6A5A"/>
    <path d="M1706.62 210.65a8.08 8.08 0 001.41 5 8.26 8.26 0 01-1-4.38c.08-.95-.16-1.9-.67-2.7l-.34-.49c.46.77.67 1.67.6 2.57z" fill="#E69378"/>
    <path d="M1710.74 228.55c3.05-3.37 3-6.4 2.41-8.42a3.64 3.64 0 00-.27-.64 5.04 5.04 0 00-2.33-1.6 4.8 4.8 0 01-2.52-2.23 8.08 8.08 0 01-1.41-5c.07-.9-.14-1.79-.6-2.56-4.18-5.88-5.1 4.44-5.1 4.44-2 5.93 2.25 14.17 2.48 14.4.31.73.67 1.43 1.08 2.11 3.42 4.85 6.26-.5 6.26-.5z" fill="#E69378"/>
    <path d="M1693.31 239.41s-3.37 2.68 0 3.9c0 0 4.5 3.44 4.95-1.95 0 0-.67-4.81-4.95-1.95z" fill="#F1CBBB"/>
    <path d="M1691.81 223.83s5.55 1.22 5.55-5.47c0 0-2.52-4.66-6.66-1.51-.09-.23-6.47 4.72 1.11 6.98z" fill="#F1CBBB"/>
    <path d="M1694.1 188.36c.24-.1.49-.18.74-.22.33-.06.66-.1 1-.11h2.96c4.74-.23 7.38.85 8.87 2-1.36-1.3-4-2.7-9.39-2.45h-2.96a7.9 7.9 0 00-1 .12c-.26.03-.51.1-.75.22a.6.6 0 00-.21.14.6.6 0 00-.13.21.68.68 0 00.23.51c.14.16.3.3.48.41a.59.59 0 01-.19-.48.58.58 0 01.13-.22c.06-.06.14-.1.22-.13z" fill="#DB6A5A"/>
    <path d="M1695.27 189.94c.39.15.76.34 1.1.58.13.1.24.21.37.3.3.16.61.28.94.35l.49.16.58.17.39.12c.73.23 1.44.49 2.14.78a19 19 0 012.39 1.21l.56.35.28.19.28.19s5.63 4.73 4.28-2.25a6.82 6.82 0 00-1.42-2c-1.49-1.15-4.13-2.23-8.87-2h-2.96a7.7 7.7 0 00-1 .11c-.25.04-.5.12-.74.22a.53.53 0 00-.21.13.6.6 0 00-.13.22.59.59 0 00.19.48l.48.3.86.39z" fill="#E69378"/>
    <path d="M1695.84 275.14c-2.49-.74-5.19-2-6.18-4.57-.33-.9-.57-1.84-.71-2.8-.38-2.36-.37-5.13.54-6.86l.19-.33a5.1 5.1 0 00-1.4 1.74c-.91 1.72-.92 4.49-.54 6.85.15.95.39 1.9.71 2.8 1 2.6 3.7 3.83 6.19 4.57 2.49.74 5.8 1.41 7.48-1.32 0-.05.05-.12.09-.18-1.77 1.26-4.28.73-6.37.1z" fill="#F39579"/>
    <path d="M1701.87 265.87c-1.75-3.49-8.44-8.19-12.19-5.29l-.19.33c-.91 1.73-.92 4.5-.54 6.86.14.96.38 1.9.71 2.8 1 2.6 3.69 3.83 6.18 4.57 2.09.63 4.6 1.16 6.37-.1 1.48-2.62.93-6.64-.34-9.17z" fill="#FFCFAD"/>
    <path d="M1760.82 272.09a5.6 5.6 0 011.47 2c.44.79.81 1.61 1.08 2.47.3.95.35 1.96.14 2.93a5.72 5.72 0 01-1.36 2.6 8.27 8.27 0 01-3.84 1.91c-2.56.8-5.29.86-7.89.19a7.65 7.65 0 01-5.39-5.4 7.3 7.3 0 013.1-7.2 11.08 11.08 0 017.95-1.63c1.64.24 3.67.8 4.74 2.16" fill="#F7A983"/>
    <path d="M1760.66 273a5.2 5.2 0 011.34 1.79c.4.71.74 1.46 1 2.24a5.17 5.17 0 01-1.1 5 7.56 7.56 0 01-3.48 1.72 13 13 0 01-7.16.17 6.94 6.94 0 01-4.88-4.88 6.63 6.63 0 012.81-6.54 10 10 0 017.21-1.47c1.48.21 3.32.72 4.29 1.95" fill="#EFB7A0"/>
    <path d="M1763.16 252.12a14.73 14.73 0 0110.29-6.12 8.23 8.23 0 014.51.58c-3.4-3.65-11.36-.06-11.36-.06-12.59 8.9-5 19.93-5.12 19.56.37.28.75.53 1.15.76a13.43 13.43 0 01.53-14.72z" fill="#E69378"/>
    <path d="M1778.79 256.14c.55-1.72.78-3.52.67-5.32a6.5 6.5 0 00-1.5-4.2 8.23 8.23 0 00-4.51-.58 14.66 14.66 0 00-10.29 6.08 13.49 13.49 0 00-2.48 7.3 13.5 13.5 0 001.95 7.46c3.35 1.91 6.92.78 9.69-1.59a26.39 26.39 0 005.8-7.58c.27-.5.49-1.03.67-1.57z" fill="#FCE7D4"/>
    <path d="M1767.05 218.36c3-.33 6.53-1 9.09-2.55a5.66 5.66 0 002.9-4.58 6.4 6.4 0 00-.86-2.92 15.9 15.9 0 00-8.21-7 26.7 26.7 0 00-10.82-1.61c-2.19 0-4.35.45-6.36 1.32a7.13 7.13 0 00-4 4.85c-.47 2.48.82 5 2.62 6.78 4 3.93 10.3 5.11 15.67 5.71" fill="#FCE7D4"/>
    <path d="M1766.62 217.47c2.55-.31 5.64-.88 7.86-2.31A5.16 5.16 0 001777 211a6.11 6.11 0 00-.75-2.64 13.93 13.93 0 00-7.1-6.34 22.07 22.07 0 00-9.36-1.44c-1.89 0-3.77.4-5.49 1.19a6.4 6.4 0 00-3.49 4.38 7.22 7.22 0 002.27 6.13c3.46 3.56 8.9 4.62 13.55 5.17" fill="#FFF6EE"/>
    <path d="M1745.54 521c-6.89 3.08-21 .43-27.1-2.42a19.08 19.08 0 01-8.92-8.79c-1.86-3.57-4.1-10.67-3-14.82 4.77-18.2-16.05-25.25-14-23.77-19.5-10.4-20.68-55-20.64-55.76-3 102.48-12.61 93.65-12.61 94.9-27 26.2-99.15-19.85-96.58-26.51-60.92-26.74-43-55.85-43-55.85-8.71 2.1-18.72-2.68-26.28-6.5-22.44-11.31-36.19-34.38-47.69-56a241.78 241.78 0 01-21.49-56 158.4 158.4 0 01-4-21.93c-5.17 8.91-6.86 29.88 16.4 73.39.68-.52 7.53 20 15.43 20a71.15 71.15 0 013.69 19.49s7.9 32.14 37.4 37.93c0 0 13.17 3.69 16.33 2.11 0 0-1.05 22.65 33.19 44.25 0 0 8.95 6.32 17.91 5.79 0 0 .52 14.22 31.6 26.87 0 0 26.87.52 33.19 6.84 0 0 30 10 42.14-19 0 0 5.27-10.53 13.17 1 0 0 11.06 9.49 21.07 6.85 0 0 3.16 8.43 15.28 8.43 0 0 13.7 21.78 34.77 4.31 0 0 3.27-3.32 5.3-2.24 6.62-15.54 8.45-35.38 8.45-35.38-3.28 10.9-8.49 27.62-20.01 32.81z" fill="#FFC2A4"/>
    <g opacity=".4" fill="#F9F9F9">
      <path opacity=".4" d="M1518.1 314.93c2.63 0 4.77-1.33 4.77-2.98s-2.14-2.98-4.77-2.98c-2.63 0-4.77 1.33-4.77 2.98s2.14 2.98 4.77 2.98z"/>
      <path opacity=".4" d="M1555.25 323.81a3.87 3.87 0 100-7.74 3.87 3.87 0 000 7.74z"/>
      <path opacity=".4" d="M1603.53 202.91a2.57 2.57 0 100-5.14 2.57 2.57 0 000 5.14z"/>
      <path opacity=".4" d="M1656.59 300.76a1.62 1.62 0 000-3.24 1.62 1.62 0 000 3.24z"/>
      <path opacity=".4" d="M1754.37 118.84c2.28 0 4.12-3.67 4.12-8.2 0-4.53-1.84-8.2-4.12-8.2-2.28 0-4.12 3.67-4.12 8.2 0 4.53 1.84 8.2 4.12 8.2z"/>
      <path opacity=".4" d="M1539.69 98.39a2.4 2.4 0 100-4.8 2.4 2.4 0 000 4.8z"/>
      <path opacity=".4" d="M1915.59 85.22c1.2 3.25-2.82 6.28-6.28 6.28a6.28 6.28 0 01-6.29-6.28c0-3.47 9.1-11.27 12.57-11.27 3.47 0-.93 8.77 0 11.27z"/>
      <path opacity=".4" d="M1814.91 348.55a3.85 3.85 0 100-7.7 3.85 3.85 0 000 7.7z"/>
      <path opacity=".4" d="M1789.64 526.8c1.23-4.79 1.17-8.93-.13-9.27-1.3-.33-3.36 3.27-4.59 8.05-1.23 4.78-1.17 8.92.13 9.26 1.3.33 3.35-3.27 4.59-8.05z"/>
      <path opacity=".4" d="M1612 419.95a2.6 2.6 0 100-5.18 2.6 2.6 0 000 5.18z"/>
      <path opacity=".4" d="M1665.23 352.93c1.36 0 2.46-1.96 2.46-4.38s-1.1-4.38-2.46-4.38c-1.36 0-2.46 1.96-2.46 4.38s1.1 4.38 2.46 4.38z"/>
      <path opacity=".4" d="M1656.5 425.83c0 2-2 3.55-4.51 3.55s-7.52-1.59-7.52-3.55c0-1.96 5.58-5.3 8.07-5.3s3.96 3.34 3.96 5.3z"/>
      <path opacity=".4" d="M1607.61 5.93a7.96 7.96 0 00-1.94-2.52 2.74 2.74 0 01-.91-2.13c0-4.72-1.37-8.54-3.07-8.54-1.7 0-3.06 3.82-3.06 8.54a19.2 19.2 0 00.65 5.28c.72 2.52 4.36 7.7 7.53 6.13 1.84-.92 2.19-3.95.8-6.76z"/>
      <path opacity=".4" d="M1662.5 65.9a10.92 10.92 0 00-1.5-2.9.6.6 0 01-.16-.33.57.57 0 010-.26c.42-1.08.67-2.21.74-3.37 0-3.37-2-6.09-4.52-6.09-2.52 0-4.53 2.72-4.53 6.09-.04 1.36.3 2.7 1 3.86a15.21 15.21 0 011.66 3.31 26 26 0 003.59 6c.66.89 2.62 3.78 4.05 3.36 1.64-.48.81-4.11.61-5.2-.2-1.51-.52-3-.94-4.47z"/>
      <path opacity=".4" d="M1548.7 127.19c1.61 0 2.92-2.9 2.92-6.49 0-3.58-1.31-6.49-2.92-6.49-1.61 0-2.92 2.9-2.92 6.49 0 3.58 1.31 6.49 2.92 6.49z"/>
      <path opacity=".4" d="M1773.5 6.45a3.09 3.09 0 100-6.18 3.09 3.09 0 000 6.18z"/>
      <path opacity=".4" d="M1928.38 172.3c5.24-4.54 8.58-9.27 7.47-10.56-1.12-1.3-6.28 1.35-11.52 5.9-5.24 4.54-8.58 9.27-7.46 10.56 1.12 1.3 6.27-1.35 11.51-5.9z"/>
      <path opacity=".4" d="M1868.5 317a3.42 3.42 0 00-2.81 0c.53-1.8-.65-3.9-2.81-4.85-2.16-.95-4.84-.31-5.66 1.56-.82 1.87.39 4.21 2.7 5.22a4.75 4.75 0 004.5-.22 3.1 3.1 0 002 3 2.93 2.93 0 003.94-1.09c.64-1.33-.25-2.95-1.86-3.62z"/>
      <path opacity=".4" d="M1829.52 455.27a2.14 2.14 0 100-4.28 2.14 2.14 0 000 4.28z"/>
      <path opacity=".4" d="M1888.54 467.13c1.66 0 3-1.8 3-4s-1.34-4-3-4-3 1.8-3 4 1.34 4 3 4z"/>
      <path opacity=".4" d="M1720.47 392.83c.95 0 1.72-1.12 1.72-2.49 0-1.38-.77-2.49-1.72-2.49s-1.72 1.11-1.72 2.49c0 1.38.77 2.49 1.72 2.49z"/>
      <path opacity=".4" d="M1735.58 311.37c1.16 0 2.1-1.42 2.1-3.16 0-1.75-.94-3.16-2.1-3.16-1.16 0-2.1 1.41-2.1 3.16 0 1.75.94 3.16 2.1 3.16z"/>
      <path opacity=".4" d="M1458.88 97.75a2.08 2.08 0 100-4.16 2.08 2.08 0 000 4.16z"/>
      <path opacity=".4" d="M1718.83 93.59c1.4 0 2.54-2.54 2.54-5.67s-1.14-5.67-2.54-5.67c-1.4 0-2.54 2.54-2.54 5.67s1.14 5.67 2.54 5.67z"/>
      <path opacity=".4" d="M1841.17 107.64c4.51-2.6 7.6-5.7 6.9-6.9-.69-1.2-4.91-.07-9.42 2.53-4.51 2.6-7.61 5.7-6.91 6.9.7 1.2 4.92.07 9.43-2.53z"/>
      <path opacity=".4" d="M1783.49 448.04a1.79 1.79 0 100-3.58 1.79 1.79 0 000 3.58z"/>
      <path opacity=".4" d="M1476.8 222.83a3 3 0 100-6 3 3 0 000 6z"/>
      <path opacity=".4" d="M1867.16 234.93a3.4 3.4 0 100-6.8 3.4 3.4 0 000 6.8z"/>
    </g>
    <path opacity=".1" d="M591.27 492.25c-7.79-198-150.36-376.06-386.71-376.06-207.69 0-365.4 168.37-365.4 376.06S-32 868.31 215.22 868.31c207.69 0 382.65-208.31 376.05-376.06z" fill="#776600"/>
    <path d="M571.27 472.25c-7.79-198-150.36-376.06-386.71-376.06-207.69 0-365.4 168.37-365.4 376.06S-52 848.31 195.22 848.31c207.69 0 382.65-208.31 376.05-376.06z" fill="#FFF3CD"/>
    <path d="M571.27 472.25c-7.79-198-150.36-376.06-386.71-376.06-207.69 0-365.4 168.37-365.4 376.06S-52 848.31 195.22 848.31c207.69 0 382.65-208.31 376.05-376.06z" fill="#FFF3CD"/>
    <path d="M571.27 472.25c-7.79-198-150.36-376.06-386.71-376.06-207.69 0-365.4 168.37-365.4 376.06S-52 848.31 195.22 848.31c207.69 0 382.65-208.31 376.05-376.06zM200 832.25c-233.52 0-355.2-161.18-355.2-360s149-360 345.13-360c223.24 0 346.19 171.26 365.27 360 16.26 160.6-159.01 360-355.2 360z" fill="#FFD257"/>
    <path d="M190 114.26c-31.87 0-63 .32-92 8.3-30.23 8.33-57.05 24.36-83.1 40.21-26.42 16.07-52.94 32.62-74 55.17-20.92 22.35-35.75 49.88-50.44 77.36-14.32 26.8-29.14 54.3-36.6 84.82-7.15 29.26-7 60.46-7 92.13 0 32.65-.67 64.72 5.85 94.8 6.89 31.76 21.12 60.45 35.19 88.08 14.5 28.52 29.58 56.8 51.62 79.51C-38.88 757-11.25 773 17.54 788.35c26.66 14.23 55 28.92 87.68 36.1 29.1 6.37 61 5.8 94.8 5.8 31.32 0 62.7-1.18 92.26-10.37 29.56-9.19 56.24-26.1 82.65-42.57 26.41-16.46 53.36-32.92 75.23-54.69 22.35-22.24 38.87-49.24 55-75 17-27.16 33.82-54.08 42.26-82.78 9.12-31 8.81-62.55 5.79-92.4-3.19-31.57-5.39-63.43-14.38-93.3-9.17-30.5-25-58.17-40.19-85.38-15.45-27.7-30.82-55.67-52.46-78.37-21.64-22.7-48.64-39.23-76.31-55.27-26.36-15.29-54-30.9-85.87-38.8-28.91-7.16-60.59-7.06-94-7.06zm323.89 354c0 1.85-4.12 3.16-4.29 4.74-.21 1.87 3.43 4.25 3.06 5.77-.46 1.87-4.78 2.17-5.43 3.57-.81 1.76 1.56 5.35.55 6.5-1.29 1.44-5.06-.68-6.44 0-1.77.87-2.18 5-3.61 5.06.48.11 0 .21.45.36s2.24-3.48 2.72-3.3c.48.18-.45 4.1 0 4.28.45.18 2.52-3.29 3-3.1.48.2-.65 4.1-.25 4.28.85.4 3.19-3.06 3.71-2.49 2.63 3.22.83 9 1.73 13.54.8 4 5 8.12 4.77 12.67-.2 4.24-4.71 8.17-5.49 12.48-.78 4.31 2.11 9.54 1 13.58-1.24 4.57-6.41 7.65-7.66 11.28-2.51 7.33 1.61 7.57-.89 13.58-1.3 3.37-6.29 4.67-7.72 7.36-1.73 3.23-.2 8.18-2.06 10.53-2.3 2.91-7.44 2.34-9.84 4.11-3 2.18-4.22 7.11-7.14 7.94-3.45 1-7.16-2.76-10.23-3-3.73-.33-7.4 2.65-10 1.61 1.11.9 1 1.38 2.14 2.55 1.14 1.17 5-.47 6.07.72 1.07 1.2-1.11 4.92-.17 6.12.94 1.2 5.11.11 6 1.3 1 1.37-1.36 5-.6 6.08 1.59 2.3 5.1-.22 6 1.9.55 1.9-3.48 4.25-4.41 6.67-.74 1.91 1.7 5.73.38 7.76-1.18 1.82-5.78 1.3-7.22 3.08-1.44 1.78.08 6.11-1.39 7.71-1.66 1.8-6.15.67-7.57 2.06-2.85 2.82.16 7.41-3.15 8-3.1-.86-8.22-3-12-.2-2.66 2-2.69 7.63-5.4 10.75-2.37 2.73-7.86 3.3-10.11 6.43-2.25 3.13-1 8.54-3 11.62-2.2 3.46-7.61 4.71-9.29 7.6-3.37 5.81 1.2 7.5-2.12 12.07-2.3 2-7 .36-9.16 1.31-2.69 1.17-4.56 5.47-7.06 5.41-2.73-.07-4.43-4.58-6.86-5.7-2.43-1.14-6.78.7-8.84-1-2.06-1.72-1.16-6.55-2.83-8.53-1.9-2.24-6.29-1.64-7.57-3.6.49 1.32.3 1.8.75 3.33.45 1.54 4.68 1.83 5.06 3.33.38 1.5-3.15 3.91-2.81 5.37.34 1.46 4.58 2.18 4.88 3.58.34 1.65-3.27 4-3 5.26.52 2.7 4.62 1.68 4.78 3.94 0 2.5-4.3 4.48-5 6.8-.7 2.3 2 6.11.84 8.24-1.16 2.13-5.9 2-7.39 3.88-1.49 1.88-.24 6.46-1.88 8.1-1.91 1.9-6.45.56-8.12 1.91-3.39 2.76-.62 4.73-3.24 7.3-.74 1.62-4.59.44-5.48 1.68-1.05 1.45.74 5.35-.43 6.34-1.35 1.14-4.89-1.33-6.3-.69-1.6.74-2 5-3.56 5.24-1.82.31-3.69-3.63-5.11-3.75-3.32-.25-5.89 2.65-4.31 2.77-2.52-.4-4.66-4.42-7.3-4.28-2.64.14-4.69 4.45-7.26 5-2.57.55-6.11-2.68-8.55-1.9-2.44.76-3.72 5.47-6 6.4-2.67 1.07-6.71-1.48-8.76-.48-4.24 2.06-1.65 5.86-5.27 7.33-2.57.5-5.46-3.24-7.6-3.46-2.52-.26-5.91 2.77-7.89 1.71-1.98-1.06-1.48-5.73-3.05-7.5-1.57-1.79-6.11-1.5-7.23-3.63s1.68-5.86.93-8.09c-.75-2.23-5.21-3.44-5.71-5.66.06.63 0 .9.11 1.52s4.09.95 4.14 1.56c.05.61-3.89 1.6-3.84 2.2.05.6 4.08 1 4.12 1.6.04.6-3.89 1.61-3.86 2.15.08 1.18 3.94.51 4.09 1.45.55 3.07-3.8 5.52-5.16 8.4-1.23 2.58.14 7.32-2.12 9.66-2.06 2.13-7.07 1.14-9.59 3-2.52 1.86-2.9 6.87-5.46 8.4-2.86 1.7-7.56-.35-10 .86-4.88 2.42-2.68 7-7.25 7.57-3-.6-5.75-5.06-8.47-5.43-3-.42-6.28 3.27-9 3.1-3.07-.22-5.85-4.28-8.53-4.25-3.15 0-5.8 4.21-8.4 4.47-3.31.34-6.78-3.14-9.14-2.64-5.42 1.14-3.32 5.77-7.6 6.34-1.58-.67-3.26-5.18-5.32-5.67-1.79-.43-4.5 3.12-6.48 2.8-1.98-.32-3.29-4.53-5.21-4.74-1.92-.2-4.32 3.57-6.16 3.43-2.13-.17-3.84-4.28-5.53-4.36-3.49-.18-2.88 3.61-5.77 3.78-1.81.3-3.8-3.94-6.47-4.6-2-.5-5.46 2.57-7.75 1.7-2.1-.79-2.73-5.39-4.85-6.34-2.12-.95-6 1.63-7.95.65-2.25-1.13-2.5-5.77-4.28-6.74-3.63-1.95-5.95 2.25-8.38-.19-2-3-.24-8.13-1.4-11.22-1.25-3.29-5.91-5.63-6.39-8.92-.5-3.48 3.34-7.13 3.48-10.44.14-3.58-3.37-7.46-2.75-10.64.72-3.7 5.53-6 6.48-8.89 1.94-5.83-1.33-5.7.07-10.65-.92 0-2.15 1.95-3.63 5.31-.82 1.84 2 5.52 1.17 7.88-.76 2.07-5.3 3-6 5.16-.7 2.16 2.35 5.67 1.68 7.78-.75 2.4-5.26 3.45-5.85 5.4-1.18 3.91 2.77 4.33 1.92 7.65-.34 1.61-4.53 1.42-5.26 2.58-.83 1.32 1 5.07-.21 5.9-1.21.83-4.35-2-5.76-1.59-1.41.41-2.11 4.63-3.55 4.8-1.44.15-3.26-3.8-4.59-3.86-2.6-.1-2.55 3.8-4.76 3.52-2.48-.19-5-5.4-9.34-7.64-3-1.55-8.3 0-11.74-2.1-3.11-1.9-4.15-7.35-7.32-9.47-3.17-2.12-8.59-1-11.55-3.09-3.35-2.37-4.14-7.87-6.81-9.83-5.43-4-6.84-.2-11.38-3.53-4.14-2.9-5.69-9.17-9.57-12.43s-10.38-3.74-14-7.2c-3.76-3.6-4.48-10.07-7.82-13.65-3.65-3.92-10-5.1-13.08-8.73-3.68-4.34-3.78-10.87-6.45-14.34-5.7-7.4-8.15-3.57-12.22-10-1-1.74 1.82-5.2 1.21-6.8-.71-1.87-5-2.56-5.36-4.24-.38-2 3.44-4.14 3.49-5.84 0-2-3.58-4.43-3.14-6 .55-2 5-2.2 5.78-3.6 1.63-2.88-1.39-3.74-.19-6.23-1.2.41-.18-.83-1.89-1.53-1.26-.5-4.47 2.26-5.85 1.36-1.23-.8-.15-5-1.37-5.92-1.22-.92-5 1.11-6.07.14-1.07-.97.31-5.1-.66-6-2-1.87-5.28 1.2-6.37-.82.08-.84 2.41-6.6.38-12.44-1.1-3.15-6.18-5.44-7.6-9.3-1.26-3.44 1.15-8.43-.2-12-1.35-3.59-6.46-5.79-7.75-9.2-1.47-3.86.88-8.9-.32-12-2.43-6.32-6.09-3.85-7.85-9.24-.5-2.3 3.1-5.3 3-7.48-.14-2.36-4.07-4.7-3.86-6.87.22-2.37 4.56-3.93 5.08-6 .58-2.35-2.48-5.74-1.69-7.7.95-2.36 5.58-2.68 6.55-4.39 2-3.6-1-4.06.17-7.27-1.05 0 .41-1.4-.49-1.66-.9-.25-3.44 3-4.25 2.5-.81-.52.81-4.29.13-4.96-.68-.67-4.39 1.1-4.93.34s2.32-3.79 1.93-4.56c-.77-1.55-4.13.34-4.73-1-.43-.57 3-2.6 2.82-3.37-.18-.77-4.22-.82-4.27-1.6-.05-.78 4-1.52 4-2.28 0-.76-3.85-1.92-3.75-2.64.1-.72 4.19-.9 4.32-1.57.27-1.32-3.68-3.09-2.92-3.93 1.21-.75 5 1.43 5.86.73 1.17-.93-.76-4.6-.1-5.45 1-1.25 5-1 5.1-2 .11-1.34-3.94-1.43-4.74-2.42-.8-.99.7-4.76-.34-5.39-1.77-1.05-4 2.85-5.57 1.8-.9-1.15 1.65-5.15 1.36-7.8-.2-1.85-4.27-3.76-4.26-6 0-2 4.08-4 4.2-6.1.12-2.1-3.69-4.53-3.51-6.52.21-2.26 4.43-3.95 4.65-5.77.44-3.69-3.23-3.34-3.16-6.45-.28-2.53 3.78-5.69 4.07-9.5.22-3-3.39-6.68-2.94-10.07.41-3.14 4.86-5.8 5.39-9 .53-3.19-2.88-7.49-2.28-10.55.64-3.47 5.19-6 5.75-8.8.89-4.59-2.34-8.77-2.09-10.25.12-.7 4 .12 4.3-.35.3-.47-1.82-3.8-1.29-4.1.53-.3 2.42 3.25 3.05 3.16.63-.09 1.08-4.08 1.7-4.05.62.03.81 4.1 1.37 4.21 1.06.21 0-1.08.26-2 .26-.92 3.74-.79 3.58-1.73-.16-.94-4.11-.26-4.27-1.2-.16-.94 3.78-1.63 3.61-2.57-.17-.94-4.1-.26-4.27-1.2-.17-.94 3.78-1.63 3.62-2.58-.16-.95-4.21-.4-4.29-1.37.08-.79 4.06-.56 4.65-1.34.59-.78-1.77-4-1.06-4.6.71-.62 3.79 2.06 4.53 1.56.74-.5-.66-4.35.07-4.78.73-.43 3.58 2.55 4.27 2.17 1.09-.6 0-4.52.34-4.76 1.4-.78 4.94 1.57 6 .64 1.06-.93-.86-4.79-.07-6 .79-1.2 5.07-.84 5.55-2.18.48-1.34-3-3.9-2.79-5.3.24-1.63 4.26-2.93 4.22-4.25-.09-2.64-5-2.6-4.49-4.78 1.32-2.17 6.33-3.3 7.48-5.83 1.09-2.37-1.59-6.4-.65-8.92.94-2.52 5.59-3.77 6.38-6.27.83-2.65-2.25-6.37-1.58-8.8.77-2.86 5.31-4.5 5.84-6.78 1.12-4.72-2.83-4.62-2.23-8.57.11-1.34 4.91-1.79 6.88-4.16 1.28-1.53-.11-5.9 1.61-7.63 1.53-1.54 6-.25 7.63-1.8s.69-6.05 2.32-7.48c1.84-1.62 6.2-.09 7.72-1.37 3.06-2.59 0-5.23 2.61-7.36.47-.42 3.31 2.44 3.77 2.13.46-.3-.83-4.13-.32-4.35.51-.22 2.34 3.38 2.89 3.26.55-.12.78-4.14 1.33-4.14s.89 4 1.39 4.12c1 .2.13-.4.07-1.29-.91-3.89 3-7.43 3.69-11 .68-3.7-1.62-8.57.27-11.87 1.89-3.3 7.38-3.9 9.93-6.69 2.55-2.78 2.69-8.3 5.52-10.6 3.17-2.57 8.68-1.55 11.49-3.35 5.61-3.6 2.85-6.07 7.68-9 1.94-1.17 4.05 2 5.85.6 1.8-1.42-.59-4.56 1.22-5.92 1.81-1.36 4.21 1.83 6 .47s-.6-4.55 1.21-5.9c1.81-1.37 4.22 1.82 6 .46 1.78-1.36-.6-4.48 1.17-5.89 1.39-1.26 5 1 6.36.2 1.6-1 1.59-5.27 3.1-5.7 1.76-.5 3.94 3.26 5.54 3.31 1.8.06 4.16-3.5 5.69-3 1.79.57 1.79 5 3.11 5.72 2.71 1.5 3.28 1.23 3.32.4-.22-1.8 3.83-3 4.23-4.4.46-1.63-2.11-4.9-1-6.07 1.11-1.16 4.83 1 6.26.2 1.43-.8 1.43-5 2.95-5.5 1.52-.5 4.18 3 5.61 2.82 2.78-.44 1.35-2.42 3.21-4 .79-2.34 5.13-.82 8.19-2.23 2.28-1.06 3.78-5.66 6.79-6.3 2.65-.59 6.14 2.92 9 2.6 2.86-.34 5.37-4.53 8.1-4.68 3.07-.16 6.09 3.77 8.59 3.76 5 0 4.28-4 8.51-3.87 1.69 0 2.08 4.16 3.36 4.92 1.28.76 5.06-1 6 .32.94 1.32-1.88 4.54-1.27 6 .61 1.46 4.85 1.68 5.24 3.18.39 1.5-3.2 4-3 5.4.28 1.77 4.35 2.46 4.46 3.71.03-.69.1-1.37.23-2.05.08-1-3.77-2.39-3.62-3.34.15-.95 4.27-1.19 4.46-2.1.19-.93-3.45-2.86-3.23-3.73.27-1 4.39-.9 4.63-1.7.51-1.68-3.19-2.13-3-3.56.22-3.68 5.8-4.08 10.26-5.76 3.13-1.19 6.11-5.8 10.4-6.28 3.66-.4 7.84 3.41 11.82 3.38 3.98-.03 7.94-3.9 11.7-3.7 4.19.21 7.86 4.52 11.29 4.85 6.84.65 6.77-4.3 12.31-2.56 2.08 1.5 2.77 6.5 4.98 7.5 2.21 1 6.2-1.56 8.49-.76 2.47.86 3.79 5.38 6.14 5.91 2.6.6 5.77-2.94 8.1-2.67 2.8.33 5.07 4.46 7.24 4.5 4.61.07 3.44-3.48 7.12-4.27 1.77-.62 4.29 2.81 5.85 2.46 1.85-.4 3-4.6 4.58-4.7 1.91-.12 3.45 3.94 5 4.18 1.91.3 4.71-3 6.12-2.3 1.79.84 1 5.15 2 6.18 2.22 2.11 5.48-.4 6.32 2.06.12.73-3.48 2.7-3.28 3.27.2.57 4.06-.58 4.42-.09.36.5-1.74 3.91-1.22 4.24.52.33 2.68-3.06 3.31-2.94.63.12 1.16 4.11 1.76 4.06 1.13-.09.18-3.92 1.12-4.26 2.91-1 6.77 2 9.4 1.46 3-.64 5.41-4.94 8.09-5 3.11-.12 5.74 4 8.38 4.48 3.1.51 6.94-2.5 9.39-1.53 3 1.22 3.68 6.17 5.72 7.6 4.28 3 7.24-.64 9.3 3.16.38 1.82-1.38 6.07.56 7.81 1.48 1.33 5.69-.57 7.71.67 1.81 1.1 1.86 5.66 3.86 6.65 2 1 5.71-1.73 7.67-.9 2.21.93 2.83 5.47 4.65 6.15 3.67 1.37 4-2.17 7.21-1.68 2.07-.1 3.68 5.08 7.27 7.7 2.35 1.7 7.43.74 10.07 3.12 2.34 2.11 2 7.31 4.35 9.65 2.35 2.34 7.54 1.94 9.71 4.23 2.45 2.6 1.78 7.77 3.71 9.91 3.92 4.34 6.32 1 9.49 4.71.65.76-1.74 4.1-1.15 4.74.59.64 4.2-1.37 4.81-.77.61.6-1.28 4.3-.64 4.84.82.7 3.93-2 4.6-1.54 1 .65.21 4.62.88 4.8 1.94.54 2.62-4.74 3.9-4.2.78 1.57-1.23 5.6-.72 7 .63 1.67 4.91 2.11 5.2 3.54.37 1.8-3.46 3.71-3.51 5.14-.07 1.84 3.4 4.25 2.84 5.57-.71 1.66-4.9.66-6 1.64a7.76 7.76 0 01-3 2c2-.54 4.17 3.24 6.06 3.3 2 .06 4.65-3.49 6.49-2.9 1.84.6 2.13 5.08 3.8 6.06 1.67.98 5.69-1 7.14.18 1.66 1.4.33 5.7 1.51 7 2.36 2.6 4.82-.27 6.7 2 1.32 1.17-.66 4.87.28 6 1.12 1.37 5.33.58 6 1.91.79 1.58-2.45 4.41-2.16 5.88.34 1.72 4.34 3.15 4.19 4.65-.16 1.8-4.46 2.5-5 3.83-1 2.67-.67 1.84 1 3.6 2.56-.3 2.4 3.76 4.86 5.8 1.91 1.58 6.67 1 8.44 3.46 1.56 2.17-.33 6.71 1.06 9.2 1.39 2.47 6.19 3.15 7.34 5.58 1.28 2.73-1.26 6.95-.33 9.23 1.87 4.57 6.26 2.64 6.78 6.77-.5 1.32-4.78 2.71-4.92 4-.14 1.3 3.85 2.77 4 4.12.15 1.35-3.46 3.53-3.08 4.82.38 1.3 4.64 1.31 5.18 2.5.62 1.4-2.27 4.46-1.66 5.5 1.26 2.12 5.75.11 6 2.16-.81.56-5.2.93-5.49 1.8-.29.87 3.54 2.26 3.6 3.24.06.98-3.69 2.47-3.44 3.38.25.91 4.34.53 4.67 1.37.33.84-2.88 3.42-2.51 4.16.72 1.46 3.6-.85 4.56.15 2.69 2.47 1.68 7.83 3.47 11.26 1.68 3.22 6.7 5.31 7.72 9 1.02 3.7-2.08 8.17-1.59 11.9.49 3.73 4.83 7.23 5 10.81.19 4.1-3.82 8-3.91 11.27-.18 6.71 3.77 5.84 3.26 11.43l.05.02z" fill="#FFF3CD"/>
    <path d="M511.85 468.06s5.67-46.67-13.33-64c0 0-7.18-11.57-1.92-15.25 0 0-9.73-12.09-5.52-23.13 0 0-13.67-40.49-27.6-38.91 0 0 10.25-12.88-4.47-26 0 0-12.62-19.54-29.92-15 3.93-1.49 13-7.06 4.15-25 0 0-2.62 3.94-13.14-8.41 0 0-33.39-39.17-43.37-38.65 0 0-31-9.72-33.13-19.71 0 0-15.77-20.77-47.84-9.2 0 0-7.36 2.63-8.68-5.52 0 0-5.78-14.2-27.6-6.58 0 0-23.4 3.16-43.11-10.25 0 0-64.15-9.46-65.2 8.41 0 0-3.43 9.44-3.32 16.89-.56-6.37-2.85-22.14-13-22.14 0 0-43.63-2.11-47.84 10.25 0 0-22.34.26-20.5 15.25-.11 2.36-12.89-12.89-27.87.78l-21.72 16.33s-44.51 21.08-37.62 50.62c0 0-4.92-2.46-9.85 2 0 0-27.57 22.15-28.06 28.55 0 0-5.42 29-15.26 45.3 0 0 3.94 15.75-9.36 23.14-1.47 1-11.32 5.41-11.81 9.84L-93 379s-8.37-3-9.36 2.95c-.99 5.95-9.35 43.82-7.87 57.61 0 0-4.78 31-.18 36.92 0 0 16.91 5.42.18 15.76 0 0-2.72 9.43.14 13.24 0 0 3.18 10.81 12.39 10.81 0 0-14 16.21-9.21 38.46 0 0 23.52 60.39 23.2 63.89 0 0 15.89 16.84 22.25 14.62 0 0-12.71 11.12-1.91 30.83 0 0 27.34 41 62.62 65.8 0 0 44.5 34.33 57.22 35.28 0 0 19.07 3.82 21.93-9.85 0 0 10.81-38.15 14.62-38.15 0 0-17.48 32.74 0 58.81 0 0 28 16.53 38.14 14.94 0 0 23.84.32 34.33 4.77 0 0 18.76-8.27 51.18-1.59 0 0 41.32-16.21 37.82-35.6 0 0-.31-5.42-.85-11.33 2.87 12.83 9.7 28.82 27.87 25.31 0 0 25.11-15.26 44.5-12.08-4.13-.31 14.94 7 23.21-11.12 0 0 24.15-14.94 24.15-34.65 0 0-2.91-17.08-6.38-26.51 6.54 10 21.66 27.7 39.44 12.53 0 0 27.52-53.44 43.15-49.06 0 0 25-21.89 21.88-32.51 0 0-9.47-15-17.44-21.47 10.13 4.08 31.49 7.49 44.95-27.3 0 0 23.75-54.39 6.87-75-2.73-1.4-5.6-2.5-8.55-3.32 5.07-.42 14.19-3.89 14.56-23.93zM264 506.1c3.75.43 7 1.06 8.2 2 0 0-3.36-.68-8.2-2-7.13-.82-16.07-.92-16.07-.92-17-1.73-18.72 14.22-18.72 14.22-2.78 13.87 17 42 17 42l-15.25-17c-14.21-21.15-22.54-11.09-22.54-11.09-5.54 2.08 0 48.54 0 48.54-.34-4.51-10.65-38.49-10.65-38.49-1.64-7.63-9.45-6.93-9.45-6.93 0-11.1-13.53-4.51-13.53-4.51 5.55-8.32-2.77-5.55-2.77-5.55-2.53.85-6.11 10.52-10.11 6.46-.93-1-1-3.85-.64-5.08 3.12-11.78-12.48-4.84-12.48-4.84 5.2-7.28.7-10.06.7-10.06-4.17 1.74-18.38-2.77-18.38-2.77-5.61-1.79-23.24 13.33-32.16 21.43l-.34.39c-1.05 1.16-3.19 4.33-4.94 4.53 0 0 2.08-2 5.28-4.92 2.72-3 5.3-6.2 7.86-9.36 5.41-6.68 10.57-13.54 15.91-20.27a9.4 9.4 0 01-6.12-4.57c-1.38-2.26-1.87-4.81-2.84-7.2-10 3.43-20.08 8.64-30.88 4.65-1.84-.68-8.63-3.81-8.63-6.52 0 2.42 12.48 3.46 12.48 3.46 7.84.53 14.61-1.6 20.27-7.17 4.42-4.34 9.67-11.4 8.84-17.82-.69-5.32-3.89-7.54-8.17-9.77-3.57-1.86-6.6-4.84-9.29-7.77a93.25 93.25 0 01-7.1-8.88c-.76-1.06-1.95-3.79-3.16-4.41-39.87-18.37-36.75-28.42-36.75-28.42 1.73 4.16 17 6.93 17 6.93 8 3.47 7.88-.71 7.45-2 4.41 6.12 9.44 12.74 15.93 16.82 5.18 3.26 7.85 2.73 12.68-1 5.89-4.58 14.26-3.43 21.14-2.79 4.15.39 4.63-1 4.15-5.18-.36-3.21-1.64-6.25-2.54-9.32-1.62-5.55-3.52-11-5.49-16.46-1.82-5-3.42-11-5.72-16.25-1-1.87-2.05-3.76-3-5.64a36.49 36.49 0 013 5.64c6.42 11.53 14.51 22.49 25.16 30.32 3.21 2.36 15.52 10.88 20 7.82 3.89-2.64 1.55-15.12 1.05-19.16-3.23-16.88 1.85-42.06 1.85-42.06-3.13 14.49 14.06 41.87 14.06 41.87 7.14 15.95 21.29 7.63 22 7.28 9.72-2.77 51.3-88.06 51.3-88.06S230.24 362 231.28 361.3a255.4 255.4 0 00-10.36 20.91c-3.57 8.24-9.21 20.12-6.84 29.48a8.7 8.7 0 002.24 4.13c4.42 4.73 5.44-.1 6.12-4.51.52-3 .8-6.05.86-9.1 0 3.09 1.82 5.72 3.88 7.85.6.61 5.7 5 6.18 4.51-2 2.16-1.75 5.64-.31 8.17 1.44 2.53 3.86 4.33 6.21 6.06 0 4.92.66 10 5.25 12.77.85.51 4.7 2.37 5.49 2.25 41.6-6.59 46.11 1.73 46.11 1.73-3.82-1.47-10.33 1.67-13.89 2.82-4.82 1.54-9.43 3.77-14.3 5.14-2.19.62-4.44 1-6.65 1.61-12.48 3.3-26.56 14.86-31.38 27.18-4.6 11.76 20.55 20.18 34.11 23.8z" fill="url(#paint2_radial)"/>
    <path d="M511.85 468.06s5.67-46.67-13.33-64c0 0-7.18-11.57-1.92-15.25 0 0-9.73-12.09-5.52-23.13 0 0-13.67-40.49-27.6-38.91 0 0 10.25-12.88-4.47-26 0 0-12.62-19.54-29.92-15-.53.2-1.07.38-1.63.5.55-.19 1.09-.35 1.63-.5 3.93-1.49 13-7.06 4.15-25 0 0-2.62 3.94-13.14-8.41 0 0-33.39-39.17-43.37-38.65 0 0-31-9.72-33.13-19.71 0 0-15.77-20.77-47.84-9.2 0 0-7.36 2.63-8.68-5.52 0 0-5.78-14.2-27.6-6.58 0 0-23.4 3.16-43.11-10.25 0 0-64.15-9.46-65.2 8.41 0 0-3.43 9.44-3.32 16.89.1 1.07.14 1.89.17 2.3-.1-.76-.16-1.53-.17-2.3-.56-6.37-2.85-22.14-13-22.14 0 0-43.63-2.11-47.84 10.25 0 0-22.34.26-20.5 15.25-.11 2.36-12.89-12.89-27.87.78l-21.72 16.33s-44.51 21.08-37.62 50.62c0 0-4.92-2.46-9.85 2 0 0-27.57 22.15-28.06 28.55 0 0-5.42 29-15.26 45.3 0 0 3.94 15.75-9.36 23.14-1.47 1-11.32 5.41-11.81 9.84L-93 379s-8.37-3-9.36 2.95c-.99 5.95-9.35 43.82-7.87 57.61 0 0-4.78 31-.18 36.92 0 0 16.91 5.42.18 15.76 0 0-2.72 9.43.14 13.24 0 0 3.18 10.81 12.39 10.81 0 0-14 16.21-9.21 38.46 0 0 23.52 60.39 23.2 63.89 0 0 15.89 16.84 22.25 14.62 0 0-12.71 11.12-1.91 30.83 0 0 27.34 41 62.62 65.8 0 0 44.5 34.33 57.22 35.28 0 0 19.07 3.82 21.93-9.85 0 0 10.81-38.15 14.62-38.15 0 0-17.48 32.74 0 58.81 0 0 28 16.53 38.14 14.94 0 0 23.84.32 34.33 4.77 0 0 18.76-8.27 51.18-1.59 0 0 41.32-16.21 37.82-35.6 0 0-.31-5.42-.85-11.33-1.15-5.16-1.66-9.81-2-12.47l2 12.47c.63 1.93 4.48 18.8 12.85 22.94 16.09 7.95 20.4 0 26.86-3.57 9.22-5.1 25.17-8.14 32.66-6.14-4.13-.31 14.94 7 23.21-11.12 0 0 24.15-14.94 24.15-34.65 0 0-2.91-17.08-6.38-26.51a59.75 59.75 0 01-3.47-5.91c1.16.62 2.34 2.87 3.47 5.91 6.54 10 21.66 27.7 39.44 12.53 0 0 27.52-53.44 43.15-49.06 0 0 25-21.89 21.88-32.51 0 0-9.47-15-17.44-21.47-2-.78-3.9-1.76-5.69-2.92 1.67.13 3.63 1.25 5.69 2.92 10.13 4.08 31.49 7.49 44.95-27.3 0 0 23.75-54.39 6.87-75-2.73-1.4-5.6-2.5-8.55-3.32-1.14.1-2.29.03-3.41-.2 1.14-.2 2.3-.13 3.41.2 5.07-.42 14.19-3.89 14.56-23.93zm-302 9.74c.82 9.74 1.82 20 11 25.84-4.79-.46-10.37-.34-13.4 3.39-2.23 2.75-2.32 6.67-1.68 10.16a28.16 28.16 0 00-16.24-.08c1.72-.51-4.46-10-5.18-10.76-3.15-3.19-7.05-4-11.36-2.71 0 0-15 1.9-19.5-.95-4-2.54.26-6.89 1.28-10.19a10.55 10.55 0 00-1.49-9.11 7.82 7.82 0 01-1.22-1.93 5.78 5.78 0 01-.06-2.52c.63-5.09.95-10.6-1.7-15-2.78-4.64-8.38-7.44-12.67-10.53-2.93-2.11-5.8-4.53-8.89-6.4 0 0-15-9 2.38-7.38 4.56 1 25.33 4 21.39-6.2 1.5.3 3.07.15 4.49-.43a3.6 3.6 0 002.09-3.61c7.54 2 19.22 5.23 18.5-7.06 0 0-1.58-16.62 13.48 6.63 0 0 5.9 17.36 25.22 17h12.17s10 .79 1.9 7.45c-.05.02-21.22 15.93-20.51 24.39zM84.53 423.2zm37.83 1.85l.52.05-.52-.05zm-4.27-.28h.63-.63zm1.42.07h.61-.61zm1.43.09l.57.05-.57-.05zm4.59.42l-1.85-.17 1.85.17zm-.27-20.54c.65 2 1.29 4 1.88 6l.22.72-.21-.67c-.59-2-1.23-4.03-1.89-6.05zm2.24 7.19l.25.78c-.08-.23-.17-.49-.25-.78zm.38 1.16l.37 1.13c-.13-.35-.25-.73-.37-1.1v-.03zm.52 1.62l.21.66a15.5 15.5 0 00-.21-.63v-.03zm.38 1.22l.18.6-.18-.6zm.35 1.25c0 .17.09.34.13.52l-.13-.49v-.03zm.3 1.33c0 .12.05.24.08.36a2.28 2.28 0 01-.08-.33v-.03zm-12.41-37.78l.53 1.39c-.17-.44-.35-.9-.55-1.36l.02-.03zm.84 2.28l.43 1.2-.43-1.2zm.77 2.23l.36 1.08-.36-1.08zm.75 2.27l.49 1.51-.49-1.48v-.03zm.95 2.91l.27.81-.27-.81zm.67 2l.29.84-.29-.8v-.04zm-5.73 32.23h.64-.64zm-2.78.23l.64-.08-.64.08zm1.38-.14l.64-.06-.64.06zm-9 3c.18-.13.36-.27.55-.39-.2.13-.42.27-.56.4l.01-.01zm1.16-.75l.57-.32-.57.32zm1.22-.63l.59-.26-.59.26zm1.26-.51c.2-.07.4-.15.61-.21l-.62.22.01-.01zm1.3-.4l.62-.17-.62.17zm1.33-.31l.63-.13-.63.13zm-19.42 3.95l-.44-.29.67.43-.23-.14zm-2.81-2l.61.47c-.22-.13-.42-.29-.62-.45l.01-.02zm1.17.88l.62.44-.62-.44zm-2.31-1.81l.6.5-.6-.5zm29-46.09a46.23 46.23 0 000 .02v-.02zM87.24 425.8l-.59-.53.59.53zm-1.66-1.54l.57.55-.57-.55zm-9-10.75l-.84-1.16.84 1.16zm7.43 9.2l-.54-.59.54.59zm-1-1.1l-.54-.61c.22.21.39.41.58.61h-.04zm-1-1.12l-.53-.62c.23.21.41.42.59.62h-.06zm-1-1.14l-.51-.63.51.63zm-.93-1.15l-.52-.67.52.67zm-.91-1.17l-.53-.69.53.69zm-.9-1.17l-.51-.69.51.69zm-.88-1.18L77 414l.39.68z" fill="url(#paint3_radial)"/>
    <g opacity=".8">
      <path opacity=".8" d="M115.93 378.14a36.44 36.44 0 00-3-5.64c.95 1.88 1.96 3.77 3 5.64z" fill="#FFECCE"/>
      <path opacity=".8" d="M236.85 444.71c-.66.11-3.85-1.43-4.55-1.85-3.79-2.29-4.36-6.5-4.34-10.58a17.2 17.2 0 01-5.14-5c-1.19-2.09-1.37-5 .25-6.76-.4.44-4.62-3.22-5.11-3.73-1.71-1.77-3.21-3.94-3.21-6.5a50.04 50.04 0 01-.71 7.53c-.57 3.65-1.41 7.65-5.06 3.73a7.25 7.25 0 01-1.87-3.42c-1.95-7.74 2.72-17.57 5.67-24.39a212.2 212.2 0 018.57-17.3c-.86.57 16.64-37.3 16.64-37.3s-34.4 70.58-42.45 72.88c-.59.28-12.3 7.17-18.21-6 0 0-14.23-22.67-11.64-34.72 0 0-4.21 20.83-1.53 34.81.41 3.34 2.35 13.67-.87 15.85-3.73 2.54-13.92-4.52-16.58-6.47-8.81-6.47-15.5-15.55-20.82-25.09 1.91 4.36 3.23 9.31 4.73 13.45 1.64 4.5 3.21 9 4.55 13.62.74 2.54 1.8 5.06 2.1 7.71.39 3.43 0 4.62-3.43 4.29-5.7-.53-12.63-1.48-17.5 2.31-4 3.11-6.21 3.55-10.5.85-5.37-3.37-9.53-8.86-13.18-13.92.36 1.07.43 4.53-6.17 1.66 0 0-12.62-2.3-14.06-5.74 0 0-2.58 8.32 30.42 23.53 1 .5 2 2.76 2.62 3.64a75.43 75.43 0 005.87 7.35 29.3 29.3 0 007.69 6.43c3.54 1.84 6.19 3.69 6.76 8.09.69 5.31-3.66 11.15-7.31 14.74-4.69 4.61-10.3 6.37-16.78 5.94 0 0-10.33-.86-10.33-2.87 0 2.25 5.62 4.84 7.14 5.4 8.94 3.3 17.27-1 25.56-3.85.8 2 1.2 4.09 2.35 6a7.76 7.76 0 005.06 3.78c-4.41 5.57-8.69 11.25-13.16 16.78a200.55 200.55 0 01-6.51 7.75c7.38-6.71 22-19.22 26.62-17.74 0 0 11.76 3.73 15.2 2.29 0 0 3.73 2.3-.57 8.32 0 0 12.91-5.73 10.33 4-.27 1-.25 3.41.53 4.2 3.3 3.36 6.27-4.65 8.36-5.35 0 0 6.89-2.29 2.3 4.59 0 0 11.19-5.45 11.19 3.73 0 0 6.47-.57 7.82 5.74 0 0 8.54 28.12 8.82 31.85 0 0-4.59-38.45 0-40.17 0 0 6.89-8.32 18.65 9.18L233.69 542s-16.36-23.24-14.06-34.71c0 0 1.43-13.2 15.49-11.77 0 0 7.4.08 13.3.76-11.21-3-32-10-28.22-19.7 4-10.19 15.64-19.76 26-22.49 1.82-.48 3.68-.82 5.5-1.33 4-1.14 7.84-3 11.83-4.26 2.94-1 8.34-3.54 11.49-2.33-.02-.02-3.75-6.91-38.17-1.46zm-16.3 8s-17.55 13.12-16.93 20.13c.68 8.06 1.5 16.55 9.08 21.38-4-.38-8.58-.28-11.09 2.81-1.84 2.28-1.92 5.52-1.39 8.4a23.46 23.46 0 00-13.44-.06c1.42-.42-3.68-8.3-4.29-8.91a8.88 8.88 0 00-9.39-2.24s-12.4 1.57-16.15-.79c-3.33-2.1.22-5.7 1.06-8.42a8.72 8.72 0 00-1.23-7.54 6.39 6.39 0 01-1-1.6 4.57 4.57 0 010-2.08c.52-4.22.78-8.78-1.41-12.42-2.3-3.84-6.94-6.16-10.49-8.72-2.42-1.74-4.8-3.75-7.36-5.29 0 0-12.4-7.49 2-6.11 3.78.84 21 3.3 17.7-5.14 1.24.25 2.53.13 3.7-.35a3 3 0 001.73-3c6.23 1.67 15.9 4.32 15.31-5.84 0 0-1.31-13.76 11.15 5.48 0 0 4.88 14.36 20.87 14.09H219s8.25.67 1.55 6.18v.04z" fill="#F9F9F9"/>
      <path opacity=".8" d="M264 506.1c4.84 1.29 8.2 2 8.2 2-1.2-.94-4.46-1.57-8.2-2z" fill="#FFECCE"/>
      <path opacity=".8" d="M98.58 531.86l.34-.39c-3.2 2.91-5.28 4.92-5.28 4.92 1.75-.2 3.89-3.39 4.94-4.53z" fill="#FFECCE"/>
    </g>
    <path d="M228.41 446h-12.17c-19.32.33-25.22-17-25.22-17-15.06-23.25-13.48-6.63-13.48-6.63.72 12.3-11 9.08-18.5 7.06A3.6 3.6 0 01157 433a7.78 7.78 0 01-4.46.44c3.94 10.18-16.83 7.22-21.39 6.2-17.37-1.66-2.38 7.38-2.38 7.38 3.09 1.87 6 4.3 8.89 6.4 4.29 3.1 9.89 5.9 12.67 10.53 2.65 4.4 2.33 9.91 1.7 15-.17.84-.15 1.7.06 2.52.31.7.72 1.35 1.22 1.93a10.55 10.55 0 011.49 9.11c-1 3.3-5.31 7.65-1.28 10.2 4.52 2.84 19.5.94 19.5.94 4.31-1.27 8.21-.48 11.36 2.71.72.73 6.9 10.25 5.18 10.76a28.16 28.16 0 0116.24.08c-.64-3.49-.55-7.4 1.68-10.16 3-3.73 8.61-3.85 13.4-3.39-9.16-5.84-10.16-16.1-11-25.84-.71-8.46 20.46-24.37 20.46-24.37 8.06-6.67-1.93-7.44-1.93-7.44z" fill="#FFF3CD"/>
    <path d="M161.16 492.53a10.52 10.52 0 00-1.49-9.11c-.5-.58-.9-1.23-1.21-1.93a5.63 5.63 0 01-.06-2.52c.62-5.09.94-10.6-1.7-15-2.79-4.64-8.39-7.44-12.67-10.53-2.94-2.11-5.8-4.53-8.9-6.4 0 0-10.19-6.15-4-7.37-17.37-1.66-2.38 7.38-2.38 7.38 3.1 1.87 6 4.29 8.9 6.4 4.29 3.09 9.88 5.89 12.67 10.53 2.64 4.4 2.32 9.91 1.7 15-.17.83-.15 1.7.06 2.52.3.7.71 1.35 1.21 1.93a10.51 10.51 0 011.49 9.11c-1 3.3-5.31 7.65-1.28 10.19 2.54 1.6 8.36 1.7 13 1.48-2.7-.16-5.16-.59-6.58-1.48-4.07-2.55.22-6.9 1.24-10.2z" fill="url(#paint4_radial)"/>
    <path opacity=".2" d="M1454.72 982.02c17.39 193.55-169.12 308.45-324.82 296-5.93-.47-12.16 1-17.52-.94-25.71-9.36-28-1.7-38.08-8.48-19.34-13.07-41-20.21-62.39-28-17.55-6.43-30.46-21.61-46-34.3-24.5-20-49.16-40.87-65.87-67.22-30.79-48.61-44.35-107.41-44.35-167.66 0-88.79 37.84-169 103.21-219.74 10-7.74 17.4-15.95 28.41-22.39a41.59 41.59 0 014.55-2.59c42-18 93.51-33.24 144.21-34.77 85.67-2.59 164.79 31.64 222.5 85.81 20.36 19.11 30.39 41.56 52.43 64 36.08 36.82 40.82 108.01 43.72 140.28z" fill="#A79F5B"/>
    <path d="M1443.25 965.13c17.42 195.93-169.09 312.2-324.79 299.64-5.93-.48-12.16 1-17.52-1-25.71-9.47-28.06-1.72-38.08-8.58-19.34-13.24-41-20.46-62.39-28.38-17.55-6.5-30.46-21.87-46-34.72-24.51-20.23-49.16-41.38-65.87-68-30.82-49.18-44.35-108.71-44.35-169.69 0-89.89 37.84-171.07 103.21-222.44 10-7.85 17.4-16.15 28.41-22.67a41.98 41.98 0 014.55-2.63c42-18.24 93.51-33.64 144.21-35.19 85.67-2.62 164.79 32 222.5 86.86 20.36 19.34 30.39 42.07 52.43 64.82 36.08 37.24 40.82 109.31 43.69 141.98z" fill="#FAEA83"/>
    <path d="M1428.48 965.33c16.54 186.2-160.75 296.75-308.74 284.78-5.63-.45-11.56 1-16.65-.9-24.44-9-26.67-1.64-36.2-8.16-18.38-12.58-39-19.45-59.3-27-16.68-6.18-29-20.79-43.74-33-23.29-19.21-46.72-39.3-62.6-64.65-29.29-46.76-42.15-103.34-42.15-161.31 0-85.43 36-162.6 98.1-211.43 9.48-7.45 16.54-15.35 27-21.54 1.4-.92 2.84-1.76 4.33-2.5 39.92-17.34 88.88-32 137.07-33.45 81.44-2.49 156.65 30.44 211.49 82.56 19.36 18.39 28.89 40 49.84 61.62 34.32 35.39 38.8 103.89 41.55 134.98z" fill="#F7F4EC"/>
    <path d="M1370.87 988.05s-2.17-17.38-18.07-19.53c4.62.62 10.89-7 12.87-10.13 3.38-5.31 4.49-11.6 4.63-17.79.14-6.19 2.74-17.31-.75-22.46-.81-1.18-1.9-2.16-2.64-3.39-1.66-2.74-1.34-6.29-2.71-9.19-2-4.21-6.32-7.4-8.75-11.43-2.13-3.52-3.36-7.4-5.94-10.77-6.51-8.5-15.84-13.51-26.36-8.81 6.15-2.75 7-19.19 6.48-24.23-2.32-21.78-23-29.52-34.5-45.37a26.85 26.85 0 00-17.58-11.24c-3.44-.71-18.24-1.12-20.3 4.32-.13.77-.25 1.23-.25 1.33 0-.46.08-.9.25-1.33.83-5.16 1.75-24.16-33.14-39.88-.37 1.08-54.95-22.82-61.86 2.89 0 .36-1.81-22.77-43.74-17.71.36.36-24.58 1.44-35.06 11.2-.36 0-13.74 6.15-12.29 23.13-.42-4.91-14.58-11.21-18.28-12.18-16-4.21-36.18 6.13-49.72 13.76-21.27 12-45.62 41.07-26.34 65 0 0-19.05-9.28-31.75 8.79-17.24 24.56-23.34 46.3-25.22 76.3-.82 13.22 4.83 21.84 17.93 25.23-5.74-1.49-14.43 9.79-16.53 13.5-7.62 13.44-5.21 34.06-3.2 48.75 1 7.37 2.62 14.81 6.42 21.2 9.83 16.56 20.17 38.56 43.6 26.38-5.37 6.83-9.13 15.39-8.25 24 .79 7.72 5.15 14.6 9.87 20.76 4.17 5.44 10 11.1 16.74 10.1-1.58 4.54.17 9.71 3.24 13.41a37.01 37.01 0 0021.4 12.14c6.9 1 21.1-1.57 23.62-9.68 0 0-6.51 21 12.65 36.87 15.32 12.72 40.1 15.29 59.2 17.9 15.33 2.09 36.26.47 37.79-19-.39 4.9 5.35 11.83 8.65 14.69 13.34 11.57 33.69 6.75 49.61 5.13a84.32 84.32 0 0019.79-4.26c8.51-3 15.75-10.72 23.78-13.4-1.09.36 9.39-3.25 10.12-13.37-.47 6.55 18.7 1 20.38.33 19.71-7.6 31.4-22.72 45.58-37.25 10.39-10.65 25.06-26.15 6.34-38.63 17.73 11.82 35.17-18.37 39.7-31.61a146.94 146.94 0 006.46-30.76c1.42-12.74-2.39-21.82-3.87-33.71zm-176.4 18.84c-12.84-4.49-12 9.2-12 9.84-.85-3.63-7.27-3.63-6.63-2.78-5.35-9.84-12.63-4.06-12.2-2.57-1.5-3.42-8.13-.85-7.49-.64-1.42 0-3.15 5.3-3.68 8.14-.05.44-.1.88-.17 1.35.02-.45.07-.91.17-1.35 1.28-12.72-8.43-17-8.15-16.4-9.2-5.2-22.93 7.65-23.23 8.26 4.58-15.61-7.35-25.4-7-24.78-5.58-5.29-17.36-.43-18 0 4.84-4 .58-15.58 1.19-15.89-1.16-3.92-12.12-5.94-17.8-6.5l-3.33-.12c1.11-.1 2.23-.05 3.33.12 5.74.18 12.31.2 17.24-2.3 4.56-2.31 4.8-8.85 2.18-12.74-.9-1.33-3.87-6.2-5.6-6.52 37.67 7 31.67-17.26 31.46-17 16.47 5.13 20.54-7.49 20.83-7.28 5.21 19.47 15.54 13.48 16.4 13.27-5.78 38.09 21.83 25.46 22 25.89-18.62 16.05-3.42 13.48-3 13.69-3.42 12 16.27 20.55 16.91 20.55-7.71 6.99-2.79 15.97-3.43 15.76z" fill="url(#paint5_radial)"/>
    <path d="M1370.87 988.05s-2.17-17.38-18.07-19.53c4.62.62 10.89-7 12.87-10.13 3.38-5.31 4.49-11.6 4.63-17.79.14-6.19 2.74-17.31-.75-22.46-.81-1.18-1.9-2.16-2.64-3.39-1.66-2.74-1.34-6.29-2.71-9.19-2-4.21-6.32-7.4-8.75-11.43-2.13-3.52-3.36-7.4-5.94-10.77-6.51-8.5-15.84-13.51-26.36-8.81 6.15-2.75 7-19.19 6.48-24.23-2.32-21.78-23-29.52-34.5-45.37a26.85 26.85 0 00-17.58-11.24c-3.44-.71-18.24-1.12-20.3 4.32-.13.77-.25 1.23-.25 1.33 0-.46.08-.9.25-1.33.83-5.16 1.75-24.16-33.14-39.88-.37 1.08-54.95-22.82-61.86 2.89 0 .36-1.81-22.77-43.74-17.71.36.36-24.58 1.44-35.06 11.2-.36 0-13.74 6.15-12.29 23.13-.42-4.91-14.58-11.21-18.28-12.18-16-4.21-36.18 6.13-49.72 13.76-21.27 12-45.62 41.07-26.34 65 0 0-19.05-9.28-31.75 8.79-17.24 24.56-23.34 46.3-25.22 76.3-.82 13.22 4.83 21.84 17.93 25.23-5.74-1.49-14.43 9.79-16.53 13.5-7.62 13.44-5.21 34.06-3.2 48.75 1 7.37 2.62 14.81 6.42 21.2 9.83 16.56 20.17 38.56 43.6 26.38-5.37 6.83-9.13 15.39-8.25 24 .79 7.72 5.15 14.6 9.87 20.76 4.17 5.44 10 11.1 16.74 10.1-1.58 4.54.17 9.71 3.24 13.41a37.01 37.01 0 0021.4 12.14c6.9 1 21.1-1.57 23.62-9.68 0 0-6.51 21 12.65 36.87 15.32 12.72 40.1 15.29 59.2 17.9 15.33 2.09 36.26.47 37.79-19-.39 4.9 5.35 11.83 8.65 14.69 13.34 11.57 33.69 6.75 49.61 5.13a84.32 84.32 0 0019.79-4.26c8.51-3 15.75-10.72 23.78-13.4-1.09.36 9.39-3.25 10.12-13.37-.47 6.55 18.7 1 20.38.33 19.71-7.6 31.4-22.72 45.58-37.25 10.39-10.65 25.06-26.15 6.34-38.63 17.73 11.82 35.17-18.37 39.7-31.61a146.94 146.94 0 006.46-30.76c1.42-12.74-2.39-21.82-3.87-33.71zm-176.4 18.84c-12.84-4.49-12 9.2-12 9.84-.85-3.63-7.27-3.63-6.63-2.78-5.35-9.84-12.63-4.06-12.2-2.57-1.5-3.42-8.13-.85-7.49-.64-1.42 0-3.15 5.3-3.68 8.14-.05.44-.1.88-.17 1.35.02-.45.07-.91.17-1.35 1.28-12.72-8.43-17-8.15-16.4-9.2-5.2-22.93 7.65-23.23 8.26 4.58-15.61-7.35-25.4-7-24.78-5.58-5.29-17.36-.43-18 0 4.84-4 .58-15.58 1.19-15.89-1.16-3.92-12.12-5.94-17.8-6.5l-3.33-.12c1.11-.1 2.23-.05 3.33.12 5.74.18 12.31.2 17.24-2.3 4.56-2.31 4.8-8.85 2.18-12.74-.9-1.33-3.87-6.2-5.6-6.52 37.67 7 31.67-17.26 31.46-17 16.47 5.13 20.54-7.49 20.83-7.28 5.21 19.47 15.54 13.48 16.4 13.27-5.78 38.09 21.83 25.46 22 25.89-18.62 16.05-3.42 13.48-3 13.69-3.42 12 16.27 20.55 16.91 20.55-7.71 6.99-2.79 15.97-3.43 15.76z" fill="url(#paint6_radial)"/>
    <path d="M1257.25 798.03c-.17.42-.25.88-.25 1.33 0-.1.12-.56.25-1.33z" fill="white"/>
    <path d="M1152.48 1018.88c-.1.44-.15.9-.17 1.35.07-.47.12-.9.17-1.35z" fill="white"/>
    <path d="M1076.1 963.42l3.33.12c-1.1-.17-2.22-.21-3.33-.12z" fill="white"/>
    <path opacity=".2" d="M1119.56 980.56s32.63-30.61 50.47-15.56c17.84 15.05-11.6-9.8-9.91-13.69-.25 0 2.87-17.06-12.44-15.59-1.19.48-22.42-8.33-24 29.28.01.19-4.12 15.56-4.12 15.56z" fill="#A79F5B"/>
    <path d="M1180.98 970.51c-.42-.21-15.62 2.36 3-13.69-.21-.43-27.82 12.2-22-25.89-.86.21-11.19 6.2-16.4-13.27-.29-.21-4.36 12.41-20.83 7.28.21-.22 6.21 24-31.46 17 1.73.32 4.7 5.19 5.6 6.52 2.62 3.89 2.38 10.43-2.18 12.74-4.93 2.5-11.5 2.48-17.24 2.3 5.68.56 16.64 2.58 17.8 6.5-.61.31 3.65 11.88-1.19 15.89.66-.4 12.44-5.26 18 0-.31-.62 11.62 9.17 7 24.78.3-.61 14-13.46 23.23-8.26-.28-.59 9.43 3.68 8.15 16.4.53-2.84 2.26-8.14 3.68-8.14-.64-.21 6-2.78 7.49.64-.43-1.49 6.85-7.27 12.2 2.57-.64-.85 5.78-.85 6.63 2.78 0-.64-.85-14.33 12-9.84.64.21-4.28-8.77 3.42-15.83-.63.07-20.32-8.49-16.9-20.48zm-33.06 26.5c-.22 0-11.67-4.88-21 3 0 .21 3-21.21-7-25.88 0 0 14-27.63 26.92-19.86 0 0-25.74-24.57-1.31-14.65 0 0 11.5-2.43 11.92 7.45-.21-.09-.64 11.84 5.73 13.41.21.08 5 15.78 16.59 18.11a16 16 0 007.59 10.39c-.21-.24-32.23-2.36-39.44 8.03z" fill="#F0EBD8"/>
    <path d="M1133.59 944.11c-.12-.1-.26-.18-.39-.27 6.24 5.49 5.41 17.12-2 26.3s-18.6 12.45-25.28 7.52l.34.32c6.64 5.35 18.13 2.1 25.67-7.25 7.54-9.35 8.32-21.27 1.66-26.62z" fill="#EFE8DA"/>
    <path d="M1131.21 970.15c7.53-9.34 8.43-21.11 1.99-26.3-6.43-5.19-17.75-1.82-25.28 7.51-7.53 9.34-8.42 21.12-1.99 26.3 6.43 5.19 17.75 1.83 25.28-7.51z" fill="#F6F3EC"/>
    <path d="M1150.85 994.2s25.83-8.11 37.72-4.14c-.07 0-6-8.3-6.4-8.87-2.45-3.76-6.7-8.84-11.23-10.06-5.49-1.47-11.69 7.2-5.8 10.2 1.36.7 3.49.23 4.61 1.57 4.58 5.43-14.57 6.92-18.9 11.3z" fill="#E7DBAD"/>
    <g opacity=".5" fill="white">
      <path opacity=".5" d="M1029.17 1144.25a1744.48 1744.48 0 0139.94-64.46 796 796 0 0121.41-31.29 290.3 290.3 0 0111.57-15c2-2.43 4.09-4.79 6.28-7.09a41.38 41.38 0 017.19-6.15c-2.61 1.78-5 3.86-7.14 6.19a135.8 135.8 0 00-6.23 7.13c-4 4.9-7.79 9.95-11.46 15.09a770.66 770.66 0 00-21.2 31.41 1476.8 1476.8 0 00-20.1 32.14 1873.9 1873.9 0 00-19.4 32.56l-.86-.53z"/>
      <path opacity=".5" d="M1087.95 987.26c-4.74 2.29-9.47 4.6-14.17 7-4.7 2.4-9.4 4.73-14.07 7.16a741.67 741.67 0 00-27.73 15.07 433.27 433.27 0 00-26.84 16.55c-4.35 2.95-8.63 6-12.69 9.35a77.8 77.8 0 00-11.34 10.94 73.52 73.52 0 0111-11.3c4-3.42 8.25-6.57 12.56-9.6 4.31-3.03 8.73-5.91 13.21-8.69 4.48-2.78 9-5.48 13.58-8.1a635.98 635.98 0 0127.88-14.88c9.45-4.75 18.91-9.3 28.61-13.5z"/>
      <path opacity=".5" d="M1161.77 766.38c-.09 9.12-.49 18.24-1 27.35a691.54 691.54 0 01-2.15 27.29c-.87 9.08-2 18.14-3.45 27.16-1.45 9.02-3.14 18-5.39 26.84l1.32-6.71c.48-2.23.79-4.49 1.2-6.73l.59-3.37.52-3.38c.33-2.25.69-4.5 1-6.76a689.32 689.32 0 003.22-27.15c.95-9.06 1.68-18.15 2.38-27.24a1540.34 1540.34 0 001.76-27.3z"/>
      <path opacity=".5" d="M1179.78 947.04a718.71 718.71 0 0131.52-19.84 727.97 727.97 0 0132.44-18.29 449.58 449.58 0 0133.51-16.25c11.4-4.89 23-9.42 35.15-12.24l-8.91 2.67c-2.94 1-5.84 2.1-8.76 3.14l-2.18.79-2.15.89-4.3 1.76-4.3 1.78-4.22 1.88-4.23 2a70.45 70.45 0 00-4.22 2l-8.38 4c-5.53 2.8-11.09 5.56-16.54 8.52-5.45 2.96-10.92 5.87-16.36 8.85-5.44 2.98-10.8 6.12-16.16 9.22a908.73 908.73 0 00-16 9.47c-5.28 3.2-10.65 6.37-15.91 9.65z"/>
      <path opacity=".5" d="M1149.77 1031.67a344.5 344.5 0 00-3.09 16.19 561.07 561.07 0 00-2.5 16.28 438.87 438.87 0 00-3.24 32.77 350.73 350.73 0 00-.36 32.91l.51 8.21.12 2.06c.06.68.15 1.36.23 2l.46 4.09c.44 5.48 1.59 10.86 2.43 16.29a205.36 205.36 0 01-4.52-32.65c-.54-10.99-.49-22.01.14-33 .73-11 1.84-21.94 3.47-32.82a331.47 331.47 0 016.35-32.33z"/>
      <path opacity=".5" d="M1191.18 1035.27c7.19 9.93 14 20.1 20.66 30.42a565.42 565.42 0 0118.91 31.54 362.4 362.4 0 0116.33 33c2.38 5.66 4.57 11.4 6.42 17.26 1.92 5.86 3.3 11.89 4.13 18l-1 .12a100.72 100.72 0 00-4-17.84 200.36 200.36 0 00-6.27-17.23 360.23 360.23 0 00-16.08-33 578.27 578.27 0 00-18.68-31.65 607.59 607.59 0 00-20.42-30.62z"/>
      <path opacity=".5" d="M1321.73 1079.81a491.33 491.33 0 00-13.78-10.79 438.74 438.74 0 00-7-5.23c-2.33-1.75-4.72-3.42-7.09-5.11a503.74 503.74 0 00-29.18-19.29 365.78 365.78 0 00-30.67-16.77c-2.63-1.25-5.31-2.39-8-3.59-1.33-.58-2.64-1.22-4-1.75l-4.08-1.56-4.08-1.58-2-.78-2.09-.66-8.34-2.64a198.74 198.74 0 0132.93 11.87l7.88 3.83 2 1 1.93 1 3.86 2.08 3.86 2.08c1.29.69 2.53 1.46 3.8 2.19 2.52 1.48 5.06 2.92 7.56 4.43a450.08 450.08 0 0129.1 19.52c9.37 6.9 18.6 14.06 27.39 21.75z"/>
      <path opacity=".5" d="M940.9 954.24a197.37 197.37 0 0031.93 8c2.71.45 5.41.94 8.13 1.27l4.08.56 2 .28 2 .2 8.2.78 8.22.46a260 260 0 0032.92-.5c5.49-.26 10.92-1.07 16.39-1.7 2.74-.25 5.43-.82 8.14-1.24l8.14-1.36-8.09 1.62c-2.71.5-5.39 1.14-8.12 1.47-5.46.72-10.9 1.62-16.4 2-2.75.22-5.49.52-8.24.65l-8.26.27c-2.75.14-5.51.05-8.26 0H1007.48l-2.06-.12-8.17-.55-8.22-.83-2.05-.21-2-.29-4.09-.58c-2.74-.34-5.44-.88-8.15-1.38-2.71-.5-5.4-1.08-8.09-1.67-2.69-.59-5.35-1.31-8-2a147.98 147.98 0 01-15.75-5.13z"/>
      <path opacity=".5" d="M1070.4 762.38c.78 13.6 2.36 27.18 4.41 40.66a408.9 408.9 0 008.13 40.09 286.64 286.64 0 0012.76 38.85 193.8 193.8 0 008.81 18.46 150.35 150.35 0 0011.05 17.22 148.88 148.88 0 01-11.16-17.16 193.4 193.4 0 01-8.93-18.42 286.87 286.87 0 01-13-38.83 424.04 424.04 0 01-8.38-40.1 421.02 421.02 0 01-4.66-40.72l.97-.05z"/>
      <path opacity=".5" d="M977.25 843.85a1430.3 1430.3 0 0025 25.06c8.43 8.25 16.99 16.39 25.68 24.42 8.69 8 17.52 15.84 26.66 23.32 4.57 3.73 9.23 7.37 14.07 10.75s9.82 6.69 15.53 8.34c-5.72-1.61-10.73-5-15.6-8.24a194.78 194.78 0 01-14.16-10.66 614.7 614.7 0 01-26.84-23.14c-8.76-7.93-17.35-16-25.86-24.24a1601.28 1601.28 0 01-25.23-24.89l.75-.72z"/>
      <path opacity=".5" d="M1358.35 969.02c-13.38-.38-26.77-.64-40.17-.79-13.4-.15-26.79-.2-40.18-.15-13.39.09-26.79.31-40.17.86-6.69.28-13.38.64-20.05 1.18-6.68.46-13.33 1.37-19.89 2.73a147.7 147.7 0 0119.88-2.85c6.67-.59 13.36-1 20.05-1.31 13.38-.64 26.78-.94 40.18-1.11a2564.6 2564.6 0 0180.38.44l-.03 1z"/>
      <path opacity=".5" d="M1251.54 807.15a583.5 583.5 0 00-11.2 11.05c-3.68 3.74-7.37 7.47-11 11.28a517.16 517.16 0 00-21.06 23.36 280.78 280.78 0 00-19.14 24.9c-2.96 4.32-5.67 8.8-8.09 13.45a61.43 61.43 0 00-5.62 14.63 59.25 59.25 0 015.18-14.85c2.36-4.7 5-9.26 7.91-13.64a221 221 0 019.15-12.85c3.15-4.18 6.48-8.27 9.88-12.27 6.82-8 13.91-15.75 21.26-23.25a462.92 462.92 0 0122.73-21.81z"/>
    </g>
    <g opacity=".3" fill="white">
      <path opacity=".3" d="M1004.01 943c2.79 0 5.06-1.14 5.06-2.54 0-1.4-2.27-2.53-5.06-2.53-2.79 0-5.06 1.13-5.06 2.53s2.27 2.53 5.06 2.53z"/>
      <path opacity=".3" d="M977.86 1069.51c1.09 0 1.97-2.24 1.97-5s-.88-5-1.97-5c-1.09 0-1.97 2.24-1.97 5s.88 5 1.97 5z"/>
      <path opacity=".3" d="M1019.61 1086.11a4.36 4.36 0 100-8.71 4.36 4.36 0 000 8.71z"/>
      <path opacity=".3" d="M1226.8 1063.91c1.38-.71 1.45-3.32.15-5.81-1.29-2.5-3.45-3.94-4.83-3.23s-1.45 3.32-.16 5.81c1.3 2.5 3.46 3.94 4.84 3.23z"/>
      <path opacity=".3" d="M1358.37 950.64c1.24 0 2.25-2.58 2.25-5.76 0-3.18-1.01-5.76-2.25-5.76s-2.25 2.58-2.25 5.76c0 3.18 1.01 5.76 2.25 5.76z"/>
      <path opacity=".3" d="M1255.09 918.24a2.53 2.53 0 100-5.06 2.53 2.53 0 000 5.06z"/>
      <path opacity=".3" d="M1176.65 818.15c1.24 0 2.25-3.9 2.25-8.72s-1.01-8.72-2.25-8.72-2.25 3.9-2.25 8.72 1.01 8.72 2.25 8.72z"/>
      <path opacity=".3" d="M1064.72 842.64c1.33-1.07.33-4.48-2.21-7.62-2.55-3.13-5.69-4.8-7.01-3.72-1.33 1.08-.33 4.49 2.21 7.62 2.55 3.13 5.69 4.8 7.01 3.73z"/>
      <path opacity=".3" d="M1104.81 895.08c-1.94-2.12-4.89-4.56-7.26-4.94-4.13-.65 1.09 7 1.79 8.12 6.9 11.12 13.35 13.6 16.8 14 .18.03.37 0 .54-.1.16-.08.3-.21.39-.38a1 1 0 00.1-.53 1 1 0 00-.23-.5c-.42-.49-.78-.95-.89-1.08-3.52-4.16-6.83-8.5-9.9-13-.41-.56-.86-1.09-1.34-1.59z"/>
      <path opacity=".3" d="M1162.97 1051.06a2.68 2.68 0 100-5.38 2.7 2.7 0 000 5.38z"/>
      <path opacity=".3" d="M1219.72 978.39a2.74 2.74 0 100-5.48 2.74 2.74 0 000 5.48z"/>
      <path opacity=".3" d="M1270.25 849.94a2.74 2.74 0 100-5.48 2.74 2.74 0 000 5.48z"/>
      <path opacity=".3" d="M1051.39 986.91c2.35 0 4.26-.95 4.26-2.13s-1.91-2.13-4.26-2.13c-2.35 0-4.26.95-4.26 2.13s1.91 2.13 4.26 2.13z"/>
      <path opacity=".3" d="M1130.92 1080.18c3.72-7.82 5.38-14.81 3.71-15.6-1.67-.8-6.04 4.9-9.76 12.72-3.73 7.83-5.39 14.82-3.72 15.61 1.67.8 6.04-4.9 9.77-12.73z"/>
      <path opacity=".3" d="M1081.74 1048.39c6.15-5.88 10.58-11.23 9.9-11.94-.68-.71-6.21 3.48-12.36 9.37-6.15 5.88-10.58 11.23-9.9 11.94.68.71 6.21-3.49 12.36-9.37z"/>
      <path opacity=".3" d="M1077.42 1005.63c1.71 0 3.09-.74 3.09-1.66 0-.92-1.38-1.66-3.09-1.66s-3.09.74-3.09 1.66c0 .92 1.38 1.66 3.09 1.66z"/>
      <path opacity=".3" d="M1167.52 1031.13c1.02 0 1.85-1.41 1.85-3.15s-.83-3.15-1.85-3.15-1.85 1.41-1.85 3.15.83 3.15 1.85 3.15z"/>
      <path opacity=".3" d="M1174.65 929.48c1.1 0 2-1.76 2-3.93s-.9-3.93-2-3.93-2 1.76-2 3.93.9 3.93 2 3.93z"/>
      <path opacity=".3" d="M1146.09 840.95c1.63 0 2.95-2.5 2.95-5.57 0-3.08-1.32-5.57-2.95-5.57-1.63 0-2.95 2.5-2.95 5.57 0 3.08 1.32 5.57 2.95 5.57z"/>
      <path opacity=".3" d="M1063.84 944.88c4.52 0 8.19-1.26 8.19-2.81s-3.67-2.81-8.19-2.81-8.19 1.26-8.19 2.81 3.67 2.81 8.19 2.81z"/>
      <path opacity=".3" d="M1281.53 1047.1a2.2 2.2 0 100-4.4 2.2 2.2 0 000 4.4z"/>
      <path opacity=".3" d="M1275.62 986.91c4.48 0 8.11-.95 8.11-2.13s-3.63-2.13-8.11-2.13c-4.48 0-8.11.95-8.11 2.13s3.63 2.13 8.11 2.13z"/>
      <path opacity=".3" d="M1235.93 802.89a4.2 4.2 0 100-8.4 4.2 4.2 0 000 8.4z"/>
    </g>
    <g opacity=".5" fill="white">
      <path opacity=".5" d="M1235.93 871.03l-7.5 8.31a310.52 310.52 0 00-7.22 8.3c-2.34 2.81-4.69 5.62-6.94 8.53-2.25 2.91-4.48 5.86-6.95 8.79a44.64 44.64 0 014.33-10.53 57.81 57.81 0 016.5-9.37 59.1 59.1 0 018.12-8 41.61 41.61 0 019.66-6.03z"/>
      <path opacity=".5" d="M1319.76 926.91a41.95 41.95 0 01-4.64 6.85 63.4 63.4 0 01-19.32 15.61 57.77 57.77 0 01-15.74 5.55 49.87 49.87 0 01-16.52.57c5.33-.84 10.59-2.04 15.76-3.59 2.53-.83 5-1.72 7.47-2.72a82.4 82.4 0 007.18-3.36c4.7-2.47 9.21-5.3 13.48-8.46 4.34-3.2 8.45-6.7 12.33-10.45z"/>
      <path opacity=".5" d="M1225.25 1129.63a62.07 62.07 0 01-16-13.91 85.37 85.37 0 01-11.66-17.92c-.43-.79-.77-1.61-1.12-2.43l-1.06-2.47-1-2.47c-.33-.83-.59-1.69-.87-2.53l-1.65-5.1a151.1 151.1 0 01-1.23-5.2l-.59-2.6c-.2-.86-.29-1.75-.42-2.63l-.7-5.28-.14-1.31-.06-1.33c0-.89-.08-1.77-.1-2.66 0-1.77-.08-3.53-.07-5.29.43 1.72.81 3.44 1.17 5.15.2.86.36 1.72.53 2.57l.26 1.28.35 1.27 1.33 5.05c.23.83.39 1.69.65 2.51l.8 2.48c.55 1.64 1.06 3.29 1.57 4.94l1.85 4.83c.33.8.58 1.63.93 2.42l1.06 2.35 1 2.36c.32.8.69 1.58 1.09 2.34l2.34 4.6c.81 1.52 1.72 3 2.55 4.49.83 1.49 1.81 2.92 2.73 4.39.92 1.47 1.92 2.86 2.9 4.28 4 5.7 8.54 11 13.56 15.82z"/>
      <path opacity=".5" d="M1117.7 789.58c.12 1.57.38 3.13.79 4.65.22.75.41 1.51.6 2.27l.7 2.25c.91 3 2 5.94 3 8.89 2.12 5.9 4.5 11.72 6.79 17.57l7 17.56c.57 1.48 1.16 2.94 1.71 4.42s1.11 3 1.68 4.44c1.1 3 2.21 5.94 3.16 9a175.3 175.3 0 01-9.4-16.57 221.97 221.97 0 01-7.85-17.36 158.12 158.12 0 01-6-18.12c-.4-1.55-.77-3.11-1.12-4.66a67.04 67.04 0 01-.85-4.74l-.3-2.38c-.07-.81-.14-1.61-.18-2.41-.12-1.6-.03-3.23.27-4.81z"/>
      <path opacity=".5" d="M970.41 1002.33a48.06 48.06 0 018.2-2.6 82.01 82.01 0 0116.8-2.11c2.87-.09 5.75.08 8.59.51a47.83 47.83 0 01-8.2 2.61 81.46 81.46 0 01-16.8 2.1c-2.87.08-5.75-.09-8.59-.51z"/>
      <path opacity=".5" d="M1044.18 1114.81a786.75 786.75 0 0114.83-16.09l14.94-15.87c2.52-2.61 5-5.28 7.47-7.93l7.45-7.94c5-5.29 9.86-10.68 15-15.92a168.33 168.33 0 01-12.62 17.95 94.53 94.53 0 01-3.46 4.26c-1.19 1.39-2.34 2.81-3.54 4.19a405.96 405.96 0 01-7.37 8.13 283.1 283.1 0 01-3.82 3.94c-1.29 1.3-2.54 2.63-3.87 3.89-2.63 2.53-5.25 5.09-8 7.52a187.07 187.07 0 01-17.01 13.87z"/>
      <path opacity=".5" d="M1353.37 1044.9c-7-3.74-14.16-7.12-21.39-10.23-3.63-1.5-7.25-3-10.94-4.34a186.5 186.5 0 00-22.45-6.81c-1.89-.48-3.81-.85-5.72-1.26a146.19 146.19 0 00-29.33-2.69 81.33 81.33 0 0123.91-1.41c8.02.67 15.94 2.21 23.63 4.6a141.28 141.28 0 0122.23 9.05 110.12 110.12 0 0120.06 13.09z"/>
      <path opacity=".5" d="M998.94 885.43c4.88 2.81 9.52 5.93 14.08 9.16 4.56 3.23 9 6.57 13.38 10 4.38 3.43 8.67 7 12.84 10.71 4.17 3.71 8.29 7.48 12.15 11.59a172.2 172.2 0 01-14.08-9.14c-4.55-3.23-9-6.57-13.39-10-4.39-3.43-8.66-7-12.83-10.72a189.67 189.67 0 01-12.15-11.6z"/>
    </g>
  </g>
  <defs>
    <radialGradient id="paint0_radial" cx="0" cy="0" r="1" gradientUnits="userSpaceOnUse" gradientTransform="translate(1724.33 236.36) scale(318.37)">
      <stop stop-color="#F45947"/>
      <stop offset="1" stop-color="#FE7D67"/>
    </radialGradient>
    <radialGradient id="paint1_radial" cx="0" cy="0" r="1" gradientUnits="userSpaceOnUse" gradientTransform="translate(1724.33 236.36) scale(318.37)">
      <stop stop-color="#FE7D67" stop-opacity=".61"/>
      <stop offset="1" stop-color="#A15947" stop-opacity=".3"/>
    </radialGradient>
    <radialGradient id="paint2_radial" cx="0" cy="0" r="1" gradientUnits="userSpaceOnUse" gradientTransform="translate(-54076.4 -24518.7) scale(63759.3)">
      <stop stop-color="#FFCB53"/>
      <stop offset="1" stop-color="#FFBB48" stop-opacity=".76"/>
    </radialGradient>
    <radialGradient id="paint3_radial" cx="0" cy="0" r="1" gradientUnits="userSpaceOnUse" gradientTransform="translate(200.09 477.8) scale(315.21)">
      <stop stop-color="#FFCB53"/>
      <stop offset="1" stop-color="#FFBB48" stop-opacity=".9"/>
    </radialGradient>
    <radialGradient id="paint4_radial" cx="0" cy="0" r="1" gradientUnits="userSpaceOnUse" gradientTransform="matrix(1209.94 0 0 1792.56 15551.8 26557.6)">
      <stop stop-color="#FFCB53"/>
      <stop offset="1" stop-color="#FFBB48" stop-opacity=".9"/>
    </radialGradient>
    <radialGradient id="paint5_radial" cx="0" cy="0" r="1" gradientUnits="userSpaceOnUse" gradientTransform="translate(1145.54 967.89) scale(227.41)">
      <stop stop-color="#F0E4A1"/>
      <stop offset=".72" stop-color="#F1E19F"/>
      <stop offset="1" stop-color="#F2DD9C"/>
    </radialGradient>
    <radialGradient id="paint6_radial" cx="0" cy="0" r="1" gradientUnits="userSpaceOnUse" gradientTransform="translate(1145.54 967.89) scale(227.41)">
      <stop stop-color="#F0E4A1" stop-opacity="0"/>
      <stop offset=".5" stop-color="white" stop-opacity=".1"/>
      <stop offset=".7" stop-color="#F8F2D3" stop-opacity=".05"/>
      <stop offset="1" stop-color="#F0E4A1" stop-opacity="0"/>
    </radialGradient>
    <clipPath id="clip0">
      <path fill="white" d="M0 0h1920v1080H0z"/>
    </clipPath>
  </defs>
</svg>
