<svg width="16" height="16" xmlns="http://www.w3.org/2000/svg">
  <path fill-rule="evenodd" clip-rule="evenodd" d="M16 0H0v16h16V0zm-3 8c-.773 1.76-2.727 3-5 3-2.272 0-4.228-1.179-5-3 .772-1.76 2.728-3 5-3 2.273 0 4.227 1.24 5 3zM9.768 9.697A2.554 2.554 0 0 1 8 10.4a2.554 2.554 0 0 1-1.768-.703A2.352 2.352 0 0 1 5.5 8c0-.637.263-1.247.732-1.697A2.554 2.554 0 0 1 8 5.6c.663 0 1.299.253 1.768.703.469.45.732 1.06.732 1.697s-.263 1.247-.732 1.697zm-1.281-.58a1.296 1.296 0 0 1-1.353-.278A1.176 1.176 0 0 1 6.778 8c0-.314.128-.615.357-.839a1.296 1.296 0 0 1 1.353-.277c.154.059.295.147.414.259a1.2 1.2 0 0 1 .279.392 1.159 1.159 0 0 1-.279 1.323c-.12.112-.26.2-.415.259z"/>
</svg>
