<svg width="16" height="16" xmlns="http://www.w3.org/2000/svg">
  <path fill-rule="evenodd" clip-rule="evenodd" d="M16 0H0v16h16V0zm-5.829 4.645c.108.07.212.146.312.226l.662-.667a.5.5 0 0 1 .855.352v2.815H9.201a.5.5 0 0 1-.354-.852l.693-.698a2.674 2.674 0 0 0-.444-.254l-.008-.003a2.66 2.66 0 0 0-1.75-.15l-.003.001c-.584.15-1.1.496-1.466.979l-.006.007a2.71 2.71 0 0 0-.541 1.693v.001c.015.61.235 1.198.624 1.665l.006.007c.389.464.922.783 1.513.905h.005c.59.12 1.203.037 1.74-.238l.006-.002a2.683 2.683 0 0 0 .876-.719.98.98 0 0 1 .155-.156c.227-.182.529-.256.795-.134.331.151.481.546.28.849a4.018 4.018 0 0 1-1.5 1.342l-.006.003a3.975 3.975 0 0 1-2.615.358h-.005a3.995 3.995 0 0 1-2.262-1.36l-.006-.007a4.045 4.045 0 0 1-.927-2.478v-.002a4.048 4.048 0 0 1 .803-2.522l.006-.008a3.998 3.998 0 0 1 2.194-1.471h.003a3.973 3.973 0 0 1 2.63.226l.007.003c.183.083.36.18.527.29z"/>
</svg>
