<svg width="16" height="16" xmlns="http://www.w3.org/2000/svg">
  <path fill-rule="evenodd" clip-rule="evenodd" d="M10.483 4.87a4.023 4.023 0 0 0-.84-.514l-.007-.003a3.973 3.973 0 0 0-2.63-.227h-.002A3.998 3.998 0 0 0 4.81 5.599l-.006.008a4.048 4.048 0 0 0-.803 2.522v.002c.023.908.35 1.781.927 2.478l.006.007a3.995 3.995 0 0 0 2.262 1.36H7.2a3.975 3.975 0 0 0 2.615-.358l.005-.003a3.986 3.986 0 0 0 1.5-1.342c.202-.303.052-.698-.279-.85-.266-.121-.568-.047-.795.135a.98.98 0 0 0-.155.156 2.686 2.686 0 0 1-.876.719l-.006.002a2.661 2.661 0 0 1-1.74.239l-.005-.002a2.675 2.675 0 0 1-1.513-.904l-.006-.007a2.709 2.709 0 0 1-.624-1.665v-.001A2.71 2.71 0 0 1 5.863 6.4l.006-.007a2.677 2.677 0 0 1 1.466-.979h.002a2.66 2.66 0 0 1 1.751.149l.008.003c.156.07.305.156.444.254l-.693.698a.5.5 0 0 0 .354.852H12V4.556a.5.5 0 0 0-.855-.352l-.662.667z"/>
</svg>
