<svg xmlns="http://www.w3.org/2000/svg" xmlns:xlink="http://www.w3.org/1999/xlink" width="853" height="853" version="1">
  <defs>
    <linearGradient id="a" x1="128" x2="128" y2="256" gradientUnits="userSpaceOnUse">
      <stop offset="0" stop-color="#f5f5f6"/>
      <stop offset="1" stop-color="#ededee"/>
    </linearGradient>
    <linearGradient id="c" x1="128" x2="128" y2="256" gradientUnits="userSpaceOnUse" xlink:href="#a"/>
    <linearGradient id="b" x1="128" x2="128" y2="256" gradientUnits="userSpaceOnUse" xlink:href="#a"/>
  </defs>
  <g fill-rule="evenodd" stroke-linecap="square" stroke-linejoin="bevel">
    <path fill="url(#c)" d="M256 128a128 128 0 1 1-256 0 128 128 0 0 1 256 0" transform="matrix(3.12496 0 0 3.12496 0 0)"/>
    <path fill="#fff" d="M781 400a381 381 0 1 1-762 0 381 381 0 0 1 762 0"/>
    <path fill="#ec1c24" d="M658 235L444 444v260c0 6-20 9-44 9-22 0-44-3-44-9V445L142 235c-3-3 8-20 25-37s34-28 37-25l196 192 196-192c3-3 19 8 36 25s28 34 26 37"/>
  </g>
</svg>
