<svg xmlns="http://www.w3.org/2000/svg" viewBox="0 0 256 256">
  <linearGradient id="a" gradientUnits="userSpaceOnUse" x1="108.665" y1="243.179" x2="148.682" y2="16.227" gradientTransform="matrix(1 0 0 -1 0 258)">
    <stop offset="0" stop-color="#ff8c8f"/>
    <stop offset=".38" stop-color="#f21818"/>
    <stop offset=".446" stop-color="#e51515"/>
    <stop offset=".568" stop-color="#c20e0e"/>
    <stop offset=".732" stop-color="#8a0202"/>
    <stop offset=".761" stop-color="maroon"/>
  </linearGradient>
  <path d="M127.6 219.9c38.1 0 41.5-57.7 41.5-96.5 0-44.7-6.7-93.4-41.5-93.4s-40.7 51.8-40.7 93.4c0 38.5 3.1 96.5 40.7 96.5zm0-208.7c62.4 0 109 45.1 109 114.1 0 60.9-44.2 116.3-109 116.3-64.2 0-108.2-55.3-108.2-116.3 0-68.4 45.2-114.1 108.2-114.1z" fill="url(#a)"/>
  <linearGradient id="b" gradientUnits="userSpaceOnUse" x1="127.774" y1="41.29" x2="127.774" y2="18.705" gradientTransform="matrix(1 0 0 -1 0 258)">
    <stop offset="0" stop-color="#ff444c" stop-opacity="0"/>
    <stop offset=".237" stop-color="#ff393f" stop-opacity=".237"/>
    <stop offset=".671" stop-color="#ff1b1e" stop-opacity=".671"/>
    <stop offset="1" stop-color="red"/>
  </linearGradient>
  <path d="M192 216.6c-16.2 14.3-37.6 22.5-64.4 22.5-26.5 0-47.8-8.1-64-22.5l54.9-.1c2.8.8 5.8 1.2 9.1 1.2s6.4-.3 9.2-1l55.2-.1z" opacity=".5" fill="url(#b)"/>
  <linearGradient id="c" gradientUnits="userSpaceOnUse" x1="126.991" y1="40.458" x2="129.357" y2="233.954" gradientTransform="matrix(1 0 0 -1 0 258)">
    <stop offset="0" stop-color="#e60000"/>
    <stop offset=".357" stop-color="#dc0b0a"/>
    <stop offset=".981" stop-color="#c02825"/>
    <stop offset="1" stop-color="#bf2926"/>
  </linearGradient>
  <path d="M127.6 217.1c-38.8 0-40.4-55.2-40.4-93.8 0-45.4 4.4-88.9 40.4-88.9 36.1 0 41.5 44.1 41.5 88.9 0 38.7-2.2 93.8-41.5 93.8zm0-188.5c-42.4 0-46.7 56.6-46.7 94.6 0 43 8.5 98.9 46.7 98.9 40.7 0 47.8-55.9 47.8-98.9 0-37.3-4.5-94.6-47.8-94.6z" opacity=".8" fill="url(#c)"/>
  <linearGradient id="d" gradientUnits="userSpaceOnUse" x1="128.296" y1="41.843" x2="128.296" y2="232.348" gradientTransform="matrix(1 0 0 -1 0 258)">
    <stop offset="0" stop-color="#b80000"/>
    <stop offset="1" stop-color="#900"/>
  </linearGradient>
  <path d="M127.6 215.7c-37.5 0-39-54.3-39-92.3 0-44.6 4.2-87.4 39-87.4s40.1 43.3 40.1 87.4c0 38.1-2.1 92.3-40.1 92.3zm0-185.5c-41.8 0-44.7 56.2-44.7 93.2 0 42.3 7 97.3 44.7 97.3 39.3 0 46.1-55 46.1-97.3 0-36.5-4.3-93.2-46.1-93.2z" fill="url(#d)"/>
  <linearGradient id="e" gradientUnits="userSpaceOnUse" x1="128.146" y1="137.68" x2="128.146" y2="225.564" gradientTransform="matrix(1 0 0 -1 0 258)">
    <stop offset="0" stop-color="#cf0000" stop-opacity="0"/>
    <stop offset=".131" stop-color="#bf0000" stop-opacity=".131"/>
    <stop offset=".515" stop-color="#960000" stop-opacity=".515"/>
    <stop offset=".818" stop-color="#7c0000" stop-opacity=".818"/>
    <stop offset="1" stop-color="#730000"/>
  </linearGradient>
  <path d="M86.8 122.4c0-39.9 5.3-86.4 40.8-86.4 35.4 0 41.9 48.5 41.9 85.8 0-33.7-4.6-87.3-41.9-87.3-37.2 0-40.8 53.7-40.8 87.9z" opacity=".5" fill="url(#e)"/>
  <linearGradient id="f" gradientUnits="userSpaceOnUse" x1="128.048" y1="42.67" x2="128.048" y2="130.534" gradientTransform="matrix(1 0 0 -1 0 258)">
    <stop offset="0" stop-color="#730000"/>
    <stop offset=".182" stop-color="#7c0000" stop-opacity=".818"/>
    <stop offset=".485" stop-color="#960000" stop-opacity=".515"/>
    <stop offset=".869" stop-color="#bf0000" stop-opacity=".131"/>
    <stop offset="1" stop-color="#cf0000" stop-opacity="0"/>
  </linearGradient>
  <path d="M168 129.6c0 39.9-5.9 86.4-40.2 86.4-34.3 0-39.8-46-39.8-85.7 0 36.2 3.6 87.2 39.7 87.2 36.1-.1 40.3-53.7 40.3-87.9z" opacity=".15" fill="url(#f)"/>
  <linearGradient id="g" gradientUnits="userSpaceOnUse" x1="22.349" y1="75.845" x2="234.409" y2="75.845" gradientTransform="matrix(1 0 0 -1 0 258)">
    <stop offset="0" stop-color="#e8000f"/>
    <stop offset="1" stop-color="#e0000f"/>
  </linearGradient>
  <path d="M22.3 124.6c0 58.9 40.2 115.1 105.5 115.1 65.8 0 106.6-57.7 106.6-115.1 0 56.8-41.8 114.2-106.6 114.2-64.3 0-105.5-55.8-105.5-114.2z" opacity=".8" fill="url(#g)"/>
  <linearGradient id="h" gradientUnits="userSpaceOnUse" x1="128.262" y1="153.345" x2="128.262" y2="256.358" gradientTransform="matrix(1 0 0 -1 0 258)">
    <stop offset="0" stop-color="#fff" stop-opacity="0"/>
    <stop offset="1" stop-color="#fff"/>
  </linearGradient>
  <path d="M22.7 121.9C22.7 73.4 56 13.6 127.6 13.6c59.6 0 106.2 46.2 106.2 108.3 0-62.7-42.6-110.6-106.2-110.6-64.1.1-104.9 46.6-104.9 110.6z" opacity=".65" fill="url(#h)"/>
</svg>
