<svg xmlns="http://www.w3.org/2000/svg" id="Layer_1" viewBox="0 0 256 256" style="enable-background:new 0 0 256 256">
  <style>
    .st3{fill:#f3f3f3}.st4{fill:#fff}
  </style>
  <filter id="filter-5" width="200%" height="200%" x="-50%" y="-50%" filterUnits="objectBoundingBox">
    <feOffset dy="1" in="SourceAlpha" result="shadowOffsetOuter1"/>
    <feGaussianBlur in="shadowOffsetOuter1" result="shadowBlurOuter1" stdDeviation="2"/>
    <feColorMatrix in="shadowBlurOuter1" result="shadowMatrixOuter1" values="0 0 0 0 0 0 0 0 0 0 0 0 0 0 0 0 0 0 13 0"/>
    <feMerge>
      <feMergeNode in="shadowMatrixOuter1"/>
      <feMergeNode in="SourceGraphic"/>
    </feMerge>
  </filter>
  <filter id="filter-2" width="200%" height="200%" x="-50%" y="-50%" filterUnits="objectBoundingBox">
    <feOffset dy="2" in="SourceAlpha" result="shadowOffsetOuter1"/>
    <feGaussianBlur in="shadowOffsetOuter1" result="shadowBlurOuter1" stdDeviation="2"/>
    <feColorMatrix in="shadowBlurOuter1" result="shadowMatrixOuter1" values="0 0 0 0 0 0 0 0 0 0 0 0 0 0 0 0 0 0 0.266007133 0"/>
    <feMerge>
      <feMergeNode in="shadowMatrixOuter1"/>
      <feMergeNode in="SourceGraphic"/>
    </feMerge>
  </filter>
  <g transform="translate(4 2)">
    <g style="filter:url(#filter-2)">
      <linearGradient id="SVGID_1_" x1="-124" x2="-124" y1="375.5" y2="376.5" gradientTransform="matrix(248 0 0 -248 30879 93375)" gradientUnits="userSpaceOnUse">
        <stop offset=".3" style="stop-color:#dbdbda"/>
        <stop offset="1" style="stop-color:#fff"/>
      </linearGradient>
      <circle cx="124" cy="124" r="124" style="fill:url(#SVGID_1_)"/>
    </g>
    <radialGradient id="SVGID_2_" cx="-123.9" cy="376.1" r=".6" gradientTransform="matrix(229.4 0 0 -229.4 28563.3 86372.1)" gradientUnits="userSpaceOnUse">
      <stop offset="0" style="stop-color:#2abce1"/>
      <stop offset=".1" style="stop-color:#2abbe1"/>
      <stop offset="1" style="stop-color:#3375f8"/>
    </radialGradient>
    <circle cx="124" cy="124" r="114.7" style="fill:url(#SVGID_2_)"/>
    <g transform="translate(9.7 8.7)">
      <path d="M114.5 28.5c-.8 0-1.5-.6-1.5-1.4V6.9c0-.8.7-1.4 1.5-1.4s1.5.6 1.5 1.4v20.2c-.1.8-.7 1.4-1.5 1.4z" class="st3"/>
      <path d="M114.5 28.6c-.9 0-1.5-.7-1.5-1.5V6.9c0-.8.7-1.5 1.5-1.5.9 0 1.6.7 1.6 1.5v20.2c0 .8-.8 1.5-1.6 1.5zm0-23c-.7 0-1.4.6-1.4 1.3v20.2c0 .7.6 1.3 1.4 1.3.7 0 1.4-.6 1.4-1.3V6.9c-.1-.7-.7-1.3-1.4-1.3z" class="st4"/>
      <path d="M124.2 17.6c-.8-.1-1.4-.7-1.4-1.5l.7-9c.1-.8.8-1.4 1.6-1.3.8.1 1.4.7 1.4 1.5l-.7 9c-.2.8-.8 1.4-1.6 1.3z" class="st3"/>
      <path d="M124.2 17.7c-.9-.1-1.5-.8-1.5-1.5l.7-9c.1-.8.8-1.5 1.6-1.4.9.1 1.5.8 1.5 1.6l-.7 9c-.1.8-.7 1.4-1.6 1.3zm.9-11.7c-.7 0-1.4.5-1.4 1.2l-.7 9c0 .7.5 1.3 1.3 1.4.7 0 1.4-.5 1.4-1.2l.7-9c-.1-.7-.7-1.3-1.3-1.4z" class="st4"/>
      <path d="M131.5 30.2c-.8-.2-1.3-.9-1.2-1.6l4-19.9c.2-.8.9-1.3 1.6-1.1.8.2 1.3.9 1.2 1.6l-4 19.9c-.1.7-.9 1.2-1.6 1.1z" class="st3"/>
      <path d="M131.5 30.3c-.9-.2-1.4-1-1.3-1.7l4-19.9c.2-.8 1-1.4 1.8-1.2s1.4 1 1.3 1.7l-4 19.9c-.2.8-1 1.3-1.8 1.2zM136 7.8c-.7-.1-1.4.3-1.6 1l-4 19.9c-.1.7.3 1.4 1.1 1.5.7.1 1.4-.3 1.6-1l4-19.9c.1-.8-.4-1.4-1.1-1.5z" class="st4"/>
      <path d="M143.1 21.5c-.8-.2-1.3-1-1.1-1.7l2.4-8.7c.2-.8 1-1.2 1.7-1 .8.2 1.3 1 1.1 1.7l-2.4 8.7c-.2.8-.9 1.2-1.7 1z" class="st3"/>
      <path d="M143.1 21.6c-.8-.2-1.4-1.1-1.1-1.8l2.4-8.7c.2-.8 1.1-1.3 1.8-1.1.8.2 1.4 1.1 1.1 1.8l-2.4 8.7c-.2.8-.9 1.3-1.8 1.1zm3.2-11.3c-.7-.2-1.5.2-1.6.9l-2.4 8.7c-.2.7.2 1.4 1 1.5.7.2 1.5-.2 1.6-.9l2.4-8.7c0-.7-.3-1.3-1-1.5z" class="st4"/>
      <path d="M147.8 35.2c-.8-.3-1.1-1.2-.8-1.8l7.8-18.7c.3-.7 1.2-1.1 1.8-.7.8.3 1.1 1.2.8 1.8l-7.8 18.7c-.2.7-1.1 1.1-1.8.7z" class="st3"/>
      <path d="M147.8 35.3c-.8-.3-1.2-1.2-.9-1.9l7.8-18.7c.3-.8 1.2-1.1 2-.8.8.3 1.2 1.2.9 1.9l-7.8 18.7c-.3.8-1.2 1.2-2 .8zm8.8-21.3c-.7-.3-1.5 0-1.7.7l-7.8 18.7c-.3.7.1 1.4.8 1.6.7.3 1.5 0 1.7-.7l7.8-18.7c.2-.5-.1-1.3-.8-1.6z" class="st4"/>
      <path d="M160.9 29c-.7-.4-1-1.2-.7-1.8l4.1-8c.4-.7 1.2-1 1.9-.6s1 1.2.7 1.8l-4.1 8c-.3.7-1.1 1-1.9.6z" class="st3"/>
      <path d="M160.9 29.1c-.8-.4-1.1-1.3-.7-2l4.1-8c.4-.8 1.3-1.1 2-.7.8.4 1.1 1.3.7 2l-4.1 8c-.3.8-1.2 1.1-2 .7zm5.3-10.6c-.7-.3-1.5-.1-1.7.6l-4.1 8c-.3.6 0 1.4.6 1.7.7.3 1.5.1 1.7-.6l4.1-8c.3-.5 0-1.3-.6-1.7z" class="st4"/>
      <path d="M162.8 43.3c-.7-.5-.9-1.4-.4-1.9l11.2-16.8c.4-.7 1.3-.8 1.9-.4.7.5.9 1.4.4 1.9l-11.2 16.8c-.3.7-1.2.9-1.9.4z" class="st3"/>
      <path d="M162.8 43.4c-.7-.5-.9-1.5-.5-2.1l11.2-16.8c.5-.7 1.4-.9 2.1-.4.7.5.9 1.5.5 2.1L165 43c-.5.7-1.5.9-2.2.4zm12.8-19.1c-.6-.4-1.5-.3-1.8.3l-11.2 16.8c-.4.6-.2 1.4.4 1.7.6.4 1.5.3 1.8-.3L176 26.2c.4-.6.2-1.5-.4-1.9z" class="st4"/>
      <path d="M177 39.7c-.6-.5-.8-1.4-.3-1.9l5.6-7.1c.5-.6 1.4-.7 1.9-.2.6.5.8 1.4.3 1.9l-5.6 7.1c-.5.6-1.3.7-1.9.2z" class="st3"/>
      <path d="M176.9 39.8c-.7-.5-.8-1.5-.3-2.1l5.6-7.1c.5-.7 1.5-.8 2.1-.2.7.5.8 1.5.3 2.1l-5.6 7.1c-.5.7-1.4.8-2.1.2zm7.3-9.2c-.6-.5-1.4-.4-1.8.2l-5.6 7.1c-.4.6-.3 1.4.3 1.8.6.5 1.4.4 1.8-.2l5.6-7.1c.3-.5.2-1.4-.3-1.8z" class="st4"/>
      <path d="M176 54.2c-.6-.6-.6-1.5 0-1.9l14.3-14.2c.6-.6 1.5-.5 1.9 0s.6 1.5 0 1.9L178 54.2c-.5.6-1.4.6-2 0z" class="st3"/>
      <path d="M175.9 54.3c-.6-.6-.6-1.5 0-2.1L190.3 38c.6-.6 1.6-.6 2.1 0 .6.6.6 1.6 0 2.1l-14.3 14.2c-.6.6-1.6.6-2.2 0zm16.4-16.2c-.5-.5-1.4-.5-1.8 0l-14.3 14.2c-.5.5-.5 1.4 0 1.8s1.4.5 1.8 0l14.3-14.2c.5-.5.5-1.2 0-1.8z" class="st4"/>
      <path d="M190.6 53.5c-.5-.6-.5-1.5.1-1.9l6.9-5.8c.6-.5 1.5-.4 1.9.2s.5 1.5-.1 1.9l-6.9 5.8c-.6.5-1.5.4-1.9-.2z" class="st3"/>
      <path d="M190.5 53.6c-.6-.7-.5-1.6.1-2.1l6.9-5.8c.6-.6 1.6-.5 2.1.2.6.7.5 1.6-.1 2.1l-6.9 5.8c-.6.5-1.6.4-2.1-.2zm8.9-7.7c-.5-.6-1.3-.6-1.8-.2l-6.9 5.8c-.5.5-.6 1.3-.1 1.8s1.3.6 1.8.2l6.9-5.8c.6-.4.6-1.2.1-1.8z" class="st4"/>
      <path d="M186.7 67.4c-.5-.7-.3-1.6.4-1.9L204 54.3c.7-.4 1.6-.2 1.9.4.5.7.3 1.5-.4 1.9l-16.9 11.2c-.6.4-1.4.2-1.9-.4z" class="st3"/>
      <path d="M186.6 67.4c-.5-.7-.3-1.6.4-2.1l16.9-11.2c.7-.5 1.6-.3 2.1.5.5.7.3 1.6-.4 2.1l-16.9 11.2c-.7.5-1.6.3-2.1-.5zm19.2-12.7c-.4-.6-1.2-.8-1.7-.4l-16.9 11.2c-.6.4-.8 1.2-.3 1.8.4.6 1.2.8 1.7.4l16.9-11.2c.6-.4.6-1.2.3-1.8z" class="st4"/>
      <path d="M201.1 69.5c-.4-.7-.2-1.5.5-1.9l7.8-4.5c.7-.4 1.5-.1 1.9.6.4.7.2 1.6-.5 1.9l-7.8 4.5c-.6.3-1.5 0-1.9-.6z" class="st3"/>
      <path d="M201 69.6c-.4-.8-.2-1.6.5-2l7.8-4.5c.7-.4 1.6-.1 2 .6.4.8.2 1.6-.5 2l-7.8 4.5c-.6.3-1.6 0-2-.6zm10.3-5.9c-.4-.7-1.2-.9-1.7-.5l-7.8 4.5c-.6.4-.8 1.2-.5 1.7.4.7 1.2.9 1.7.5l7.8-4.5c.6-.2.8-1 .5-1.7z" class="st4"/>
      <path d="M194.6 82.3c-.3-.8 0-1.6.8-1.8l18.7-7.8c.7-.3 1.6.1 1.8.8.3.8 0 1.6-.8 1.8l-18.7 7.8c-.6.3-1.5 0-1.8-.8z" class="st3"/>
      <path d="M194.5 82.4c-.3-.8 0-1.6.8-2l18.7-7.8c.8-.3 1.6.1 1.9.9.3.8 0 1.6-.8 2l-18.7 7.8c-.7.3-1.6-.1-1.9-.9zm21.2-8.8c-.3-.7-1.1-1-1.6-.8l-18.7 7.8c-.7.3-1 1.1-.7 1.7s1.1 1 1.6.8l18.7-7.8c.7-.2 1-1 .7-1.7z" class="st4"/>
      <path d="M208.3 87.2c-.3-.8.1-1.6.9-1.8l8.5-2.8c.7-.3 1.5.2 1.7.9.3.8-.1 1.5-.9 1.8l-8.5 2.8c-.7.2-1.4-.1-1.7-.9z" class="st3"/>
      <path d="M208.2 87.3c-.3-.8.1-1.6 1-1.9l8.5-2.8c.8-.3 1.6.2 1.9 1 .3.8-.1 1.6-1 1.9l-8.5 2.8c-.8.1-1.6-.2-1.9-1zm11.2-3.7c-.2-.7-1-1.1-1.6-.9l-8.5 2.8c-.7.2-1 1-.8 1.6.2.7 1 1.1 1.6.9l8.5-2.8c.7-.2 1-.9.8-1.6z" class="st4"/>
      <path d="M199.6 98.7c-.2-.8.3-1.5 1.1-1.6l19.9-3.9c.8-.2 1.5.4 1.6 1.2.2.8-.3 1.6-1.1 1.6l-19.9 3.9c-.8.1-1.5-.4-1.6-1.2z" class="st3"/>
      <path d="M199.4 98.7c-.2-.9.4-1.6 1.2-1.8l19.9-3.9c.8-.2 1.6.4 1.7 1.3.2.9-.4 1.6-1.2 1.8l-19.9 3.9c-.8.2-1.5-.4-1.7-1.3zm22.5-4.3c-.1-.7-.8-1.2-1.5-1.1l-19.9 3.9c-.7.1-1.2.9-1 1.5.1.7.8 1.2 1.5 1.1l19.9-3.9c.7-.2 1.2-.9 1-1.5z" class="st4"/>
      <path d="M212 106.2c-.1-.8.4-1.5 1.2-1.6l8.9-1.1c.8-.1 1.5.5 1.5 1.3.1.8-.4 1.5-1.2 1.6l-8.9 1.1c-.7 0-1.4-.6-1.5-1.3z" class="st3"/>
      <path d="M211.9 106.2c-.1-.9.5-1.6 1.3-1.7l8.9-1.1c.8-.1 1.5.5 1.6 1.4.1.9-.5 1.6-1.3 1.7l-8.9 1.1c-.8 0-1.5-.6-1.6-1.4zm11.7-1.4c-.1-.7-.8-1.3-1.5-1.2l-8.9 1.1c-.7.1-1.2.8-1.1 1.5.1.7.8 1.3 1.5 1.2l8.9-1.1c.7-.1 1.2-.8 1.1-1.5z" class="st4"/>
      <path d="M201.1 115.6c0-.8.6-1.5 1.4-1.5h20.2c.8 0 1.4.7 1.4 1.5s-.6 1.5-1.4 1.5h-20.2c-.8-.1-1.4-.8-1.4-1.5z" class="st3"/>
      <path d="M201 115.6c0-.9.7-1.6 1.5-1.6h20.2c.8 0 1.5.7 1.5 1.6 0 .9-.7 1.5-1.5 1.5h-20.2c-.8 0-1.5-.7-1.5-1.5zm23 .1c0-.7-.6-1.4-1.3-1.4h-20.2c-.7 0-1.3.6-1.3 1.4 0 .7.6 1.4 1.3 1.4h20.2c.7-.2 1.3-.8 1.3-1.4z" class="st4"/>
      <path d="M211.9 125.4c.1-.8.7-1.4 1.5-1.4l9 .7c.8.1 1.4.8 1.3 1.6-.1.8-.7 1.4-1.5 1.4l-9-.7c-.8-.2-1.3-.9-1.3-1.6z" class="st3"/>
      <path d="M211.8 125.4c.1-.9.8-1.5 1.6-1.5l9 .7c.8.1 1.5.8 1.4 1.6-.1.9-.8 1.5-1.6 1.5l-9-.7c-.8-.1-1.4-.9-1.4-1.6zm11.8.8c.1-.7-.5-1.4-1.2-1.4l-9-.7c-.7 0-1.3.5-1.4 1.3-.1.7.5 1.4 1.2 1.4l9 .7c.7 0 1.3-.6 1.4-1.3z" class="st4"/>
      <path d="M199.4 132.4c.2-.8.9-1.3 1.6-1.2l19.9 4c.8.2 1.3.9 1.1 1.6-.2.8-.9 1.3-1.6 1.2l-19.9-4c-.7 0-1.2-.8-1.1-1.6z" class="st3"/>
      <path d="M199.3 132.4c.2-.9 1-1.4 1.7-1.3l19.9 4c.8.2 1.4 1 1.2 1.8-.2.9-1 1.4-1.7 1.3l-19.9-4c-.8-.1-1.3-.9-1.2-1.8zm22.5 4.6c.1-.7-.3-1.4-1-1.6l-19.9-4c-.7-.1-1.4.3-1.6 1.1-.1.7.3 1.4 1 1.6l19.9 4c.9 0 1.4-.4 1.6-1.1z" class="st4"/>
      <path d="M208.1 144.1c.2-.8 1-1.3 1.7-1.1l8.7 2.4c.8.2 1.2 1 1 1.7-.2.8-1 1.3-1.7 1.1l-8.7-2.4c-.8-.2-1.2-1-1-1.7z" class="st3"/>
      <path d="M208 144.1c.2-.8 1.1-1.4 1.8-1.1l8.7 2.4c.8.2 1.3 1.1 1.1 1.8-.2.8-1.1 1.4-1.8 1.1l-8.7-2.4c-.8-.2-1.3-1-1.1-1.8zm11.3 3.1c.2-.7-.2-1.5-.9-1.6l-8.7-2.4c-.7-.2-1.4.2-1.6 1-.2.7.2 1.5.9 1.6l8.7 2.4c.8.1 1.4-.3 1.6-1z" class="st4"/>
      <path d="M194.4 148.7c.3-.8 1.2-1.1 1.8-.8l18.7 7.8c.7.3 1.1 1.2.8 1.8-.3.8-1.2 1.1-1.8.8l-18.7-7.8c-.8-.2-1.1-1.1-.8-1.8z" class="st3"/>
      <path d="M194.3 148.6c.3-.8 1.2-1.2 1.9-.9l18.7 7.8c.8.3 1.1 1.2.8 2-.3.8-1.2 1.2-1.9.9l-18.7-7.8c-.8-.3-1.1-1.2-.8-2zm21.2 8.8c.3-.7 0-1.5-.7-1.7l-18.7-7.8c-.7-.3-1.4.1-1.6.8-.3.7 0 1.5.7 1.7l18.7 7.8c.7.2 1.5-.1 1.6-.8z" class="st4"/>
      <path d="M200.7 161.8c.4-.7 1.2-1 1.8-.7l8 4.1c.7.3 1 1.2.6 1.9s-1.2 1-1.8.7l-8-4.1c-.7-.4-1-1.2-.6-1.9z" class="st3"/>
      <path d="M200.6 161.7c.4-.8 1.3-1.1 2-.7l8 4.1c.8.4 1.1 1.3.7 2-.4.8-1.3 1.1-2 .7l-8-4.1c-.8-.3-1.1-1.2-.7-2zm10.5 5.3c.3-.7.1-1.5-.6-1.7l-8-4.1c-.6-.3-1.4 0-1.7.6-.3.7-.1 1.5.6 1.7l8 4.1c.6.3 1.4.1 1.7-.6z" class="st4"/>
      <path d="M186.5 163.6c.5-.7 1.3-.9 1.9-.4l16.9 11.2c.7.4.8 1.3.4 1.9-.5.7-1.3.9-1.9.4l-16.9-11.2c-.7-.4-.9-1.3-.4-1.9z" class="st3"/>
      <path d="M186.4 163.5c.5-.7 1.5-.9 2.1-.5l16.9 11.2c.7.5.9 1.4.4 2.1-.5.7-1.5.9-2.1.5l-16.9-11.2c-.8-.4-.9-1.4-.4-2.1zm19.1 12.8c.4-.6.3-1.5-.3-1.8l-16.9-11.2c-.6-.4-1.4-.2-1.7.4s-.3 1.5.3 1.8l16.9 11.2c.5.4 1.3.2 1.7-.4z" class="st4"/>
      <path d="M190.1 177.7c.5-.6 1.4-.8 1.9-.3l7.1 5.5c.6.5.7 1.4.2 1.9-.5.6-1.4.8-1.9.3l-7.1-5.5c-.6-.5-.7-1.4-.2-1.9z" class="st3"/>
      <path d="M190 177.6c.5-.7 1.5-.8 2.1-.3l7.1 5.5c.7.5.8 1.5.3 2.1-.5.7-1.5.8-2.1.3l-7.1-5.5c-.7-.5-.8-1.5-.3-2.1zm9.3 7.2c.5-.6.4-1.4-.2-1.8l-7.1-5.5c-.6-.4-1.4-.3-1.8.3s-.4 1.4.2 1.8l7.1 5.5c.5.4 1.3.3 1.8-.3z" class="st4"/>
      <path d="M175.6 176.7c.6-.6 1.5-.6 1.9 0l14.3 14.2c.6.6.5 1.5 0 1.9-.6.6-1.5.6-1.9 0l-14.3-14.2c-.5-.4-.5-1.4 0-1.9z" class="st3"/>
      <path d="M175.6 176.6c.6-.6 1.6-.6 2.1 0l14.3 14.2c.6.6.6 1.6 0 2.1-.6.6-1.5.6-2.1 0l-14.3-14.2c-.6-.5-.6-1.5 0-2.1zm16.3 16.2c.5-.5.5-1.4 0-1.8l-14.3-14.2c-.5-.5-1.4-.5-1.8 0s-.5 1.4 0 1.8l14.3 14.2c.5.6 1.2.6 1.8 0z" class="st4"/>
      <path d="M176.5 191.1c.6-.5 1.5-.5 1.9.1l5.9 6.8c.5.6.4 1.5-.2 1.9s-1.5.5-1.9-.1l-5.9-6.8c-.5-.4-.4-1.3.2-1.9z" class="st3"/>
      <path d="M176.4 191.1c.7-.6 1.6-.5 2.1.1l5.9 6.8c.6.6.5 1.6-.2 2.1-.7.6-1.6.5-2.1-.1l-5.9-6.8c-.5-.6-.5-1.6.2-2.1zm7.8 8.8c.6-.5.6-1.3.2-1.8l-5.9-6.8c-.5-.5-1.3-.6-1.8-.1-.6.5-.6 1.3-.2 1.8l5.9 6.8c.4.6 1.2.6 1.8.1z" class="st4"/>
      <path d="M162.6 187.5c.7-.5 1.6-.3 1.9.4l11.2 16.8c.4.7.2 1.5-.4 1.9-.7.5-1.6.3-1.9-.4l-11.2-16.8c-.4-.7-.2-1.6.4-1.9z" class="st3"/>
      <path d="M162.6 187.4c.7-.5 1.6-.3 2.1.4l11.2 16.8c.5.7.3 1.6-.5 2.1-.7.5-1.6.3-2.1-.4l-11.2-16.8c-.5-.8-.3-1.7.5-2.1zm12.7 19c.6-.4.8-1.2.4-1.7l-11.2-16.8c-.4-.6-1.2-.7-1.8-.3-.6.4-.8 1.2-.4 1.7l11.2 16.8c.4.5 1.3.7 1.8.3z" class="st4"/>
      <path d="M160.5 201.8c.7-.4 1.5-.2 1.9.5l4.5 7.8c.4.7.1 1.6-.6 1.9-.7.4-1.6.2-1.9-.5l-4.5-7.8c-.3-.6-.1-1.5.6-1.9z" class="st3"/>
      <path d="M160.5 201.7c.8-.4 1.6-.2 2 .5l4.5 7.8c.4.7.2 1.6-.6 2-.8.4-1.6.2-2-.5l-4.5-7.8c-.3-.6-.2-1.5.6-2zm5.8 10.3c.6-.4.9-1.2.5-1.7l-4.5-7.8c-.4-.6-1.2-.8-1.7-.5-.6.4-.9 1.2-.5 1.7l4.5 7.8c.3.6 1.2.9 1.7.5z" class="st4"/>
      <path d="M147.6 195.4c.8-.3 1.6 0 1.8.7l7.8 18.7c.3.7-.1 1.5-.8 1.8-.7.3-1.6 0-1.8-.7l-7.8-18.7c-.2-.6.2-1.5.8-1.8z" class="st3"/>
      <path d="M147.6 195.3c.8-.3 1.6 0 2 .8l7.8 18.7c.3.8-.1 1.6-.9 1.9-.8.3-1.6 0-2-.8l-7.8-18.7c-.2-.6.2-1.5.9-1.9zm8.9 21.2c.7-.3 1-1.1.7-1.6l-7.8-18.7c-.3-.7-1.1-1-1.7-.7-.7.3-1 1.1-.7 1.6l7.8 18.7c.3.7 1 1 1.7.7z" class="st4"/>
      <path d="M142.9 209.2c.8-.3 1.6.1 1.8.9l2.8 8.5c.3.7-.2 1.6-.9 1.7-.8.3-1.6-.1-1.8-.9l-2.8-8.5c-.3-.7.1-1.5.9-1.7z" class="st3"/>
      <path d="M142.8 209.1c.8-.3 1.6.1 1.9.9l2.8 8.5c.3.8-.2 1.6-1 1.9-.8.3-1.6-.1-1.9-.9l-2.8-8.5c-.2-.8.2-1.7 1-1.9zm3.8 11.1c.7-.2 1.1-1 .9-1.6l-2.8-8.5c-.2-.7-1-1-1.6-.8-.7.2-1.1 1-.9 1.6l2.8 8.5c.1.7.9 1.1 1.6.8z" class="st4"/>
      <path d="M131.5 200.3c.8-.2 1.5.3 1.6 1.1l4.1 19.9c.2.8-.4 1.5-1.2 1.6-.8.2-1.6-.3-1.6-1.1l-4.1-19.9c-.1-.6.4-1.4 1.2-1.6z" class="st3"/>
      <path d="M131.5 200.2c.9-.2 1.6.4 1.8 1.2l4.1 19.9c.2.8-.4 1.6-1.2 1.7-.9.2-1.6-.4-1.8-1.2l-4.1-19.9c-.2-.7.3-1.5 1.2-1.7zm4.5 22.6c.7-.1 1.2-.8 1.1-1.6l-4.1-19.9c-.1-.7-.9-1.2-1.5-1-.7.1-1.2.8-1.1 1.6l4.1 19.9c.2.7.8 1.1 1.5 1z" class="st4"/>
      <path d="M124.1 212.9c.8-.1 1.5.4 1.6 1.2l1.2 8.9c.1.8-.5 1.5-1.3 1.5-.8.1-1.5-.4-1.6-1.2l-1.2-8.9c-.1-.7.5-1.4 1.3-1.5z" class="st3"/>
      <path d="M124.1 212.8c.9-.1 1.6.5 1.7 1.3l1.2 8.9c.1.8-.5 1.5-1.4 1.6-.9.1-1.6-.5-1.7-1.3l-1.2-8.9c-.1-.7.5-1.5 1.4-1.6zm1.5 11.7c.7-.1 1.3-.8 1.2-1.5l-1.2-8.9c-.1-.7-.8-1.2-1.5-1.1-.7.1-1.3.8-1.2 1.5l1.2 8.9c.1.7.8 1.2 1.5 1.1z" class="st4"/>
      <path d="M114.1 202.1c.8 0 1.5.6 1.5 1.4v20.2c0 .8-.7 1.4-1.5 1.4s-1.5-.6-1.5-1.4v-20.2c.2-.8.7-1.4 1.5-1.4z" class="st3"/>
      <path d="M114.1 202c.9 0 1.5.7 1.5 1.5v20.2c0 .8-.7 1.5-1.5 1.5-.9 0-1.6-.7-1.6-1.5v-20.2c.1-.8.8-1.5 1.6-1.5zm0 22.9c.7 0 1.4-.6 1.4-1.3v-20.2c0-.7-.6-1.3-1.4-1.3-.7 0-1.4.6-1.4 1.3v20.2c.2.8.7 1.3 1.4 1.3z" class="st4"/>
      <path d="M104.4 212.9c.8.1 1.4.7 1.4 1.5l-.7 9c-.1.8-.8 1.4-1.6 1.3-.8-.1-1.4-.7-1.4-1.5l.7-9c.2-.8.9-1.4 1.6-1.3z" class="st3"/>
      <path d="M104.4 212.8c.9.1 1.5.8 1.5 1.5l-.7 9c-.1.8-.8 1.5-1.6 1.4-.9-.1-1.5-.8-1.5-1.6l.7-9c.1-.8.8-1.4 1.6-1.3zm-.8 11.8c.7 0 1.4-.5 1.4-1.2l.7-9c0-.7-.5-1.3-1.3-1.4-.7 0-1.4.5-1.4 1.2l-.7 9c0 .7.6 1.3 1.3 1.4z" class="st4"/>
      <path d="M97.2 200.3c.8.2 1.3.9 1.2 1.6l-4 19.9c-.2.8-.9 1.3-1.6 1.1-.8-.2-1.3-.9-1.2-1.6l4-19.9c0-.7.8-1.2 1.6-1.1z" class="st3"/>
      <path d="M97.2 200.2c.9.2 1.4 1 1.3 1.7l-4 19.9c-.2.8-1 1.4-1.8 1.2-.9-.2-1.4-1-1.3-1.7l4-19.9c.1-.8.9-1.3 1.8-1.2zm-4.6 22.6c.7.1 1.4-.3 1.5-1l4-19.9c.1-.7-.3-1.4-1.1-1.6-.7-.1-1.4.3-1.5 1l-4 19.9c-.1.8.4 1.4 1.1 1.6z" class="st4"/>
      <path d="M85.5 209.1c.8.2 1.3 1 1.1 1.7l-2.4 8.7c-.2.8-1 1.2-1.7 1-.8-.2-1.3-1-1.1-1.7l2.4-8.7c.2-.9 1-1.2 1.7-1z" class="st3"/>
      <path d="M85.5 209c.8.2 1.4 1.1 1.1 1.8l-2.4 8.7c-.2.8-1.1 1.3-1.8 1.1-.8-.2-1.4-1.1-1.1-1.8l2.4-8.7c.2-.9 1-1.3 1.8-1.1zm-3.2 11.3c.7.2 1.5-.2 1.6-.9l2.4-8.7c.2-.7-.2-1.4-1-1.6-.7-.2-1.5.2-1.6.9l-2.4 8.7c0 .7.4 1.4 1 1.6z" class="st4"/>
      <path d="M80.8 195.4c.8.3 1.1 1.2.8 1.8l-7.8 18.7c-.3.7-1.2 1.1-1.8.7s-1.1-1.2-.8-1.8l7.8-18.7c.2-.7 1.1-1.1 1.8-.7z" class="st3"/>
      <path d="M80.8 195.3c.8.3 1.2 1.2.9 1.9l-7.8 18.7c-.3.8-1.2 1.1-2 .8-.8-.3-1.2-1.2-.9-1.9l7.8-18.7c.3-.8 1.2-1.2 2-.8zM72 216.5c.7.3 1.5 0 1.7-.7l7.8-18.7c.3-.7-.1-1.4-.8-1.6-.7-.3-1.5 0-1.7.7l-7.8 18.7c-.2.5.1 1.3.8 1.6z" class="st4"/>
      <path d="M67.7 201.6c.7.4 1 1.2.7 1.8l-4.1 8c-.4.7-1.2 1-1.9.6s-1-1.2-.7-1.8l4.1-8c.4-.7 1.1-1 1.9-.6z" class="st3"/>
      <path d="M67.7 201.5c.8.4 1.1 1.3.7 2l-4.1 8c-.4.8-1.3 1.1-2 .7-.8-.4-1.1-1.3-.7-2l4.1-8c.4-.8 1.2-1.1 2-.7zm-5.3 10.6c.7.3 1.5.1 1.7-.6l4.1-8c.3-.6 0-1.4-.6-1.7-.7-.3-1.5-.1-1.7.6l-4.1 8c-.3.5 0 1.3.6 1.7z" class="st4"/>
      <path d="M65.8 187.3c.7.5.9 1.4.4 1.9L54.9 206c-.4.7-1.3.8-1.9.4-.7-.5-.9-1.4-.4-1.9l11.2-16.8c.4-.7 1.3-.9 2-.4z" class="st3"/>
      <path d="M65.8 187.2c.7.5.9 1.5.5 2.1L55 206.1c-.5.7-1.4.9-2.1.4-.7-.5-.9-1.5-.5-2.1l11.2-16.8c.5-.7 1.5-.9 2.2-.4zm-12.8 19c.6.4 1.5.3 1.8-.3L66 189.1c.4-.6.2-1.4-.4-1.7-.6-.4-1.5-.3-1.8.3l-11.2 16.7c-.4.6-.2 1.5.4 1.8z" class="st4"/>
      <path d="M51.6 190.8c.6.5.8 1.4.3 1.9l-5.6 7.1c-.5.6-1.4.7-1.9.2-.6-.5-.8-1.4-.3-1.9l5.6-7.1c.5-.5 1.4-.6 1.9-.2z" class="st3"/>
      <path d="M51.7 190.7c.7.5.8 1.5.3 2.1l-5.6 7.1c-.5.7-1.5.8-2.1.2-.7-.5-.8-1.5-.3-2.1l5.6-7.1c.5-.6 1.5-.7 2.1-.2zm-7.2 9.2c.6.5 1.4.4 1.8-.2l5.6-7.1c.4-.6.3-1.4-.3-1.8-.6-.5-1.4-.4-1.8.2l-5.6 7.1c-.4.6-.3 1.5.3 1.8z" class="st4"/>
      <path d="M52.6 176.3c.6.6.6 1.5 0 1.9l-14.3 14.2c-.6.6-1.5.5-1.9 0s-.6-1.5 0-1.9l14.2-14.2c.6-.6 1.4-.6 2 0z" class="st3"/>
      <path d="M52.7 176.2c.6.6.6 1.6 0 2.1l-14.3 14.2c-.6.6-1.5.6-2.1 0-.6-.6-.6-1.5 0-2.1l14.3-14.2c.6-.6 1.5-.6 2.1 0zm-16.4 16.3c.5.5 1.4.5 1.8 0l14.3-14.2c.5-.5.5-1.4 0-1.8s-1.4-.5-1.8 0l-14.3 14.2c-.5.4-.5 1.2 0 1.8z" class="st4"/>
      <path d="M38.1 177.1c.5.6.5 1.5-.1 1.9l-6.9 5.8c-.6.5-1.5.4-1.9-.2s-.5-1.5.1-1.9l6.9-5.8c.5-.5 1.4-.4 1.9.2z" class="st3"/>
      <path d="M38.2 177c.6.7.5 1.6-.1 2.1l-6.9 5.8c-.6.6-1.6.5-2.1-.2-.6-.7-.5-1.6.1-2.1l6.9-5.8c.5-.6 1.5-.5 2.1.2zm-8.9 7.6c.5.6 1.3.6 1.8.2L38 179c.5-.5.6-1.3.1-1.8s-1.3-.6-1.8-.2l-6.9 5.8c-.6.5-.6 1.3-.1 1.8z" class="st4"/>
      <path d="M41.9 163.1c.5.7.3 1.6-.4 1.9l-16.9 11.2c-.7.4-1.5.2-1.9-.4-.5-.7-.3-1.6.4-1.9L40 162.8c.6-.4 1.5-.2 1.9.3z" class="st3"/>
      <path d="M42 163.1c.5.7.3 1.6-.4 2.1l-16.9 11.2c-.7.5-1.6.3-2.1-.5-.5-.7-.3-1.6.4-2.1l16.9-11.2c.7-.4 1.7-.2 2.1.5zm-19.1 12.7c.4.6 1.2.8 1.7.4L41.5 165c.6-.4.8-1.2.3-1.8-.4-.6-1.2-.8-1.7-.4L23.2 174c-.6.5-.7 1.2-.3 1.8z" class="st4"/>
      <path d="M27.5 161.1c.4.7.2 1.6-.5 1.9l-7.8 4.5c-.7.4-1.5.1-1.9-.6-.4-.7-.2-1.5.5-1.9l7.8-4.5c.7-.4 1.5-.1 1.9.6z" class="st3"/>
      <path d="M27.6 161c.4.8.2 1.6-.5 2l-7.8 4.5c-.7.4-1.6.1-2-.6-.4-.8-.2-1.6.5-2l7.8-4.5c.7-.4 1.6-.1 2 .6zm-10.3 5.8c.4.7 1.2.9 1.7.5l7.8-4.5c.6-.4.8-1.2.5-1.7-.4-.7-1.2-.9-1.7-.5l-7.8 4.5c-.6.3-.8 1-.5 1.7z" class="st4"/>
      <path d="M34 148.2c.3.8 0 1.6-.8 1.8l-18.7 7.8c-.7.3-1.6-.1-1.8-.8-.3-.8 0-1.6.8-1.8l18.7-7.8c.6-.2 1.5 0 1.8.8z" class="st3"/>
      <path d="M34.1 148.1c.3.8 0 1.6-.8 2l-18.7 7.8c-.8.3-1.6-.1-1.9-.9-.3-.8 0-1.6.8-2l18.7-7.8c.7-.2 1.6.1 1.9.9zm-21.2 8.8c.3.7 1.1 1 1.6.8l18.7-7.8c.7-.3 1-1.1.7-1.7s-1.1-1-1.6-.8l-18.7 7.8c-.7.3-1 1.1-.7 1.7z" class="st4"/>
      <path d="M20.3 143.4c.3.8-.1 1.6-.9 1.8l-8.5 2.8c-.7.3-1.5-.2-1.7-.9-.3-.8.1-1.6.9-1.8l8.5-2.8c.7-.3 1.5.1 1.7.9z" class="st3"/>
      <path d="M20.4 143.3c.3.8-.1 1.6-1 1.9l-8.5 2.8c-.8.3-1.6-.2-1.9-1-.3-.8.1-1.6 1-1.9l8.5-2.8c.8-.2 1.6.2 1.9 1zM9.2 147c.2.7 1 1.1 1.6.9l8.5-2.8c.7-.2 1-1 .8-1.6s-1-1.1-1.6-.9l-8.5 2.8c-.7.2-1 .9-.8 1.6z" class="st4"/>
      <path d="M29.1 131.8c.2.8-.3 1.6-1.1 1.6l-19.9 3.9c-.8.2-1.5-.4-1.6-1.2-.2-.8.3-1.6 1.1-1.6l19.9-3.9c.7 0 1.5.5 1.6 1.2z" class="st3"/>
      <path d="M29.3 131.8c.2.9-.4 1.6-1.2 1.8l-19.9 3.9c-.8.2-1.6-.4-1.7-1.3-.2-.9.4-1.6 1.2-1.8l19.9-3.9c.7-.1 1.5.5 1.7 1.3zm-22.6 4.4c.1.7.8 1.2 1.5 1.1l19.9-3.9c.7-.1 1.2-.9 1-1.6-.1-.7-.8-1.2-1.5-1.1l-19.9 3.9c-.7.3-1.2.9-1 1.6z" class="st4"/>
      <path d="M16.7 124.4c.1.8-.4 1.5-1.2 1.6l-8.9 1c-.8.1-1.5-.5-1.6-1.3-.1-.8.4-1.5 1.2-1.6l8.9-1.1c.7 0 1.5.6 1.6 1.4z" class="st3"/>
      <path d="M16.8 124.4c.1.9-.5 1.6-1.3 1.7l-8.9 1.1c-.8.1-1.6-.5-1.6-1.4-.1-.9.5-1.6 1.3-1.7l8.9-1.1c.7-.1 1.5.5 1.6 1.4zM5 125.7c.1.7.8 1.3 1.5 1.2l8.9-1.1c.7-.1 1.2-.8 1.1-1.5-.1-.7-.8-1.3-1.5-1.2l-8.9 1.1c-.7.2-1.2.9-1.1 1.5z" class="st4"/>
      <path d="M27.5 115c0 .8-.6 1.5-1.4 1.5H5.9c-.8 0-1.4-.7-1.4-1.5s.6-1.5 1.4-1.5h20.2c.8 0 1.4.7 1.4 1.5z" class="st3"/>
      <path d="M27.6 115c0 .9-.7 1.6-1.5 1.6H5.9c-.8 0-1.5-.7-1.5-1.6 0-.9.7-1.5 1.5-1.5h20.2c.8-.1 1.5.6 1.5 1.5zm-22.9-.1c0 .7.6 1.4 1.3 1.4h20.2c.7 0 1.3-.6 1.3-1.4 0-.7-.6-1.4-1.3-1.4H5.9c-.7.1-1.2.7-1.2 1.4z" class="st4"/>
      <path d="M16.8 105.2c-.1.8-.7 1.4-1.5 1.4l-9-.7c-.8-.1-1.4-.8-1.3-1.6.1-.8.7-1.4 1.5-1.4l9 .7c.7.2 1.3.8 1.3 1.6z" style="fill:#e2e2e2"/>
      <path d="M16.9 105.2c-.1.9-.8 1.5-1.6 1.5l-9-.7c-.8-.1-1.5-.8-1.4-1.6.1-.9.8-1.5 1.5-1.5l9 .7c.9.1 1.5.8 1.5 1.6zM5 104.3c-.1.7.5 1.4 1.2 1.4l9 .7c.7 0 1.3-.5 1.4-1.3.1-.7-.5-1.4-1.2-1.4l-9-.7c-.7.1-1.3.7-1.4 1.3z" class="st4"/>
      <path d="M29.3 98.1c-.2.8-.9 1.3-1.6 1.2L7.8 95.2c-.8-.2-1.3-.8-1.1-1.6.2-.8.9-1.3 1.6-1.2l19.9 4c.7.2 1.2 1 1.1 1.7z" class="st3"/>
      <path d="M29.4 98.1c-.2.9-1 1.4-1.7 1.3l-19.9-4c-.8-.2-1.4-1-1.2-1.8.2-.9 1-1.4 1.7-1.3l19.9 4c.8.2 1.3 1 1.2 1.8zM6.8 93.6c-.1.7.3 1.4 1 1.5l19.9 4c.7.1 1.4-.3 1.5-1.1.1-.7-.3-1.4-1-1.5l-19.9-4c-.7-.1-1.3.4-1.5 1.1z" class="st4"/>
      <path d="M20.5 86.5c-.2.8-1 1.3-1.7 1.1l-8.7-2.4c-.8-.2-1.2-1-1-1.7.2-.8 1-1.3 1.7-1.1l8.7 2.4c.8.2 1.2.9 1 1.7z" class="st3"/>
      <path d="M20.6 86.5c-.2.8-1.1 1.4-1.8 1.1l-8.7-2.4A1.6 1.6 0 0 1 9 83.3c.2-.8 1.1-1.4 1.8-1.1l8.7 2.4c.8.3 1.3 1 1.1 1.9zM9.3 83.3c-.2.7.2 1.5.9 1.7l8.7 2.4c.7.2 1.4-.2 1.5-1 .2-.7-.2-1.5-.9-1.6l-8.7-2.4c-.6-.2-1.3.2-1.5.9z" class="st4"/>
      <path d="M34.2 81.9c-.3.8-1.2 1.1-1.8.8l-18.7-7.8c-.7-.3-1.1-1.2-.8-1.8.3-.8 1.2-1.1 1.8-.8L33.4 80c.8.3 1.1 1.2.8 1.9z" class="st3"/>
      <path d="M34.3 82c-.3.8-1.2 1.2-1.9.9l-18.7-7.8c-.8-.3-1.1-1.2-.8-2 .3-.8 1.2-1.2 1.9-.9L33.5 80c.8.3 1.1 1.2.8 2zm-21.2-8.9c-.3.7 0 1.5.7 1.7l18.7 7.8c.7.3 1.4-.1 1.6-.8.3-.7 0-1.5-.7-1.7l-18.7-7.8c-.7-.1-1.4.2-1.6.8z" class="st4"/>
      <path d="M27.9 68.8c-.4.7-1.2 1-1.8.7l-8-4.1c-.7-.3-1-1.2-.6-1.9s1.2-1 1.8-.7l8 4.1c.7.3 1 1.2.6 1.9z" class="st3"/>
      <path d="M28 68.9c-.4.8-1.3 1.1-2 .7l-8-4.1c-.8-.4-1.1-1.3-.7-2 .4-.8 1.3-1.1 2-.7l8 4.1c.8.2 1.1 1.2.7 2zm-10.5-5.4c-.3.7-.1 1.5.6 1.7l8 4.1c.6.3 1.4 0 1.7-.6.3-.7.1-1.5-.6-1.7l-8-4c-.6-.3-1.4-.1-1.7.5z" class="st4"/>
      <path d="M42.1 66.9c-.5.7-1.3.9-1.9.4L23.4 56.2c-.7-.4-.8-1.3-.4-1.9.4-.7 1.3-.9 1.9-.4l16.9 11.2c.6.4.8 1.3.3 1.8z" class="st3"/>
      <path d="M42.2 67c-.5.7-1.5.9-2.1.5L23.3 56.3c-.7-.5-.9-1.4-.4-2.1.5-.7 1.5-.9 2.1-.5l16.8 11.2c.8.5.9 1.5.4 2.1zm-19-12.8c-.4.6-.3 1.5.3 1.8l16.9 11.2c.6.4 1.4.2 1.7-.4.4-.6.3-1.5-.3-1.8L24.9 53.9c-.6-.4-1.4-.2-1.7.3z" class="st4"/>
      <path d="M38.6 52.9c-.5.6-1.4.8-1.9.3l-7.1-5.5c-.6-.5-.7-1.4-.2-1.9.5-.6 1.4-.8 1.9-.3l7.1 5.5c.5.4.6 1.3.2 1.9z" class="st3"/>
      <path d="M38.7 53c-.5.7-1.5.8-2.1.3l-7.1-5.5c-.7-.5-.8-1.5-.3-2.1.5-.7 1.5-.8 2.1-.3l7.1 5.5c.6.4.7 1.4.3 2.1zm-9.3-7.3c-.5.6-.4 1.4.2 1.8l7.1 5.5c.6.4 1.4.3 1.8-.3s.4-1.4-.2-1.8l-7.1-5.5c-.6-.4-1.4-.3-1.8.3z" class="st4"/>
      <path d="M53 53.9c-.6.6-1.5.6-1.9 0L36.6 39.6c-.6-.6-.5-1.5 0-1.9.6-.6 1.5-.6 1.9 0l14.3 14.2c.7.5.7 1.5.2 2z" class="st3"/>
      <path d="M53 54c-.6.6-1.5.6-2.1 0L36.5 39.7c-.6-.6-.6-1.5 0-2.1.6-.6 1.6-.6 2.1 0L53 51.8c.7.6.7 1.6 0 2.2zM36.7 37.8c-.5.5-.5 1.4 0 1.8L51 53.8c.5.5 1.4.5 1.8 0s.5-1.4 0-1.8L38.6 37.7c-.5-.5-1.3-.5-1.9.1z" class="st4"/>
      <path d="M52.1 39.4c-.6.5-1.5.5-1.9-.1l-5.9-6.8c-.5-.6-.4-1.5.2-1.9s1.5-.5 1.9.1l5.9 6.8c.5.5.4 1.3-.2 1.9z" class="st3"/>
      <path d="M52.2 39.4c-.7.6-1.5.5-2.1-.1l-5.9-6.8c-.6-.6-.5-1.5.2-2.1.7-.6 1.5-.5 2.1.1l5.9 6.8c.5.7.5 1.6-.2 2.1zm-7.7-8.8c-.6.5-.6 1.3-.2 1.8l5.9 6.8c.5.5 1.3.6 1.8.1.6-.5.6-1.3.2-1.8l-5.9-6.8c-.5-.6-1.3-.6-1.8-.1z" class="st4"/>
      <path d="M66.1 43.1c-.7.5-1.5.3-1.9-.4L52.8 26c-.4-.7-.2-1.5.4-1.9.7-.5 1.5-.3 1.9.4l11.2 16.8c.5.5.4 1.4-.2 1.8z" class="st3"/>
      <path d="M66.1 43.2c-.7.5-1.6.3-2.1-.4L52.7 26.1c-.5-.7-.3-1.6.5-2.1.7-.5 1.6-.3 2.1.4l11.2 16.8c.5.6.3 1.5-.4 2zM53.3 24.1c-.6.4-.8 1.2-.4 1.7l11.2 16.8c.4.6 1.2.7 1.8.3.6-.4.8-1.2.4-1.7L55.1 24.5c-.4-.6-1.2-.8-1.8-.4z" class="st4"/>
      <path d="M68.1 28.8c-.7.4-1.6.2-1.9-.5l-4.5-7.8c-.4-.7-.1-1.5.6-1.9.7-.4 1.5-.2 1.9.5l4.5 7.8c.3.6.1 1.5-.6 1.9z" class="st3"/>
      <path d="M68.1 28.9c-.8.4-1.6.2-2-.5l-4.5-7.8c-.4-.7-.2-1.6.6-2 .8-.4 1.6-.2 2 .5l4.5 7.8c.4.6.2 1.5-.6 2zm-5.8-10.3c-.6.4-.9 1.2-.5 1.7l4.5 7.8c.4.6 1.2.8 1.7.5.6-.4.9-1.2.5-1.7L64 19.1c-.3-.6-1.1-.9-1.7-.5z" class="st4"/>
      <path d="M81 35.2c-.8.3-1.6 0-1.8-.7l-7.8-18.7c-.3-.7.1-1.5.8-1.8.8-.3 1.6 0 1.8.7l7.8 18.7c.3.6-.1 1.5-.8 1.8z" class="st3"/>
      <path d="M81 35.3c-.8.3-1.6 0-2-.8l-7.8-18.7c-.3-.8.1-1.6.9-1.9.8-.3 1.6 0 2 .8l7.8 18.7c.3.6-.1 1.5-.9 1.9zM72.2 14c-.7.3-1 1.1-.7 1.6l7.8 18.7c.3.7 1.1 1 1.7.7.7-.3 1-1.1.7-1.6l-7.8-18.7c-.4-.7-1.1-.9-1.7-.7z" class="st4"/>
      <path d="M85.7 21.4c-.8.3-1.6-.1-1.8-.9L81.1 12c-.3-.7.2-1.6.9-1.7.7-.2 1.5.1 1.8.9l2.8 8.5c.3.6-.1 1.4-.9 1.7z" class="st3"/>
      <path d="M85.8 21.5c-.8.3-1.6-.1-1.9-.9l-2.8-8.5c-.3-.8.2-1.6 1-1.9s1.6.1 1.9.9l2.8 8.5c.2.7-.2 1.6-1 1.9zm-3.7-11.1c-.7.2-1.1 1-.9 1.6l2.8 8.5c.2.7 1 1 1.6.8.7-.2 1.1-1 .9-1.6l-2.8-8.5c-.2-.7-1-1.1-1.6-.8z" class="st4"/>
      <path d="M97.2 30.2c-.8.2-1.6-.3-1.6-1.1L91.4 9.3c-.2-.8.4-1.5 1.2-1.6.8-.2 1.5.3 1.6 1.1l4.1 19.9c.1.6-.4 1.3-1.1 1.5z" class="st3"/>
      <path d="M97.2 30.3c-.9.2-1.6-.4-1.8-1.2L91.3 9.3c-.2-.8.4-1.6 1.2-1.7.9-.2 1.6.4 1.8 1.2l4.1 19.9c.1.7-.4 1.4-1.2 1.6zM92.6 7.8c-.7.1-1.2.8-1.1 1.6l4.1 19.9c.1.7.9 1.2 1.6 1 .7-.1 1.2-.8 1.1-1.5L94.2 8.7c-.2-.7-.9-1-1.6-.9z" class="st4"/>
      <path d="M104.5 17.6c-.8.1-1.5-.4-1.6-1.2l-1.2-8.9c-.1-.8.5-1.5 1.3-1.6.8-.1 1.5.4 1.6 1.2l1.2 8.9c.1.9-.5 1.5-1.3 1.6z" class="st3"/>
      <path d="M104.5 17.7c-.9.1-1.6-.5-1.7-1.3l-1.2-8.9c-.1-.8.5-1.6 1.4-1.6.9-.1 1.6.5 1.7 1.3l1.2 8.9c.1.8-.5 1.5-1.4 1.6zm-1.4-11.6c-.7.1-1.3.8-1.2 1.5l1.2 8.9c.1.7.8 1.2 1.5 1.1.7-.1 1.3-.8 1.2-1.5l-1.2-8.9c-.2-.7-.8-1.2-1.5-1.1z" class="st4"/>
      <linearGradient id="SVGID_3_" x1="-133.6" x2="-133.8" y1="367.4" y2="366.9" gradientTransform="matrix(229.4 0 0 -229.4 30776.6 84363.2)" gradientUnits="userSpaceOnUse">
        <stop offset="0" style="stop-color:#000;stop-opacity:0"/>
        <stop offset="1" style="stop-color:#000"/>
      </linearGradient>
      <circle cx="115" cy="115.2" r="114.7" style="fill:url(#SVGID_3_);fill-opacity:.2"/>
    </g>
    <g style="opacity:.5;filter:url(#filter-5)">
      <path d="M204.1 51.2l-92.5 59.2h-.1v.1l-.1.1-57.7 95.3 84.8-68.3.1-.1v-.1z" style="opacity:5.000000e-02"/>
    </g>
    <path d="M202.4 45.6l-91.4 65 27.1 26.9 64.3-91.9" style="fill:#cd151e"/>
    <path d="M111 110.4l13.7 13.5 77.7-78.3-91.4 64.8z" style="fill:#fa5153"/>
    <path d="M111 110.4l27.1 26.9-91.5 65 64.4-91.9z" style="fill:#acacac"/>
    <path d="M46.7 202.4l78-78.5-13.7-13.5-64.3 92z" style="fill:#eee"/>
  </g>
</svg>
