<svg width="50" height="59" viewBox="0 0 50 59" fill="none" xmlns="http://www.w3.org/2000/svg">
<path fill-rule="evenodd" clip-rule="evenodd" d="M47.6902 13.9845L49.0322 10.6287C49.0322 10.6287 47.3243 8.76434 45.2504 6.65141C43.1764 4.53848 38.7846 5.78138 38.7846 5.78138L33.7829 3.05176e-05H24.9993H16.2157L11.2139 5.78138C11.2139 5.78138 6.82211 4.53848 4.74821 6.65141C2.6743 8.76434 0.966378 10.6287 0.966378 10.6287L2.30832 13.9845L0.600395 18.9561C0.600395 18.9561 5.62352 38.3398 6.21214 40.7069C7.37109 45.3678 8.16405 47.17 11.4579 49.5315C14.7517 51.893 20.7295 55.9945 21.7054 56.616C22.6814 57.2374 23.9013 58.296 24.9993 58.296C26.0972 58.296 27.3172 57.2374 28.2931 56.616C29.2691 55.9945 35.2468 51.893 38.5407 49.5315C41.8345 47.17 42.6275 45.3678 43.7864 40.7069C44.3749 38.3398 49.3982 18.9561 49.3982 18.9561L47.6902 13.9845Z" fill="url(#paint0_linear)"/>
<path fill-rule="evenodd" clip-rule="evenodd" d="M24.9993 36.2786C25.3336 36.2786 27.4761 37.0492 29.1954 37.9555C30.9145 38.862 32.1604 39.5029 32.5588 39.7568C32.957 40.0109 32.7141 40.4898 32.3514 40.751C31.9886 41.0123 27.1135 44.8583 26.6404 45.2834C26.1672 45.7086 25.472 46.4107 24.9993 46.4107C24.5265 46.4107 23.8312 45.7086 23.3581 45.2834C22.8848 44.8583 18.01 41.0123 17.6471 40.751C17.2843 40.4898 17.0416 40.0109 17.4397 39.7568C17.8381 39.5029 19.084 38.862 20.8033 37.9555C22.5223 37.0492 24.6649 36.2786 24.9993 36.2786ZM25.0254 8.88554C25.1896 8.89019 26.1147 8.93598 27.4392 9.38579C28.9031 9.88295 30.489 10.5044 31.221 10.5044C31.953 10.5044 37.3817 9.44793 37.3817 9.44793C37.3817 9.44793 43.8152 17.3714 43.8152 19.0649C43.8152 20.7583 43.0059 21.2053 42.1922 22.0856C41.3785 22.966 37.8247 26.8108 37.3683 27.3044C36.9119 27.7982 35.9618 28.5468 36.5207 29.8943C37.0795 31.2417 37.904 32.9563 36.9872 34.6953C36.0703 36.4344 34.4996 37.5951 33.4931 37.4032C32.4867 37.2112 30.123 35.9528 29.2538 35.3779C28.3846 34.8031 25.6297 32.4883 25.6297 31.6026C25.6297 30.7171 28.4775 29.1269 29.0035 28.7656C29.5298 28.4044 31.9294 27.006 31.9786 26.4571C32.0276 25.9082 32.009 25.7472 31.3008 24.3909C30.5926 23.0346 29.3173 21.2247 29.5295 20.0204C29.7418 18.8163 31.7986 18.1901 33.2665 17.6253C34.7341 17.0607 37.5601 15.9942 37.913 15.8284C38.2662 15.6624 38.1749 15.5045 37.1054 15.4012C36.0361 15.2979 33.0014 14.8875 31.6332 15.276C30.265 15.6645 27.9276 16.2557 27.7383 16.5691C27.549 16.8826 27.382 16.8932 27.5764 17.9745C27.7707 19.0558 28.7718 24.2444 28.8689 25.166C28.9662 26.0876 29.1562 26.6969 28.1809 26.9241C27.2054 27.1513 25.5635 27.5458 24.9993 27.5458C24.4351 27.5458 22.793 27.1513 21.8177 26.9241C20.8422 26.6969 21.0323 26.0876 21.1295 25.166C21.2267 24.2444 22.2277 19.0558 22.4221 17.9745C22.6165 16.8932 22.4495 16.8826 22.2603 16.5691C22.0709 16.2557 19.7334 15.6645 18.3652 15.276C16.9971 14.8875 13.9624 15.2979 12.893 15.4012C11.8236 15.5045 11.7324 15.6624 12.0854 15.8284C12.4385 15.9942 15.2645 17.0607 16.7321 17.6253C18.1998 18.1901 20.2567 18.8163 20.469 20.0204C20.6813 21.2247 19.4058 23.0346 18.6978 24.3909C17.9896 25.7472 17.9708 25.9082 18.02 26.4571C18.069 27.006 20.4688 28.4044 20.9949 28.7656C21.5211 29.1269 24.3687 30.7171 24.3687 31.6026C24.3687 32.4883 21.6139 34.8031 20.7447 35.3779C19.8755 35.9528 17.5119 37.2112 16.5054 37.4032C15.499 37.5951 13.9283 36.4344 13.0114 34.6953C12.0946 32.9563 12.919 31.2417 13.4778 29.8943C14.0366 28.5468 13.0866 27.7982 12.6301 27.3044C12.1739 26.8108 8.61994 22.966 7.80624 22.0856C6.99254 21.2053 6.18335 20.7583 6.18335 19.0649C6.18335 17.3714 12.6168 9.44793 12.6168 9.44793C12.6168 9.44793 18.0456 10.5044 18.7776 10.5044C19.5095 10.5044 21.0955 9.88295 22.5594 9.38579C23.8839 8.93598 24.809 8.89019 24.9731 8.88554H25.0254Z" fill="white"/>
<mask id="mask0" mask-type="alpha" maskUnits="userSpaceOnUse" x="4" y="0" width="42" height="11">
<path d="M38.7846 5.78138L33.7829 3.05176e-05H24.9993H16.2157L11.2139 5.78138C11.2139 5.78138 6.82211 4.53848 4.74821 6.65141C4.74821 6.65141 10.6039 6.11286 12.6168 9.44794C12.6168 9.44794 18.0456 10.5044 18.7776 10.5044C19.5095 10.5044 21.0955 9.88295 22.5594 9.38579C24.0233 8.88863 24.9993 8.88503 24.9993 8.88503C24.9993 8.88503 25.9752 8.88863 27.4392 9.38579C28.9031 9.88295 30.489 10.5044 31.221 10.5044C31.953 10.5044 37.3817 9.44794 37.3817 9.44794C39.3946 6.11286 45.2504 6.65141 45.2504 6.65141C43.1764 4.53848 38.7846 5.78138 38.7846 5.78138Z" fill="white"/>
</mask>
<g mask="url(#mask0)">
<path d="M38.7846 5.78138L33.7829 3.05176e-05H24.9993H16.2157L11.2139 5.78138C11.2139 5.78138 6.82211 4.53848 4.74821 6.65141C4.74821 6.65141 10.6039 6.11286 12.6168 9.44794C12.6168 9.44794 18.0456 10.5044 18.7776 10.5044C19.5095 10.5044 21.0955 9.88295 22.5594 9.38579C24.0233 8.88863 24.9993 8.88503 24.9993 8.88503C24.9993 8.88503 25.9752 8.88863 27.4392 9.38579C28.9031 9.88295 30.489 10.5044 31.221 10.5044C31.953 10.5044 37.3817 9.44794 37.3817 9.44794C39.3946 6.11286 45.2504 6.65141 45.2504 6.65141C43.1764 4.53848 38.7846 5.78138 38.7846 5.78138Z" fill="url(#paint1_linear)"/>
</g>
<defs>
<linearGradient id="paint0_linear" x1="0.600395" y1="29.5593" x2="49.3982" y2="29.5593" gradientUnits="userSpaceOnUse">
<stop stop-color="#FF5500"/>
<stop offset="0.409877" stop-color="#FF5500"/>
<stop offset="0.581981" stop-color="#FF2000"/>
<stop offset="1" stop-color="#FF2000"/>
</linearGradient>
<linearGradient id="paint1_linear" x1="5.61837" y1="5.32633" x2="45.2504" y2="5.32633" gradientUnits="userSpaceOnUse">
<stop stop-color="#FF452A"/>
<stop offset="1" stop-color="#FF2000"/>
</linearGradient>
</defs>
</svg>
