<svg width="79" height="80" fill="none" xmlns="http://www.w3.org/2000/svg">
  <path d="M75.616 26.827c-1.684-4.052-5.1-8.427-7.775-9.81a40.265 40.265 0 013.925 11.764l.007.065C67.391 17.92 59.96 13.516 53.891 3.924a47.099 47.099 0 01-.913-1.484 12.24 12.24 0 01-.427-.8 7.053 7.053 0 01-.578-1.535.1.1 0 00-.088-.1.138.138 0 00-.073 0c-.005 0-.013.009-.019.01l-.028.016.015-.026c-9.735 5.7-13.038 16.252-13.342 21.53a19.388 19.388 0 00-10.666 4.11 11.59 11.59 0 00-1-.757 17.969 17.969 0 01-.109-9.473 28.705 28.705 0 00-9.329 7.21h-.018c-1.536-1.947-1.428-8.367-1.34-9.708a6.925 6.925 0 00-1.294.687 28.226 28.226 0 00-3.788 3.245 33.843 33.843 0 00-3.623 4.347v.006-.007a32.733 32.733 0 00-5.2 11.743l-.052.256a61.89 61.89 0 00-.381 2.42c0 .029-.006.056-.009.085-.34 1.763-.55 3.549-.629 5.343v.2a38.76 38.76 0 0076.954 6.554c.065-.5.118-.995.176-1.5a39.856 39.856 0 00-2.514-19.47zm-44.67 30.338c.181.087.351.18.537.264l.027.017c-.188-.09-.376-.184-.564-.281zm40.83-28.31v-.037l.007.04-.007-.003z" fill="url(#paint0_linear)"/>
  <path d="M75.616 26.827c-1.684-4.052-5.1-8.427-7.775-9.81a40.265 40.265 0 013.925 11.764v.037l.007.04a35.1 35.1 0 01-1.206 26.159c-4.442 9.53-15.194 19.3-32.024 18.825-18.185-.515-34.2-14.01-37.194-31.683-.545-2.787 0-4.2.274-6.465A28.876 28.876 0 001 41.042v.2a38.76 38.76 0 0076.954 6.554c.065-.5.118-.995.176-1.5a39.856 39.856 0 00-2.514-19.47z" fill="url(#paint1_radial)"/>
  <path d="M75.616 26.827c-1.684-4.052-5.1-8.427-7.775-9.81a40.265 40.265 0 013.925 11.764v.037l.007.04a35.1 35.1 0 01-1.206 26.159c-4.442 9.53-15.194 19.3-32.024 18.825-18.185-.515-34.2-14.01-37.194-31.683-.545-2.787 0-4.2.274-6.465A28.876 28.876 0 001 41.042v.2a38.76 38.76 0 0076.954 6.554c.065-.5.118-.995.176-1.5a39.856 39.856 0 00-2.514-19.47z" fill="url(#paint2_radial)"/>
  <path d="M56.782 31.383c.084.059.162.118.241.177a21.104 21.104 0 00-3.6-4.695C41.377 14.817 50.266.742 51.765.027l.015-.022c-9.735 5.7-13.038 16.252-13.342 21.53.452-.031.9-.07 1.362-.07a19.56 19.56 0 0116.982 9.918z" fill="url(#paint3_radial)"/>
  <path d="M39.825 33.789c-.064.964-3.47 4.289-4.661 4.289-11.021 0-12.81 6.667-12.81 6.667.488 5.614 4.4 10.238 9.129 12.684.216.112.435.213.654.312.38.168.759.323 1.138.466 1.623.574 3.323.902 5.043.973 19.317.906 23.059-23.1 9.119-30.066a13.38 13.38 0 019.345 2.269A19.56 19.56 0 0039.8 21.466c-.46 0-.91.038-1.362.069a19.387 19.387 0 00-10.666 4.11c.591.5 1.258 1.169 2.663 2.554 2.63 2.59 9.375 5.275 9.39 5.59z" fill="url(#paint4_radial)"/>
  <path d="M39.825 33.789c-.064.964-3.47 4.289-4.661 4.289-11.021 0-12.81 6.667-12.81 6.667.488 5.614 4.4 10.238 9.129 12.684.216.112.435.213.654.312.38.168.759.323 1.138.466 1.623.574 3.323.902 5.043.973 19.317.906 23.059-23.1 9.119-30.066a13.38 13.38 0 019.345 2.269A19.56 19.56 0 0039.8 21.466c-.46 0-.91.038-1.362.069a19.387 19.387 0 00-10.666 4.11c.591.5 1.258 1.169 2.663 2.554 2.63 2.59 9.375 5.275 9.39 5.59z" fill="url(#paint5_radial)"/>
  <path d="M25.965 24.357c.314.2.573.374.8.53a17.969 17.969 0 01-.109-9.472 28.707 28.707 0 00-9.329 7.21c.189-.005 5.811-.106 8.638 1.732z" fill="url(#paint6_radial)"/>
  <path d="M1.354 42.159c2.991 17.674 19.009 31.168 37.194 31.683 16.83.476 27.582-9.294 32.024-18.825a35.1 35.1 0 001.206-26.158v-.037c0-.03-.006-.046 0-.037l.007.065c1.375 8.977-3.191 17.674-10.329 23.555l-.022.05c-13.908 11.327-27.218 6.834-29.912 5-.188-.09-.376-.184-.564-.281-8.109-3.876-11.459-11.264-10.741-17.6a9.953 9.953 0 01-9.181-5.775 14.618 14.618 0 0114.249-.572 19.3 19.3 0 0014.552.572c-.015-.315-6.76-3-9.39-5.59-1.405-1.385-2.072-2.052-2.663-2.553a11.59 11.59 0 00-1-.758c-.23-.157-.489-.327-.8-.531-2.827-1.838-8.449-1.737-8.635-1.732h-.018c-1.536-1.947-1.428-8.367-1.34-9.708a6.925 6.925 0 00-1.294.687 28.226 28.226 0 00-3.788 3.245 33.849 33.849 0 00-3.638 4.337v.006-.007a32.733 32.733 0 00-5.2 11.743c-.019.079-1.396 6.099-.717 9.22z" fill="url(#paint7_radial)"/>
  <path d="M53.425 26.865a21.098 21.098 0 013.6 4.7c.213.16.412.32.581.476 8.787 8.1 4.183 19.55 3.84 20.365 7.138-5.881 11.7-14.578 10.329-23.555C67.391 17.92 59.96 13.516 53.891 3.924a47.099 47.099 0 01-.913-1.484 12.24 12.24 0 01-.427-.8 7.053 7.053 0 01-.578-1.535.1.1 0 00-.088-.1.138.138 0 00-.073 0c-.005 0-.013.009-.019.01l-.028.016c-1.499.71-10.388 14.786 1.66 26.834z" fill="url(#paint8_radial)"/>
  <path d="M57.6 32.036a8.083 8.083 0 00-.581-.476c-.079-.06-.157-.118-.241-.177a13.38 13.38 0 00-9.345-2.27c13.94 6.97 10.2 30.973-9.119 30.067-1.72-.07-3.42-.399-5.043-.973-.38-.142-.759-.297-1.138-.466-.219-.1-.438-.2-.654-.312l.027.017c2.694 1.839 16 6.332 29.912-5l.022-.05c.347-.81 4.951-12.263-3.84-20.36z" fill="url(#paint9_radial)"/>
  <path d="M22.354 44.745s1.789-6.667 12.81-6.667c1.191 0 4.6-3.325 4.661-4.29a19.3 19.3 0 01-14.552-.571 14.619 14.619 0 00-14.249.572 9.953 9.953 0 009.181 5.775c-.718 6.337 2.632 13.725 10.741 17.6.181.087.351.18.537.264-4.733-2.445-8.641-7.07-9.129-12.683z" fill="url(#paint10_radial)"/>
  <path d="M75.616 26.827c-1.684-4.052-5.1-8.427-7.775-9.81a40.265 40.265 0 013.925 11.764l.007.065C67.391 17.92 59.96 13.516 53.891 3.924a47.099 47.099 0 01-.913-1.484 12.24 12.24 0 01-.427-.8 7.053 7.053 0 01-.578-1.535.1.1 0 00-.088-.1.138.138 0 00-.073 0c-.005 0-.013.009-.019.01l-.028.016.015-.026c-9.735 5.7-13.038 16.252-13.342 21.53.452-.031.9-.07 1.362-.07a19.56 19.56 0 0116.982 9.918 13.38 13.38 0 00-9.345-2.27c13.94 6.97 10.2 30.973-9.119 30.067-1.72-.07-3.42-.399-5.043-.973-.38-.142-.759-.297-1.138-.466-.219-.1-.438-.2-.654-.312l.027.017c-.188-.09-.376-.184-.564-.281.181.087.351.18.537.264-4.733-2.446-8.641-7.07-9.129-12.684 0 0 1.789-6.667 12.81-6.667 1.191 0 4.6-3.325 4.661-4.29-.015-.314-6.76-3-9.39-5.59-1.405-1.384-2.072-2.051-2.663-2.552a11.59 11.59 0 00-1-.758 17.969 17.969 0 01-.109-9.473 28.705 28.705 0 00-9.329 7.21h-.018c-1.536-1.947-1.428-8.367-1.34-9.708a6.925 6.925 0 00-1.294.687 28.226 28.226 0 00-3.788 3.245 33.843 33.843 0 00-3.623 4.347v.006-.007a32.733 32.733 0 00-5.2 11.743l-.052.256c-.073.34-.4 2.073-.447 2.445 0 .028 0-.03 0 0-.3 1.788-.49 3.592-.572 5.403v.2a38.76 38.76 0 0076.954 6.554c.065-.5.118-.995.176-1.5a39.856 39.856 0 00-2.514-19.47zm-3.845 1.99l.007.042-.007-.041z" fill="url(#paint11_linear)"/>
  <defs>
    <radialGradient id="paint1_radial" cx="0" cy="0" r="1" gradientUnits="userSpaceOnUse" gradientTransform="translate(67.513 8.875) scale(80.797)">
      <stop offset=".129" stop-color="#FFBD4F"/>
      <stop offset=".186" stop-color="#FFAC31"/>
      <stop offset=".247" stop-color="#FF9D17"/>
      <stop offset=".283" stop-color="#FF980E"/>
      <stop offset=".403" stop-color="#FF563B"/>
      <stop offset=".467" stop-color="#FF3750"/>
      <stop offset=".71" stop-color="#F5156C"/>
      <stop offset=".782" stop-color="#EB0878"/>
      <stop offset=".86" stop-color="#E50080"/>
    </radialGradient>
    <radialGradient id="paint2_radial" cx="0" cy="0" r="1" gradientUnits="userSpaceOnUse" gradientTransform="translate(37.99 41.907) scale(80.797)">
      <stop offset=".3" stop-color="#960E18"/>
      <stop offset=".351" stop-color="#B11927" stop-opacity=".74"/>
      <stop offset=".435" stop-color="#DB293D" stop-opacity=".343"/>
      <stop offset=".497" stop-color="#F5334B" stop-opacity=".094"/>
      <stop offset=".53" stop-color="#FF3750" stop-opacity="0"/>
    </radialGradient>
    <radialGradient id="paint3_radial" cx="0" cy="0" r="1" gradientUnits="userSpaceOnUse" gradientTransform="translate(47.73 -9.461) scale(58.534)">
      <stop offset=".132" stop-color="#FFF44F"/>
      <stop offset=".252" stop-color="#FFDC3E"/>
      <stop offset=".506" stop-color="#FF9D12"/>
      <stop offset=".526" stop-color="#FF980E"/>
    </radialGradient>
    <radialGradient id="paint4_radial" cx="0" cy="0" r="1" gradientUnits="userSpaceOnUse" gradientTransform="translate(29.052 63.011) scale(38.471)">
      <stop offset=".353" stop-color="#3A8EE6"/>
      <stop offset=".472" stop-color="#5C79F0"/>
      <stop offset=".669" stop-color="#9059FF"/>
      <stop offset="1" stop-color="#C139E6"/>
    </radialGradient>
    <radialGradient id="paint5_radial" cx="0" cy="0" r="1" gradientUnits="userSpaceOnUse" gradientTransform="rotate(-13.592 169.25 -160.274) scale(20.3971 23.8799)">
      <stop offset=".206" stop-color="#9059FF" stop-opacity="0"/>
      <stop offset=".278" stop-color="#8C4FF3" stop-opacity=".064"/>
      <stop offset=".747" stop-color="#7716A8" stop-opacity=".45"/>
      <stop offset=".975" stop-color="#6E008B" stop-opacity=".6"/>
    </radialGradient>
    <radialGradient id="paint6_radial" cx="0" cy="0" r="1" gradientUnits="userSpaceOnUse" gradientTransform="translate(36.969 5.57) scale(27.676)">
      <stop stop-color="#FFE226"/>
      <stop offset=".121" stop-color="#FFDB27"/>
      <stop offset=".295" stop-color="#FFC82A"/>
      <stop offset=".502" stop-color="#FFA930"/>
      <stop offset=".732" stop-color="#FF7E37"/>
      <stop offset=".792" stop-color="#FF7139"/>
    </radialGradient>
    <radialGradient id="paint7_radial" cx="0" cy="0" r="1" gradientUnits="userSpaceOnUse" gradientTransform="translate(58.723 -11.986) scale(118.081)">
      <stop offset=".113" stop-color="#FFF44F"/>
      <stop offset=".456" stop-color="#FF980E"/>
      <stop offset=".622" stop-color="#FF5634"/>
      <stop offset=".716" stop-color="#FF3647"/>
      <stop offset=".904" stop-color="#E31587"/>
    </radialGradient>
    <radialGradient id="paint8_radial" cx="0" cy="0" r="1" gradientUnits="userSpaceOnUse" gradientTransform="matrix(9.0824 86.0665 -56.48466 5.9607 48.77 -5.42)">
      <stop stop-color="#FFF44F"/>
      <stop offset=".06" stop-color="#FFE847"/>
      <stop offset=".168" stop-color="#FFC830"/>
      <stop offset=".304" stop-color="#FF980E"/>
      <stop offset=".356" stop-color="#FF8B16"/>
      <stop offset=".455" stop-color="#FF672A"/>
      <stop offset=".57" stop-color="#FF3647"/>
      <stop offset=".737" stop-color="#E31587"/>
    </radialGradient>
    <radialGradient id="paint9_radial" cx="0" cy="0" r="1" gradientUnits="userSpaceOnUse" gradientTransform="translate(36.317 15.82) scale(73.72)">
      <stop offset=".137" stop-color="#FFF44F"/>
      <stop offset=".48" stop-color="#FF980E"/>
      <stop offset=".592" stop-color="#FF5634"/>
      <stop offset=".655" stop-color="#FF3647"/>
      <stop offset=".904" stop-color="#E31587"/>
    </radialGradient>
    <radialGradient id="paint10_radial" cx="0" cy="0" r="1" gradientUnits="userSpaceOnUse" gradientTransform="translate(55.777 20.135) scale(80.686)">
      <stop offset=".094" stop-color="#FFF44F"/>
      <stop offset=".231" stop-color="#FFE141"/>
      <stop offset=".509" stop-color="#FFAF1E"/>
      <stop offset=".626" stop-color="#FF980E"/>
    </radialGradient>
    <linearGradient id="paint0_linear" x1="70.486" y1="12.389" x2="6.147" y2="74.464" gradientUnits="userSpaceOnUse">
      <stop offset=".048" stop-color="#FFF44F"/>
      <stop offset=".111" stop-color="#FFE847"/>
      <stop offset=".225" stop-color="#FFC830"/>
      <stop offset=".368" stop-color="#FF980E"/>
      <stop offset=".401" stop-color="#FF8B16"/>
      <stop offset=".462" stop-color="#FF672A"/>
      <stop offset=".534" stop-color="#FF3647"/>
      <stop offset=".705" stop-color="#E31587"/>
    </linearGradient>
    <linearGradient id="paint11_linear" x1="69.713" y1="12.057" x2="14.967" y2="66.802" gradientUnits="userSpaceOnUse">
      <stop offset=".167" stop-color="#FFF44F" stop-opacity=".8"/>
      <stop offset=".266" stop-color="#FFF44F" stop-opacity=".634"/>
      <stop offset=".489" stop-color="#FFF44F" stop-opacity=".217"/>
      <stop offset=".6" stop-color="#FFF44F" stop-opacity="0"/>
    </linearGradient>
  </defs>
</svg>
