<svg xmlns="http://www.w3.org/2000/svg" viewBox="0 0 222 218">
  <path fill="#1ebbee" d="M219 114c0-17-5-33-12-46 32-75-36-64-39-63a173 173 0 0 0-40 13h-6c-46 0-84 32-94 75 24-27 41-38 51-43a230 230 0 0 0-4 5l-2 1-3 3-2 2-2 2-2 3a240 240 0 0 0-14 16l-2 2-1 2-2 3-2 1a299 299 0 0 0-12 19l-1 1-2 3v1a217 217 0 0 0-18 36c-28 98 58 57 70 51a97 97 0 0 0 133-54h-51a45 45 0 0 1-38 21c-24 0-44-19-44-41h138l1-13zm-18-95c8 6 15 15 3 44a97 97 0 0 0-47-39c9-4 31-13 44-5zM24 201c-7-7-8-24 7-55a97 97 0 0 0 42 51c-10 6-35 18-49 4zm56-101c0-22 20-39 43-39a43 43 0 0 1 44 39H80z"/>
</svg>
